<mxfile host="app.diagrams.net" modified="2021-08-23T10:05:30.529Z" agent="5.0 (X11; Linux x86_64) AppleWebKit/537.36 (KHTML, like Gecko) Chrome/93.0.4577.42 Safari/537.36 Edg/93.0.961.24" etag="SZY9tWBSdVj4Izfefe-z" version="14.9.8" type="github">
  <diagram id="Now0JI8XWakYuEt7LE6Z" name="Page-1">
    <mxGraphModel dx="2200" dy="774" grid="1" gridSize="10" guides="1" tooltips="1" connect="1" arrows="1" fold="1" page="1" pageScale="1" pageWidth="850" pageHeight="1100" math="0" shadow="0">
      <root>
        <mxCell id="0" />
        <mxCell id="1" parent="0" />
        <mxCell id="b_tqEsNjGLbBsoasMbn9-26" value="" style="shape=image;imageAspect=0;aspect=fixed;verticalLabelPosition=bottom;verticalAlign=top;strokeWidth=2;fillColor=none;gradientDirection=south;image=data:image/png,iVBORw0KGgoAAAANSUhEUgAABAYAAATKCAYAAADCcGYWAAAMHGlDQ1BpY2MAAHjalVdnVBSHFv6m7C5l6UVAytKbIL2I9C4ISIdYWHYXWMqyLLuo2I0hCsYuFqxoVMSosQASC6IGWxDsPahBJRKDBRsq78cumOS9c97JPWdmvnPnu/d+986cOXMBDQ+uWFxIagJFIqkkMTKEk56RyWE9BAECFEbAj8srFQcnJMQCwND17/bmOggAuOLEFYsL8e9Miy8o5QFEAoBsfimvCCAOAbQRTyyRAowOAJZTpWIpwHgNQFeSnpEJMJUA6ObKsTEA3Ww5dgGgK0lODAWYYYASm8uV5ALqCQA4ZbxcKaAuBuAi4gtFgPoWAAG8PC4fUO8CMKqoqJgPaLAB2GX/JU/u33JmD+fkcnOHsbwXAIBSmLBUXMid/i/H8f+tqFA2VMMCADtPEpUIQBcgdhUUxyQCYAPEUVF2XDwAbYA4K+QDCnw7TxaVouD38kpDMwHoAyT43LAYAMYAqS8rSAlWYDeuBJDzyTihNDpZgbMlxYmK/GSZqDAuVpFnYZ4geghvEpSGJw1xcoQR0QA0AfJQeV5ymlwnebpMmBoHQB0gO0oLkmIUsffL80LjhjgSWWIKACuAfJ0jiUiUcyiDotKhvihnHjc8CYABQAVJ85Kj5LFUuqA0PXZIA18QFi7XQPEFohSFNkoqloYkKmIrxIUJCj61SVAYmSifM7W/tCxpKPayVJKsmDn1MJ87LkGun3ojliYky7XRNGIRijBwIAMH2ShGPoTtvY294CjuRIALCXIhgJPCMxSRBi4kEIGLJJTjD4ggQOlwXAi4kECAMojwadgrPzshB1xIUAYBSlGAx5CgiDaiA2g/OpYOoIPoANqN9qF9h+I4GkNVmeHMMGYUM4JpP6yDh2IUohgSCP+HLwaFEEAGCQQQDfXwJR/jMaOT8ZBxjdHFuIVU/AYJhEOsKcL5kn8o52A8uiBTTEWAbIjQM8ShbWg32pMOof3pANoXHFqfNoIT7UH70MF0IO1He9K+f1MoG9b2ZZb/rCeA6G/9KPzqDuqeChXZw08mdJj1zyyhf5kRH8WI+SeTWkgdpNqok9Q56ijVCA51gmqiLlLHqMa/vAm/QYLc4WqJEECEAhRCOMRxqXfpcfn4X9W5CgUSCFAKSAXTpAAQWiyeLhHm5kk5wWJxoYATLeI5j+K4ubj6AOkZmRz55+OVPggAhP75L76SFsC3EiByv/i4lsCRx4DOmy8+y5cAexlwrIMnk5TJfTQAMKACDejCEKawhB2c4AYv+CEI4RiHeCQjA5PBQx6KIMFUzMQ8VKAKy7Aa67EZ27ALP+AAGnEUJ/EzLqAD13AHXejGM/ThDQYIgmARaoQOYUiYEdaEI+FG+BABRDgRSyQSGUQWkUuICBkxk/iaqCJWEOuJrUQd8SNxhDhJnCM6iVvEA6KHeEl8ICmSTeqSJqQNOZr0IYPJGDKZnETmkiVkObmAXEKuJWvJPWQDeZK8QF4ju8hnZD8FSpXSp8wpJ8qHCqXiqUwqh5JQs6lKqpqqpfZSzVQbdYXqonqp9zST1qE5tBPtR0fRKTSPLqFn04vp9fQuuoE+TV+hH9B99GeGGsOY4cgYw4hmpDNyGVMZFYxqxg7GYcYZxjVGN+MNk8nUZ9oyvZlRzAxmPnMGczFzI3Mfs4XZyXzE7GexWIYsR5Y/K57FZUlZFax1rD2sE6zLrG7WOyVVJTMlN6UIpUwlkdJ8pWql3UrHlS4rPVEaUNZUtlYeoxyvzFeerrxUebtys/Il5W7lARUtFVsVf5VklXyVeSprVfaqnFG5q/JKVVXVQtVXdYKqUHWu6lrV/apnVR+ovmdrsx3YoeyJbBl7CXsnu4V9i/1KTU3NRi1ILVNNqrZErU7tlNp9tXfqOurO6tHqfPU56jXqDeqX1Z9rKGtYawRrTNYo16jWOKhxSaNXU1nTRjNUk6s5W7NG84jmDc1+LR0tV614rSKtxVq7tc5pPdVmadtoh2vztRdob9M+pf1Ih9Kx1AnV4el8rbNd54xOty5T11Y3Wjdft0r3B9123T49bT0PvVS9aXo1esf0uvQpfRv9aP1C/aX6B/Sv638YYTIieIRgxKIRe0dcHvHWYKRBkIHAoNJgn8E1gw+GHMNwwwLD5YaNhveMaCMHowlGU402GZ0x6h2pO9JvJG9k5cgDI28bk8YOxonGM4y3GV807jcxNYk0EZusMzll0muqbxpkmm+6yvS4aY+ZjlmAmdBsldkJs985epxgTiFnLec0p8/c2DzKXGa+1bzdfMDC1iLFYr7FPot7liqWPpY5lqssWy37rMysxlvNtKq3um2tbO1jnWe9xrrN+q2NrU2azbc2jTZPbQ1so23Lbett79qp2QXaldjV2l21Z9r72BfYb7TvcCAdPB3yHGocLjmSjl6OQseNjp2jGKN8R4lG1Y664cR2CnYqc6p3euCs7xzrPN+50fn5aKvRmaOXj24b/dnF06XQZbvLHVdt13Gu812bXV+6Objx3GrcrrqruUe4z3Fvcn/h4egh8NjkcdNTx3O857eerZ6fvLy9JF57vXq8rbyzvDd43/DR9UnwWexz1pfhG+I7x/eo7/sxXmOkYw6M+dPPya/Ab7ff07G2YwVjt4995G/hz/Xf6t8VwAnICtgS0BVoHsgNrA18GGQZxA/aEfQk2D44P3hP8PMQlxBJyOGQt6FjQmeFtoRRYZFhlWHt4drhKeHrw+9HWETkRtRH9EV6Rs6IbIliRMVELY+6EW0SzYuui+4b5z1u1rjTMeyYpJj1MQ9jHWIlsc3jyfHjxq8cfzfOOk4U1xiP+Oj4lfH3EmwTShJ+msCckDChZsLjRNfEmYltSTpJU5J2J71JDklemnwnxS5FltKaqpE6MbUu9W1aWNqKtK700emz0i9kGGUIM5oyWZmpmTsy+78K/2r1V90TPSdWTLw+yXbStEnnJhtNLpx8bIrGFO6Ug1mMrLSs3VkfufHcWm5/dnT2huw+XihvDe8ZP4i/it8j8BesEDzJ8c9ZkfM01z93ZW5PXmBedV6vMFS4XvgiPyp/c/7bgviCnQWDhWmF+4qUirKKjoi0RQWi08WmxdOKO8WO4gpxV8mYktUlfZIYyY5SonRSaZNUVyqWXpTZyb6RPSgLKKspezc1derBaVrTRNMuTneYvmj6k/KI8u9n0DN4M1pnms+cN/PBrOBZW2cTs7Nnt86xnLNgTvfcyLm75qnMK5j3y3yX+Svmv/467evmBSYL5i549E3kN/UV6hWSihvf+n27eSG9ULiwfZH7onWLPlfyK89XuVRVV31czFt8/jvX79Z+N7gkZ0n7Uq+lm5Yxl4mWXV8euHzXCq0V5SserRy/smEVZ1Xlqterp6w+V+1RvXmNyhrZmq61sWub1lmtW7bu4/q89ddqQmr2bTDesGjD2438jZc3BW3au9lkc9XmD1uEW25ujdzaUGtTW72Nua1s2+Ptqdvbvvf5vm6H0Y6qHZ92inZ27UrcdbrOu65ut/HupfVkvay+Z8/EPR0/hP3QtNdp79Z9+vuq9mO/bP/vP2b9eP1AzIHWgz4H9x6yPrThsM7hygaiYXpDX2NeY1dTRlPnkXFHWpv9mg//5PzTzqPmR2uO6R1belzl+ILjgyfKT/S3iFt6T+aefNQ6pfXOqfRTV09PON1+JubM2Z8jfj7VFtx24qz/2aPnxpw7ct7nfOMFrwsNFz0vHv7F85fD7V7tDZe8LzV1+HY0d47tPH458PLJK2FXfr4affXCtbhrnddTrt+8MfFG103+zae3Cm+9uF12e+DO3LuMu5X3NO9V3ze+X/ur/a/7ury6jj0Ie3DxYdLDO494j579Vvrbx+4Fj9UeVz8xe1L31O3p0Z6Ino7fv/q9+5n42UBvxR9af2x4bvf80J9Bf17sS+/rfiF5Mfhy8SvDVztfe7xu7U/ov/+m6M3A28p3hu92vfd53/Yh7cOTgakfWR/XfrL/1Pw55vPdwaLBQTFXwgUAUADInBzg5U5ALQPQ6QBU1OX7FwCAkO+MgPwf5H9j+Y4GAPACdgYBKXOB2BZgUwtgPRdgtwAJAJKDQLq7Dx8KK81xd5PnYksAxrvBwVcmAKsZ+CQZHBzYODj4aTtA3QJaSuR7HwAwNYEtzgDQ0f38v/av/wBCx21tLI+ClQAAACBjSFJNAAB6JgAAgIQAAPoAAACA6AAAdTAAAOpgAAA6mAAAF3CculE8AAAABmJLR0QA/wD/AP+gvaeTAAAACXBIWXMAABYlAAAWJQFJUiTwAAAAB3RJTUUH5QUeFQgtZZA4qwAAgABJREFUeNrs3XdUVMffBvBnYYGlShELFlBQEQUsWGMBu0aCxmjsURNrEjW+iT0aTWKNsfxiT+waW6LYG6Jgwa4gVizErigIKAss7PsHtuXebbCwlOdzjidh7szcmdld2Pu9M3MlSqVSCaLiLPEiguz9sEOZkatq7IZswv3F3WBr7P4QERERERHpwcTYDSAyOrvyaOFvk6sqrPsswi0GBYiIiIiIqBBiYIAIMtjZmea4dKvxm3BvzVCUNHY3iIiIiIiIcoCBASLYIGDw13qXMmsxEBsi7uDgr93gYOwuEBERERER5ZCEewwQZXl27TQOHDiAsDPncHJdMKKg+tEw9fFHj4YN0aR5MzT/qAE8XR2N3WQiIiIi0pX8Ec5f+g/p2dPNrFCyTHm4u+T8Vo88/j/cvPMIrwWVW6GCV3W42EqN3XsijRgYICIiIiKiok1+HYOsvbE8M11tFus+i3BzxVCU1fMa/u7eaajUYYLa4xKzQIQ9CUYTB4mxR4FILS4lICIiIiKiIi3lzkWNQQEAeLV2GL5YfFa/ihPPoP/HP2rMokzfiYs3Xxh7CIg0YmCAiIiIiIiKNKmlA/wl2i99QsasxW2F7vXG7FyNI8pMHRpg7BEg0oyBASIiIiIiKtJSnv8negHvDdXp/ZkpC7An8rmOtcZh91/rVJNMvI3dVaIcYWCAiIiIiIiKNjPx5CgoBcGBlf+c0qnK9JhwjAx9+T7BxBvIjAIgDDgQFXQMDBARERERUbGV/UlUF35bjwty7fuzn/tnmcrPJjWuqK2TqKDjahciIiIiIip+TLwxaHgtLJu3ViVZmbYB/56cidoB5dWXTb+BFeNDVJIyozIQEBSA0ODQHDVHkfQIJ0MPYG9oCCIOX0JcZBSiTGrCp6YTfBo2RNPWrdC2ZTO4OpiprUP+7DIOHDyLR0mpAADbstXRukMzOEsBQI6rh3dj7aZ12B1xG5GXlVl1NwpAp15d8XHT6pCptgixUeHY/vcmhEZE4HZoJCQ+3qjs2wGden6GT9vVha1+HcS1cydw5EAYjp+LQOSdOERGRsLExwfeTm5o4FsXjQM+QpNGjeHubKmxKk39fBF1AL/9sRi7I27jMgD/Sg0w7OcZaGMXi/2hl/A8NfVNLRZw8WqCwKYems/18AL+PXAab04FC1sneDVohvrupXL0OhdYSiIiIiIioiLs5aXlSgCCf0tD9ipHmJgL0m36rlWmaKjv+dE5gjIS857KLXuWip7nf+fiNNSWojy65P9Ey4n9G7L0oNq2nZ3XTnjuyFfKzCfHlCN8ZBrrNW/5k/JaSqZSqVQq05+eV04JKqExv4nlcOX5F5k6jf+V4P8pvSHRuY+dx69VPkxXX59YP5dFJijv7PlRtD7bwauVs3xsRI/9HfNaQ8uTlIsChONgVmeu8kV+vHHzEZcSEBERERFRsSRzqYPAMbUE6a/W/4WTz9QtB5AjZP1MQartgCA0diuhZwvisLJPBTQfMkfnEksGt0bpIesQL3LMzKKsIO309jloUaYZ5kfKNdabFvIT/AavxK2ru9C6tB8mB7/UmD8zZQH8KozT8hSHZASPbwuvoG/1Wl6xbVoflLcbgctJ4mXE+hm+YjQqdfhZNL/iaRIqtKguemzLnmi17VC+uITNR5IE6SaOFkVu6j0DA0REREREVCylKmzQuMsXgnRlxhFsORQjWkb54hwWLY8TpA/v1hLOSNPj7HIEf9cBA9bF6VEmS+LSPvhq2Vmd8q6dNAlhNXXbDDF5zZfw8ArU7RGMADJfzcRvW26qOarA3nEt0Wn6Ab37B2QFHur4z4fW0XnzJIi185bBx0f8cr26Wzm0+PwL0WPbx23Ff2qqfnhqv+hYdO/dWL9lFIUAAwNERERERFQspaYDlnVaYaCJcN3+ir92i96Vv7X3b8HFosQsEJ82cgTSdQ8MJJ5bh07zzogeGzxzHSKuxiAmMhzzBrUSzbPt27m4kKT9Lrw3JMiMysizMVQ3TomRq9Bhxmm15cwCemHkyJEI8pepzZN+/jvMD72vuQFvngQBAJGR4tMXrt19Acu67THCxFxY/NVM7I8Smx0hx4ntS4XJJt74rLVXno2nsTAwQERERERExVQ6IKmKzqNrC46khnyH0Nj0bKlx+GfWakHeEt8MgLdMghSdp8vLsXPeONEjyyIeY8noXmjg6Q537yYYsfQgTi7uJ8inTNuA9Ufuaj3Th1P4+/y8CTEPnuLB1cMY4SPTWrbld38h8u4TPI05hSlB4ssk0sIO464gQCHHztni/ZOY98ThmOdIO7wOc+fOxfbQFDy59A/8JeKXprOn7RQNPGgiMfXHz0tWYv7UIfCGBEN6NYWtWWV0//0T0fxLgy8KExOvYd3y54Jki4AB+MhF/QaQhRUDA0REREREVDwps+4wf/SZ+DTz9TsuqfycEhOCsZHJgnwTujfVa815esxe9BZZQlB3/EEMbFBakN5w8CTRu91Ltx6H5p0DPmjjjhtYM7Eb3F2c4eIZgLmhh9RejAPAkFVncOj3AfB2LQVn9/qY9Pdx0ZkVyoy7eJqkeqc+/a54/2DijR03ViHA3VEluZTPpwi+uEq0HamHhmH/rRSdx9ay81zclYdi4uB+GP7jYkQqMzGnS5Ws8Q3qKVrm/K/rcD3bZIOnFw9jh1I406L7l23goHNrCg8GBoiIiIiIqFiz820neuGdff35mb9XCvJIZF8hsI6TXueLj70mmj68TzPxApJK6D6thSA5/WESdLlkHrUhGr8EVlGt0rEBRo6oK5q/74ITWPyFn2qiZQ0MmB4kzJwZhZuPE1WSYs+cEK23ztgZ6OgqfrfdzqczVgQ5ih6LS9RtiYaJ5XBc3jwSFdVEaczcAjAvQDjzQSn/EwfPfzg7QIFz2zaKnMAbPZpXQVFU1DZTJCIiIiIi0o+0Mj79KQDzJ+1XSc58NRP7L4zDwNolgPQbWPfTYUHROhN6o5qeV1X3Ll8QTT+xYz2szlsItzA0B07vDxdvupZzScx7onfn6qIlK/nUBKC6z4HELBAjBzYUrauEcymd+vf6eaxoeo/2dTWUskHDrj2A4IWCIy8TkgBof+LD+vPTUVnjgNjj46EDMTL0N8GRHzedwpD6HbLGM/02ti24KMhj0WIo6hfBZQQAAwNERERERESoFfQZkC0wAABLth7HwNod8PTkLizPTBccHx5US+9zmdnZiKYvHTMAS/WsSytlEpAOQGxLgVQ1ZdTkd6tbR6dTpovVa+KNyhXsNJZzq9MAgDAwcPTsPUwIKK+xrMS8J6q5WWptm3vLTvCX/C7YQPLlH+sR9Wt71JZJkBgZJvpaDxjSqkguIwC4lICIiIiIiAh23m0w1tRCkH7ht/W4rpDjyPIZgmMm1mPg7639TrYqOe5EXjZYuxW5r0Jn6TptrpiMM6GHBKkSqTcqlda84WHKM/EnEPh4ltR+2rcBEC0kjg0wYqCzsHjaBuw5+QAAcHHPVmE5U390beZhgFEsmBgYICIiIiIiklRE0LRAQbIybQPW/LUM69e/EBzrNP0zVNT7RFKYyyQGabKprUXhmQKuw4W71N5ZND3yWhwMR4pm/X8UPTJj1QkAj7B3yhHBMctP+sDP2TCvW0FUaN5HREREREREeck38DNgjOrdYhNvU0wbMkI0f69PfHNwFinKudYAcFolVWLqj/Whv6GmtUSXG98ArFDJxxO2xh40ARvUC2gFBG9RSVWm78TZu4morWGGhfzZM9H05n4VDNpCR7/2GGFijvmZqrs5vNoYjH1fpmB3hnCzwyG9mhbAsTYcBgaIiIiIiIgAWFZvhik+1pgc+epdWmZUhmhei5ZzEeCas43o0iF85KEy4wgkLt7wdjfPQY0Fi5mF+B4K1248BTQEBqJCtoumlyihfe8AvUgro/v0TzA/WxBImbYB7ZtvEGSXmPqjYxFeRgBwKQEREREREdEbZfHxgA465RyQi+fZO7l6iqZv2RNp7AEwCDNbK9H0hUsOIV5doZSLWDnjvOghFycrGFrdT3vqnLeoLyMAGBggIiIiIiJ6x+fjHlrzSEz90bVVdR1qE1e6Sg3R9H9HDsA/11K0lo+PvYVrsS+05jMWj49aiqanHhqGCX9fEjmSgPUjB2K9UriVomXnRWjtauAZAwDMPAIwL0C3jSOH9g8o0ssIAAYGiIiIiIiI3jHzaIoZPjYa8+T2DrKlx8dYEeQoPJAZhc+qW+GXDSG49SwecnkS5HI5kuKf4VbUaexYNRu9W1jB0c0DXlX64YJcl6cEGGEM3VqL9w/A4p610GrUfBw+fxWxsbdw6vDfGNSiHHovOyuaf8K3n+bRRbk9Ph46UGsuiak/OjVxy7exMxbuMUBERERERPROSbQf2RVjB6xUm+O7wbm9g2yDLj/+jAHBX4se/bFXK/yoQy3p6QBkOmTMdzYI+vFnQE3/QuaORMhc7bVYtJyLwQGl86yV7i07wV/yO44oM9Xmse71JfwcivYyAoAzBoiIiIiIiFRUD+ii9pjELBCfNHbL9Tns6g7CnnFtjN3VPONYdxAOTWmb4/IS854I+3sESuZhGyWOdTFsoOYzjOjpXzBjLwbGwAARERERERVtuj3/7x0zt48w10d8ToDtlwNQx1bNHeT0NOhOivbTgnF0/tAcdUli7oUygnYki+ZV1/30VP3y60eKlpN24ehi/ftn3vInRD5eh/pql2sYqt0ytOw/Ru3RrCBQOYOMRkHHwAARERERERVplk5l4S9RvfSRmPrDtYS63e7t0fV/0+GNbBemJt5YOqyF2vXYdpUbY6CJmaBMSSt1jzWUodnwRXgRE44ZIzvr1BffoIGYtX4P7jyajorZjlmVrCbIb1rDCyXUnL5MzQaCNIm0ktr8ZlZOgjGRmAWiipOdmtZK0WyI7v3zDRqIVXsv4eWhyaipYfq+vv3UxLFhX7V7Slj36A0f26K/jAAAJEqlsmDuWEFERERERGQwCsjlKVnr8mEGS1uZDhuufVDGzAyWMl3KAHJ5kp7neXs6OZ49eIB7jx8iIf4V0gDA3BzW1vZwKVMGpUqXgq1MqrUOeUp61t1zMzPYyrRMhFcoIE9J0T1/jsbx7cAk4eGDB7j38CHiX72ZXWFujVLOLqjgVg7OtnpM2te3n+obhS2DXdFt2VPBkV8O38OEgPI5rLdwYWCAiIiIiIiIiiXlg4PwLd8WUVC9LJaYBeLc82DULiYzBriUgIiIiIiIiIql8zuXC4ICAGD7ZW94F5OgAMDAABERERERERVHyjtY+3Ww6KHRvZrrvkSiCGBggIiIiIiIiIqdF6e2YX6m8EkSEvOeCPIrZezm5SsGBoiIiIiIiKiYkSNk5UzRIyW+7gpPWfFZRgAwMEBERERERETFjhwPIlJEj8zq3bRYLSMA+FQCIiIiIiIiKoae3bqAc9H3kJyWtZzAxrE03Dx94eliZ+ym5TsGBoiIiIiIiIiKMS4lICIiIiIiIirGGBggIiIiIiIiKsYYGCAiIiIiIiIqxhgYICIiIiIiIirGGBggIiIiIiIiKsYYGCAiIiIiIiIqxhgYICIiIiIiIirGGBggIiIiIiIiKsYYGCAiIiIiIiIqxhgYICIiIiIiIirGGBggIiIiIiIiKsakxm4AERERERERFQGKJNy6ehMPE15l/WxuDZfKVeDubFuw6yZIlEql0tiNICIiIiIiyjPyR9i7cSsOXLoNwBKWjqXRqE0QAhu4GbtlhaNPOp4rckk3+A7dopImMQvEuefBqG0ryVUT8rJu4owBIiIiIiIq0uRYP9AHvdfFqSZPGom/Y16ju7ulsRtYwPukz7ls8rDPeVk3cY8BIiIiIiIqulKuYfP6eNFDl688NnbrCn6fiuL4kQBnDBARERERUdGVbuwGFPI+FcXxy0tJj3D+4lU8fZUGADA3t0Y5bz9Ucy7YM1MYGKAi59y5c0hLSzN2M4iIiIgKlFq1asHSUv+LkyNHjsDf39/Yzc85SyuUlpgAygzhIQcrY7eu4PepKI5fnpFjXR9v9Al+rpIqkX2Fq0nLUa0AX30X4KYR6e/w4cPo2qULAlu0MHZTiIiIiAqMc5cv45POnfHrjBl6lUtLS0Pfvn2xcOFCBAYGGrsbOWNWFYMX9sbyoStVkqW1xuAzv1LGbl3B71NRHL88o0AyMoXJGU/wMkUJFOBNEhkYoCLl2bNnGPr55/ihX39jN4WIiIiowDgUcRLHbt/Wu9yff/6Je/fuYcqUKYU3MACg7pAVSPn8Fzx4kYL09NeAmRM83F0K9cVQfvapKI5fXrGA+MW/mbEbpgVfSyIiIiIiEkhNTcX06dMBZC3V3L17Nz7++GNjNyvHZA4ucHcwdisKb5+K4vgZnprLa4ktzAr2FgMMDBARERERkdDy5ctx//79dz9PnTq10AYGFPG3cSgkArHPkwAAFha2cPVpjKZ13FQuiOTPLuPAwbN4lJQKALAtWx2tOzSDsxQAFIg5tRd/b9yC0MOXEBoZCRMfHwT6BKBD0Kfo3LEZnGWq542/dRp7w68gKTX13XnL+jRG2zpuGtsrf3gZB468bwcsLFDVpzUC6pTTu0/vCyTgfFgIDh06iBMRN3DneTgALzg5VUJ53+r4qF4ztGrtD3eRTfL0Pld2b26X3z2/H8FbtyH0zfkjL1dHi8CGaNetMz4PbIeKeTDVXpH0CCdDD2BvaAgiDl9CXGQUokxqwqemE3waNkTT1q3QtmUzuDrk/J6+4tllHDp5H+bmr3DpzmthhoyHCN2+D09tJEgDkJYGVPZrjpouGqIFiiRcO3cCRw6E4fi5CETeiUPkm/ect5MbGvjWReOAj9CkUWPR10xfEqVSqTT46BMZyaZNmxAVGsqlBEREREQfeLuUYO6CBTrll8vl8PDwwIMHD1TS9+zZg/bt2xu7O3o7N789/EbuU0mTmPojIv4w6n9wMSqW73+Rr/B1mWh893kA5oe+UnsOiak/gq8HI9Dd7k1KAub5VsR3kUmCvDsfpKGji7oL0QQsbuGGYaEvVVKtOv+F5/8OwNvYg659AoAH4WvQu3l/HFFmQptRG6Ixp4dXjsYvcskA+Gbbi0Ai+woRl4fj5P81w8jgBI3nXhp+D4OalBc9Jlq3WSDOPQ9GbdGAghxhSyei+ZA5WvsMAEOWHsTcQa0g0yn3hxTYO7IiOsx/pFcpm75r8Wx1b9HzXd3xBz4PGo4o6Hap3nn8Wiyc0htlc3Hb3yTnRYmIiIiIqChatmyZICgAZM0aKIzMLMoKE01sBeu+xfJd3j4HLUo31BgUAABlxhEEVQtC6LO3z/ezQaUWnqJ59xy9q76epxex+YgwmJCRlKry5EBd+/QgZDrKN/tCp6AAACz86wDiczh+ov2R/4kGHj5agwIAMLhpBSw//1x7pVrFYWWfCjoHBQBgyeDWKD1knaDv2skRe1eud6n0h0lIEaQmI3h8W3gFfatzUAAAtk3rg/J2I3A5Kef3/BkYICIiIiKid+RyOWaoeXpBREQE9u/fb+wm5qulkyYhrKZuU9yVGUfw6fTdUAAApPDr2Fk03+ot4UhSU0fsycOiF/HdezeGrb6Nf3EGw1r/qFcREzsLo643H9xoOC7LczOpXY7g7zpgwLo4vUsmLu2Dr5ad1bOUAspE3YIu2urZO64lOk0/kKPSmSkLUMd/PvTvdRYGBoiIiIiI6J0lS5bg0SP106IL66yBnPKGBJlRGTrnf/nHCpyPz7qwLVevFT6RmArypOxYi0vxYhe/cpzZs1SYbOKNz/y9oK8Hp3Zih1LYdlmnMdgRdhZXr0YiYu9WTBn0PoChiE19E9gwDmXaBizadjXH5RPPrUOneWdEjw2euQ4RV2MQExmOeYNaiebZ9u1cXNDrzrs9avh76pE/i5mLEz7cGSAxchU6zDitPn9AL4wcORJB/uoXO6Sf/w7zQ+8jJxgYICIiIiIiAEBKSgpmzpypMc+JEydw6NAhYzc133w4pbvl+L8QefcJnj6IwoqRrUXzK9N34vSdF1k/2Hmj90AnYZ6MI9h3WrhUAynXELz8hSDZzLcnGrrqvzne4xvXBGkm1mMQvWUGApvWhaenNxq064JJS/9F+otr2Dz/Z/w6PgB59fCBzj+vxdUHL5CS+BQnt/yiNt+KFUdzMKUfAOTYOW+c6JFlEY+xZHQvNPB0h7t3E4xYehAnF/cT5FOmbcD6I3f1Omuz73biauRVxMScwpQA8Xkds8OuIObqVVy9ehVXI6/i+h+ffrC/gBw7Z4u3W2LeE4djniPt8DrMnTsX20NT8OTSP/CXiF/Kz562M0djx8AAEREREREBABYvXozHjx9rzTdlyhRjNzXfTdgajUO/DoC3ayk4u9RE/7mbsThIzSX0u1vuMjTuNFg0y/+2nxDcmX9x6TDWK4X363sOaY+SOWizmYWNMDEzRWWvgrekDtXQdfhE/NDFN0/G75cdN/DvxN7wdHGAzNYZDT+bgJubvxfNmxa6GRefpet5BiA9Zi96iywhqDv+IAY2KC1Ibzh4EkaYmAvSl249Dr12DbB1hqe3J9zdfVDBThjAkZj3RLt6nnD39ISnpyc8vT3hYvt+wUb6XfF2w8QbO26sQoC7o0pyKZ9PEXxxlWhTUg8Nw/5bKdAXAwNERERERITXr19rnS3w1rFjx3D48GFjNznfjNoQjV+6ZJ/Kb49PR00UzR966s67/y/3UaDocoKkFcG4lm0t/YUdm0Tr+6St/ssIACA9NVmQlpmyADXrjcD+qLv5tmRg1NZoTAisIkj3+OxbjDW1EKQrM44g+k6i3ueJj70mmj68TzPxApJK6D6thXDcRDcG1IWaEVUmIV1DnCP2zAnR9DpjZ6Cjmpkidj6dsSLIUfRYXGKa3i035r4SRERERERUQCxatAhPnz7VOf+UKVPQokULnfMXVhLznujdubroMZm9nfYK7LzRq5cjdqx7ppKsTNuAfZELULP+m6UGitvYOfOioLhZ7eloloNlBABQoXZDAFsE6YqLC9DOZwFMfXth7uj+6BLYXOUOtsHH7+Pqag5WRKtJ/pgxWbihpYWZ/u25d/mCaPqJHethdd4Cgstlc+D0/nDRMvl5ofz6eaxoeo/2dTWUskHDrj2A4IWCIy8TkgCU0KsNnDFARERERFTMvXr1CrNmzdKrTFhYGI4cOWLspuc9ZRKg5m6vbfnqorMBVMnwUc8hokc2Br+/kE25eRzzM4V3enO6jAAASjXrgSk+1mqPZ1xaj+G9WqGcnRmGzFqP27l43F1Oxg8AnCu4iKY/TUiCvszsbETTl44ZgK69eqFX9n9de2l9DGV+SE8VSTTxRuUKmgNPbnUaiKYfPXtP7zYwMEBEREREVMwtXLgQz54907tccdxr4EMSS2vYQvujDNUtJ7gwdyduv5l9fuXATtGyOV1GkKUsxu3ZpUPwAlg6pjc8HFrgn2v6T+HPjddPxZ+AkZKs7x4DctyJvGywduXfkxmScSZUuJmnROqNSqVlGkumPBN/AoGPp/6hJAYGiIiIiIiKseTkZMyePTtHZY8cOYKwsDBjd6Hgs/NGt17CjQozUxbg2LXXAOJwaMVewfHcLCN4V0c5fwS/jMbikZ215lVmHEFX36F6Pq4vd8xk4rv4W9ro228pzGXagzS6MLW1MP6aey0zLQBAau8smh55LQ76Mnp/iYiIiIjIeNLT07F161YolUrBv5iYGAwdOhT9+vVD9+7dRfM4OTnlvhFFngz+PYcC634WHAkOvYk+Lk+xPlI4pT0wF8sIVNhWw5C5/6LfD5fxz7qVmDlmrspjGD+kTNuAX1Z9h3++9cufobEQTy5hb6tfPZCinGsNAKdVUiWm/lgf+htqWku0XWe/YYVKPp7Q9+w5Z4N6Aa2AYNW9IJTpO3H2biJqe6vfK0CuZpZPc78KereCgQEiIiIiomLMwcEBzZs3Fz329qK/atWqaNu2rbGbWqhlLSeYhh3KDJX0vaGhOOz4XPRCvVeulhEIyVxqotfoOeg16kecO7QFUzsMFbQHAHYHH0P8t35wyME5BDKT8FLtvPwEHNt8QPxQuv6T+dMhfAqDMuMIJC7e8HY317u+/CL6WEkA1248BTQEBqJCtoumlyhhqXcbuJSAiIiIiIg0kkgMM0W7WFOznCBl23do1fsXQbohlhGoJbVH3XYDEfzyEgaaCM9hVq4k9L+0FKfMOIIOX86H2E4C6TH7MTL0pfCAiTeqlNfhiQ/ZOLl6iqZv2RNpwMHTLFVsJobEFtDwUprZWommL1xyCPHqCqVcxMoZ50UPuThZQV8MDBARERERkSilMusih4EBQ3iznEBHhlhG8OJaKJauCsbteHWPVSgHJ4nwkjD9YZKO0+51k7LtO7h3noHrH+5dkBSNH7r0E81vEdATdV30D4qUrlJDNP3fkQPwz7UUreXjY2/hWuyLXPRUhrKVPASpyrQNOHtFfb0eH7UUTU89NAwT/r4kciQB60cOxHqlcFaFZedFaO3KGQNERERERGQgDAwYlrqnE4jJ/TICOQ79+jmG9O8Ed0dzDJm1HlGxT9/vtq9IQsTWhZiRIXxWnoWHEww9VyFl+zh42vti1KwlWLX0FwSU8MH8SLlo3gFffpKjoIilx8dYEeQoPJAZhc+qW+GXDSG49SwecnkS5HI5kuKf4VbUaexYNRu9W1jB0c0DXlX64YI8p5svSlGpWk3RI4PqBWDC0vVYOWsCAkxM0fqX908iMHNrLd5uAIt71kKrUfNx+PxVxMbewqnDf2NQi3LoveysaP4J336ao/0RuMcAERERERGJYmDAwN4sJ9ixTvOu8YZZRqDAi6T3d5SXjumNpWOy/j8gwBehoZfUluzcrCZk2qrPicwozB2jedaExCwQ/TpWz+EJbNDlx58xIPhr0aM/9mqFH3WoJT0dyOkAqFsWgMwoTBvS+92PludvIgmt3lzE2yDox58BNe0OmTsSIXO1n9ui5VwMDiido3ZzxgAREREREYliYMDQdFtOYJinEUjhVFo8uKApKGBWezqm9zDspof6GPXPHNS3zfn7za7uIOwZ18Zo7a8e+AX8Jdovs81Kq87KcKw7CIem5HyDT4l5T4T9PSLH7xsGBoiIiIiISFTRCQwki6am5zjf+wNJIpvNJWloiUuDtlovHHu1rGqAPslQu1VXvUZJIvsKx/aPQdkcj4sw34K9RzEvyF6n83+x9AR+C6ySw/6+JUX7acE4Ol/3/RxUxsDcC2VyEZiAXT3M/2uI1mypMc+ztV2KlpN24ehi/dtt3vInRD5eh/rOOW83AwNERERERCTqbWCgsLMqWU2QZlrDCyXMcpbvHUsrVBLZM6B5VSe1bZE4NsCUeX3VHm/53Sa0dte+eZwubfXoOg9X9q7GwIBaGuuSmPrj5/VH8TxluejFpc7j5+SqmmDijXJVGmHE9kc4unKC2vOb+vbCqrA7WDWoUa76+54MzYYvwouYcMwY2VnrWAKAb9BAzFq/B3ceTUdFnUqo59N/Ia4E/099AMjEG79NDhTZC0CKZkN0b7dv0ECs2nsJLw9NRk2H3AXvJMqi8mknArBp0yZEhYbih379jd0UIiIiogLjUMRJHLt9G3MXLNCrXEREBBo1aoQ5c+Zg1KhRxu5G7ijkkKekZ92lNTODrUyWu3wfkMuTstalAzCztIVMl53cFArIFSnvysHMDGZSmW5lc9BWefwzPHjyGHEvExAf/wqAOawdnFGxQnmUc3HQvvmcjudSyOVISU8HYAZLSxmkUpVG4NbNm4h99gJpaYC5tQNcKlaGh6uzbpvf5eC1eVvu2YMHuPf4IRLiXyENAMzNYW1tD5cyZVCqdCnY6jXwupLjWewD3Hsch1dpaTC3tkeJEk4o5+oCW11OJ0/CwwcPcO/hQ8S/SstKM7dGKWcXVHArB2dbw+0Ewc0HiYiIiIhIo8K/lACAVAaZrUz7nnK65vuATGYLXa9R359HCpk0B+Vy2FaZgzPcHZzhnsfnkspk6i/YZQ5w966f520QK+fs6g5n1xyfOYdyeV6ZLVzcPeHi7pnnLeVSAiIiIiIiElV09hggIk0YGCAiIiIiIlEMDBAVDwwMEBERERGRKAYGiIoHBgaIiIiIiEgUAwNExQMDA0REREREJIqBAaLigYEBIiIiIiISxSebExUPDAwQEREREZEozhggKh4YGCAiIiIiIo0YGCAq2hgYICIiIiIiUZwxQFQ8MDBARERERESiGBggKh6kxm4AERHlk4zXuHP3Hh4np2T9LJWhjEsFVHKwNnbLKC/w9SYiA2BggKh4YGCAiKiYuLxzGprMPKSSJjFtiqMHZsHHqgB84UuNw6FDh3E45iEAC1jaOqJeg6ZoV8PF2C0rlAr8601EhQIDA0TFAwMDRGRAqbhz/RquPX2BNIUSgBTWto6o4eWJslbqf90oku7jTPQdPE1JBwCYS6WwL1UJtauVhwz8ImI4MmM3QINUbJ7eB4P2x6smL5+Lv7aEokt5S2M3sBAqyK83ERUWDAwQFQ8MDBCRwSTf2oXa/WYL0n2/WYGjvbzEC72+gr5tB2KPMkNw6Oc/9+PbGiWM3S3KD6mx2H4gUfTQ1bvxAAMDRERG8TYwQERFGwMDRGRA5qKpFc3V5X+NzbP+TzQoAACuTmoLUlGTkfsqdPY6Dpdu3sWzNzNUzKSWcHH3RBUH3mEnIsqOMwaIigcGBojIaG6HrhBOHX/Dp98cdCjDC7Viw0KGUhIJIHJjysLWwoAnSsXmKb0xKCxBJVVi9glOh45DFVN+8SUiEsPAAFHRxscVEpFxxJ/H8AkbRA9JLPpgzVeNIeX+AsWHaUX0+6GdMLlqH3TydDTgiTLwCpnC5Mx4JKYaexCIiAoezhggKh44Y4CIjCAJS34cjWNKkQs0iTv+3jgIbrxzW+zU6jQRj1sOwaOXKUjPSANM7VC5fEmDB4jM1NRnZuwBICIqgBgYICoeGBggonx3efd8jD2XLHrs+1mz0a4ML9GKK5ltSVSyzcszmIonSywhNeSKBSKiIoKBASqOkp79h7uP45CeDgBmKFGmPNxdHIzdrDzFwAAR5SvF/aNo8ssu0WM+/eZgbJOyutXzOg5nzp3CwfNncOZsDJ7H3MIVSWXUcLdHzZo10ai+H1r61UYFW/W/5uTxtxF65ioev04DANg6VYJ/Y1+UNJUg4dYpLNj6L/ZffoArAJq41MDAQcPwiXsJrWWBDNyJPonNhw7h2NkYhMfEQOLhgQ7uddG6uT86Nq6Fkha6f8EyRF8NKeF+NA5euoPk9DePlzSzQhkPH7Sspvm1k8fdQuj5a+/GTGJmhsoeDdCsmnNWP5Pu48jZK7j38tW7eit4+KBxtTIqswZy8rp1cHyOI5efwMxMjuiHckHblJlxCA+LwDNLIB1AejrgWr02vErKVNq///w1vHhzXnMzK1Tw9EMzdyc1PX6NSxGncPlxArJKmMHWqTz86/tqeP0zEPf4LqKvXkNE5GXcevgcjx4+xDEAXgAcXdzhXckDDWvVQ+N61d683/KH5vd8Km6cPYGNIfuw//IDRN9Svnl/1sbH7Vqhja9rtkePZuDerQvYfTAEYZcv4+65GEg83OHm0Rgftw3AJw09YaPjTBFDfT4Kav+Q8Ro3rkXi+KmLOHn9MqIfJiD6ze8UrxIuqF+lGurV8UGjmt6opGUDzZz+zkt+fB0h52LwIj3tTU1mKFvJB+18K2o+X9wN7Dx1BcnpWReWFlYlUM2rFuqWN+TyIMprDAxQcZNydRPsvLoL0pdFJmCgd9F9WpZEyWeQUBGyadMmRIWG4od+/Y3dlGIp+dZOlO/9qyA9cNQKrO3qBeAJZvbpjukxKYI8plW/RPTqr1BG65flVJzcvgztZ67XqU0DxizAtE71sn1pz3Jx8yj4zz2hkjZ/3SG0ePY3vL/7S5DfsvMvuDO6JWSQiJadtS4UgxzvYNyPw7D4nPDi8x2TOti4aRbalbfJt74CwOXtv6DJTNWgjMS0KY4emAUfK12/8CVhcd9OGHfzleDIxp3haFfSTG25Fd98ilHnklRSzf3H47/pgWrHFCZ1EHJwIep+0D59XzdZ56n4y2IBem2M07GPWSzaTUbs5HZvxvM1VnwTJGi/xLQpjobMgo/IhX7S9X9QQeTxneKP4czAjbP78dv86dgck65bA03qYN6iiejn6yJ62DCv93vq3/M3MW74t1gco36TBqnflzj521eoYiGBIv4G5swYhulhyWrzS8y74eiu7+Bjq6mdhv18FLz+ATfCt6Df6N9xBbp9VevY7yf89lVblDHVvY/af+c1xsq+gaKf+b+2hKKL2keJin9mTKuNwK1V3WHPPWTy3aGIkzh2+zbmLligV7ndu3ejY8eOWL16Nfr27WvsbhDlucTIP1HCd6Ag/X/n4vBNHacc1Fg4cPNBIso3ZzYvEA0KwKQOts37UoegQDzW/xSk84UAAKyYORxus/YhQeSLtdRceNfqxK4/RL8gA0DGi5dQaCh79egGdPz4K81BAQDIPI/un49GWLymC0DD9tVwrOBa1030yIELDzV05yb+PS+8sMh8la5xTCUSa8Haf/1ft+f476H+OwtmPH+ND19JibX4+zNdzaMWJVLxx21aiNy4vn5gHup/O1X3oAAAZJ7HyCGf4n+Xnuvdt5wQG/dzRzeg48dDNF40A4Di7F9oMmMn7sQeQ6eP+2m8aAYAZdpmNA9chLsZ6t7Lhv98FKz+vcbeJSNRf/QcnYMCALBr1U+o3mIurrzWvY/af+dZqP3Mbz95R31jkmJEP/MSO3NOVy1keA+RqHhgYICI8p61DPL7h9B6bojo4Z8X/YxmDtp+HaViz/zv8fX+BL1PL982Bd8GX9WcSeIOANi0cTtqeIivQ6/m4gRNE3VXLl+O4+46NirzPLqvPQ6F6Jf+PO5rrpii9kfNRI+sO3wJyWouYv67fE50s8nP2nnrPqVajA6vm6eLPcxe6VOpuLzbtPA1ju/Yl+PSk0ZsxP0M43xx36THez513zTU7v69+KajIpSpa7Hg8H9iNeXb58M4/cvAwSXD0WN1hN79A7KCDk2HbUSctoCCzr/zTNC4VQfR47sWhuK+mvM8jD6VN595yndcSkBUPDAwQER5zvrFRcya8avosebfLMK3vtqnZSVd34+eG6NFj/X/+ieEbNyCC+uWYkan+qJ5dv22EZGvNXxRVt5697/RMeK3gK8/SoSmuQBekEAZo9tFAQCkbN6NS0nC9Dzvay6V9aqHDhLhhURa2D5cThIrkYrzJ7YJkyXu6FSnUu4ao9Prlo5KdVz1rtq0ZAnI9C6VM2KzEUyqNMWwgV9j3sSJmPv1IHTwEL/Pqkxdiz0xBoh85IC+73l9rdl5QnCHPz8/H8boX/KtPei6+rLaMqZ122BY9+7oUNdcbZ6M6/Ox5NwzzSfX43eevWdDDDURhsCUqWsRckvsvZeK00fVfObr5/IzT0bDwABR0cbAABHlKS9IsHHhLMx9KZyKa978B/zVq7YOtaRi79+LRY/M+3M35vZuh7quFVDJ3RdDxizAoTEdBfmUigPYdP6Rfo03qYPxYyZixsBP4QUJBratpfFO14dTfpt9MQHHt+1BzM71WNi9gWh+ZUY4zj1MLBh91YeVO7oFiWy+k3keh66IXIykxmJP8EtBsmmVNvArkweTikVet5bdZ+P0uo24sOUvjKtrJVrs5yV/48LGTTi9cSNOr9uIi9/7q12PbuABRU3vGu9+6j5wAsK2HcCLNbMxbUAf9Pu4I/r3HoANaw/g7y8aitZw/tZDXU9mUB++57sP+hUXdu7B1Y0LMdRD+yMemvV48xnZ8hfGNRPfbyPj/Hn89/rDlPz9fBijf3vWLhLNK5G2wY4tB/D8j6mYNmIkNvwRhph1M9BEIv5Vbt7qcP2XFan7nWdaDp+OEJ8p9FfYDWHi61hsFvnMS/06omFJLiQobDhjgKh4YGCAiPLU2y/WYnfd2jaqjZI6XHgp7kdg0P54QbpPv/noV0M428CvU3/Ru1t/hlyCXMcvymbNR+By2EKM7tQRQwaMxomTJ/Grf0Wdyn4//W/sGBKIGmUcUbKkO3qN+AVzm9mJZ852o84YfdWfBeo37yx6ZOHRSMHyiPiYc9isFN6R7PppI51ef32ofd2sHFDV3Q2VynugnLVwvCTSNmjp6YZKrq6o6uqGqu5uKGuVfxcw9T4dg71z/4cze45gyYBA+JQRe79Yof3nfeElMmavXim0nyQPfT97M5b0b4lKJR1R1rUupi/6n9oLVgAY8ONK7Bj+5jNSvgbGTF2GfibC8VZmPsSz1+/7ZqzPR77177F4/yBxx99bfkSz8qrvi5Lu/ti49kfRNijOzEbIfS37nXxA2++82s3aiJaLWrkPN7MtZYm7eQ57xD7zgQ246WAhxMAAUfHAwAARGc3OWb8hJE77NN34x3dF04e2q6OmRDl8OtRPkJp9Mzl1JObdcObX7iifg0fBfT31b0z0zz5V1haBPcWflBEe/cCofc0pF5+PRJcTyHeG4Ua2ySGXwsX3lujQwLBTinV73dTsFKhMgSIDxmNVBo0a1kMVLY+bg509akoK1p/ur6f+jYlNsgXNbGtg2OfVRfN3H7UMv3fIdsyiMnoNbS7MrLyFW8/f31I3xucjP/v339Uo0Tp9vhiGdmXEd7OwcW+OP5qJPz7r+Svd3tS6fHakZepgRl3hzAdl+g6EXv9w5lMGLhw5JHISd3xWu4JO7aGChYEBouKB87mIKM+ZeNSBZ8wF4e7amefR47dtuDHjU413kR7cviGafjp8H6yumyMt+wEz4HzEBdEyuvzSW75mKNxyEBSQSNvg82ZuosdkNtoeTWicvuaYlTu6tbHDnmx3N5WKAwiJ+T94vX0cX8YD7F97XVDctOpQNDbwMoKcvm4FUwaSkxIR/zIRia+SkSJPRzqkMEv/Dw/z9KkT+lH/njdFRY9KAFT3ApCYNsWwT7xF67JzcNB6vvz+fOR3/16/fCya3rWhp4ZSVqjXsg0QtkVw5GXyawDaf/fo9tmxRZsunTD23DrBkZ8OXcYAr8aQQgJkPMDuzcLPvNTvU9TlMoJCqagEBuQPL2PXkbN4npQVvbawsIVr3VYI8C6lpkQyzu3bj6jYOLwpAduyldG6TTM4q4vhKhJwPiwEhw4dxImIG7jzPByAF5ycKqG8b3V8VK8ZWrX2h7uzusd8flBV0iOcDD2AvaEhiDh8CXGRUYgyqQmfmk7wadgQTVu3QtuWzeDqoH4LXPmzyzhw8CwevemzbdnqaN2hGZylwIuoA/jtj8XYHXEblwH4V2qAYT/PQBdvR61t0zjOz27jxNFDOHTwGCJuRuL5cyUkTk5wK1cFjZu0QqtWLVHHXYdzKJJw7dwJHDkQhuPnIhB5Jw6RkZEw8fGBt5MbGvjWReOAj9CkUWOdxvPD1+jcob34Z9teRERcQmhkJHx8fFC5YQd0+7wvuraoDkuznL3XDfGaGRN/QxNRnvu8z7f4Bv/go8m7BMfSjs7G1CP18LuGafpSa/Ff+CsX/oqVBm6rRNoGVcvkcMs5ZYraG9I2pVzRQWIqOr3WWH3NHQvUb/cpsF/4mLMtx67h2xpZ+yrI70dicabwEXyGXkaQq9etAIm7H4mtu/Zizertej2mzmg0vOeh7smLavJX9Kym9XT5/vnI5/4p0kRec4k7XEtbaSznWs1LNP3Ytcf4oW4pjWX1+exU9muGJpINgqcNpGzZjyuDG8PHAkiKuYhVmcKlLX0/rcdlBIVU0QgMJGNl7yYYFqq694XELBDnEoNRWybsW+K5NfBr/7UgffapOHxfX7h06UH4GvRu3h9HBE/jiMz6FxqMtZgBABi1IRpzeoh/bgE5wpZORPMhc4SHMqMQGQlERh7BumVZdQ1ZehBzB7US3Sw3esMPCBqp+tSbZZEJaH1/Dip1+Fkl/XBkJM6WbYWPF3fL4ca7CQieNRKdxqwWPXoJoQhetwwAUKvPXPyzcAQq24q/p67u+AOfBw1HlMjfwczISFxCJC6F7sCyeVlpncevxcIpvVFWy5Vt4tV/0adGN+zI9l0sMjISkZGR2L5sBr7sNB3/9tftZk5evGbGVLDmIxJRkZT80hQ12gzBKBPxXbRXTJiBsHh1SwpS8V+Mhmdl60nrSmxNFwK5YS7T4b5dPvc1l9QtJ4jacPzd89mvnTomWtbQywjy7HXLN3FYP38EPLoOwtjV2wpHUMDAtL98hevzoX//XuPCuTOCVImpO9y0LDFJSXgqml7T1V57w/T57NjWwLAg4cwHpeIA9l/O2ng06niosJxJHXTyLZ+7ASSjeRsYKOwkduKXPenqgnxm4t9ZZCIXnw9CpqN8sy9EggLiFv51APGiR+Kwsk8F8QtMNZYMbo3SQ9aJ1mdmUVaQFr5itCAo8G4snjxXG/PUSH4bU1tUVBsUyO7i2u/QbX6YyJFkBI9vC6+gb0WDAupsm9YH5e1G4HKS+jKJVzehhFcXQVAgu5Tt49A+6FsAgLdOwUzDvmbGxMAAEeUDBYCSGLXmB/HDmefx2axdSBb9IyCFmYVh7lKYWJsV8GlShayvVu7o1Ea4SZ4ybTNO3pUDiMfRXScFx/NiGUHh9hrbZ/bF1xtPGbshBVwh+3wYig4X7mY24tNyL8cmGLgxpmjccYDokd92RwKIw6G/zgmOmTdrhzoOhfluc/FWNGYMABZqLvJyPan7xRkMa/2jXkVM7CxEfgfJEfxdBwxYF6d3ExKX9sFXy85qOWnWMqe185bBx0f8N2B1t7LQY1L+G8lY2b0eJocm6VXq8pEL2S6MFdg7riU6TT+gdwsAIDNlAer4z4fo6Mmv4/uaffSuU3twIo9fs3xWaP4uElHhZ+MeiO1fBKOTyDO6045Mw/RjtfBr9k2+YIqyZdwAZCtjUgd/LhqO6jKJYBd8cTK4erhqfNyg8RW2vlqgiZrlBHvO30OPUgnYdDNFcKxDHjyNoDB7dnYL+m1/IXrMtG4bTG71EaqUcYS9pSWQeBbtRy8xdpONpLB9PvRlhdp16wFhqpt1KjPCceHRK/i4q59zlBIv/v5p4lnG4K2092yIoSZmgiVCaQfDcCgoDftElg5pe9QrFQ6FPTCQVx6c2il6F1rWaQw2j+qKKs7meHn3BvZvW4/Jy7YBABSxqYJZS4nn1qHTvDOi5xg8cx36f9IQJdMfYdcfUzBymXCDz23fzsWFHutQW830fGS+39w0MlJ8ztS1uy+QAsBWj/4/DVuGAcEv1B73DfgEbohFcOgl1QMS1ce+JkauQocZp9XWYxbQC1/7OuPOxSUIPiK+fWz6+e8wP/Qz/BygOkPp6j//w/LMHM2F0CjPX7N8xsAAEeUr//7j0W9tX9E1qAvHzEDbXX+gmYPqZCaF2P7hmechcXJHjfIFcwOXnCpsfc1aTrBKsHfCvnPncLREkuiU+K6GXkZQQKUnJ+uU78n9m6LpA35ciVkdPLM2dHsrwwrdJMtFH/9YHBS2z4e+pObi9+pu3HsBaAgMRJ8NF00vYWMBgzMth0+HNsPihdkCGIoD+GyIyJ0+kzpoy2UEhVpRmTGQVx7fuCZIM7Eeg+gtM1D57ZWWpzcatOuC8TOuY9vaLbhbLgCqi3Lk2DlvnGj9yyIeY2CD0m9+cseIpQfRoHZ/NBq6SiWfMm0D1h/5BbUDdf8bKzH1x9SFX8Du6Sn8OWkpWvdqqldQAEjA3z9NFa/bvCeCL/0PgZ5ZM5rkSf8hdOV8dBjxOwDAzMX2g9kJcuycPU5tPSFX/oeAdxsWzsXTyH/xea2uoks3Zk/biVEBQz8Y30fYMmuVeN1mgVgf/js613VD+tNrWD97FIbOO6hj343zmuUlLiUgovxlURkT5g8UP5Z5Hl0XCJcUOJVxFc2+/aT4BVVhVuj6qmY5QfrR+QiavEKQXhCWEaSL3VWWWAKmmkpZoVajpoJUZUY4jt5JFKQr4s7h66F/6NCa17hyUTj12rTqUIzPHhSgwvf50JOZlXhgYOm/Z5CgbjZE6g1sWHNV9FCZEuJrpHOrtn8bnfNyGUHhx8CAZmYWIkG7zBTRtfpSh2roOnwifujiq5KeHrMXvUWmo9cdf/CDC8z3Gg6ehBEi+zYt3Xpc50exWnaei7vyUEwc3A/Df1yMSGUm5nSpolff0+8ex8hsGzoCWQGHfXfWvQsKAIDMtiLaD5+DlzGhmDJoEP74uvW7zffS74r3Hybe2HFj1QdBgSylfD5F8MVVom1KPTQM+2+9n62YEhOGyZGvRPNuiNyIHg08IJNKYetSE0PmHsDJJcN067sRXrO8xsAAEeU7Z7/uWN5JfE1s6r5pmH7skWr+8uKR1J1zf8WO2BRok/D4Pm48TtSaryAofH19s5xAR8ZfRmCB0i7CZ6krFQdw4a62cRP/0/3TrHW48vr9RVvc9YPo9Mm3Wp9AkSUDyXG6b4N350RYsZ0tABTGz4d+3H38RNMVZ2Zj6sEYkSNJ2DJvhuh7wrz5D2iRR0/qkJavgxl1ddu1e+DHflxGUMgxMKBZeqpwdlhmygLUrDcC+6Pu6rTRaXzsNdH04X2aiReQVEL3aS2EbXmYBO2/CQETy+G4vHkkKuYyTv/gkvjeOC1/+gltXMTfL3bu/pi0dCm+qP/+4jn2zAnRvHXGzkBHV/HZYHY+nbEiSPy7ZFzi+4fXPok+J15+yDZ85il84kvDwQtxdOZnWvue369ZfuBSAiIyAgt0HTYDq4OHCB57BQCLxs5F4N5ZaPhmzZWsfGP80awEvgnLFpVW3kLf7gEYP2UButbzRFkrKQBTKNJe49nTh7h27QK27V2OzedSITFtiqMhs+BjoM3L8kph7Ku65QRijL+MwBQVXYXPnweAEf2H4b/RfVE5+Q7+XrQGpgPnIrh/g3fHrazEn0OfcWMtGrc6gWFftYDyv4tYvP8MdGcL74b1gXMh2epcjGnBdTAtqCZkkAAZ8Tj0zx/4bO5uI4+fcRXGz4c+pGXqifcPwIpJfRBzZSS+b9cQlUpI8eT+Faxb9StWnUsVreuHrv55eEFuizZdOmHsuXWas5nUQaBvWd2qpAKLgQHNKtRuCGCLIF1xcQHa+SyAqW8vzB3dH10Cm8PFVvzS697lC6LpJ3ash9V5C6RlP2AOnN4vvoRIl4u79eenv1/mkAuJj+6LprdtU1Ovel4/jxVN79G+roZSNmjYtQcQvFBw5GVCEoASAIDnj+6Klh7drZHasaoX+AkwZqvGNuf3a5YfCko7iKi4sfXBgl97os544RdLZUY4gn7fh1uT2735YmuFoAGD8E3YbNGqpk0ejmk6nDK9UNxoLYR9fbOcYM9+zQ/eKQjLCAD107WhvIU5Mye/+9H8+n0ko/67i6vKjVqjieQf0WAWlLewaPmtHLXH0kG8PStmDMSqrXXQ1d0Wm/YfNfawFRCF8POhZ/86auhf2MZ5CNuovRZpvRHoX9dRe8ZcqOzXDE0kG8Q/D29YtAlELf0WLFMBxMCAZqWa9cAUn0lqp6tnXFqP4b3WYziyNqQbPbQnKmfbbM7MTnwGztIxA7DUwO2VmPdENTf9nz0gJMf1C1GCVImpPxpW0e/3T7pYfNPEG5Ur2Gks51anAQBhYODo2XuY8GYDQjOxh0WbeMO3svo2pqenQpv8fM3yC5cSEJHRVA74Qu101NR9U7Dy0vtdbm2rdcKWLxoau8n5ovD1VbflBMZfRpClWpP2aCLR/ufP1LGEavTctgZG9PUyeHtqtuqGbhLxDQ4yY84zKJBN4ft86Me+WidsH9gox+Ul0jbYP+XzvP+s2VbDV0H2GrN8265u1owXKtTeBgZInbIYt2cXPpGYas25dExveDi0wD/XPlzSJMedyMtay+pK69IFZRJgkA36FXj+RCQgbmILa73uASTjTKhwx36J1BuVSmteDpXyTHzGgo9nSY3lJFJvuJXOzY2KfH7N8gkDA0RkMEqF+JcH9St6bfHVxClqj04/+mEk2hSth8zE3u+65KxxUjeUFiwlU/O4G50q1LNsBiC2R7342ORFX3PbX81cajTQerHdtW4FLbXo2r5c9sPKCzMmaA9kpN9/me2PtSlaD5yCcR663Wn5ftZaHJ2ifZ0iLKpi2vIxurYen3fvpGNOQ7/e+tWnSEvRK7/uCsbnIy/75z/gN+wdo8N7J3vX/L7E8T1TUNdB3WfRkO8JCzTvqP654BLTpmjv7Zzr0SDj44wB7czK+SP4ZTQWj+ysNa8y4wi6+g7FhaS335mkMJcZZmxNbS3ycTq4AspEkRlDElvAEA+J0SGAIbUX/x0TeS1OYzmlIgo3HuRmy7/C+pppxsAAERmMpVMZdBCJmNcrq36TKmmZj3B62gDRY5+4OmVLsUCjbj/g7pZlmNLdX6c21WwWhKlT5iJyzzCUz3bnyqqEcIdzE3c32GkP+utf1kIGV5EL5yYV7dUVMGhfc9tfrWxrYMLI9moPN+vxC1qU1xz517V9huhHzY+/x+lZ/6c+mCFxx7QvmwrXaJuWw5hVW7B8YAf1dbf7Cvu2HMLEplXgYFlCcNxRJmxoyRqf4PG2ZRjX1lNtvaZ+Qfjzzx1YOqIP+pmofo1wtheOraFfb33rK125hkgnyqrNL7Wwg1e28ZaYNoV7CbGreON/PvK2f6Zo1Ol7nftXs1kQFs1di/v/+wpeGp6Hbej3hEONdphSRTTKAvM2bVHDSs8KqUBjYEAL22oYMvdfpDyIwrqZo+CtYbaMMm0Dfln1dlM8Kcq5Cn+fSEz9sSHsLCLPncM5nf5dxf3NA/R83GBu2KN2u9aifYu6q892ejaoF9BKWE/6TpzVsimw/Nkz0fTmflpuRGRG4WFiGnKusL5mmkmUnB9ERcimTZsQFRqKH/r1N3ZTijV5aioUGVmLeGUWlpCa6vBlIiMjq9ybH6UWlpBpK5eRirhnz/Dg+XMkJL3OCixLpbC2tEUZJyc4OzjAxkKqtQ55akbWeU1NYGOhxy7eOSgrT30NRYYefTRkX3PbX53amQG5IvVdH2FqAqnUQq9+6tQ+g/UjFXGPn+HB85d4rUiHmcwGdtYl4FK2JGy0tFnxOh637z3Eo/hEpAMws3RA5YoVUMHBWtDW5NSsAdHlNZcnxeHWwyeI+6DeiuVcUKnkB2stMzKQnJq1BlJqag6Zutfe0K+3vvV9+LnW6fxv8mcAgAlkVha6PbLRWJ+P/Opf6ms8evYMD54/Q0LKm1toUks4OzihXFlnlLTK299bGhqG7TM7o9/2F4IjE/7YgR/qlspF3WRohyJO4tjt25i7YIFe5datW4c+ffpgx44dCAwMNHY3cigZKzu5YkCw6ntVYhaIc8+DUVskoPYi7Hc4Nf8/Qfr/zsXhmzpO0EqRgHOHtmBqh6HYIbI5r0XLuXh0aCQcAJxb0g1+Q4UbGP4dk4ru7jl/7GjkkgHwHbpS5z4bon4AGLX1hl6PPsxpPSHjG6DV9NOC9A9fI3VjO3RDNBb1EF8eqMtrn1evmTEVlJkLRFSEyCws9C9kagqZlZ63l0wtULJMeZQsUz7njTW1gCynd7VyUFZmkcOTGaKvue2vTvWbQmaaixPo2j6D9SPn4yq1ckDVag6oqkNbbfRoq8y2JGpU07w+EqamsNHl82Lo11vf+vT+XJvm7DNirM9HfvXPwgply7uibHlX/cvmto+axF3CrO3CTUclpk3RtjqXERQVRWMpgQ3qtgsCglUvPpXpOxFy9QVq11e90E9/cAT9/Ufn7pRSe9RtNxDBLxtjkH1tLM9UnRdvVq4k3i5Mc3IVny22ZU8kun/rh8Lmf7/+g3FdxkL8L1kyInbsxLPyzRBYp1zWWNiK/1JauOQQJnapAtFnAqVcxMoZ50XLuTi9r6+Ek/jvzRV/7cDUHl6CNip1fO2L2msGcCkBEREREeXAxWM7cAXCiaeyT9rCi8sIioyiERgAxHf6AcYNno3LSe/fx0/Pb0SbCi1F7/KLeXEtFEtXBeN2vJoF8bbl4CSybC39YdK7JfSlq9QQLfrvyAH455r2afnxsbdwLfaF1nyGVqVVW9H09AvjMHj2UcGmekkPT2Nqp/JoFNQTXQZuwduwosdHLUXrST00DBP+viRyJAHrRw7EeqVw2z7LzovQ2vX9XkDujf1Fl3WkhozD98vOqqS9iDmAThVa6fTaF9bXTBMGBoiIiIhITw+wabb4EzNGta2t2xIJKhSKSmDAylZ8aYvi4kx42/ti1M8/Y2SfVihdtweOaHgMpyo5Dv36OYb07wR3R3MMmbUeUbFP318QK5IQsXUhZmQIH39n4eH0bo8+S4+PsSJI5PF5mVH4rLoVftkQglvP4iGXJ0EulyMp/hluRZ3GjlWz0buFFRzdPOBVpR8uyPN3hbilR0vMCygheuzf0f6wajkISzcEY9+OvzHzu09hV64BJge/BACYudq9m7pu5tZavP8AFveshVaj5uPw+auIjb2FU4f/xqAW5dA720X9WxO+/VRlzb6kXAP08rEWzbt6cD3U7jMOqzaswtTBn8KpSludA0KF9TXThEsJiIiIiEgv8dFhWJwpvEMqkbbBx576PcOcCraiEhhwb98D/pLF4hf9mVGYOylK/0qhwIuk93etl47pjaVvHjITEOCL0NBLakt2blYT73f4sEGXH3/GgOCvRfP+2KsVftShNenpAAy8dZBmJdFjwhiMDB0v3p7DyzHk8HLRYya2H67Dt0HQjz8DavofMnckQuZqb41Fy7kYHFBa0MYuE7/A2G4LRctcXDcD/dflpO+F9TVTjzMGiIiIiEgPqTi6a63oEcuuLVA1B9vMUMFVVPYplzg2wOgxhl77LYVTafFn82kKCpjVno7p2Ta+s6s7CHvGtTH2MOmtVMtvsW6Q/huNpj+IU1lq4Fh3EA5Naat3PW9JzHsi7O8RovsaeHSdgBk+NnrXqU1hfc3UYWCAiIiIiPSQhkfRqaJHpnMZQZFTVGYMAFK0//lvTFEzrTy7CcEXcXbdMC25ZKjdqqterZDIvsKx/WNQVqx904JxdP7QHPVOYu6FMoInDYjvq5CuvTo92KDX0misG6Rf0OWXCZ9l21RQipaTduHoYv37b97yJ0Q+Xof6zureo2Ux5kg4BpqY6VTfkFVHcHSFttc+q82Gf82Mh4EBIiIiItKDLbpOW4Sts2Zh9bRpWD1tGrb+bwlO7wzBF9VK5L56KpAKf2AAgLQyJp27iXVTv1CbpVafKQiPeYlfPvGFk43wsYQlrVQvLj26zsOVvasxMKCWxlNLTP3x8/qjeJ6yXMMFrAzNhi/Ci5hwzBjZWacu+QYNxKz1e3Dn0XRUzHbMqmQ1QX7TGl4oodv1sR5KotfSk7gSshq9AizVZzPxxuCpKxD14DW+DxB7iowUzYbo3n/foIFYtfcSXh6ajJoOWt6fDrWw7FUM1o3rqzaLeYvh2HHuCRZ/0RzuFSsLjttZiQ2cYV8zY5Ioi8r8ICIAmzZtQlRoKH7o19/YTSEiIiIqMA5FnMSx27cxd8ECvcr99ddf+Oqrr7B//360aVN0pk0rkp4h5uZtPHwajzQA5tal4O5ZBa7OttkyypGUknWP3czSFjINO7TJ45/hwZPHiHuZgPj4VwDMYe3gjIoVyqOci4P+m7sp5Hj24AHuPX6IhPhXSAMAc3NYW9vDpUwZlCpdCrYyqdY65CnpWbMEzMxgK8v7Be1J8Q/x4M49PEt4hXSYwdreHiWdnFCunAu0NVd1QJPw8MED3Hv4EPGv0rLSzK1RytkFFdzKwdk2Z33Jeu2v4+7T5DdVOsDVvSrcXbI9GPHda28GM0uZbm03xGtmJAWzVUREREREZHRFZymBKqmtMzzrOMNTa0YZbHW8AJU5OMPdwRnuBmukDM6u7nB2zUWNUhlktrJ83d/O1sEFng4u2sdWG5ktXNw94eKe65pUhyQPXvsPy+T6NTMSLiUgIiIiIiJRRTUwQESqGBggIiIiIiJRDAwQFQ8MDBARERERkSgGBoiKBwYGiIiIiIhIFPcpJyoeGBggIiIiIiJRnDFAVDwwMEBERERERBoxMEBUtDEwQEREREREojhjgKh4YGCAiIiIiIhEMTBAVDwwMEBERERERKIYGCAqHhgYICIiIiIiUQwMEBUPDAwQEREREZEoBgaIigcGBoiIiIiISNTbwAARFW0MDBARERERkSjOGCAqHhgYICIiIiIijRgYICraGBggIiIiIiJRnDFAVDwwMEBERERERKIYGCAqHhgYICIiIiIiUQwMEBUPDAwQEREREZEoBgaIigcGBoiIiIiISBQDA0TFg9TYDSAytNv37mFPeJixm0FERERUYERev440qf5f/e3t7eHh4QGZTGbsLhBRHmJggIqUCxcuYP/pCNhWKW3sphAREREVGKcjz8HCVP+L+4EDB2LgwIHGbj4R5TEGBqhISUlJQbd+XTB84tfGbgoRERFRgREecgKr5qw2djOIqIDiHgNERERERERExRgDA0RERERERETFGAMDRERERERERMUYAwNERERERERExRgDA1SkuLm5IV2hMHYziIiIiAocBwdHYzeBiAooBgaoSHFxcYG1tbWxm0FERERU4HhUqWLsJhBRAcXAABEREREREVExxsAAERERERERUTHGwAARERERERFRMcbAABEREREREVExxsAAERERERERUTHGwAARERERERFRMcbAABEREREREVExxsAAERERERERUTHGwAARERERERFRMcbAABEREREREVExxsAAERERERERUTEmNXYDiIiIqJhSvEbs9VjEJcqzfjaXwdnVFRVLWhm7ZURERMUKAwNERERkFNfW/oRPvzugkiYxbY6tsfNQ3UZi7OYREREVGwwMEBEVWymIvXQNt2KfIx0AYAbrUs7wquUFR5luNcjj7uPyxVt4/jqrBnNzK5T29ISXm6OxO0eFgqWxG0BERERgYICIqNhKvrQT7ZtPE6TX/HkdNn9bU4caUrC9f3dMDU9WTTbxw6b/lsObd3yJiIiICgUGBoiIiiupmWhyWXPdL+jN7YR72Eok1vzjkkeUyXG4EnUbL14rAADmZpZw9qqOyiV1nOJBREREJILf3YiIiAqFVOwa3AVjdr9USZWYdcauR5NRiX/RiYiIKIf4uEIiIqJCIROvoBRJfoFkuVL/6oiIiIjeYGCAiIiokDBXk87JAkRERJQbDAwQEREVCmr+ZEusIJVxo0ciIiLKOd5kICKi/KVIQvTx04gIi8CF03dx/8V5AJVh71gOpb0ro26dumgYUBcVnbRvqKdIjsPF8JMID4/ApaM3EB8dg5sSd1T1ckC1+t6oG9AATZrXhUsJ9X/u5HExOHHkCp4lpwEAbMpURqNWdeAoBV5Gn8SKP7fg6Ol7iAFQz80HPScMR2uvEvnWd0VcDE6efQoz6WtcvysXVKnMfIZTe47jubUE6QAU6UC5WnVQtUz28cvA83t3cPP8FZw/FYm7sXF4evcBzgLwAODgVgWenlVRu3F9+DX3gqMe3xDkcfdx8fgpnDxyHpdibiLhhRISR3uUd6mI2o0aoqF/fXi55XDM3o5Dwn2cDIvCwxev3qSYwaFCJfg199GrrURERCTEP6VERJRvnpzchdHtf8QZwVr5m1n/wo9gJ1YAAPr9+Q9Gf+aupqZUnFm5EF98t0Z4SBmDG9HAjegz2Lkyq67u85ZgTL+GsBCpKWbrPHwz9phK2pQTx9D44Vq0/mypSvqp6JuILl0fzX5vK1qX4fuegRNzhmLI4mfqK848i2l9z6okWXX/BceXdHzTxgzcOroHS8ZPxe7odNEqbgBA9E2c2r0Hq+cAMPHDlD1T0bWhi5ZeJSFk/mx8O3mH6NHrOIOQTf8AADy7/4B5v/VExRw8xlKZfB3jKvXEbmWG4NiIkCMYXNde7zqJiIjoPS4lICKifPHk6F8IaD9R5MJY3Po1J5EoeiQB/w5uKx4UUGPjyCFoMmqXaH1SCydB2tl18wRBgbfSnyZAkW99T8PD/1L1PBugePQKb0vFbJmNwKAf1QYFRGWexeR2HbAq4rnaLEr5fSwMbKs2KJDdtY2z8X+Lz+ndFyAJ2wYPFA0KQOKBmuVsclAnERERfYiBASIiynPKhGhM7bRQrzImdmYwFaSmImTcN5i4KUHvNrxaMRGTVkVrziTxAADsXLQVVWuYimZxd3WG9kUOhuq7AkjM1Luv76Xg7JpdOS49O2gtHopGQVKw7cueWBj+Wq/6boRfUxPsUe/a+t8wcbd4qf6rZ+KjMpz8SERElFv8a0pERHnuydkwhCqFF7gWH/fH79+2hqujGZL+i8Xx3Xvwx8rDAICM/9KR/R5x8qU9+HbxZdFzdJ/6Kzq180GJ9Oc4+ucSzFgZIchz8Pt1uPrZNFRXN51dGfPuf29EZ4hmuR37EnIA1vnSd1u4N6kMhEfqNd7SsvbvlzrYCe8BmNRojj5BtVGpvCOUcY8RtmkZQqOFEQBl6iocufIVevqo3pV/fvIftRfrAFCtqT/K4SEOh99QSZdIzPTqR3L0bnz6dbDosdYz/8IPn7jrVR8RERGJY2CAiIjyXFzMHUGaxKIfdqwegQpv/xJVrQLfVq0waPJdhGw6iIdl68FOpUQqQhctEK1/SkgIutZ9uySgAvrOXQIfn8no+Z3qRaVSsRe7jn2D6u3K6d54Ez98+3sgbJ5cxtbpW9GkWx2dgwKG6Lvf1wuwMzAeZpavsHP4ING79D/s+xctHCXIAKBUALYVK74JDFjCs74PsDtrD4VPxv+Evj0D4FVedSPAz4f3QcjU/8O3v58Q1B11+QHgU+2DlCTsnrZYtK8SaXssPDkW/lWy6k9NfozT6zZg8NisZR/Ssta67c0gBZTyW5jdZJLoYa+vZ2HW4Lp6vApERESkCQMDRESU56QWlsJEZaroWn2pvRvaDh4oSFfcOYExm+IF6TW+X/xBUOC9Wv0Hoc+o3VirVD3Lpu0XMLxdOZ0uUC06fo/dq3rDRQoAQegzZkK+911iYw93L3sAqShrJ/yzLZG2R5NaleCq5pGFvl9OxJqa/8HR1weVS6pbBGGJFsMGoMrvJ3Ez2z4Ir5NUW6q4dxEzwl8JqzDxw7LL0/BRmfftsLApg6ZDRuF022ZYs2AfyvVupH3cJVaQIgX7xw7CFpF9BSw6jsOyX9vovfkjERERqcc9BoiIKM8pUlMEacq0v/GJ/ywcu/IQGTrUkfDfbdH03p/7qSlRDu1/aihsywcb82kiMe+BHe+CAsbtexY1ew0oX0OhYTdEiU0Z+LWsryEo8Ia9A6pKtH8teHw5SjS90bghKkGBD9lU8sOwuRMRJBLAERO2dC5GrRJufCix6Icdqz6Ho85jRkRERLrgjAEiIspzZX19ABwQpGdc3oBBjTfAtGZ7jBnZCW3a+aGUjfimf4+vXhdNv7h3D2SXzJF9z32JGRB56KxoGfEzqJp9/IOp/kbuu2Fl4FVCIhLiE5CcmAx5igIKSCFNvYunSu0bHSY/fiKa3rSFh0Fap1TsxZzJwnSJWWdsvG6Y14SIiIhU8c8rERHlOadG7fB1jT+wMFouejzj8l5M+2ovpiFrE8F+AzoInncvtbUULbtp0mRsMnB7JdL2qFTBMJPVDdF3Q3h+5yL2rNuNrXO2CpYL6C4VdyNjhMkmfvBxL6F/dSJMalSBe3SMoI0Wbeuiqr3hx4WIiIi4lICIiLKRWORFzLgkBm/9AwE6TFXfOGkC2lUciIM3P1zHnooHl28ZrDVap+8rXwMKXWrKj77nVhz+HTcUTWv3w/Q5W3IRFACATCQ8vSdIlUisYWmIt43EA5nRN3ETSlSBahBAvmsiloY8yWHFREREpAkDA0REpOL+zQc6rcEHFEjTo15pWT/8ce9fTBrWUnvmzLMY2egXXE1+exErhZmlYe4Wm9ia67SUwJBy1/fcSMG+kZ9j4uKTBuqJAkgUWW4gsTLMHMQ3j4usWsNUNICx9PN5BhoXIiIi+hCXEhARFVdq7ojHXH4GBaB113el/CHC9yTrUzUkNm7oPm0OOn0bg0Obg7F88jq1d7CVir1Ysr435g+uAcAUpSpUBpBt4zsTP8zeMwoelhLdNvGTyFDeq5Jejxs0lJz3Pefijm4Q3cQPAKRN22Nkl6aoVKEk7KwtoYw/hb49/tBSoy08WzUCwg8K2nvj3mRUr6Jlg0NdxsmsM6au64CldQYjNNueB0rFXvSb3honfm2R78EdIiKiooyBASKiYkrmaC+anha2BSfudkFrN81/Ip6fOia4cAMA6Uf14KpljbysrAc6jvg/dPx6EKKPHMCirr+K1nVk9wUkDq4BOwAKCHf3R+ZZSMpURTW3wvPnLCd9z6m42+IbNvZYtB7je9ZQubhWKqzwsWQxdis1h1hkdlai6TeuPgGquOZ+gDJfwLJCPfywrBtCB24UHE5aOAprA0PQr6FuTzggIiIi7biUgIiomDItWwV9JCIX1MoYjJ74DxI1lFUqYrG802LRY35NPXW/mJXaokarLvjj3hZ0lQjvAZu52L+bueBQoZJoFfv3X0ehpEff3xJduqF2Gn8KbkacEZ7Wezi+zhYUMIS1s0PwQu3RFFzauw+hkU91qksuV8Kt6xCMaio+t2N24B+4I9epKiIiItIBAwNERMWURFoWH31XXfRY6q7pCBi8HrcThIsCkh9dxozmXbFWKb5goF1bT0HayxtnsHnDEfyXIF5GYlMKJUQ251M8evVuWYKTu7to2YNjJ+PgTe1XiS/v3cPt+y/zZWwN3fcs5nCuWFGQT6nYi8s3xPqlwKuH6dDVfwePaJ0tAABu/h+JpiuiFmDKgnOCJR3Jjy5jYa/W6NFjLEZ8c0BjwOmtrDiHPXovmCx6XJm+DaMXROjcNyIiItKMgQEiomLLFI37DFB7NGXTbHR080P/wbOxblUwNi1djZ96DUL96r2xNlp820Hz5uPQ1scmW2oqTs4ZjZ+GjUQ7Nz9MXbAbN+7Fv7+AVLzGpeBN+DNTeBFr7m7/7ma4rFJT/PKxyFwEZQxG1GuIJVtP4b+4RKTKXyNVnopXCfGIjY7C4fVrMDqwARp5ByLQdxKuyvNz8zrD9P3t61WuqnhwZHLzrzBv1R5sW/AHvrCvjS9nReDdfgDZKKIW4I9Vl95vMKlIQNiSSWjf43869UhWqT7GqrmTf3DSl6gdOBWbtx5B+N69+GvcKNSv3hsLd2ftRSGtaK3XTAVZpTbYMKWJ6LHoaUOw5UqyHrURERGROoVnUSYRERmctFIzLBnljSG/R6nNc2rTepzapFt9034LEllGkImE5Pf3kTdOmoCNk7L+v37TqjgdfkNtfa0ae3wwnd4SbUZ/g4m7p4nmXfDVYCzQoY0Kgz2GUBeG6nsWqY2leGZlDJaNHP/uR4vIWLxCQ8hKiu8HsHHkF9i83A8datpi16ZQPftkjw7fD8CMcPFAgiL8X/wU/q/oMRMbM71H0PfrH9DnpwjRGSo/BfyJjx6MhAu/zRAREeUKZwwQERVrpmg2frbatdz6GL4xGB1Ed6U3gb2z+AWhpgtjqfdwjPxM9Q65jW8XLBnV2Kgjph/D9R0A3NsHoh60P7bRrFTWbINqXXriY4n4PfrM6LM5CApkKdm8J2b2c9S7XPrDBN2eHvEBidQVww6OFj2mTF2FmX9F56gPRERE9B4DA0RExZ20DL7auRu/j2uVo+IS0+aYf+IohrRTtyO9BTwDWutXp1lnrN/eH6UER0zRbNJcrJ7RLYd9rYSSgicmpIhmNczEAkP2HZDY1MC4hdr7nnYrAQoAElk1jD04UedzBw77TMeclgic9y9m9tfvcYojv2+dbUaJbmNfwq8L/jfUWTTvoYlbcSdfZ4EQEREVPQwMEBERAHu0G/MbTl5YhXGjOqKKDnelPT/+FD9tXIOTT+ajtVcJjXndgn7Azq0/o2vTaporNfHD8D9X4OSzyfB2UtcGC9QbMh4nL6zC/w1toVPvPD/+FN//uRAHb41A2WzHZI5uwmZ4VYKNVPsY6MKwfQc8e43Dzr/HqZ85IPHAD+P88XYOiJNfZ5yPWoWvu1VXW6e06af4LeQAZk7rL3hCQkknmZpS9gicuwY7g39Gx6YWauuGxAOfj/8J269FoH+z0jkce1O0mLAEXzUVLqWQNqoAay4lICIiyhWJUqnMz12YiPLUpk2bcCLqGIb88JWxm0JUyKXi5aMXePw0DvEJSUh/c0fW3NoWDk4lUaZsKdjZ5OyBd/KEeDx5GoeXicl4+TIFgBRW9vYo61IGpcva6f8YPUUqnj96isdP4pD0MgXpACRSKSxtbOFcqiScnB1hLTPVWkeqPCPrTrXUFNYyCx1ObOy+p+L5vad4/CQB8nQFzKxsYFPCHqXLO6u9UJYnPENs7GPExyUhHYC5tT3KupZHxbIf3MdXZOCVPGtrQqnUAhbaxu6NVwnP8Dj2MeJfpiADZrAsYQN7R3uULusMC00X7nqOfYY8FXJFxpv2mcIij14roqImPOQEosOvYf7c+cZuChEVQIyxExGRCAuUKFsWJcqWzX1V2cjsHeBq72C4CqUWcKpQAU4VKuSqDgsbIK8vMQ3bd/37LbN3RjV7Z82ZpKawtrHSrcIPWNs7w11b3aLn02/sTWUWyP2OGERERPQhLiUgIiIiIiIiKsYYGCAiIiIiIiIqxhgYICIiIiIiIirGGBggIiIiIiIiKsYYGCAiIiIiIiIqxhgYICIiIiIiIirGGBggIiIiIiIiKsYYGCAiIiIiIiIqxhgYICIiIiIiIirGGBggIiIiIiIiKsYYGCAiIiIiIiIqxhgYICIiIiIiIirGGBggIiIiIiIiKsYYGCAiIiIiIiIqxhgYICIiIiIiIirGGBggIiIiIiIiKsYYGCAiIiIiIiIqxqTGbgARkb4yFKlQyDMAqSmkMguYGrtBRESFTKo8FQoFIJVKYSHjb1EiouKOgQEqcpRKpbGbQHnozPwf8MXkgyppv505jg5VrI3dNDKC5LhHePgkAQoFAIkUNs6lUbGsnbGbRVRgKR6dxQivQQhVZr5Ls+j4Pfav641Sxm4c5Tl+RyIidRgYoCLl1q1beP36tbGbQXlEGXcKv0w+JEhPSEk3dtPICOQ3DqB+/dGC9CknjqGrl42xm0cFkFIeh2P/HsLxy/cBmENmXxK+Lf0RUNfF2E3LN6aWZkjOdnGYuus3bAxpjeEtSxu7eZTHrkRHG7sJRFRAMTBARcqTJ08gNefbuqi6tH4rbkL1C63Eoh+aetkbu2lkBIr0V6Lp6QqFsZtGBVIqdo3oijGb4lWTp83Cbxcj0MFNZuwG5guJvSd69HPEmVXPVdL/mn8QvVv2hqOxG0h5Kvn1q9xXQkRFEjcfJKJCQSm/hfU/HRakt57ZGhUYCyIiLZTyu9i3+aXosZhrz/WsrTCzQJP+gwWp6WG/Ifym3NiNIyIiI+HXaSIqFJ4cO4DdygxB+setqhm7aYWeMjkOV6Ju48XrrDvt5maWcPaqjsoli8cd1LzG8TW8HI0pJ5K8Y12jMfpIpFirVB2UddsuImh0Q2M3j4iIjICBASIqBFJwYuXfglSp93DULc9fY7mTil2Du2DMbtU7qRKzztj1aDIqcXhzieNreDkcU5kMJSERPWRhX7yCNBJpefiPbYC104+rpF+ZvR93RjXk+5KIqBjiUgIiKvCUCdEI3p0kSK/ftQ7Xw+ZaJl5BZJfqzBdIlnP36tzj+BpezsZUInVF1987CtJNvfuhTS0nY3cq33m1bCxIU6Zvw8krCcZuGhERGQFjwkRU4D05ewZnRC4EWvi7GbtpRYK5mnT+gTAMjq/h5XRMa/afgvOdv8HTeDkU6XLA3B6ubs4wNXaHjMDOsxYCJCYqjy0EgJD9Mejp42fs5hERUT7jjAEiKuAyEL37mCBVYtoctSuXMHbjigA1fwYkVpDKJPpVRSI4voaXuzGV2TujYqUKqFy1CioX06AAAEhsKqJpB+FjPU/NOYNHxm4cERHlO96wIKICTal4hNOrrgvSzds3RkUb3S6s5HH3cfH4KZw8ch6XYm4i4YUSEkd7lHepiNqNGqKhf314uZUQKReDE0eu4FlyGgDApkxlNGpVB45S4GX0Saz4cwuOnr6HGAD13HzQc8JwtPYSD1YokuNwMfwkwsMjcOnoDcRHx+CmxB1VvRxQrb436gY0QJPmdeFSQpdfyxl4fu8Obp6/gvOnInE3Ng5P7z7AWQAeABzcqsDTsypqN64Pv+ZecBSpUhEXg5Nnn8JM+hrX7wp3IldmPsOpPcfx3FqCdACKdKBcrTqoWkZ8LbZh+wdAkYToI8dxYHc4Lp2+gdPRN1G1RhVUqN8U7Tp3RLtmlSEzy8sL69yNsaHHV5PcvE/lj2Jw9PgVJLwpa25uBZdaDdHAS90inRREHzqBG/fjkVXCDDZlKqCRfx04ynRvF5CB2LPHsfvfAzh99DpOR9+ESY0qCKhZH00/bolWbYT1GWJMFQn3cTIsCg9fvHrf35q14OfjohIg0Nz2VNw6egw7tu/G0dP3cOOK8s373A8tP2+N5g0rwyLbe+lB9Hkc/vcATp2+hHvhNyGp4YEKNZugZbfWaN3SC9Z6vN6G+6zZombThsDuAyqpmfKluHx/IMpy/xYiomJFolQquciRiowRI0Yg1TwFIyZ+beymkIEo7oTCp/Z3gvTGU1fhz+G1tJROQsj82fh28g6t5/Hs/gPm/dZTJdhweck36DZWdbbClBPH0PjhWrT+bKmgDpsBMxH+e9tsFwWpOLNyIb74bo1O/e0+bwnG9GuYrY63MnDr6B4sGT8Vu6PTdRtAEz9M2TMVXRu6qNQTNq4dhix+puOrkMWq+y84vqRjHvYvS/KNwxjT4HvBFOcPWXQcgQW9LDG4xwzBsYlhR9DTx16vvhl2jA05vtrl/H2ago2BrTE1PFnluMS0ObY+mIfqInffky9tRv3m0wTpo0OOoF9d1TEXa9fEEyfRo9RtzOj/JdaGa3g0nokfFp2fD3+3t5fMhhlTsTbBxA+b/lsOby2f/ay238CMoIFYG52m9pxmzYZg++YhqCQDFHHXsHTEV1i4O1ltfol5D2y9ORrVS2gLdBn+s/by7GY0aiV8PYf8sxvDW5bTa6yp4AsPOYEVc1Yj4niEsZtCRAUQlxIQUYH28vED0fR6tcpqLKeU38fCwLY6BQUA4NrG2fi/xedU0qQWwg3Jzq6bJ3qxBQDpTxOyPREtAf8ObqvzF3kA2DhyCJqM2oVEkWMxW2YjMOhH3S9YASDzLCa364BVER8+pz0ND/9L1b2ONxSPXkG1lGH7BwDJNw6gfv1RGoMCAJC6a/67oEAVGG7mgGHG2FDjq5tcvU/txL8GKNQ92k9qJppsLpIs1q6bu9agn0dvzUEBAMg8i2F1RuB03NuGGGZMxdokkVgLpk+K5YvctQb9PPppDAoAQHrYEnw2chtib4TjS48eGoMCAKBM+xufVZ2Pexofp2j4zxoAWJerKPr5iYzWLwBDRESFHwMDRFSgPbsWKZruaK9p8m0Ktn3ZEwvDX+t1rhvh19R/iZZ4AAB2LtqKqjXEVyW7uzrj/aTlVISM+wYTNyXo3edXKyZi0qpoQZ/OrtmV43GcHbQWD99deCiAxMwc15U3/QOU8ljMbjBO7/puwlAT3ww1xoYY3xzS832a3xsjbpq2GOe8dAzkZJ7Ft3PDkAHAqGP6xg492p6ycQra1/9WdNNUMcrUVVi1PVbNUcN/1t4ydXBAeYmwT+dOX8crg48gEREVZAwMEFEBloq7l84JUiWmzeFZWX1g4PnJfzBxt/r7ZNWa+qNF06rCeiVmastAGfPuf29EZ4hmuR37Em/vgyZf2oNvF18Wzdd96q/YeHon9h5fhbH9G4rmOfj9OlxNznZRIXJ316RGc3wxfiR+WjQVk6cOQ0AN8Us6ZeoqHLny9s6lLdybVNbtJfiAtKz9u2nJedG/Wzv/xhal+NjmG4OMce7HN8f0fJ/mtyqQIPOK7hf4yUuCcSVBCaOOaQ7brq+ta8JFA5N58rvkDYmsNBo0sRSkK2JfMDBARFTMcGcZIirAMpHwTI8p3QCAJOyetlj0iETaHgtPjoV/layN11KTH+P0ug0YPDZreq60rLV+FxEmfvj290DYPLmMrdO3okm3Om82EUtF6KIFokWmhISga92305QroO/cJfDxmYye3wWr5FMq9mLXsW9Qvd3bdb6W8KzvA7x5QsMn439C354B8Cqvutnh58P7IGTq/+Hb308Izh11+QHgUw0A4Pf1AuwMjIeZ5SvsHD5IdHbFD/v+RQtHCTIAKBWAbcWKb8YnL/oXh/3ztou/bqbNMfvA/6GlbzmkP7uDXQvmYOrik/q8Ujoy3BjnbnwNTO37NP99OLuj0f/9hDH9msNJ+hxHF8zBRJHXVJlxFFH/vYS3vb3Rx/TDtn8yfhaG9akHi6QYrOj/tdblBQ2H/YSxQ5vDSfEAGycOEV1eoDh+Bg+Se8FOZVPVvPisfcgC5nbCmSWZV67hSbISpXTc4JWIiAo/BgaIqAATX3Rr1qQxXNV8YVXcu4gZ4SL3ukz8sOzyNHxU5n05C5syaDpkFE63bYY1C/ahXO9GOl9EWHT8HrtX9YaLFACC0GfMhPdtuHMCYzbFC8rU+H7xB1/k36vVfxD6jNqNtUrV/m7afgHD25V71ybfLydiTc3/4Ojrg8ol1e1eb4kWwwagyu8nBVPsXye9r19iYw93L3sAqShrJ/xTIJG2R5NaleAqsgFdXvRPfuc8FkaL38eeHTETHapk9deirAe6T18Mz6rT0fO7TTq+Wroz1BjnZnwNSdP71JgGr/kHIz5xf/OTAz6dPgtp/32MqSIzfZRvYoMFZUyHbAzG8HauWT+UrYexu5fjmls/tcsGeixajx971njX12F/rcbTst0Es2OUmQ/wIjkDsHnft7z6XfKeOVyq1QR2C4Nc/IJIRFS8cCkBERVYSvlDhO8R3lmT2ELts8cfX44STW80bohKUOBDNpX8MGzuRASJfNEWIzHvgR3vLraEEv67LZre+3M/NTWWQ/ufhNOAs2+cJrEpA7+W9TVcsL5h74CqEl1/vauZGq18rXYDurzoX9y1K6IlbQb8jrZVhP2t1X8cVk9prWMfdWf4MdZ/fA3WFy3vU2Pp9+eHQYG3bNH6m0Gi+U+fzb4BqfHGtN+f/7wPCrwhsa+JvkNriOYPmrn6g6DAm/wyd3T+qYVI+2MQ+1T1911e/S55zxSlKjjn7aAREVGhUMC+LhARqbIS2TFbmaQ+f/LjJ6LpTVt4GKxNs4+PQAUNvz0fX70umn5x7x7ILpkj++IIiRkQeeisaBl1AZAsGXiVkIiE+AQkJyZDnqKAAlJIU+/iqTLv1kLnRf8SHj8UPf5lJ1+1Y+Dd3h+YfDDP+pnFOGNsCNrep8YgkbZHYEfxvQIs7Iy1wCG3bTdFuZruAFT3AZCYNkffL3xE67IpqVsQMv9+l6hSZhzFhduvUN3HJg9GkoiICqIC9pWBiCg3UnE3MkaYbOIHH/cS+lcnQiJtj0oVNC84kNpaiqZvmjQZhpj8/vzORexZtxtb52w14I78usuL/kkhUqfEA9Uqq3/dFOma13XnhrHHOLd0eZ8ahfK1uhVCsC5XGQESE62PqiyIbYe6t6Ka/OVrVdPplHn9u0QtEz+4lpLlvh4iIio0GBggoiIkEwlP7wlSJRJrWBrqt52miwMAQCoeXL5lsB6prkKOw7/jfhTdpC3/5GX/VElMq6BcSX3ucxpCQRhjA9D6Pi2AZDLRGUJFkW4vTf591gQyzyL2aTI+KmOfr+NCRETGw8AAERVcCuC1yN1aia2GAmLPOpdY5eNvOynMLA1zcWNia/7B9N8U7Bv5OSauep5fHcnn/gkpM27i7uNUVHHLrzuXBWWMiYD8/KxlJzFtDu/KhpllRUREhQMDA0RUYElssp6xHZrtKQPKJHV3v2zh2aoREK667lyp2Isb9yajepX8uMA0RakKlQFk2wTRxA+z94yCh6VEtzt3EhnKe1V691i5uKMbMErNBau0aXuM7NIUlSqUhJ21JZTxp9C3xx+Fqn+ilDF4lph/t70LzhgTAfnzWcvA03vPRI/wCyIRUfHC3/tEVIBZwEbkGdvpx04gNrkbvEUeWSizsxKt6cbVJ0AVV+QHBVKEiZlnISlTFdXccvZrN+62+CZkPRatx/ieNVTuBioVVvhYshi7lXpNHjZq/0TrBHDrxhNAzQZoisRXMKSCNMYFlaHHnDTLi8+aqjQ8vH5Z9EhhW4lCRES5w8cVElHBZmOYX1NrZ4fghdqjKbi0dx9CI58a5FwOFSqJpu/ff13Pmt6372bEGUGq1Hs4vs52wZoTovumaVh+Yfj+ATaOLqLpW9ccFX3dlI/OYkKH33PZ8w/l3RjrO775xxJerQIEqcqMozh1/aUgXWHwMc+5gjumhpUXnzVVCqQligS3TF1gLyse+z0QEVEWBgaIqACzhFfD+oJUZcZRXLstfufSzf8j0XRF1AJMWXBOMPU2+dFlLOzVGj16jMWIbw4g0QCtdnJ3F00/OHYyDt6Uay3/8t493L7/4YWZAq8epmst99Z/B4/ocSfbHM4VKwpSlYq9uHzjpWgJw/cPcK3vhyoiG8+lhy3A7FXRquXvROAbr0EG3r0+r8ZY//HNX+IzNeaMXIWbye/393h+aT++rD6wgDwxoKCPqeHkxWftQ0r5Q5w6JnwPmDVyg2MRC7IQEZFmDAwQUYFmU8ZNNP1FgnhgQFapPsY2FV9Ne3DSl6gdOBWbtx5B+N69+GvcKNSv3hsLdycDAKQVrXN99z2rDU3xy8d2wgPKGIyo1xBLtp7Cf3GJSJW/Rqo8Fa8S4hEbHYXD69dgdGADNPIORKDvJFyVv70we7N3QjaKqAX4Y9UlpL5LSEDYkklo3+N/erTWFOWqil98TG7+Feat2oNtC/7AF/a18eWsiDzqHyApWxOBNcT3gAge2QufDp6P7Vt2YNF3o9Co9pA8uEDNqzHWf3zzk8zGUTQ9I2oVgip0xcxZSzFj8GA0bT4GZwrMYxsL9pgaUl581j6UER+P+0rhsbpN3DXv/0FEREUO48FEVKCVdBffF+DMxUcY3Ky0yBF7dPh+AGaEi1+4KcL/xU/h/4oeM7ExM1CrLdFm9DeYuHua6NEFXw3GAh1qUXywyFdWUnzvhI0jv8Dm5X7oUNMWuzaF5qi1UhvxZ6VDGYNlI8e/+9EiMhav0BDWedA/wB6tRgfh9y82iua9tmklxufpg9vzboz1H9/849q6Pephk/hFvzIGq6fF5GNrdFeQx9Sw8uKz9t6rB//hpshr71bJwdgdJyKifMYZA0RUoFlU9MTHEuF9/LMh19VO+y/ZvCdm9nOEvtIfJuj3rG8NbHy7YMmoxgYbh2pdeoqOAwBkRp/NcVAAANzbB6KeDs+PNytl/y6abOj+AYBb0FcYVcMy9xXlUF6NcU7GN79I7Gviy1E18/msuVeQx9TQ8uKz9ta9s2dF0318yxm720RElM8YGCCiAk0ic0GjbraC9PRjJ/AgWd3UZksEzvsXM/vX0OtcI79vDdVJu+Lrr3XbrdsUzSbNxeoZ3XLWcWkllPzgqQsSWTWMPThR5+KBwz7TOa/EpgbGLdTezrRbCR/03bD9y1ISX+5eha4S3RZ0dF/0F9Ys/Dxn5xcbhzwa45yNrz5y9z5tOn46vq6h26M8B2/chM3Lu+dNuxTAa5G712KLhnI+prq2Sb+2K1Jz8xpokxefNQBIwuVw4VILiVln+FTKj0e7EhFRQcLAABEVcJbwadVOkKrMOIoLtzVtNGaPwLlrsDP4Z3RsaqE+m8QDn4//CduvRaB/tqUJMkc3QXYTr0qwkeq6W7cF6g0Zj5MXVuH/hrbQqYTnx5/i+z8X4uCtESib7ZiTX2ecj1qFr7tVV1te2vRT/BZyADOn9RdcYJd0Uv9l37PXOOz8e5z6u7ASD/wwzj/blGzD9g8AJPbV8NOj3Zj5f4Fq6zBr1hMLww5jUs+6qFC+guC4tWXOl4Tk1RjnbHx1k9v3qURaHl8f3YVZ49SPuefnQ7D24nGMaFcN9jbCNe/2ImOud7tkMpQX+Vri52FvsDHVtU36tt25uo8w0dRFbX6plb1gs02JaXO4Ooo/mjMvPmvK5P8QvidZkG7dpyEqFvZpFkREpDeJUqksKLsJEeXaiBEjkGqeghETvzZ2U8iAFPfC4eP9rSC98dRV+HN4LZ3qeJXwDI9jHyP+ZQoyYAbLEjawd7RH6bLOsND0JViRilR5RtadP6kprGUWOp1PXV3PHz3F4ydxSHqZgnQAEqkUlja2cC5VEk7OjrCW6Xa3XJ7wDLGxjxEfl4R0AObW9ijrWh4Vy35w0abIwCt51rZ5UqkFLHSqOxXP7z3F4ycJkKcrYGZlA5sS9ihd3hnW2i4WDNg/AFAkxyP21l08jMu6G2tubYuyrq6qfXxz3lfyDACmkMosNL+eesibMc7F+GoZe0O8T7PG/D6efdDnCh5ucMm+/8K7MQekMiv1Y56DdqXKX79bE6+x7pyOqa5t0rftigykylP16Oub/AoAMIXMxkL3zU8N8Fl7eXY9GrWaLUgf8s9+DG9ZGlT0hIecwIo5qxFxvHBvyklEeYOBASpSGBgoqhLw50ft8Xu06nRdqfdwHAkfAP13EyAiKt7OzPwaX0w/rpImMW2OtbfmoY69rrOiqDBhYKDgkifF40VS1nccM1tHONtyOQ/lPy4lIKJCwB6tRgYJUhWX9yDyvmFW8RIRFR8PcGjGKUGq9Rcd4MugAFG+SYk9jql9WsHSzhHlypVDuXLlUMrOErU7j0PorcTcn4BIDwwMEFGh4NpaZBdyZQz2H7pl7KYRERUqydGnsVYpDKqO6NVA9+UMRJQrd/fOgZVbE0xeFyI4dnH7DLTwKIGJO68Yu5lUjDAwQESFgsS+BoaIPFZt59jDeGTsxhERFRoZOL/uH0GqqfdgtK5rb+zGERULKVc3oVKH77Xm+/WTGlgT9VKHGolyj4EBIio06vUfIEjLlC/FsSvJOaiNiKj4USZcw6YlwruQfSd8glLGbhxRsRCH1eOGqqRM2HACielKKNMTcXbLryrHBn23GHHGbjIVCwwMEFGhIa3QDEuGCmcNpCu4zwARkS5Snz5AqDJTJU1i0Q+925UzdtOIioeU+9i74/3+Af+34wZ+6dEItlIAUlvU/Ww87u+Z9u54WtgJ3E7iXvGU9/ikWiIqREzRbPpqhA97iJcpWcEAma0TSpe1y2W9RETFg6xqG5y/WxtP45OhSJdCaimFU9mysDZ2w4iKiZQH17FDmfW4V4nsKwxsX0WQp1y7Xhhh8hPmZ6ZBmXEX95/KUd/W0thNpyKOgQEiKmRM4VShApyM3QwiokJKZu+MivbOxm4GUbGU/jrt3f9LTJ1gKXY1JjGDpYRPCKH8xcAAERERERFRPrCr4o1PJKbYocxA5quZ2HzsO3zfpLRKnsRzuzEjIxUAIDF1Q/lSMr3PEx97HTf+ewqYmwsPmjnBt44H3taqeHYbu//9B1v37kPknTBEXq6OFoEN8fmAAejxSUPY6nxWOWJOHcWeA/txOPQwgkMvAQBMfHzg7eSGBr41UPejlmjZvD5KIR5XrsXCyqUGvN0ds1UTh6hLt5AAQLX1aYBVZTTwLgf5s9s4cfQQDh08hoiIS4iLjEIUlDD18Udgw4bo1jkIrfwbwln/oSu2JEqlkotWqMgYMWIEUs1TMGLi18ZuChEREVGBER5yAivmrEbE8QhjN6V4U/6HqbW8MDnyVdbPJt5YdWIHvmjgBgB4cP5f9PbriiNv9gIxsR6DOwkzUFGP27lh87ui+citao9LTP1xTn4YtRWPsWXBVHQbs0R9XvOeCLmyGAHumpZtKnD18EqMbTX03TIJfcwOu4fvm5YHAKTc3Y0GlQIRBfWXqOPG9cH06Wu1V2zijVmbV+K7LnV5N1wH3HyQiIiIiIgMYtfuS2jcdLqxm1FwSSrim6Uz3/+cGYV+DSvBvEUQOgVYonzdLu+CAgAwdd93KkGB+NjL2LfjME6Fn8IjuUj9KdFYNypYazMu7VmDIKsKGoMCAKBM24AWVZtg/8N08QyK/zC/kzO8Wg7KUVAAACbPPYCkN/9/c99qjUEBALoFBd6M7ejP/GD36TzclvNeuDYMDBARERERUa7s3ReFBo1+wSef/YHzl2KN3ZwCzbHh1zi5ZJhKWnroDgQfUb3SH7XqDCY0KY1nty5g69JfEORrDkc3b7QPaomGzRpi3Dbho0chNdN8chNvKDOOoH9QP90v5DOj8PfBK6KHzi38HiODE3I1HhlJqcjL50ulbPsOHg6DcJlPd9CIgQEiIiIiIsqRAwej0eijafi48wKcuZgVEMjkSmWtGg5eiPsRf6OXRGSSu4k3Bs9cjLrKUASZSFHKow66DvkROyJV79o/ShK5i29WFZ9PbqH+xJlRgIm33u1NShVJTInG0lHb1ZYx9fFHUFAQAgJ8NdZtYvt+47sqrXrAG/ptvCgx9UdQ7yAE+PiozaOU/4n6XyxBvN49Lz4YGCAiIiIiIr0cOnQFHzWdjnafzMOp83dUjnELM92Ua9Ad6zLTkfg0FpERYVg3fzz8JSZAZhSWjhmKXv1Hi97Vl5j6Y/yC7Vg1QPyCu+WkfXgaE4WIsDBERERgxcjWqhkyo4R1mgViVcgVpCiVUCZew4ygEu8Pmnijf1svQZnEmyexPFM1OGHq2wtLg4/i7osUKC6FYvv27Th8+CLSU17gZsQOjA2qLagnM/H9jAFLj86ITHyAyIhziNi7Kms81JDWGo59kfeRpgjF9rXbcfjSJaS8eIBDK38RzZ+ybRh+3XkHJI77MBARERERkU5CQ69h0k/BOH46Rm0exgV0pEjCrcizOLh7JzZv/R9CI9VPqDf1/QQ/De2NDq2aw8e9lNaLOGf3mnB2z/p/uyvlNeZtNX4t1kzpjbJvK7WthjHbH+Oz82cRm6CEW+2GqOwgskQhPU2QZF75I7Rr0xQVZap3/aUyB3g0CMT07QGo2skVA4JfvDtW0782HD7MbFsW3g3KAukWKAcTAJmC89T5bi0O/d5btRwAmYMLWvabgLQO/uhfxh/rlapj+nu3aegXvww1ZXwcZHYMDBARERERkUZHj17H5CnBCDt5U2tezhjQRI5rp45if/AGjJy+RmNOs4Be+LVvV7Rv0xQ1XRx1rF8oPVX9sf+F3MQ3LTxEjsjgXqcJ3DXUa1vBC/4SE5XNElO2DYOr5TD4tuiFDv71UNW9Eiq6l4drhQooVcoBtlIb9F97Aonfj0NwxC2UaDkEc75vJn4ChfiGhzZ9/8KR33trfIyiWamPsDx6HdZ7dVdJV8r/xMmbv6GmdwmQKgYGiIiIiIhI1LFjNzF5SjBCj13XuYyx4wJKpfLNP2T7b/6l2dhYwNk5+6VrMlZmu1ueXYveA2ETuQo7ItNR/fkDHF8zH3vnzkfVj4MwYHB/1He1gyFIzHsi5MafCHC1zHkdpaqhnbcVjkQmC45dOrwelw6vF6T7BvXCZ+2DEDR+CUa4ltL/pCbe+HtqH41Bgbcsq3+Oo1NXovmk/SrpT+OSADAwkB0DA1TkpKWm4UHsQ2M3g4iIiKjASEtNRWZmps75T56MwaSfghESdi1H53OtPFr1ghlaLqahPg1q8mV+UF9mZsGapfBV3yZYtvQL1cSUWITsSBTk9Q0aiGG9e6Njc1ccXzIZ3dZl3SmPjDyCyDd5QiNDsXT6SIxsUvFcAACAAElEQVTacAZzevjlqm0SU3+E3F+HAOfcTqcvi+H/rMHYKp/qXOJS8HpcCl6PHwGYtxiDiI0/o7azmc7lLYOGormr7vlrtm4DZAsMHL38GBMCyutcR3HBwAAVKVWrVsWv03/F9Ys3jN0UIirG0tLScPf2XTg6OaKkc0ljN4eICIkvE+Fe2UPn/HK5AgqF7oGE7FzK2kNiIoEEgEQiefMP2f5bwNJguPoaNKgsHBTLahg0byDWj1iMFr1HoG/XT+HftD5cHWQAgL3jGqDbjNMax/X3nvWQgmgs6uGFHDOxhb0sN++mD7rk0Rkvb+7H910+wfLIVL3Kph2eibplT2HvrT1om4uZC5qIXezqMtugOGJggIqUkiVLokO7Dujdu7exm0JExdiDBw/Qu3dvtGndFgMHDjR2c4iIcPr0ady/f1/n/AEBnggI8ERY2HVM+XmnXksJAOBY2FiYmvIBaKqkaDZ8EZTDFwmOJJ77Ex0+CApIzAKxct9k+LvbI+b4RrTqNfHdsSVfjEW/dsGo71AwNtCz82iDZZeSMSEqAof37kXIvt1YH3pJp7LKjCPoUH0sbibOR2UdrkzlOzbjxMOv0NZFt1kDV04Ln8AAC2OPWMHETysREZGBSSRZX9a4ARcRFXbNmlVDyMHvEX5oNFo1r65zOf7+04cCoeuWvftJIvsK554H44sWdeHq6o6WPSfg5ZWN744r03di1b6YnJzIsOKvY+XPE/Ddd+OxbN8VuHo3Qf/Rv2Ld4YtQpqfgxdMHiLl6FefCQrBl5QKM6N1StJrMlAX4LVj7ppZAViAhqO8c/KdD3qcRC9FoxCpBertGVYw9cgUSAwNEREQGZmKS9eeVX4yJqKj46KMqOLBvFI4fHoM2AdqnsfPXnz7keHTn/YX+z3t+QW1b1dkAdtU/x9Gpbd/9/CTuZa7OmJ6r0gCQgPldGmDApGmYN286Brf3xW+nn78/LJXBwdkF7p6eqNO0BT7r9y3mrT0EZcpDbJ/6haC2mNu67w+WGjIO7rXH4nRsitrxPLd1Gko3+kZwxMRyOFpW58aDYhgYICIiMrC3Mwb02eiLiKgwaNTIA/v2fIeIo+PQvlVNtfkYGNWPBd4HAkqVFN8AQPni/bT40iWtdK7bTGTFgZnu+/eJS7yLw0dUn0YwbvBUHItN1FxOVhZNWzcRJB87eQVJepxecXEmGrhZ4dPx83H4VBRiY2MRe+sawncsQ2/fEvDrOkG03OC/Buu0ZKE44rAQEREZGGcMEFFRV79+ZezeOQJnz97B1F92Ydf+SJXj/P2nn1S8H6/jJ29ioHf2Jw8k4/5rFwBZd9Zj7ovPGFDEX8faP5Yi+Nxt2NraAlbJWLdsu0oeZfpO/F/3PihnK75HgXPVjzBgyBeo6axhQ0AzwBaq5RUXF6Cp2wJ0GjkD/QNboYZ7RTjaySCVKiBPeoHbkaexff1fmLEuRFBd+4B6OdoUcNv0kdg2Xbe8Nn3XYmZuNm0s4hgYICIiyiOcMUBERZ2fXyXs2P4tLlyIxdRfdmHH3otvHjlo7JYVJjaoF9AKCN4CAFg9uB78qtzGNwGV3hxXIGLpGPRedvZdieaNRJ56gAQs79IAw0K1LzMIDV6v4eg6LApT4tnBoTm6WN8+byy2z9OvTJB/3q77t+w8FzdW9+YTCTTgUgIiIiIDeztjgIiouKhd2xXb/vka50/+iM4daxu7OYVOnR4j4C95/7fj2xaV0XLwOCxdugCDWpRAoyHvn2RgYvsTBjQpLawk8Sb2ZZven1NpR/fiapKG6E46kATDRH/shmxCN2/t6/5NvE1zVP+QpQfx5N+RKGuQ1hZd/OZCRERkYNxjgIiKK1/fivhnyzDIZLldxF68SEp9hJW7f1ZJO7xsBoYMGYHloa/fJ5p4Y8uF0eIXuXZV0NjbEoZgYtkYlW01PA7R1hGVJDm7UP/QkAW7cXdxN8h0yJsZlQHLznMRGXkYU9Q84eBDfcavQNTT11g8qBVnCuiASwmIiIgMjHsMEBGRvtzaj8f9iMro3agXjiiFgWVpreEI3T4DTVzVXfzbY+C6v3Hrxx+xPPhijtvh22kEZk4fhJKaMkkqYtKZ1bjj1xs7JF7o9FULOD85qvN5+4xfjNFff4GaLvoFMjKTLODmHYBJawMwftEzxNy8jrv3H+NFchrS0gBzG0e4V6uCqlXc4aBLtIHeYWCAiIjIwDhjgIiIcqJcg+4ITWuH82HhOHPzDlJTAVg4wbveR2hax03rxZujd0cs294Ry/KhrY51uiM4s7tK2pz4h7h74zqu34rFw/tP8TI19c0RC5QoVQ41a9WBt28VOMtyfxkqtXWGZx1neNbJh84WAwwMEBERGdjbwABnDBARkd6k9qjTIhB1Whi7IfqzdXCBdwMXeDcwdktIX9xjgIiIyMC4lICIiIgKEwYGiIiIDIxLCYiIiHIpXTxZYex2FVEMDBARERkYlxIQERHlRBz2Lvg/tPA1g6REbaxXqoYBUg8NQ0lfX0gkEvj6+qJlp0H45/wDYze6SOAeA0RERAbGwAAREZH+7m6ZiQ4jfteYJzMyEgAQGRkJREbiyAFL3Eycj8q8ss0VzhggIiIyMO4xQEREpL/nD2P1LqNU3EFcCv/e5hYDA0RERAbGPQaIiIj0V6aqp95lJNJKKGkpMXbTCz1OuCAiIjIwLiUgIiLSX7n2o3F0pS2Wbz+OB4mJsLOzU5s3MTER5aq2xeBxQ7mMwAA4hERERAbGpQREREQ5YYNm/X5As34/GLshxQ6XEhARERkYlxIQERFRYcLAABERkYFxxgAREREVJgwMEBER5RHOGCAiIqLCgIEBIiKiPPB2OQERERFRQcfAABERUR6QSCScMUBERESFAgMDREREecDExIR7DBAREVGhwMAAERFRHuCMASIiIiosGBggIiLKAxKJhDMGiIiIqFBgYICIiCgPcCkBERERFRYMDBAREeUBLiUgIiKiwkJq7AYQEREVRVxKQERE2igUcihS0gEzM0hlMl6ckdHwvUdERJQHGBggIiJNwmZ1RfMxW1XS/r76Et097YzdtIJPkYRbV2/iYcKrrJ/NreFSuQrcnW2N3bJCi4EBIiKiHFAqlViwYAGSk5OhVCrf/cvMzIRSqYRcLkdMTAwmTJjwLu3DPJ6envjqq6+M3Q0iIjIC5dOD+GbMP4L0uNfpxm5aoRD555fwHbpFJU1iFohzz4NR21Zi7OYVSgwMEBER5YBEIoGNjQ22b9+uNs/Lly9x4sQJ0WPdunUzdheIiMhITq1ahiioziozsR6DDj5Oxm5aIWFj7AYUOdx8kIiIKIe6desGa2trvctVq1YN9evXN3bziYjIGFKi8cfY7YLkTr9/hsq8bUtGwrceERFRDtna2qJr165YtWqVXuX69u1r7KYTEZGRPDiyCeuVCkF6r7a+eXPCpEc4f/Eqnr5KAwCYm1ujnLcfqjlbGnsoqABhYICIiCgXPvvsM2zduhXJyck65ffw8EDjxo2N3WwiIjKKZBxYulCQalZ7Opq5muXB+eRY18cbfYKfq6RKZF/hatJyVOPVIL3BpQRERES5YG1tjc8//1zn/JwtQERUfClfnMOaHQmCdP8ezVEyT86oQDIyhckZT/AyhU/OofcYGCAiIsqlLl26wM5O++OlKlWqhCZNmhi7uUREZCQPT4XgiFJ4of5Jy6p5dk4LiO/SnxfzE6jwYmCAiIgolywtLdG9e3et+fr06QOJhI9RIiIqnhQ4u32vIFViFoiPqjjm0TnVrBWQ2MKMWwzQB7iqhIiIyAA6d+6MzZs3IyEhQfR4xYoV0bx5c2M3k4iIjEXxH0L/jBQkyzq2h4etlqCxIgHnw0Jw6NBBnIi4gTvPwwF4wcmpEsr7VsdH9ZqhVWt/uL/ZUFDx7DIOnbwPc/NXuHTntbC+jIcI3b4PT20kSAOQlgZU9muOmi5i0QIFnsVeQ9SZczh+/CRu3HmMB3fu4CiAmgCcKnnD18sbHzVrheat6sJZjytM+bPbOHH0EA4dPIaIm5F4/lwJiZMT3MpVQeMmrdCqVUvUcc9d0EQRfxuHQiIQ+zzpTYoFnFw90bxVQ73aWtRxKIiIiAxAJpOhZ8+eWLRokejxPn36wMSEE/WIiIqr9LuXMD8zTZDepFEt2Goo9yB8DXo37y+yBCEy619oMNZiBgBg1IZozOlRFQd/bYMO8x+prVOZcQTDux5RSbPpuxbPVveG7F2KAlcPb8Cv3w3E+sg00XoiASAyEqHBwLzpgMTUH0tCV2JQUzcto5GA4Fkj0WnMatGjlxCK4HXLAAC1+szFPwtHoLK24ImYxIvo51RP9CkQv56Kw/j6TvrXWUTxGwoREZGBfPLJJ3B0FN7ZKF++PAICAozdPCIiMqL4h3dE05v7VVBb5kHIdJRv9oXovgRiFv51APFIQexdud7tS3+YhJQPfr66fiS8Wn6hNiggRplxBIObVcJvx56ozyS/jaktKqoNCmR3ce136DY/TO/+AAlY2belaFAAJt6oW1773kDFCQMDREREBmJhYYFevXoJ0nv16gVTU1NjN4+IiIzo8ZUI0fRS9mrmC7w4g2Gtf9TrHCZ2FpAiA8pE3QIJ6iXjyF/rclx6TLu5+E8hdiQZK7vXw+TQJL3qu3zkAuL1bEPkylEYEPxC9NiozRvR1oXbL36IgQEiIiID6tixI0qWfP/QqbJly6J169bGbhYRERmVHNcvHBWkSswC4eshfuf6wamd2KHMEKTLOo3BjrCzuHo1EhF7t2LKoM7vjiliU/H/7N13eBTV/sfxzyabZAMJht577wihqXRQqoiKAqKiomAFsSDKBfHnFSvtKmAFKQqChY50CJ2otABCEJAOAQIJJCGb7O8PatjZZDfZzSbs+/U897ly5syZc87ObHa+c84Zq8JUs2U1l2sYUKKgbl5hwJTP/lbRv+79evW9jzRx0iRN/Og93V/H+OY69eJHmrvjvF36qTVfObxZl6S6re5X11Z17TeYglxqy4XtU1X36UmG2x4ct0qfPVTD5f653bHGAAAAbhQYGKjevXtrzJgxkhgtAACQJKvOnEx2aY8Te/fYpfnlHayoWR+qwrW7uGq11bj9Q3r7w7/169RZOliylfJLav7qPO3udkYBeS5o+rNtDZ/Qf7Jml7oVNilZkpKlfOUq3bS+QIjqNW0szVksSXr8ve/06hNddWfZtNPl+r35qua8/ZAeGLnErvzI7QelO2++yY/Vj+++Z9hWU2Avzdn2P3WpdqX8xLh/tXLSWHUcMEqSFFAiVE69RCFAUkKUXr/zGcPN9V+dqekvsxCwEQIDAAC4WceOHfXjjz9Kku677z5vVwcA4HWG4+oV2KKDKjtYVC8gKMQ+MTVBRuEFc/6q6v7K0BsJoYVVrXZhSYkqnc/+qb4psJfaN6ymihbHC/o1eeFLrakbrSINmqpqYUe35SG6f+AQ1R65VDtkS7Ml7kLamiYfXKeBK+1HEZj8W2rxgWm6t8SNulhCy6jDK5/pfKcuGvPxjyr7TLubghYOmEIVoHjNGthaX6fa91Jwt/H6fdQjGZfjowgMAADgZgEBAXr88ceVkpIis5k/tQDg8xIOatHcC3bJfqGOb8iSk+Lt0lITxqlWQ2n+lFfVpnY5J27mjAMSssUpOVlK9y45tIyatS+T4RFM+QurjslfO2zWdPMd3bbJML3Nu++mCQrcLF/Flhr2ZcsM63DNwrFvavBXp+zS/fIO1s6fnlchp0vyPfxaAQDAA9q3b6/U1Kwu/gQAuF2Eyv7mNzWdNfhK39lE0iy7dOvWcWpfZ5z86z6m0W8+pYe6tFCJ0Oy4rbMq7tw5nT17RhfOn9eli5d1WYEKTN6jo8r4792F40cM0++7t5Zbame7/IMGv2WfbrL01YbDI29Mv4AhFh8EAMAD/P39FRDAiscAgMwp0rynRtTJ63B7yrbpeuWxtiqZL0D9P56uf+JsLpTuvNP712rs2/1VxxSofAWKqFyl6qrToImaNG+u5s2bqEmbPk68TjFRf/+1wy7V5N9STSoXkDv41amj2gbBl+AOLVQnvykTJfoWAgMAAAAAkOMU15CF83W/KeMFbL8c3FuV8rfWz3suOFGus45r0qv3qkilZho48ku7NQRcY9WZk/vtk/1CldcdT/L9ait1+3btkM0uOHDp18f1/u9HMlmw7yAwAAAAAACelCzFGdxY+4Wmv1tAyZaacz5KEwZ2U0ZsKavUve7z+sstIwfiNatfPT09ZqmbOsAq2wWDUQWm0CtvEsiq1CujEerUMRsGMD64f7Cb+uX2RWAAAAAAADwpXym1bmn/loHUOIfLA94QWlX9R/+ihKM7NO2jQYbD5a+xXf5B70/+I8vVPbX8f3rEYBE/SQpo9Zg+mjhNcxYt15o1G7X6t/86UWKY7mzfzrC+Ow4mZLm+0pW1BL76eYnhCAvb5R/UevicjPvahxEYAAAAAACPsihfPvsb1surF2mfk0+yLSVq6bE3P9P25LOKXPSVwykGC+as1bks1vbEvr8M0/tP3qJLK6bpzX6P6f72rdWsWWM179hVj5kyng+QJ5/x8IhtUUezWNurUk4qb7mW+mxqf8PNsaO7aczak+451m2IwAAAAAAAeFqom269zGFq0P5ZzTm/Tc/62Y/DDyhZSME3/TvJaG2AdIfwx2vHupX25d45Uv/3ZLjbX2v3v//+rBiHW+O1ce6Pmvenc8GDSwlSpcfe1Yet8hluf7PdUP2dyJQCIwQGAAAAAMCjQtTg7lZ2qbbkedoWbbxg4Nk9K/Xl5Dn651yycZGhJVXQZH87l3wsTjf2sKh4+Ur2x738gyJ3nXVQV6suHHVwTAPRi+Zoui3jQfqV295nmJ781xD1+2S13TD/uGOb9d4DpdS0ay899Owsp0ZBXIl1FNIrX31luN2W+I0e+3S5023zJQQGAAAAAMDD8hWvZph+KjbOIDVRy/77qPo/9YAqFghU/4+na8ehUzdunq1x2jj7C32YkmS3Z1ClgjcNBjCrfNVahsd9rmErvfPldE36+B218vNXu/eXXd1ivB5A8l9D9J+vNijxeh1itGjsU6rc9R2n2h9cqY3GtLrDcNsvb7ZUnjbP6csf5mjx3B/10asPKl/Jxho+57wkKaBsPpdGKgRXelQbPmxvuO2P/7TT1zvOu1CabyAwAAAAAAAeVrRKZcP01ZGHDVKtOht34xn6l4N7q065ogowmdS6dT2ZAvKpafehhuV1a15Llpv+HRCax7hCqTv0Qf/eenrwB1plS9W6P/fpWogiT2Hj9QAm9rtLIXVb6fHHu8kUUFgdB052oQcKqec7gx1uTV7xtfo/9oA6dO2lt8b8mmabX2igy/3dZNBYDfAz3q9/05H6l5UI0yAwAAAAAAAeFlyuvuEifWuWbDUYJm9WwaLGiwCsXLnN4TEC7hypkT1rpEmr3uVJtTRlfNsXUPTGSIM6PV5xuKBgyvZVmjbtt0z1QZE2L2vac0Vc3i/5aIzrbxQIqKJh60YZbkq9+JFenRCZqTbcrggMAAAAAICnBZdVm8fC7JIvr16kg3ZvJrDozrbdXSreZOmrtb8PVvFbN+RrqLHf9s9w/6ToMzfWJgiup1HrJzh97McHPudkzhA99mWUpj0X7lLb3n/nYeVPkxJvmO/WlREKNOmn3wYUM8z765tf6m9GDVxHYAAAAAAAPC5ETdo/apdqS56ndfvsFwKs1H2Mdi36Xs+2qpduqSb/lvq/6at1JuFrNSpsMsxT56kvtGvO/xyPHPCrrU+Hd9HNEwiKNOmrSwfXakTv+g6PHdD6Wf2w8YimjHrL7g0JRQs5mMKgQnrsyw3atfx7PdYq2GHZ8qutfu99px1HL+n1VqXSbMpTqKpddv+aNXSH3SALs7r+3zK91SrELn/g3RWVz92vWMjFTDabjfc14LYxc+ZMLV26VL179/Z2VQAAAHKMzZs368iRIxo3bpy3q+LTkg8uUGD5znbp7T5eryVvNHW4X+K50zp68oRizsfq3LmLkgKVN39hlSldSiVL5HdhYb5EnT50VIdPxOji5csKzBumO+4oqJJlSyg0nUISzx3TvgOHdfrUOV2WFJi3iMpWLK+KJW56jm+1Ki4hQZIUEBAsi8W5WsWdO6ajBw7rdOxFJStAecPCVKhgQZUsWULpFmFNVGJC8pVRAgEBCrVY0j2ONTFRCcnJV+sXIEsG+X0NMRIAAAAAyAYB5Rrrwzohemt72qHwq35crZg3mqqQg/0s+QurYv7CqpjlGlhUuGxFFS7rWkmW/CVUO3+J9DOZzQoNDXWuwJuE5i+havlLqJqrO5otsoRa5OztvdliyTB44MuYSgAAAAAA2aKQHnrzSbvU5G0/aOOh5EyUB7gHgQEAAAAAyCaVOhi8JSB1h2b/vsvbVYMPIzAAAAAAANmlQEMNfct+Vf6pr/+mf71dN/gsAgMAAAAAkI2aP/eWXVpq3Lv6fcd5b1cNPorAAAAAAABko4ByXbRwYEO79KRkq7erBh/FWwkAAAAAIFuZ1WH0ep0aeEhnEq4sOhicr6hK3vz6PyAbERgAAAAAgGxnvvLqQG9XAxBTCQAAAAAA8GkEBgAAAAAA8GEEBgAAAAAA8GEEBgAAAAAA8GEEBgAAAAAA8GEEBgAAAAAA8GEEBgAAAAAA8GEEBgAAAAAA8GEEBgAAAAAA8GEEBgAAAAAA8GFmb1cAAAAAAABfkJiYqORkKSDALIsl59yOM2IAAAAAAAAPSj66Sl39zAoODla+fMEKDg5QngfH6Li3K3ZVzglRAAAAAABylsTjWjRjtpZs+0dSsIILFFXTe7uqS+Ny3q5ZrmIODtAF2dKkJfz6qr74/WG9f18pb1ePwAAAAAAAwEiipj9bR72nxaRNHjZQP0ZfUo+Kwd6uYK5hKtBALzxbSKu+OpUm/dNPZmvgfQNVyMv1YyoBAAAAAMBewh79NP2c4aadu054u3a5jEX3PTfcLjVp+atauOeStyvHiAEAAAAAgIFkb1fgqrjj+nPrbp26eFmSFBiYVyVrh6tq4dw1YiFf3fYa4BeosamX06SPm71eTwxt69W6MWIAAAAAAGAvOI+KmoxvGYPz58mmSiRq2uO11aB5G3Xo0EEdOnRQmzbNVb3MK/rb6u0OcpG5groMb2WX/Od/Z3q9LQQGAAAAAAD2Aqqo3xe97ZLN9Qbr4fAi2VQJq+KVap+cclLnE2yuF+dld957r12aLfEbLd1+xqv1IjAAAAAAADDUoP93Sjh7VNHR0dq9e7t2Rx9Vwl8fqqrFlG11CJLxsQK83TmZUKBGM91v8rdLn7Nwp1frRWAAAAAAAOCQJX8JVaxYUdWq1Va1iiWyeaE6B0czhSogdy0xcEW+yupwfz675BUfr9K/XqwWiw8CAAAAgIclHtup+asidSYuSZIUWryuOtzfRPklSVZFb1qkn2cs0O8rNihm+w7t8Kul1l2aqP0D3fToQ+1UJtSFWzdrnPb8sV6rlqzRuj82avuBGG3fvl1+deqodsFyaly3ge5qdbfuaXqXKmawgJ/13D9atnyjDp2JkyQFBYWqbJ271Kx+uTQ3k4mnd2rJ0kgdv96+6mrXsbkKm2+078cZs7RyxTatvFqXLnVaqWPXB9Wtc3MVttxy3NM7tWzDEQUGXtS2Awar9qcc08rfFutUiEmXJV2+LFUIb6FaJYzbY407rg0rl2jRyuXauGLb9T6uU6ug6jRpombt2uq+Ns1VNn/64xDSa+fZHUv06ecTtGDjP9opqWX5xnrh/z7UQ7UL3FRCmBq2aivNmZWm3NS4dxV56G2VKeudcRAmm82W+yZmAA7MnDlTS5cuVe/evbNeGAAAwG1i8+bNOnLkiMaNG+ftqvisP8Z2UPjAxWnS/rf9ol4qd0AfPX633ppzPt39P1n+j15vXT7D4+ye+7ke7fqKdsi527xub0/VFyN6q7iDuINRvU3+LbXx3Ao1CjWlm+9/2y/qxWJRevXRVhq78qLDOpj8W2rO33PUpeK1J+lWLRpYRh3HHnepj0OemKrT3/dW2hhDotZ8OVQt+n/mVBn9v1yq0c+1vaWM9Pvjq+2xanfkM5Xv+H92+fP1n6mTEx5JU97ZjV+oYNOX7PK+s/gfvX9fxp+xJzCVAAAAAAA8LCCouF3aPyu/Udc76mYYFJCkN9pU0OebTqaTI15z3r5PNbq+7HRQQJJ+/eBxlco3QDvjjPcxqrf8Qu3m9xvl2/nbZ2pdtEm6QQFJsqWsUteqXbXy9LX3Iybq0MFEl/s4+VicEtKkxGjS46WdDgpI0sR+7VS0/zSdc7DdqJ0R371pGBSQpOSTZ+ze+hhaurJqG6ybsHn7CZfb7C4EBgAAAAAgO/nVliSNHjBA82s5v9srzQfpL8MbeKsWDWmjB0YuyVR1UhPGqX7LsYpxczO/HDZMa2o5t0ihLWWVHhy5QNar7bFdSHVqP8cSNefVjnp6muutuvDl4+r7VWTGGa9+jlPHfKU6dYyHXFQvV1y3Tm4IKFBE5Q1eA7l2w1bFZbHVmUVgAAAAAACyU+qOm/4zxendbJd/0Nj5u+3SL2yfrI4fbna4X0CrxzRw4EB1bWlxmCf5z1c1duURtzaztkwute/859/pz3M2SWGq2bKay8cLKFHw+k34hT+m6YExWwzz9ftomjbujlb09giNea6tYZ5fXx7tIAhzk5s+x+3brYZZ9hw8e8soBknBpdS6ZYhd3uSDpxTvcqvdg8AAAAAAAHhZt7e/1Y6jZ5Rw4aw2zHrfYb4Z3y65ZZh7ouZ9MsQwrymwl1ZEn9HlFdM0evRo/bYyQSe3/ayWJuPbwE8+mOdwCH1m3Dyloc3b32r7wZM6dXSHvhvYzjC/LXmeNh84K0lq/uo87d6+W9HRmzSiVahxfdfsUvTu3dq9e7d2b9+tvz9/8Opc/kTNG2PcJ19tPKGJbz6mxtUqqmLtezTgy6XaMKGPfV0u/6Dpqw663GaTf0v938RJGvtef9WWSf0fayb72lsUlM/+M0jZ+YcOZxSM8BACAwAAAADgRe/MjdIv/31atUoUkCU0v5o8/I52TXvRMG/Syu+0+diNWevJBxept9Fweb/amrt3slpVLJAmuUidBzVn62Tjspe9oN/3J8jd3pkdpWX/fVq1yxZR4RK19NTonzSha37jzNcevIcWVrXa1VSxYh2Vzme/Ur8psJfaN6ymitWqqVq1aqpWu5pKXH1zQ3K0cZ80eHupnm1c1C69Sb9hGuAXaJf+5ex1cmWlg+Buo3UwcaWG9uujV/4zQdttqfrsocoGOS0qW6OhYRneeScBgQEAAAAA8Jrnf9iq97vUsEuv3us1w5tVpe7QvhMXrv/z0Jb1huXWf+tDdXbw6rt8dbrpu64FDLfFXLjs1vYN+iFK7z90a/vC9OCgoYb5V246cEuK8RB92eKUnGy86dyhPYbprzze3HgHU3n1+KC1XbL9YoaO+QW/op0/DVQZp94qaVbJMiVd7UqPcuFlmAAAAAAAdzEFdNGz3eo42Fha971ZT2MN1g4IMt24jbt05pDh7j07NEjnyCFq0r2nNOcLuy3nY+Mk3eGe9gX2Uu9u1Q23WcLyuVia8w7v/Mswff3c6crzZ5DsQh+B0ubfIwz3cfaGefqfI1Uhi3fXtuR5Whd9QXfe6Z7+dwWBAQAAAADwlmRJhmsCmlWuSk1J9oGBUzfdvCcnGezqV1sVSqd/412ufmNJ9oGB1ZGH9U6rUu5pmy3OYftCS1XX/SZ/zbU5vzihswLyhRimfzn4aX3p9qNdCYBULRec9XL8W6py0TweqGHGmEoAAAAAADnQ0e2/G6YnXL42hj5eW1Yus9tuMtdW+aIWpSfhtPEbCOpUK5QtbTMF51WonHuVoWsSdWD7TreVZnUm07UASBbZUlalmSaSnQgMAAAAAEAOFFLMeJpBcGAGS9Q5caNqDitsmL59T4xyN7MCLe4JOPiHBmXrEHtTQBc1qlwg6wVlAlMJAAAAACAnshgPib8j7NoL8ELUsFVbac6sNNttyfMUefCC7qzteK564unThuktwkt7u9VZZFbJsvZTMEz+LTV95aeqldfk5MP9PCpfp5pCncrrKquO/nvUcIu33kpAYAAAAAAAvCE1TrGJkvHdZ4xWf7fYeD/bjQHuAUHGwYM9e09J6QQGdiz/zTD9jjuyPlfe25IVb5dmS1klU4naql0xMBMluluiDu3a4qDu3sFUAgAAAADwAlvKKnXo+ZH+NdiWsH2R3tpuf4Mrv9qqXOzGwoIBocaL1X0xcZnOOTpwwlZN+vBPw00lCnpn8bv0JMlmn2gKdfh4vWDZaobpsxZu93ZTrrIq6UKqfZPM5VUo2BPrLmSMwAAAAAAAeEnS8iGq3HaE/o676eb3wlYNubOvYf6gVk+rQYkbd8SV7m5jXO6yF/TOj9sMtsRq+sBnNd1mv6xecLfxalc2p40YsKh4+Up2qbbLPyhy11nDPYpWrmmY/svAp/XznoQMj3ju0H7tOXQ2w3yZlnBQK1bZB30C7q6mwl4a009gAAAAAAC86PLyd1UtrK4GfTxRk8e9ozp31NfY1MuGeXs8fq9ufm9AQLl2+q6r8YJ1E3rVU9tBY7Xiz906dGi/Nq34Uc+1LqneX0Ua5n/n5Qc9NKc+K8wqX7WW4ZbnGrbSO19O16SP31ErP3+1e//KGxqCK3Uy7pPUHXq4eh69/8Ny7T99TomJcUpMTFTcudPav2Oz5k7+RL1b51GBcpVUo3If/ZVokycknz2lAzb7EQPNWtTwWv+zxgAAAAAAeFvqDo0e/Hy6WUwBXfTC/dVvSQ1R1//8nzTnRcN9lo8eqOWjMz58UJvR6teqqLd7wZCj6RJK3aEP+ve+/s/gP/cpTm0VqhA99J//09MO+uQ/j7XVf5w4bnKyJIsTGV0Ud3ifdhhMj6hcsXAmSnMPRgwAAAAAQC7w6o+fqVF++znoBRo8p2Uj7st0uabAXlrz44A0IxFykupdnlRLU8a3rgFFC15fdiBfg+e0cMi93q66oQObVhumN7mznNfqRGAAAAAAALykVddWTuV7Ytx6ffZQZQdbzWozbL5WT3jeqbJuFtjmXW0/MU2NCjta9C7eMDU50/lubIgzeGoeZ5Q3X0ON/bZ/hm1Jij5z0/HM6vDBHK0e63qfSJIpsIaKhRr1iYvttBOrLSuX2R/P0leNK3lv4UcCAwAAAADgBabAXho3e7kOLP/K4RNx/7qPafKaA/r+5aYZlGZW8/7jdTY6Qh8O7Jbhset2fVaTF23T+WXDVSu/45Xw8xSqal+nmjV0R0Dm8l0XnEflTf52yS2qFDTMXuepL7Rrzv8cjxzwq61Ph3e5ZY6+Rc1fcb5PrvXLx9MX6sDxkSqThf5w6MI+LZp7wS45tE87VfTiRH+TzWbzzIoKgBfMnDlTS5cuVe/evbNeGAAAwG1i8+bNOnLkiMaNG+ftqvis7ROfVt3nJ6VJMwV00cYzc9Qo1CQpUYf27NO/x07r4uXLCsybX2UrVlHFEvkzd8DEOB07elSHjx3TuYtXFzIMzKsihUuodLmSKhzqwuR5a6ISE5KvPBUPCFCoxZK1fDdXMzHuylx+SQHBobJkeHOcqNOHjurwiZir/RSmO+4oqJJlSyg0o32tiTp99KgOnzim2HMXdVmSAgOVN2+YShQrpiJFiyg04wpkqp3XnN04SgWbvmaX/s7iw3r/vlLOfyZuxuKDAAAAAOAlNx40W1S2Wm2Vreamgi2hKlGxmkpUdEOBZossoZaM1+FzNt/N1bSEyoX7akkWFS5bUYXLVsxUOzK9bxbbec3OpUvs0kwBXdS+Ucms1SmLmEoAAAAAAICn2Q7ol3dX2iWHPtNbTdKZzpEdCAwAAAAAAOBhF3Ys19jUy3bp/32qjdeH8hMYAAAAAADAo6xaN+kru1Tzne/qoUYFM1GeexEYAAAAAADAk87+pYlj/7RLHjDiCRX3dt1EYAAAAAAAPC456bh9Ymqckr1dMWSLhJP/aK4tJU2aX97BeqVLeW9XTRJvJQAAAAAAj2vQb6r+qP+HjpyL0+XLUmBgiErVrK/6od5ddA7ZI7j6o0o420xHz15QcnKAAoLNKlKyrEK9XbGrCAwAAAAAgKdZCql+s/tU39v1gNdY8pdQxfwlvF0NQ0wlAAAAAADAhxEYAAAAAADAhxEYAAAAAADAhxEYAAAAAADAhxEYAAAAAADAhxEYAAAAAADAhxEYAAAAAADAhxEYAAAAAADAhxEYAAAAAADAhxEYAAAAAADAhxEYAAAAAADAhxEYAAAAAADAhxEYAAAAAADAhxEYAAAAAADAhxEYAAAAAADAhxEYAAAAAADAhxEYAAAAAADAhxEYAAAAAADAhxEYAAAAAADAhxEYAAAAAADAhxEYAAAAAADAhxEYAAAAAADAh5m9XQHAnapXr65evXppzZo13q4KAABAjpGYmKgBAwZ4uxoAcigCA7itnDx5UmEFwtSoZbi3qwIAAJBjbN28TadiTnq7GgByKAIDuK2cPXtWvfv1Uv83+nq7KgAAADlGxPL1iorY4+1qAMihWGMAAAAAAAAfRmAAAAAAAAAfRmAAAAAAAAAfRmAAAAAAAAAfRmAAAAAAAAAfRmAAAAAAAAAfRmAAAAAAAAAfRmAAAAAAAAAfRmAAAAAAAAAfRmAAAAAAAAAfRmAAAAAAAAAfRmAAAAAAAAAfRmAAAAAAAAAfRmAAAAAAAAAfRmAAAAAAAAAfRmAAAAAAAAAfRmAAAAAAAAAfRmAAAAAAAAAfRmAAAAAAAAAfRmAAAAAAAAAfRmAAAAAAAAAfRmAAAAAAAAAfRmAAAAAAAAAfRmAAAAAAAAAfRmAAAAAAAAAfRmAAAAAAAAAfRmAAAAAAAAAfRmAAAAAAAAAfZvZ2BQAAQO4TH3Ncx07GymqVZDIrpHBRlSmez9vVQq6TpJN7/9HePQd17OxFSQEKK1BIxSuVVtUaZRTk7eoBgI8gMAAAAFySuHeJGjV60y59xPq16l4jxNvVy5FsiTFa+8syrdt5RFKgLGGFVLdNS7VqUMLbVfOa+L0bNaLxi1pgSzHcnqfH+1o3sTPBAQDIBgQGgBzGlhijXTuPy+5nUoBFYUWy9kQuMfaEDh06raTkWzaYLCpWtYKKhPh7u/kAcgFr8kXD9GSr1dtVy6GSNH9Adw2eeS5t8gcf69OtG9WxnMXbFcx2iQdWqlGjV9PNkzBrqfZ+2km1Q0zeri4A3PYIDAA5iC3xkN4t/qBmOXh6IknBPd7Wos8fUREXr96jy75Vu4f/53C7yb+Fpu4fo/ph/AADAHeyJR7U4p/OG26L3nNGKlfS21XMZgn6bejwDHP51Sivghb+JgFAdmDxQSAHSfr373SDApKUMOMDvf1tlEvl2uKj9PbDn6efJ2W1du8/72SJAACnMZAiDdvxP/TjgrgM86XuOqDziTZvVxcAfAIjBoAcxBycTw1l0hal/0Now3/m6/AzNVXaySv40KJ5GZYpSaYAb/cAANyGLBYVkvGT76Aw35tGcHTrdu0z+JvkX6uXJk/rq3JBF7Vv82ZFJ1dTFaYRAEC2YMQAkIMknj1ueANf+ZYflLbLPypiV6yTpcZqzZR5aZNMlbzdVADwGSZzWXUf1dku3b92H91br6C3q5ftYk8cNEwfMv4FNShXQAWLl1aTrg+p98M1xco3AJA9GDEA5CQOrsh9sqmyTGmesPw6d4d61WmWYZHWA3/pw4ibFgozVZJs0ZJkVyYAwDNqPTVCf3Z7SafOJcqanCgFhqlsucI+eeNrVrBdmsm/he6skNfbVQMAn8WIASCXuPUGfteYhdrtxNzLnXN/TvNvv+r/OCwTAOA5lrDCKlO+tCpUqawKPhoUkCRzoPH0ADMLDQKA1zBiAMjpTJX0SP+q+mnCgjTJNusiLd08UNWbF3W4q816SL++uyFNWuquVDXu1EibFmzOdJWs8THaGrFBEREbtW31Xp2LitY+U0VVqZFfVRvVVoNWjXVPiwYqcYfjr5jEmGitX7VLp+MvS5JCilVQ07b1VcAsSUnav3qt5v62QKs3H9beXbarZYerzaPt1KJJhVvea52io1F/asUvS7Rp8zYdjtgnU81KKl3rHrV5pJ3atakhp59DWS9p/9ZtilwRqT+27dDeg+e0N2qf/GpWVuUCJVWvdnXVbV5P9RvWVZmC6c8NTq+N56M26LtvZmn15sOKltSwXB31eucVtatxh+IP79G6iL2KvXz5akkBKlLtTrVqUib94x3fo2Urd+ri1d2CQu5QhfAGqlOuQKY+55z5GaXozOED2vfnLv25absOHorRqYNHFSmpkqT85SqrWrUquvOuRgpvUeNqXR31V7RWr9ul2Ovtq6Jm7eso39XjHIpcp2W/rFHE6m3Xz/HGHeuqWafWan9/E5VI5/Weniz7Vu64HtMWGKeoVeu0ZEGEtm3eq81R+1SlZmWVbtRM7bt1VvvmFWQJcP8NXGavF4/3h6TEmCPasm6TIjft1v5DMYq/IIWWyKNCBYupev3qKp7f/uy1JvurZsvGKnL1a8Iae0Qb1uzQsbNXRnAFBuZRiVr1FF6nRPoBgmz6Trp2Xi74ZYk2r/5bm68eo1WtRmrWqY3a3ltfBbKwHEJiTLS2RB6VKThA/0SesNtus13UpoXrdCavScm2ZJkCi6th8yq3fI9kb5+4ct4BQG5nstlsPDLEbWPmzJlav2Ot+r/R19tVyZT4qF/V6O4Rdukj5oxX9AOvaKot7dLWeXq8r3UTOxv/cJIUu2Ga7urwaZo0k7mDRs8I18CH/88u/9A1q9SrTlg6NUzSlklf6MlXpzjVnh5jJmpwnyaG9ds58SU98tbatMdfv0E9i+zVh12f1dSoyw7LDWjeX7/91F/lLZI1Zo++HNBXXyyId5jfFNhTs/e9qep3pH8zs3/RTA3q+aHTIynavvZfDR3SyeGrI43aOGL9Wt11bKraPfylXf6Qpz9SxKjmmnl3a30YlWC3Pf33nSdoRpd2ei8ibT+Y67yutWt6X70hdU3O+oxStH/1Qk18+z0tiEp2rgF+4Rqx8D11b1LCtfaVOaZv+/XRqAxWTX9j7gI91bxktpd9g/uux2vi967Q4Mava6Ut1WGeoM4DNO6xYPXr+aHdtoy/QxzL3PVy303tcX9/SHFaPvYTvTx8bqba9MA3c/TBw2Udtk9+4Zr579eq7WCBvez4TrpyTf+jD596RlMjEh0X7heu8X+OVctymRvub9j+DIzfGamWpdI2Jmd8T9+XwXmTM0UsX6+oiD0aO3qst6sCIAdiKgGQCwSWqKaWr1a3S7/002/adsbRj6MkbZw5yS417xMtVbdMSCZqEatf+t3n9I9uSZoxsL/uGTRfFwy2mYPsF9zaPn+K+lTqk+4NpyQlr5mohwf+qkN7I/RMpZ7p3nBKVxZrfLjKWB12+MqwBC1/7wV16TnSpekVyz57R61KfKR98cb7GLUxctoYwx+bkpR8KlZWBapk84qG23//fb/jNsbu1aKb15K4yi9/QKaHK+ekzyh61ifq0vU/zgcFJCk1UsPbd9TkjWecbt/hiF/1UunuGd64S9In93fS9D+yv+wr3Hs9SlL83iVq1GhQukEBSUqaP/Z6UKCy3DdyIHPXi+f6Q4rRlC7tMx0UkKT8gem3z2TK62DoZvZ9J+2bP0V9KvVOPyggSamReqH+AG2Oycy7FxO0M2K7y3sdOxufpoyc8z0NALcfAgNALpCcHKw7u3ax35Aaqd9X/mu4jy12j36cfNYuvfcDjVXQ5Z81SVo+5CUNnRnrct0vfjdUwyZHOZV37gcT9EcN5240EmaMUIdGLzv1GkZJsiVN1uTfDhlsSdGa957Ty6PWu9w26coN7UMdp+tsRhmvvgli3vjZqlLT+Fa9YtnCsshf4Q/db7h92bClOu6g+JOR6w37osOj9ZyfRuEE73xGCYqcMj/Tdf6k61Qdy+iUv/r5fD/4Y62unnGZ13xw36faHZ9B+9xetvuvR1viIX3SeIjL5XlsnRKnrxfP9Ick7Zz0cdqFW53kV+PGT6ujZ+Nd3j/bvpOumunCNa3USL08eo1SXO8V5XVheozX+sSl8w4Abi8EBoBc4LJVstRtrO4m+x8qs6dEGD7xOrR0kd0Nmcm/hdo1ukNKTv9p763ity3UyxN2Gm7r8d5/NWPzPC1aN1lvPdXEMM/S16dlfPOkK08fU3elZpgvs4z6Kj5qrvqP2uFwH3OzDnrihd5qfU+gwzzW7Z9q2pqT6R/86psgJGlvlPHP6n8OnVeipHz17tLjJvvniLakyVq7y+hGI0lb58+2TzZV0n2tjUcfZJY3PiNJUj77P1d+NVvoybcH6t3x72n4ey+oVU3jZ6+2pMlatSuDG7SbPh9X2mezLtLUxf9kkMm9ZXvietw/70fNsrl+u+cxLlwvnugPW3yUJgxaZp/ZL1xvT/lO8//6Vd99PchwxMTNn3GrRmVdbnq2fSdd5eo1HT9xjnbFuhoQClLlJg1d28VUSZVK3pG9feLCeQcAtxsCA0CukCKprNq8WsNuS/KaT7XpyK2PQ2O1bMwcu7wh/buqisXk4o+aJK0cP85wy4jlyzXslU6qU6W0ytaspydGT9QPo7va5bNZF2n+2mMZHunmp4/3v/2xFu9eqZWbv9bjNQMz3LfJC+/qtx0rFfHXNL3YyXiqhHXdFh1NcwOQpJXjjNtmMnfQpK2rtX3eSL31wev6fP5mRawbpYYOhk5/99mqdIYkO+AXrpfHjNCQId1VWSb1fKS+8koymUupw8jWhrv8tGCPff/GH9S878/ZpQc0e0D1i7l3jdns/4wkKVjVGtW56bjvavbO1dq5bqwGv9lHj/S6X4++8py+WBeh/w26y7DcHTuPutzWtq+9q992r9FfR9box+9fcphvwZQNLn/2mS/bE9djjH4f85thmSb/Fvp0+Vz9FfOHNu+erWHPN3W5H93G8HrxzPfTxf177adU+IVr/PaJ6n1/fVUoX15Nuj+hn/8aZxgcGLt1o3bFblXXGq5O28r+76Sbr+mmr129RnfP1vsOPmtbymrt+Pe8i+2SqnZ/W/PWzdLiv37VqCHG1+k7i3/Ros2/av7mWZr/11dqUNDklT5Jw8H3NADcbggMALnClRv/+kbTCSTNX/B3mn8nHtisUQaL1z3/YH2X55tbD6zX4Jn2N501X5+g7g3s52bWe+o5w6fdM3/7S0lOHrP/jDn68M17VaZ4fhWt0lBvLfja4Q89Seo5frq+++ABVSmdXwXL19IL335vOLrClnpUZ+NvPAWyHjZum0yV9MXW/1PjcmlXni5Ys7W+WPe+YR0urx6ptQedD7kEdX5dy059o+f7dNXjg9/RnNi/9Mb9N54u1urUwXC/XR8v0IFb4kBnd2wxnBfe6YmmmVp00BnZ9RldU/eZoZry81eaH71RH775gGqUMloVPFitX3ja8EbtUpxr02f6zfhZ4/7zgKoUz6egkHyq27Wv5n7dwzBvcsRv2nHC+fKzUrYnrsfEA3/qiyjjc/eTjR+pY4MyCjL7K6R4JfUYOUE/jH7Upb50B0fXi6e+n1KS7deyyPPIA2p6y0J45vLherJTqF3e0xcy90zZm99J/ab8rG//c/UaLV5JD478WMM6GX+D2FxY6uN6E0LCVLFmZZUpX17lihS2327uoEb1yqtslfJXX+dYQP5e7pOMvqcB4HZCYADIRfLWNB5ifuvc8x0/2Y8WMAV0U4u6YS4fM/Zf42HSvR8Nd7BHSXV4137IrvX4RacCA32++VmvtE/7w8sUVktPPF/TMH/Xj77Xf3ql3WayVFS3dw2euNuidejUjSHlR/7cZlhmzdcG2K2EfU1IzdZ638GP5dgLzt0cmgJ7au7k3iqRzsN8c+lwvdXM/rmULflXrd8We1NKiqLmLjY4SCV1uudqP1qTdDH+Uob/czZwk52f0fX8IcUU3qaRKhTKYHZvWH5VMWXtT1vPb2ZqQHv7KRiVuj9ueP05qrMnyvbE9RizZ5fhniFPj9J9le37u95TQ/T9iHZZ6WKXpHe9eOr76fTf9n1y953lDVeiv3zBfVNrvPWd1OebnzXg/lvPy1C1e+k5w/ybI10fgZMh2yVZDaqbk7+nAeB2wtcdkIuYzKXU9q3GmjpyXZp0W9Jkrd3eV93rhMhmPaT5H26027fGm51UPhNX/Indfxumb120UJZtgbr1wZEpQNq+LNJwn4xGK5jMHdSlcwXDPUvWqigp7Txik38LPfFkHcOyQgoVVEYSzxpPb+jUtkY6ewWrzgMdpQUz7LbExV6UlPHQ4U/WDVDpDD+LUDXv210fRky22/K/X3aoR4Nm8pdksx7R8om77fIENu+u2sXMkhL0y4sdnFqYzdJ5uCKmdUt3mGx2f0aOpehi7AXFnotV/IV4JSZYZZVZ5qSDOmXL/I2ayb+FHu5cxcHWYrr71eqaajDXOcCJP6fuKNsT12PsCePr4JkH6jq8Zmt3aCkNX5qJHnZdeteLp76fStWrK+m3NNuXDVuq4/1qqvhNabbEY/pjbYLcxRvfSY6vaSkon/cHzefs72kAuH3wlQfkMtU7t5VuCQxI0k9z/1L3Os10dkuE4SJivTtVy9TxzKHBhukzhw3XTHc3znZJDl+Y4Gi9RAf5S9WrmuHhrEaPyE2VVLJU+j+GS9WtLcn+B+eWrcfVr3nRdPc1mTuofGnn3oBdtkUrNdT3dotIxn25UHv/c4+qW0y6GPWn4ef90DNNlE+SLf5fLf/JuVm1SYtW6d/4B1Q9JJ0VyrP5M7rVmQNbtXDaAs3+bLbnVsR3+EDRXyUqVpRkf/N+1smbjayW7Ynr0SyDMk2VVLXCHQ73sbq4gGlmZXS9eO77yX7NDFvSZL30agl98s79qlDIovjj0Zrx+lNacOv1Z6qkEkUy80pY73wnpXdN5y1ZQa1Mfhm+wtKTcvr3NADcLphKAOQyITWbqq9fgF36rjELdcCapC2Tv7XbZgrqo0YuL4IlSUk6unO/2+qenWueZzxYNEE7I+xHVpj8K6tUofR/ECaeMV7ZumqV/BlXLL0b61vrElZLT/QpYF+EdZHWbD4lSdq92Hjl9PvuLuN6p5nLK8TivvfSZ8S1Wf8x+mXI82p2Zx+N/GyW54ICGTi90/h1aUnJWX+zecZlZ9/1aPKvrJKFsvJ6OTdJ93rxXH9YajbX+4+G2eXZPekDda7URDXC6qlR9Yc1akGcXZ6AZg+oTqYW/fTSd1J6LBblUfZ9J+SYPnHhexoAbhcEBoBcp5haD29pl2qzLtKcqb9o3k/2q0W3fa9dmuGvzjMrINg9Pwr9QgNdXvjQK5z4QWjOZ/zD8u+95+Re/grv3c9wy9c/bJUUo4iPNttts3TspJoFr35uFosKOfvDPuWkEq3eueFOX4IWD3xUQyds8HZFFFzMeCpAUEDWB+BlXHb2XY+2lH06eMLZVSe8xZP9Eap2fbplqqxPx/dQgUzt6UCO+k7KIegTAHA7phIAuVC1Du3s5vf61fDTV69+ZJi/cyfXh2xf4a8ipSvIbnizX7g+WThIlYJNzo0CMFlUqkb5HPaKp2DVatZEWrAkTaotZbV2/ntR1dMZYZEYc9YwvWG9zIVf0pOv3pUFJ6fa0v4KTpi9SmufvKzVqfa/jm9+nZbJXFa9Jg+U36YTyhfseOG+pITzCqvfTZWzccSAs2JW/6BBk88YbjM366CBDzVT+dKFlC9vsGznNumJnp97rjJBeQyTQ8PccHZnWHY2Xo+2aJ12cpE27/Fcf9isR/T16z+4Vh2/cH266mO1K5XZn1a54zspe9EnAJBdCAwAuZClSn29WNOS5hVjqbuM54AGNH9djTP9Q1WyymBhrdRImYpVUdVyufsrxBxkPD/5YPQZKZ0fnPtWrzJMDw1z/5xUk7mUOrzbSlNvCQTZrIv0XIdF9jv4havFLdMIqnZ9XMO7KteK+cd4gbme46fr7V410zzptVnzqJNpgv28byfZbBcVlyQHywXEKnJqhIM9M76JdkfZnrgeDcuUtH/vSamO8XVgvXAxU8dyN099P/099Wt9E2U/YqKyTHbTWKo2a6l7e3bXQw/erSIWZ49gLDd8J2U3+gQAsgdTCYBcqZBaPN7cqZwPZ/Fd9vlLlzdM//33v10sKecxhxj/4Jz+7UY5Wq7Plvi3fhlt/Hq3wgWyeFfgQK37OzqdN800gttCgvZt3GKXaq79il68JSjgFqmRevapSWle/3lNYtQ6jYoyuBE1VVJZZxabc0PZnrgeQwqUMEyfPWW1jJ652o5H6p2OozJ9PHfyzPdTgnYtW2mXOnT9Fs2J/UtbDq7U2uiVWhu9RltO/KFf543R872yHhSQcs93UnaiTwAgexAYAHKpavd1yDiTX7jua1Uh43zpKFixomH60reGa+m+xAz3P3/4sP45cj7DfN5Qrkljw/TLq0dq7GyjG4s4zR/ynuHT6KDOQ3RXKc/84DSXD9dbzZwbqt6zd6McNmUjq6y6eCzZ6dz/Ll2V6dEC1ySvGaf290/UP/E3ngzb4v/W6HuGG+YPaPaAqju52FxWy/bE9Vi2UbgqG6xDkbxmnD6ZHJV2/wMb9VKN57y6Sv3NsvP7adnXP2n7gVNKkb+CLEHKGxIks6xKsaa4bWHV3PKdlJ3oEwDIHgQGgFzKXP5ODaoZnG4edzw9tpRvpvc7GYw5sEVrQMMmmjh7k/6NuaCkxEtKSkzSxdhzOhS1QyumT9GbXRqrae0u6lJ3mHYn5rxF7cylmxi3TdKPfR/V029P16bt/+jY4cPatnqxhndpp8GTogzz93+urQdvyEPVvG/3jLP5hatNkxIZ58tVQlWtbVO7VOuOcfp88jZdH+xtjdWaicPUoef/3HLU5DUT1bl0d300bpZ+nfi5HijVw26dh2s69mjq0mJzWSnbE9ejqXgtdalpfLM0Z+BjerDfWP02a67GvzpITe/sn2OCAp7qD8n4zZsbJ32iHnfeqyblmqthqbt0Z7HGurNYY9Uu1EC1w+rpqcf+TxMmL9XeExkHJBzJPd9J2Yc+AYDskbsnCAM+LUz3vHCvRr04x2GOPk+54+lxsO598yUNXfCB4dZxfftpnBOlWHPkOmbBapNO2zaO/0Qbx2dcSkDz19W9eUGP1rRsi1ZqqO+1JZ3X9OV55AHVDLudphFcYSlkvCjfjIFP6qevw9WxVqjmz1zpYqlOsEXr+2H/TTeLyb+FenXMxKicTJftiesxTG3f7KpRT84wzLtn5iS9PTNrXek5nuiPYDV5pKO0YIYTe96wacHP2rTgZ/1PUp/x3+u1XnUzMdUl93wnZR/6BACyAyMGgFysUvO2DreZ/FuoVWP3PD0OqfuQJg66y9vN9Yg76j6kb4fcnen9TeYOmjbpMfe+nszoOGHV1LNP+kd5ontD3Y7LalV9qJc6mYxvsVKjIj0TFHBSn0mDVNtDwRhHZXvieizXtW+GI5ByKs/0xxsa1Sks0/tPfuFJjVp8NFP75pbvpOxEnwCA5xEYAHISF5+qm0vX01sOfsznfbKraoQ4uGGxOj9n+wp/NR82Wt9/+Ejm2mUur0J2dTFeCd1RF1iTXMvvStuaDh6n70c/6vKeAc3769f9H6i2w+ka7qxzkJr2ftrh1iuBoCJZ7o2s1N9Tn5HJUlVvLR3qdP4uLzycpeM17tTIqXxdP/peb9xf1gtle+J6LKRnFkxWd5Nzz7h7jP9WU75w/ZpJX2bPH/f3R+KB9fpxQdbWRpnc+3PtSzNFwdn25aDvJKt0yWCUUtbfSeHqZ52D+gQAblMEBoAcxFKgkBreugiYX7hK5HO0WFKo7vv0VfuFw0yV9G7fxg6HseYtW9f+BsBUSWHBAenULkgN+7+tDX9N1mvPt3aqPdU6PajXv/lCS/cP0K1vjrYUKGeX369GeYWYjX+8Fa5exz7Rv4TD/OY8YXb9YvJvobIFjFaP91fDp4Y43bZqnR7UBz//pM1z+6vKHY6fFrvaxozcEd7J4VPd4O4dVSXEvU+uc9JnVDC8m/7cMVkvPlLdYX3NzR7Up8uX6KMPnrI7vwsVdG7BMZO5g97+/istnTPM/lq81qRaHTRy8UKN7FfXpf50b9nuvR4lyRRWVe8eX6CPXuvisIyA5r30xZoVGtargUqXKm23PW+63yHpy9r14r7+sFmPaHT9V+2m7ZjMHTRp6wptPLhSEbuXatXupVq6+Ud9PMI4IGFL2adTsTcWwHOtfTnkO8liUSmDn4rhlcKc6mO31SMn9QkA3KZMNpst560IBmTSzJkztX7HWvV/o6+3q5IFKUpKTLo659VflpAgJ+ap3rSP2V8WizP7SEmJl1w8zk2sSTpz/JROnIxR3PkEJUsymc0KDglV4SKFVLBwAeW1+GdYRlJiypUnM2Z/5bVkMBDeerWdzubPVF9KtsRLOnX8pE6cOK0Ll648NzIFBKtAoUIqVqaICoS4MGDf1TamK0mLB3bUoMln7LYMmPu7+jUvmoWy3VT/bPiMEmNP69ChEzoXE6dkSYF5w1S8bCmVKX7TAmXWFF1MvLI0odkcpCCDc3HPpOF68NW0a3SY/FtoxqExqh1ikpSko3v/1fET55SQbFVg3lAVL1s27XEc8GTZjj6nLF+PNxcXf06H9h/UsZgrT1Md1s+apIuJKZL8ZbYEKSirKxe563rJQn8cXTZB7R7+0i790y0b1bGycYBpzcC26j85xi79zeWr1KdBWJbb5+3vpBt/KySzJU/WP+cs9EVO6ZPcKGL5ekVF7NHY0WO9XRUAORCLDwI5jr+CLHlcnCuemX2UqX2uMwepYOnSKli6dGZLkMxBCgqR83Uw+ysoxJU6Z65fTJY8Klq+vIqWL+/inm5oYzpsx//ShMn2b5Y3+bdQ8/runkaQyfpnw2dkCSusqmGFM6xH3pA8zhV4667X/ytIJatUVskqmeu6bC3bHdfjzcWF5FfFuvlVMcOMQcob4kyJzrfDLddLFvrjXPQBu7SA5q+rRWXHo06CCxSXZB8YKHLrSJVMts/b30lZ+lvhxnrkpD4BgNsNUwkAIJeIWvyL9hnM9837pPunEQC+yhxkP10nec2n+mnNIcP8JyPn6/1RO+3STf4tVL4Qt5oAgNyBEQMAkCsc1bxBKwy3PPNIeCZeiwbAiKNFND+5v6s+q9lCfR9trLKFQhQfc0I7ln6r+RFJhvlD+ndVBQJ2AIBcgsAAAOQC5yNXaarNfp1sk7mDWtfjJVyAu1S6r4P01hLDbalRq/XVsNUZlmEyd9DkIa0Ymg4AyDWYSgAAOV6SNkz7znBLSL92qmDhqSTgLpbyrbTwx+cyvb9/rV6a8ff/qTqjBQAAuQiBAQDI8S7r1JZLhltef7Q+0wgyyZpk/3YHm+2iW95f7smy4XnlOrygzTtmaMigzk7vU7XZldfjRa59U7ULMiATAJC78JcLAHK8UHWaNknl/z6pS5eTJUl5wwqqRJUqqlAsr7crl2vV7PO+ZtXdpZOxl5ScLAUG5lHRatVUww1Pej1ZNrJHSOlqenzY++r95tvXX4t35vSF69egJOXNX1AFixVWqZIlVCCMiQMAgNyLwAAA5AIFy1dTs/LVvF2N24rJEqaaTe9SzVxWNrKXW1+LBwBADsVUAgAAAAAAfBiBAQAAAAAAfBiBAQAAAAAAfBiBAQAAAAAAfBiBAQAAAAAAfBiBAQAAAAAAfBiBAQAAAAAAfBiBAQAAAAAAfBiBAQAAAAAAfBiBAQAAAAAAfBiBAQAAAAAAfJjZ2xUAAEiyXtKhvw8p5kLilX8HWlS4bFmVKZTH2zW7bcXHHNexk7GyWiWZzAopXFRliufLfIGe+Aw5LwAAQDYgMAAAOcCeqe/qwVeXpEkz+bfQ7ENjVD3E5O3q3XYS9y5Ro0Zv2qWPWL9W3WuEZKpMZz9DW2KM1v6yTOt2HpEUKEtYIdVt01KtGpTIdJm+zJX+BAAAxggMAECOEOztCvgUa/JFw/RkqzULpTrzGSZp/oDuGjzzXNrkDz7Wp1s3qmM5SybK9GWu9icAADDCGgMAAGQTW+JBLf7pvOG26D1nvF29XIf+BADAPQgMAACQXbIyIAH26E8AANyCwAAAANnFYlEhGa8NEBTGsHeX0Z8AALgFgQEAALKJyVxW3Ud1tkv3r91H99Yr6O3q5Tr0JwAA7sHigwAAZKNaT43Qn91e0qlzibImJ0qBYSpbrrD8vV2xXIr+BAAg6wgMAACQzSxhhVUmzNu1uH3QnwAAZA2BAQBwJ2ucotZt1sY1G/XX5oM6cvZPSRUUVqCkitauoAb1G6hJqwYqU9DJ+c9mSUrRoch1WvbLEkWs/lubo/bJr2ZltarVSM06tVHbe+urgFPFpejM4QPa9+cu/blpuw4eitGpg0cVKamSpPzlKqtatSq6865GCm9RQwXS+QuRGBOt9at26XT8ZUlSSLEKatq2vgqYpfNRG/TdN7O0evNhRUtqWK6Oer3zitrVuMO4y+JjtDVigyIiNmrb6r06FxWtfaaKqlIjv6o2qq0GrRrrnhYNVOIOJ/9kWeMUtWqdliyI0LbNe7U5ap+q1Kys0o2aqX23zmrfvIIsASbnyvIAa+wRbVizQ8fOXnllYmBgHpWoVU/hdUo4/5T7alcc3bZBK+au0Kar59reXeXVuGNdNevWWu3b36USIY7bmfXPMGecT1npT7eee+6+9gEAyEYmm81m83YlAHeZOXOm1u9Yq/5v9PV2VeCDTm6Yrzc7/EdblPHXap9vftabD1e8/u89k4brwVfnpMljCuimKZsf0V9Dn9OoBXEOyzL5t9AXf3ygluXyOsiRov2rF2ri2+9pQVSyc43xC9eIhe+pe5MShpt3TnxJj7y1Nk3aiPVrddexqWr38Jd2+UOe/kgRo+5TUJrUJG2Z9IWefHWKU1XqMWaiBvdpcksZacXvXaHBjV/XSluqwzxBnQdo3GPB6tfzQ7ttQ9esUq86Yc710S0MP0P/Fpp9aIyq33SDbtR38gvXzH+/Vu1bbuQdnRc/bu6lrUOf1ofpnBeSNGLx7+repKjhtsx/hjnrfHKlP29w77mXlWsfyC4Ry9crKmKPxo4e6+2qAMiBWHwQANzg5Opv1arDUKduDCRp+pQNupBBHlvyr3r8zp7pBgUkyZayWi/UH6DNZ4yPHT3rE3Xp+h/nb+IkKTVSw9t31OSNxu+CNwfZL+wWOW2M4U2cJCWfir3lzXKx+qXffU7fmEnSjIH9dc+g+Q77LX7vEjVqNCjdoIAkJc0fez0oUFnZP3LAqO9MprxOD+GzJf+qHnd2zzAoIEnD29+nWdtjna6HM59hTjufXO9P9557nrj2AQDIbgQGACCLbLFReu+BL1zaxy9fgHsXR0uN1Cuj1irFbkOCIqfMz3Sxn3SdqmMZvSveVEmSNG/8bFWpadyqimUL68YA6iQtH/KShs6Mdbk+F78bqmGTo+zSbYmH9EnjIS6Xt8/Jm7nc7N3WH2lfYgbtdPozzInnkyvce+7liGsfAAA3IDAAAFl0MnKN4VPqoE5P6YvFP2j+5ln6cfaneump1te3pfybbHATnzVxE2drV7zBDWA++696v5ot9OTbA/Xu+Pc0/L0X1Kqm8fNVW9JkrdoVn/6BbdHX/3NvlHGr/jl0XolX/zt+20K9PGGnYb4e7/1XMzbP06J1k/XWU00M8yx9fZp239LO/fN+1Cybu3v09mCzLtKM+f9kkMnZz9CW484nV7j73Msp1z4AAFnF4oMAkEUx0Qfs0kxBfTT3+wEqfe1btkpl1W3bVs8NP6jlM5fqWPGGyufCMZq+9q4G92mhguYzWj3uMw2dsMEujy1ltXb8c16108yRD1a1RnWkBVfmYN//9rt6olcr1SiVdiHAR195XMvfe00vj1pvV+6OnUelOlVd6xS/cL08qotCTu7U7JGzdc8j9XVlBYQkrRw/znCXEcuXq3uDa8PCS+uJ0RNVp85w9bpljr3Nukjz176k6u1LXvsE9PuY3wzLNPm30CdLXlObuiWVfPqA5o/7TO8Z9F1u1fbt/2rg481UMjRFe5b/rJ5Pfm6Y7+epkRrwcEWXzjnjzzBPDjufXOH+cy87rn0AALIDgQEAyCJzULB9oi1JRiOmzWHldF+/Z10qv9+UnzXg/muLleXXgyM/1uV/O+m9BfYzlW0G077rPjNUU2r9qwJ166hCIUcDsIPV+oWnVXnUBrvh9ZfiMhr7nVZQ59e1YHJvlTBLUlc9Pvid69usB9Zr8MxzdvvUfH3CTTdmN9R76jk9PmiBptrS1mHmb3/plfYlFSQp8cCf+iLK+PnxJxs/UsfKV9ocVLySeoycoGpVRqrXqzNdalNO9MqMOerfvuz1f9ft2lcLv49Xxycn2+W9HLFUe2IeUqNCzv3ZT+8zzEnnkys8ce55+toHACC7MJUAALLImpRgl2a7/KPub/mx1u46lqVhw32+uTkocE2o2r30nGH+zZFH7dJMIcUU3qZROjdxV4XlVxVT1v4smAJ7au71mzh7sf8aD2nv/Wi4gxJLqsO79sO6rccvKunqf8fs2WW4Z8jTo3RfZfs213tqiL4f0S5L7fS2p6b8nCYocE25rj3U1y/AfofUSO07FO9EyRl/hjnpfHKFJ849T177AABkJ0YMAEAWFa9bR9ISu/SUnT/oubt+kH+tDho88AHd2z5cRUKcX3bMZO6gLp0rGG4Lyuf6QOqbaqaLsRcUey5W8RfilZhglVVmmZMO6lQGK/pn5JN1Nw2hNnBi99+G6VsXLZRlW6BuHfBgCpC2L4s03OdaT8aeOGa4/ZkH6jpc5K12h5bS8KVZaqu3mMwd1PneCg62FlPTwY30zch1dlsCA5z7k5/RZ2jPe+eTKzxx7nnq2gcAILsRGACALCrYtL1erPm5w+HsKTsX6YO+i/SBrixw1ufpjioT4sRr8myXJAejrvOWrKBWJr8MX813szMHtmrhtAWa/dlsj6zGbzJ3UPnSQenmMYcGG6bPHDZcmR3cb5ZBmaZKqlrhDof7WJMvu7392Sad80KS8pcqZJh+NvaipJB0i3bmM7wmJ5xPrvDEueexax8AgGzGVAIAyLJC6jf7c7VyYtj0jGHvqH2ZZ7V038WsHdJiUR45e4MRo1+GPK9md/bRyM9mee4VfRncsEpJOrpzv9sOl94wbZN/ZZUs5JtPaBNjzhimJ11yYm5/hp+hlHPOJ1d46tzzwrUPAIAHEBgAADcwFw/X54d/0bAX2mScOTVSA5u+b/fKPc9I0OKBjxq+xSD7mRUQ7J6npX6hgem+C96Wsk8HTyQ5Xd7txByUxzA9KI87BgnmpPPJFZ4793LutQ8AgPOYSgAAbmIKKaceH3ymB16O1rKf5ujr4dMcPk21WRdp4vTeGtuvpkfrFLP6Bw2abPwE2dysgwY+1EzlSxdSvrzBsp3bpCd6fu7iEVzhryKlK0jakTbZL1yfLBykSsEm5xZrM1lUqkb59F9XZ4vW6Qtue9ycuzgYfR8alpV1Ka7IWeeTKzx77uXEax8AAFcQGAAAN7MUr6TOA15T5xefU9SqJRrf/b+GawGsWvCXLvSr6dF3msf8Y7zgWs/x0/V2r5ppnnzarHnUyTRBC2yeW0vdKvtV3JUaKVOxKqpaLnN/kgzLlLR/70mpjvGceuuF3Duc22a7KMdv/IvTn7+sM94vOeuBkpx2PrnCE+ferXLStQ8AgCuYSgAAnmIOVc22D+nzw7PU3WQ/8D2gRJjct7SakQTt27jFvlq1X9GLt9zEZZf8pcsbpv/++98ulnRDSIEShumzp6zWWYN02/FIvdNxlBda7yapker30nSdMthkPbBBH0YYBD1MlVSuZEiGRacv551PrvDEueeQ1699AABcQ2AAALLo/N4t+umHVfo31viJrCmkiO4wWJzMevyi+9ZWM2TVxWPJTuf+d+kqjz/dLVixomH60reGa+m+xAz3P3/4sP45cj5NWtlG4apssBBj8ppx+mRyVNr9D2zUSzWec+ltDjlR0vxPdV/vSfrnprnqtvj9+qT3UMP8Ac06qnqxrD4Vz3nnkys8ce7l3GsfAADXEBgAgCxJ0obP3tS7LwxU+3Lhem/cAu09fO7GfGXrJW2bM1PfpNrfUAVWDPPwfK5QVWvb1C7VumOcPp+8TdeX5rPGas3EYerQ838e7y1L+WZ6v5PBAGpbtAY0bKKJszfp35gLSkq8pKTEJF2MPadDUTu0YvoUvdmlsZrW7qIudYdpd+KNG2JT8VrqUtNieLw5Ax/Tg/3G6rdZczX+1UFqemf/XB8UuCZp/lh1Lt1dH42bpV8nfa0+pR7W1Cjj1zA+/EQLFcjyEXPe+eQK9597OfnaBwDANfxdAoAsSVVs/I2nojOGvaMZw678d6NmVbQ5Yq/DPdveVcnjw4kthYxXqJ8x8En99HW4OtYK1fyZK7Oxv4J175svaeiCDwy3juvbT+OcKMWa5nFrmNq+2VWjnpxhmHfPzEl6O7Mvqs/pbNH6fth/081i8m+hB9pXcMvhct755Ap3n3s5+9oHAMAVjBgAgCzxU1jhAMMt6d0YmGu/ooEPV5SnVX2olzqZjGd/p0ZFeuUmLqTuQ5o46C63llmua18Nqhmc7W3JDfpMH6TaIe55VV9OPJ9c4d5zL2df+wAAuILAAABkSZCqtWrn0h6mgG6a/ttTKpIm1XhlfYfzkK3SJYPXod267JzJUlVvLR0qZ3V54WEnc7pY3zT81XzYaH3/4SMu9dt15vIqZHejW0jPLJhsuNCbkR7jv9WULx7N3PGz3Ceu9J193nd+/k5vdQp1qkZdx3yvN9qXzWJ9b8iZ55Mr+7rz3HPXtQ8AgPcRGACALCrX9Q3Nm/1/6t6savoZ/cL1yjffacPp4apdMO2NraVAOfvsNcorxOzgSa/FolIGX+HhlcLs0gqGd9OfOybrxUeqO6yaudmD+nT5En30wVN2N9eFCtrP33e5vnaC1LD/29rw12S99nxrp/ao1ulBvf7NF1q6f4CKG2w3hVXVu8cX6KPXujgsI6B5L32xZoWG9Wqg0qVK223PGxygzHK2T1zpO8utb1wwVVKRinX0xPRlmvLFsw7r4l+rg0YuXqiRfepmub63ymnnk+v7uu/cc8e1DwBATmCy2Wy2rBcD5AwzZ87U+h1r1f+Nvt6uCnxUYuw5nTwVo/MX4nX+fIIks/KEhal4iWIqWjxf+q90syYpKTHlypNOs7/yWjKehZyUeOn6nGezJY+CMlg5JjH2tA4dOqFzMXFKlhSYN0zFy5ZSmeI3LcpmTdHFxCtLyZnNQQqyOKh1JuqbXtvPHD+lEydjFHc+QcmSTGazgkNCVbhIIRUsXEB5Lc6/EM8af06H9h/UsZgrT5MD84aqeNmyadt59bgXE1Mk+ctsCcqw/5xph1N94kLfpSQmKdF6pY4WS5D8b6qjLTFO/+4/qOMxcUq2Xmln4VKlVLZUfudeH5jFzzDHnE9Z3Ncd516Wrn0gG0QsX6+oiD0aO3qst6sCIAciMIDbCoEBAAAAewQGAKSHqQQAAAAAAPgwAgMAAAAAAPgwAgMAAAAAAPgwAgMAAAAAAPgwAgMAAAAAAPgwAgMAAAAAAPgwAgMAAAAAAPgwAgMAAAAAAPgwAgMAAAAAAPgwAgMAAAAAAPgwAgMAAAAAAPgwAgMAAAAAAPgwAgMAAAAAAPgwAgMAAAAAAPgwAgMAAAAAAPgwAgMAAAAAAPgwAgMAAAAAAPgwAgMAAAAAAPgwAgMAAAAAAPgwAgMAAAAAAPgwAgMAAAAAAPgwAgMAAAAAAPgwAgMAAAAAAPgwAgMAAAAAAPgwAgMAAAAAAPgwAgMAAAAAAPgwAgMAAAAAAPgws7crALhTbGysFs1erH27or1dFQAAgBzj6MGjqlqlmrerASCHIjCA28qxY8dUq0ZtdezY0dtVAQAAyDGOHj2qpUuXeLsaAHIoAgO4rdSoUUOHDx9WpUqVvF0VAACAHOPs2bOqW7eet6sBIIdijQHcdvz8OK0BAABu5e/v7+0qAMihuIMCAAAAAMCHERgAAAAAAMCHERgAAAAAAMCHERgAAAAAAMCHERgAAAAAAMCHERgAAAAAAMCHERgAAAAAAMCHERgAAAAAAMCHERgAAAAAAMCHERgAAAAAAMCHERgAAAAAAMCHERgAAAAAAMCHERgAAAAAAMCHERgAAAAAAMCHERgAAAAAAMCHERgAAAAAAMCHERgAAAAAAMCHERgAAAAAAMCHERgAAAAAAMCHERgAAAAAAMCHERgAAAAAAMCHERgAAAAAAMCHERgAAAAAAMCHERgAAAAAAMCHERgAAAAAAMCHERgAAAAAAMCHERgAAAAAAMCHERgAAAAAAMCHERgAAAAAAMCHERgAAAAAAMCHERgAAAAAAMCHERgAAAAAAMCHERgAAAAAAMCHERgAAAAAAMCHERgAAAAAAMCHERgAAAAAAMCHERgAAAAAAMCHERgAAAAAAMCHERgAAAAAAMCHERgAAAAAAMCHERgAAAAAAMCHERgAAAAAAMCHERgAAAAAAMCHERgAAAAAAMCHERgAAAAAAMCHERgAAAAAAMCHERgAAAAAAMCHERgAAAAAAMCHERgAAAAAAMCHERgAAAAAAMCHERgAAAAAAMCHERgAAAAAAMCHERgAAAAAAMCHERgAAAAAAMCHERgAAAAAAMCHERgAAAAAAMCHERgAAAAAAMCHERgAAAAAAMCHERgAAAAAAMCHERgAAAAAAMCHERgAAAAAAMCHERgAAAAAAMCHERgAAAAAAMCHERgAAAAAAMCHERgAAAAAAMCHERgAAMADkpOTdfnyZW9XAwAAIEMEBgAA8ICFCxdq3rx53q4GAABAhszergAAALeby5cva9q0abLZbOrSpYsCAwO9XSUAAACHGDEAAICbLViwQDExMTpz5owWLFjg7eoAAACki8AAAABudPnyZf3www/X//3DDz8oOTnZ29UCAABwiMAAAABuNG/ePMXExFz/d0xMjBYuXOjtagEAADhEYAAAADdJSkpKM1rgmh9++EFWq9Xb1QMAADBEYAAAADeZO3euzp49a5d+6tQpLVq0yNvVAwAAMERgAAAAN0hMTNSPP/7ocPv06dMZNQAAAHIkAgMAALjBnDlzdO7cOYfbT548qd9//93b1QQAALBDYAAAgCxKSEjQjBkzMsw3ffp0paSkeLu6AAAAaRAYAAAgi3777TfFxsZmmO/48eNaunSpt6sLAACQBoEBAACywNnRAtdMnTqVUQMAACBHITAAAEAW/PLLL7pw4YLT+Y8dO6Zly5Z5u9oAAADXERgAACCTLl26pJ9++snl/aZNm8aoAQAAkGMQGAAAIJN+/vlnl0YLXHPkyBGtWLHC29UHAACQJJm9XQEAAHKr+Ph4tW/fXjabTZJks9mu/2/NmjUKDg5W/fr17bZJ0qFDh7xdfQAAAEkEBgAAyLTnn3/e4bY//vhDJUuW1LBhw7xdTQAAgHQxlQAAAA8xmUzergIAAECGCAwAAOABNpuNwAAAAMgVCAwAAOABBAYAAEBuQWAAAAAPuLbIIAAAQE5HYAAAAA9hxAAAAMgNCAwAAOABTCUAAAC5BYEBAAA8gMAAAADILQgMAADgAawxAAAAcgsCAwAAeAgjBgAAQG5AYAAAAA9gKgEAAMgtCAwAAOABBAYAAEBuQWAAAAAPYI0BAACQWxAYAADAQxgxAAAAcgMCAwAAeABTCQAAQG5BYAAAAA8gMAAAAHILAgMAAHgAawwAAIDcgsAAAAAewogBAACQGxAYAADAA5hKAAAAcgsCAwAAeACBAQAAkFsQGAAAwANYYwAAAOQWBAYAAPAQRgwAAIDcgMAAAAAewFQCAACQWxAYAADAAwgMAACA3ILAAAAAAAAAPozAAAAAHsKIAQAAkBsQGAAAwM2uvZGAwAAAAMgNCAwAAOBmBAYAAEBuQmAAAAA3uxYYAAAAyA0IDAAA4CGMGAAAALkBgQEAANyMqQQAACA3ITAAAICbERgAAAC5CYEBAADcjDUGAABAbkJgAAAAD2HEAAAAyA0IDAAA4GZMJQAAALkJgQEAANyMwAAAAMhNCAwAAOBmrDEAAAByEwIDAAB4CCMGAABAbkBgAAAAN2MqAQAAyE0IDAAA4GYEBgAAQG5CYAAAADdjjQEAAJCbEBgAAMBDGDEAAAByAwIDAAC4GVMJAABAbkJgAAAANyMwAAAAchMCAwAAuBlrDAAAgNyEwAAAAB7CiAEAAJAbmL1dAQAAbjdMJQAAZEbi6X+05Y+9umiwLaRkfd1Tu4i3q+iyuGM7tWX7EV2225JXdVs2U3GLt2sIicAAAABuR2AAAOCqsxu/UcGmzzrcHv7xem3JZYGBg3OGqfwD/+dwe7txW7Tk5XBvVxNiKgEAAG7HGgMAAFcd2LQk3e1lLAHerqKL4rV40ufp5gj1dhVxHYEBAAA8hBEDAABfFhrq7+0qwEkEBgAAcDOmEgAAXFW51UPeroKbhahln7e8XQk4icAAAABuRmAAAOCqfHUelS3htKJ379b2DT+qpSn336qVbPOaks8e0+7du7X6p6Herg7SweKDAAC4GWsMAAAyxVJIFasVkpJTVFJ+klK9XaMsM+cvrmr5i6usrZy3q4J05P4wFAAAORQjBgAAmWJN9nYN3C45maB5TsaIAQAA3IypBAAAtwu68laCxNP/aP3qZVq2dK02btymmO07tEM2+ddpqZ5Nmqhjt4fVvm0D5XfhTu/cob+1999TUmCg/caAgqpbv5IsV/9pPf2PFvzys2YvWqztB9Zo+87qat2liR59+mn1vL9JFt40YNWxPTu0//Rlw2pIASpUoboqFg722kdwOyMwAACAmxEYAAC424E/V2rS/43S08OmGG5P2b5K07av0rSvPpTJv6XGzh+vl9tXz7DcNWO7q8XA2Q63m/xb6o/EFbrTekKzxr2nRwZPvCXHDq2Ys0Mr5nyt/oG9tHzXBLWqmM/F1sVq0uOV9fS0mAxzvrP4H71/X3lPd7fPYSoBAABuxhoDAHzBiRPn9eqgGd6uhs/468tXHQYFbmVLWaVXOtRQ/f7f6bg1nYwJUZo2aE6G5W1bOEVd85Q2CArcctzLP6h1lXv0+zHXpkIkH12n0dPOOJV39JcrFZe1roQBAgMAAHgIIwYA3I5Onbqg19/4SZWqD9HYCcu9XR2k468vn1GZRiP0j6PggDkg/QL8asuWskpPde2jubYU5w6aukM/Lt3lUj3NAXlV0Mm/mTYlebjXfBOBAQAA3IypBABuR6dPx+nNwbNUsdoQjfp8qS4lXnkqzCgpL/KrrVZdu6pVq7oOs1j/eld3vvyTEo02BlTRo8NbOy4/dYfkV9vlasW5eu9+6aRW2Zx7A8Ogfu2zsI4BHCEwAACAmxEYAHA7OXMmXkPe/lkVqr2lT8ct0cWEy2m2ExjIfv71+mruHweUkLJdK377TStWbFXC2UP6bezzhvkvTHxU32w2HqrfZthinYreoY1r1mjjxo36bmC7tBlSd9jtYwroosnLdynBZpPtwh592PWOGxv9auup+2o41Y6ihQJ0avsM1S3f02Gebv83VRs3btSaNRsVfeoS6wt4CIsPAgDgZvxIBnA7OHv2oj4b9bs+n7hCcRcdPwLmKy97tX37V/303weU/5Z0S/4y6vrKeJ1p1VYP1e1u9wT+9Xd+0pNLnzd82l64Yi0Vrnjlv/PtKpXB8adqyojeKn7tTjK0qgb/dkIP/xmpQ7E2lbuziSrkz2CKwlUTetXThHS2vz83Su90cS7IgKwhMAAAgIcwYgBAbhQbe0mjRi/RuPHLdSE+McP8BEOzT8gT3+qX/z6Q7lD6ArUf1JytX+qOus+mSb+88idFnu6vVoXT/9uUnM40gP8t36eXWlcy2GJRxfr3qKKb2mnyb6lZO3/WQ9UKeKQfYY+pBAAAuBlTCQDkRufPJ2jEe3NUvspbev/jBU4FBSRGDGQXk39LzR75uFPz6/PV6aPfBjZMk2ZLWaU/DpzN3LEDe2nFwUsOggLuFdjmXW0/vYKgQDZjxAAAAG5GYABAbnLhQoLGjlum0f9bqtgLCS7v3/uJr2UymWSz2WSz6er/3/zfHkzT1e9cN5fn9L6SHnqgvsaN7eXxzymw1SO6q4RzQ/Qls+59qp80Zkua1A2bDkiNCrp0XJN/Sy0/Mi3DkQbuMurzIaqVn7+f2Y3AAAAAblakSBGNGTNGRYsW9XZVACBDM2Zu1v/Gr8hUUECSZv32R5p/m0xXAqPX/t/vpv826do2k2SQZkovzXRTmgzSTOmkOSjPz88v431N6de5ePE7XO6zzGjWorJ3VuP3C1WYJfsO91LNcIVuWaYn6hfxRmt9FoEB3HaOHDmitWvXersaAKC4uDhFR0d7uxoAoH379ik4ONhw23PPttBjvZroi/Er9NmYJTp9Nt6lsuNiPleePIGMkvKwjftOKFGS0/foAYF2SXHeboQzUnfoyQZFdWrxXr1+X2Vv18ZnEBjAbeXkyZPaHLlJBcvmz3phAAAAt4ntO3eoSAHHo5jy5g3Sm2900EsvttGEiSv16ejfdTLGudtIPz8TQYFscOnnnTr1vVTGyfwn9+6zS2tUzrVpBJ4W0Op+3XNmoVZut9pte6N9Fe2fvEUTngz3djV9AoEB3FaKFi2qx/v3Vv83+nq7KgAAADlGxPL1iorYk2G+PHkC9dqg+/TC86008cvV+nT07zp+6ny6+7D4oAck2yelXvxIw756WJOfc+JG+cIWDej2gV1y2XKZW9AvOVN7Zez+HiM1+7lvNfHxanp+2hm77RP7NFT04QWaN7Sj8yMlkCm8lQAAAABAGsHBgXp1YDvt/3ukxnzcQyWKOJ5Hz+sKPSDYeJHB7/s11NAfI5Xe+yISj23RwGbNNdeWkibdFNhLTSvny/DQAQaDPwKcXfMw3SYF2aXZki5JKqT+Uw/qtxH3Gu637D+dVKT/d4rJehWQDkYMAAAAADBksQTolZfbqN9zzfXNtxH66JNFOnIiNk0eAgPuEq81P0zS9EUrdCnugqbbrIa5/turoT78uK++HfmMWjaoqgKhwVJCgs6e3KcVs77Q08OmGO73xOR3VMuS9q7feu5vTf38S8354x+FhoZKeeI17avf0uSxJc/Taz0eV8lQ4+kihavcraf7P6lahQ3WsLAe16Jvv9UPiyIVd+FgOm0PUddhv2tD0RfVtP94u61xXz6jYhumqmedUpLyqE6Hx9S3V3Mxedh9CAwAAAAASFdQUIBefKG1nu3bXN9NWqsPP16kf4+dlSSlphIYcIfo6QPUovd3TuVN2fqN+nT4xumyA+4cqZE9a9ySGquvH2qsF1aez3D/lXOmp7N1msavsen00uft3pqw5oNu6jh8k9P1bNy5o6TxhttStq/StO3XDvmVDpj2anxPFid0F6YSAAAAAHBKYKBZ/fu11L49H2jiuN4qV6ogawy4yaU4z7wzwBTYSyt+H6zit264sE+LV7n2BgpHLq9epN1xt54IsfprVcbrWtws7sRxp/NGx2Qc0IDzCAwAAAAAcElAgL+ee7aF/t71X4WGBmW9QHhEvcdHKzpmmu4pbDANIF9l3VU72PVCDfgF36UKdlMNQlSlTh6XygnI4/y5FBrkhoUPcB2BAQAAAACZEhDgLz8/bincoc5jH2rCwCdUW8Zz+eu/Ol4/TRjkVFkBrZ/VD2v26a8pAw1u2K8J07PTftSzXetlqd51HxigBZueUyG7LWa1e2eBRvRu43jnW+IAwdW7adnEd9SqTvoz3h9/+zuNfqJOluqNtEw2VgvBbWTmzJlav2MtrysEAAC4ybXXFY4dPdbbVUFWWeN0aPdubduxSwePHJalWgsVPbhGm84HqkrF2mrQuIFqVyzi7Voil2HxQQAAAADILcyhKlu7kcrWbnRTYnN19Xa9kKsx7gcAAAAAAB9GYAAAAAAAAB9GYAAAAAAAAB9GYAAAAAAAAB9GYAAAAAAAAB9GYAAAAAAAAB9GYAAAAAAAAB9GYAAAAAAAAB9GYAAAAAAAAB9GYAAAAAAAAB9GYAAAAAAAAB9GYAAAAAAAAB9GYAAAAAAAAB9GYAAAAAAAAB9GYAAAAAAAAB9GYAAAAAAAAB9GYAAAAAAAAB9GYAAAAAAAAB9GYAAAAAAAAB9GYAAAAAAAAB9m9nYFAABADmG9pEN/H1LMhcQr/w60qHDZsipTKI+3awYAADyIwAAA4LZlS4zR2l+Wad3OI5ICZQkrpLptWqpVgxLerlqOtGfqu3rw1SVp0kz+LTT70BhVDzF5u3oAAMBDCAwAgAfFHz+o/YfiZMrg29YcaJElNERhhQuoQEiQt6t9m0jS/AHdNXjmubTJH3ysT7duVMdyFm9XMAcK9nYFAACAFxAYAAAPsR3fqMeqP699srm0n7lZB7355AO6t3NjFeHeNdNsiQe1+Kfzhtui95yRypX0dhUBAAByBAIDAOAhF08ddzkoIEnWiEX6IGKRPvAL16erPlbHOgW83ZQcwRYfo107/tHZS1ZJUmBAsArXqK4KhRxET6zerjEAAEDuQGAAADwlq9+wqZF6vXlrJa9fq641QrzdGi9L0vx+D2nwgrQjAEwB3TT/+HCVN+pri0WFZDwvPiiMoRgAAADX8LpCAMjh3mk9Vae8XQmvS9VFo9EXqWcVn2g8KsNkLqvuozrbpfvX7qN76xX0doMAAAByDEYMAEA2a/raf/VO7xqyXrJKsurs8aOKWr5Qn01YYZg/NfFLLdz4iPo08e2b2UAH6en9Iav11Aj92e0lnTqXKGtyohQYprLlCsvf240BAADIQQgMAEA2Cy1dSRXKl7+RULO6mrRtq873/6RWHT4w3GftthM+HhhwMMDNlEdmS/qv0bOEFVaZMG/XHwAAIOciMAAA2cyWZLwqXtGmj+jbQav0zKj1dtvyGuRPPB6t1et2KTb+siQpMDCPStRrosY1HC1WmKCoZeu198g5XdkjQCHFSqtpy/oqcMuU+8SYaK1ftUunr5YdUqyCmratrwJmSUrRoch1WvDLEm1e/bc2R+2TX83KalWrkZp1aqO299qXl1nWmGhtiDylAPMl/X0w0b4vU09r08J1OpPXpGRJ1mSpZL36qlLsSgWssUe0Yc0OHTt78UYf1aqn8Dol7EYNpN/mJO1fvVZzf1ug1ZsPa+8um6rUyK+qjcLV5tF2atGkgtK+ZDJFR6P+1IpflmjT5m06HLFPppqVVLrWPWrzSDu1a1PD8DM17IP4GG2N2KCIiI3atnqvzkVFa5+p4tXj11aDVo11T4sGKnGHB/+k3/S5L/tliSLc8Lm7t10pOnP4gPb9uUt/btqug4didOrgUUVKqiQpf7nKqlatiu68q5HCW9S4+pkau/W6CilWRc3a11E+3dwHaxSxetv1OjfuWFfNOrVW+/ubqEQI41EAALmPyWazub5kNpBDzZw5U+t3rFX/N/p6uyqA4qN+VaO7R9ilt/tousb2q2m4z4Yh9+qZCaec2CdBM7q003sR8WnymfxbaPbRMapu8BQ9fttPatTCfkTCm8tXqU+DsDRpOye+pEfeWpsmbej6DepZ5B99+NQzmhphf5N+nV+4xv85Vi3LOXvr60iK1gxpr/4TTru0V54e72vdxM4KctAO+YVr5r9fq3ZI2j5y3Oa9+rDrs5oaddnhMQOa99dvP/VXeYtkjdmjLwf01RcL4h3mNwX21Ox9b6r6HemNdkjSlklf6MlXpzjV7h5jJmpwnya3BChcs2fScD346py0dQ3opimbH9FfQ5/TqAVxjtvk30Jf/PGBE5+7O9uVov2rF2ri2+9pQVSyc430C9eIhe+pe5MShpsdngdljunbfn3S7QNJemPuAj3VnFdhIueJWL5eURF7NHb0WG9XBUAOxOKDAJCDhJat53zmfMZf4VZHr+kzBxgmBxokm4Pspy3smz9FfSr1Tj8oIEmpkXqh/gBtjsnq+wIv69i/SS7vZT1+Udf2MmqHyZTXcLicUd7t86eoT6U+6QYFJCl5zUQ9PPBXHdoboWcq9Uw3KCBJtss/6uEqY3XYYRfF6pd+9zl98yxJMwb21z2D5uuCyz2WPlvyr3r8zp4Z3hDbUlZf+dzPpPe8wb3tip71ibp0/Y/zQQFJSo3U8PYdNXnjGcPNRufB4Yhf9VLp7hn2gSR9cn8nTf/jTIb5AADISQgMAECOcUJLpq423GIKsr+VzcxifFkx84MJ+qOGybnMqZF6efQapWTpiFbpQqqHWuOcuS60OWHGCHVo9LK2yLmBeLakyZr82yGDLUlaPuQlDZ0Z63J9L343VMMmR3mvw1Ij9cqotQ4+d3e3K0GRU+ZnuqqfdJ2qYxnFrkyVJEnfD/5Yq6s7X/YH932q3fEMyAQA5B4EBgAgmxnd5FtjD2rKc4/qmyiDJ+SmSurVpYq3q63KMil1l/M36vET52hXbFZujkJV8Z4KLu9lLh6WpeH0WWmzq2ZPibB7Eh6/baFenrDTMH+P9/6rGZvnadG6yXrrqSaGeZa+Ps2rN6VxE2drl8HxPdIug1EzfjVb6Mm3B+rd8e9p+HsvqFVN41CZLWmyVu1Kf2SHbNHX/9OV88BmXaSpi//xSP8CAOAJLD4IANns36VzNDWp9JV/JMXpaNQfmjJzk8P8NV97TY0KOvmk3oP23fQkvOlr72pwnxYqaD6j1eM+09AJG+zy21JWa8e/51U7LCzTxwx/cZzmdTmngOCLmvfKc/oi4pJdnjcW/6LWBUxKkWSzSqFlyrgtMHBzm+9/+2O98HhDBcVF67unXsxwekGTF97VW8+3UEHrUc0Y2t9weoF13RYdjX9M+a6vd5CklePHGZY3YvlydW9wbZh7aT0xeqLq1BmuXresCWCzLtL8tS+penv3z3N3+nP/57xq1wm7KdUT7QpWtUZ1pAVrr34+7+qJXq1Uo9QdafZ79JXHtfy91/SywaKeO3YelepUdakP2r72rl7q21plQ6U9y39Szyc/N8y3YMoGvfVwxauLFgIAkLMRGACAbLZnwQ8aucC5vEGdX9cXQ5t6u8pp9JvyswbcX/Hqv/LrwZEf6/K/nfTeAvtZ4DYXpn4bMYWEqWKNMElJKp7P/k+WydxB99Qrr7IWzwZO+s+Yo1fal73yj+IN9daCr7WnXB+H0wZ6jp+u//S6tlhkfr3w7fc6VfwRzbKlHWRvSz2qs/EpUsiVtlkPrNfgmefsyqv5+oSbbp5vqPfUc3p80AJNtaUdEz/zt7/0SvuSbguQSFn73D3VrrrPDNWUWv+qQN06qlDI0SsRgtX6hadVedSGNIEeSboU59o6GP1m/KwB7Ste/3fdrn019+sY3f/sDLu8yRG/aceJHrq7GD+1AAA5H1MJACCH6vHR51o9rbeKeLsiN+nzzc03h9eEqt1Lzxnm3xx5NG2CNUkX4y9l+D/7CRUOhnHbLjlebNGNbb4eFLjKFFZLTzxv/GaJrh99f1NQ4Gp+S0V1e7e1Qf2jdejUjZEEsf8aDz/v/Wi4g9qVVId37Yfe37wAo7v6ICufu6faZQoppvA2jdIJClwVll9VTFn7ydPzm5lpggLXVOr+uB43Gdz83/LZAgCQkxHGBoAc6N7xP2tYr4pZL8iNTOYO6tLZeM5/UD5nXk2YoF9e7ODU4nOWzsMVMa2bsvrCQ8+12V8la1WUlHbOvMm/hZ54so5hWSGFCiojJ3b/bZi+ddFCWbYF6tYBGKYAafuySMN9/D3eB85+7tnZrhRdjL2g2HOxir8Qr8QEq6wyy5x0UKdsmV8rwuTfQg93drTORzHd/Wp1TR21w25LAD+zAAC5BH+xACAHWvLCQxpXYI7dk2qvsl2SHDydz1uyglqZ/LQynZsvW/y/Wv6Tcy/TS1q0Sv/GP6DqIV5eWyGdNsvREgMO8peql/FcdnNosGH6zGHDNTMH9oEzn3t2tOvMga1aOG2BZn822266gNs4HJnirxIVK0qyDwycjb0oKcQz9QEAwI2YSgAA2azdR99rV+xW7TixXouWfaZWDoY4T+z5mtad8PA4eXexWJRHbryJN5dXiIfXDchuGX+SSTq6c7/bjpe1V0U6yanP3ZPtitEvQ55Xszv7aORnszwXFMjA6Z3rDdOTknPJ9QsA8HkEBgAg210ZrOVvyaOy4W30+b6v1NDo5soWrVc/Xp49N3jZwWJRIWeDByknlWj1tffAmxUQ7J5giF9ooNumEuTcdiVo8cBHDd+MkN2CixlPMwgKYGAmACB34C8WAHiZqVC4Rnz9qDoarGweP+lrRQxqo5alcv/XtclcVr0mD5TfphPKF+x4sbikhPMKq99NlW+zEQMZ81eR0hVkNyTdL1yfLBykSsEm54JEJotK1Sjv9fUZPN2umNU/aNDkM4ZZzc06aOBDzVS+dCHlyxss27lNeqLn584cJXOC8hgmh4blnE8BAID05P5fmgBwGyjbrae6PzfL7nV2skXrix+3quUb4Zkr+CbWCxe93UxV7fq4hnf1di1yLqsS7BNTI2UqVkVVy+XeP9meaFfMP8YLGvYcP11v96qZZsSEzZpHnUwTtMCWufE3NttFxSXJwXIBsYqcGuGw5QAA5AZMJQCAHMBkLqvuo9oYbtv10c/aHX/rsPpg1Wjbyi6vLWW1Nv193i7dejxS73Qc5e1mZonhWn+mPLdViDt/6fKG6b///reLJeUs7m9XgvZt3GKXaq79il68JSjgFqmRevapSTpusCkxap1GRRkEPkyVVLYICw8CAHIHAgMAkEPUbP+gKhvMwbdZF2n24n8N9kgwLOezgZO176ZAwpltv+uZ6s9muHJ8zhaowmXKGPbNzr3nM1FezlSwovErKpe+NVxL9yVmuP/5w4f1z5Gc1x/ub5dVF48lZ7jfNf8uXZXp0QLXJK8Zp/b3T9Q/N11btvi/Nfqe4Yb5A5o9oOrFbqOoFQDgtkZgAAByCFPxO9X30TDDbTNfWqhTt6RZQgoY5k3ZMVldS3fXRx9/qQ/79VOzFoO1xUurtbuPv0pWMb65HN6ir8ZMXqhfx32uJ8Pu1DMfb/R2ZTPNUr6Z3u+Uz36DLVoDGjbRxNmb9G/MBSUlXlJSYpIuxp7ToagdWjF9it7s0lhNa3dRl7rDtDsxZ33e7m9XqKq1bWpXnHXHOH0+eZuSrifEas3EYerQ839uaUfymonqXLq7Pho3S79O/FwPlOqhqTbj6QIdezRVARfLBwDAWwhlA0COEaRmfZ6RZn5qtyU18Ust/KOn+jQIu55Wtl0HNdRM45t+W7S+/yDa2w1yK3NIsPEGW7S+Gvj29X8GbT+ki2qSgxbfc0Ww7n3zJQ1d8IHh1nF9+2mcE6VYc9zUdve3y1LIeMG/GQOf1E9fh6tjrVDNn7nS/U2xRev7Yf9NN4vJv4V6dazg/mMDAOAhjBgAgBzkjoYt9bjJOGb7+ddrbzwJlWQKq6VnBtXydpWzTcUOXYxf63iLgCJhuTrqHVL3IU0cdJe3q5Hj21X1oV7qZDJeTSA1KtIzQQEn9Zk0SLXDfO2tGgCA3IzAAAB4ioOntum9G8BkLqUuo1obbkv4+Q/9m2aIuL+avT1SL9a0yBn9ZszUT1/3cLLyxusXOHwQbZUuGYxccOd7EEwhNTXki0cyzHd5f+xN9XSlHa612ZrkYh85zV/Nh43W9x9m3FZD5vIqFJLZm1JPfu7ubZfJUlVvLR3q9O5dXng4k31yReNOjZzK1/Wj7/XG/WWzdCwAALh8lcIAAIAASURBVLIbgQEA8BBLgeJqZbL/mq1TNv2Vymt2e9LwSahftSKymNPe8JnMpfTi6vn6eEgXh+VVe7S/pm5dpwHtqyosxH6ed1hwgEHdy9kfv0Z5hZgd3HBaLCpl8CclvFKYW/u02mNDNO/HIY5HDpgq6Y0hLa9PI3ClHa62uXD1OvaJ/iUc5jfnCbNbXNLk30JlCxidD0Fq2P9tbfhrsl573jhQZNc3nR7U6998oaX7B6h4JvvX85+7e9tVMLyb/twxWS8+Ut3h/uZmD+rT5Uv00QdPqfst11Whgs4F1UzmDnr7+6+0dM4wh+eef60OGrl4oUb2q+tyvwMA4G0mm82Ws1YoArJg5syZWr9jrfq/0dfbVQGuS0pMktWaIslfFkuQ/J0a555ydb8r/zKb/RVkCUp3D2v8OR3af0SnY+KULCkwb5hKVyqnErfOxbYm6WLilRXazZY8CnJUH2uSkhJTrjwtNvsrbwbHv9LWSzfqnF7ZWe9VnTl8SidOxiox2aqAPCEKuSNMRUsVVt5bj+lKO1xts/Xq5+R0H938ufrLEhLk3Kv1rEk6c/yUTpyMUdz5BCVLMpnNCg4JVeEihVSwcAHltbjpJX3Z+bm7sV2Jsad16NAJnbvp/C9etpTKFL8pGGZN0cXEKxNyzOYgBRmUvWfScD346pw0aSb/FppxaIxqh5gkJeno3n91/MQ5JSRbFZg3VMXLlk17HCAHili+XlERezR29FhvVwVADpSbp2ECQK4QZAlSxrdWt/JXkCWPS/uZQ/KrYt38qphhxiDldeb16uYgBYXIpTq4WufMC1LB0qVVsHRp97bD1Tab/RUU4kqbXf9cr9XL6fZmVXZ+7m5slyWssKqGFc7geP7KG5LHuQJv3fVGa1WySmWVrJLlKgMAkGMwlQAAAAAAAB9GYAAAAAAAAB9GYAAAAAAAAB9GYAAAAAAAAB9GYAAAAOAqa9IZuzSb7aKs3q4YAAAexFsJAAAArqrZ533NqrtLJ2MvKTlZCgzMo6LVqqlGiMnbVQMAwGMIDAAAAFxlsoSpZtO7VNPbFQEAIBsxlQAAAAAAAB9GYAAAAAAAAB9GYAAAAAAAAB9GYAAAAAAAAB9GYAAAAAAAAB9GYAAAAAAAAB9GYAAAAAAAAB9GYAAAAAAAAB9m9nYFAOCaFGuSrIkpktlfZkuQ/L1dIQDwcUmJSbJaJbPZrCAL38oAcLsiMAAgR9gy9g09OXxpmrRPt6xTx8p5vV01eEF8zHEdOxkrq1WSyayQwkVVpni+zBdovaRDfx9SzIXEK/8OtKhw2bIqUyiPt5sK5EjW45EaUOM5rbSlXk8L6vy6fp/WW0W8XTkAgNsRGADgdbaYTXp/+DK79NiEZG9XDV6QuHeJGjV60y59xPq16l4jJFNl7pn6rh58dUmaNJN/C80+NEbVQ0zebjKQ4/gHByjeZkuTljT/U81Y3k6vtCnq7eoBANyMwAAAr9s2fbb2Ke0PUFNQHzWrEebtqsELrMkXDdOTrdYslBrs7WbBSecPRGv3P6eUXljQJItqtKivApn8FZMdx8jtTGHV1LNPAW2ZfCZN+rdjl6p3m94q4O0KAgDcykf/3AHIKWyJ+zX93RV26e0+aqfSfEMBPmXP9JF68MWZGWf0C9fMf79WgUyM9siOY9wegnTPU/2kyR+kSU1e86ki9j2srpUt3q4gAMCN+NkNwKtOrl2iBbYUu/RObat6u2q5ni0+Rrt2/KOzl648aQ8MCFbhGtVVoRA/6JETxWnrjAVO5TSZ8mbyB0x2HOP2kbfmXXrcZNZUW9rROtN+3aqubzbxdvUAAG7k63/zAHhVgtZP+tEu1Vz7FTUoxddT1iRpfr+HNHjB+TSppoBumn98uMrTvchxsuOk5MR3hclcSi3faqypI9elSd/1ye86MKgJ3yMAcBvx83YFAPguW2yU5iyIs0tv1L0+81ezLFUXb1m34UryWcUn2lwvDvC4YDV5oddtcIzbS402d9ml2ZJ/1YZdsd6uGgDAjYj1AvCak5FbtMXg5rV1y3LertptIdBBOl/8yKnKdXhBfx7srqNHY3V9glGA9M+M0Ro0an2uOcbtJF+1empl8kvz2kJJWv57tHrVCfd29QAAbsLvQwBekqKoBWvtUk3+LXRnhTu8XbnbgIMBYaY8Mlt8dTE15AaWsMKqGFY4TZpf6cKZLM17x7hdmELKqFnHEK1ccCFN+qbPtuj4G+Eq7u0KAgDcgsAAAK+wWY9r8+S/7dIDO9ylMk6uAp4Yc0Rb123ShlV/alv0PsWetclUIEylSpTRnU2bqEnLRqpR7g6D/aK1ftUunY6/LEkKKVZBTdteeS3Z+agN+u6bWVq9+bCiJTUsV0e93nlF7WoYByus8THaGrFBEREbtW31Xp2LitY+U0VVqZFfVRvVVoNWjXVPiwYqcYczX7cpOnP4gPb9uUt/btqug4didOrgUUVKqiQpf7nKqlatiu68q5HCW9QwfI2aNSZaGyJPKcB8SX8fTLTv99TT2rRwnc7kNSlZkjVZKlmvvqoUM16Q0L3tk2SNU9SqdVqyIELbNu/V5qh9qlKzsko3aqb23TqrffMKsgRkY+DiarWPbtugFXNXaNPmgzpy9k/t3VVejTvWVbNurdW+/V0qYXBOxh/eo3URexV7+fLVlAAVqXanWjUpk+4hE4/v0bKVO3Xx6m5BIXeoQngD1SnHBBpHsvKiypx0jNwpVLWaNZEWLEmTmpr4pXYeeVbFWQ8GAG4LfJsD8IqUw/vsVrqWpAaNqipvhnvHafnYT/Ty8LmGW//WFi2f+bMkqVqPNzTm015pgg3Rs8fopbfSjlYYsX6t7jo2Ve0e/jJN+qaofYoq2kjNR92noDRbkrRl0hd68tUp9hWwRWtvlLQ3aovmTfpOktRjzEQN7tPkljKu94b2r16oiW+/pwVRxm9W3ytJUfu0acFCff+ZJL9wjVj4nro3KZGmnPWfPa/+E0477rrUSH3wRGSapDw93te6iZ092L4r4veu0ODGr9sNSd4btU97o/Zp+aTvNLTzAI17LFjZwq+Ako9Ha8rQp/Wh3VoX0dq0IFqbFvysTyWNWPy7ujcpetP2BP3S4yl9GJVgV+ynWzeqYzlHb35I0G/P9dV7EfFpUs11XtfaNb2VL4Mqxx8/qP2HzslkvvHnO9kqla5VRQl/LNGkr+bppwWbJVMltenTVj1eeER3Vy4gKUFRi5Zp3m8rtHHnEe2N2ie/muHq3rWzej7R3mFg6FbW+As6euiQ9u/6W9v+2qP9Ow7pyNlYaZdNe23RqlKzoao2Clfzzs3UrEUN5eNXxnXxxw9q84oN2rxms/bsPKLNUfvkV7OywguUVPVG9dSo3V1qUK+K8mXhpSHW2BOKXLpKi5dt0l8zV2mfbJKpkqrUMF0PLNa6q74aNq6pIiGXdexArJKtVhWqXDrd793S4eGSltil7/77pNqVKuntrgUAuAF/sgF4xfkTRw3TG9ZLf2CqLfGIxnd/RF9EXHLqOHtmfKLXKlbVrDduzIU1BxW0yxc5bYyGj59tWEbyqVhZpZtuemP1S78HNHRmrNPtnTGwv+Ztf1/LR3W2u/mLnvWJ7n92hmsdmBqp4e076uLi5erT5Fp7LuvYv0mulSPJevyikjzYPkmK37tEjRq9mWE5SfPHqt/8K/9dWaYrNzYeYkv+VT3u/NWpvMPb3yetWaXudcKupgSqZPOKUtROu7y//75fHfvVND5m7F4tirhol+6XP0D+GdRh5/SReuTFmU42LlrLJ0Vr+aSJ6vLa80pd/I1d0Ck1KlIzoyI184N31W/GzxrQvqLD4o5uWKyvP5+snxbsSfewe6O2XA0YTZBMlfTG9yP0xP01M2zb7ezM3i2a8ukoff3TbrttqVH7tFn7tDlilb7/bIwkqc+Yz9Wnxz0q4kqAwBqj37/4Sq8O/8l+29VA3rXAoj6zz2LpPFyrpnVzGJjKW7KM4fW4Peq01IbAAADcDngrAQCvOL1nu2F6gbD0nlsl6NdnejkdFLhmb8QeXXC00VRJkjRv/GxVqWl8+1KxbGHd+I2epOVDXnLppvmai98N1bDJUXZtipwyP9P9+EnXqTp2feCFVbqQmumyPNM+yZZ4SJ80HuJyeZ4MCmTGu60/0r7rb3TwV/hD9xvmWzZsqY47KONk5HrDBTc7PFovg5EyJ7Tk5V8yVe95n01wOBLlmi97PKRZu+INt1kPR6hdh7cyDArYsUXrkyceU4/3I24s8udTkrRh7DA1a/SsYVDAkckDX1LLEn21dNd5p/LH743Qi4XvNQ4KOClx/git3ZfocLt//vwqZbKfTvPH5r91UQCA2wGBAQBekKSD2/6wSzX5t1C1Co5vj85s+FlDFzi8xVfVZi3VulkV+3JNAY6rYou+/p97o4xvX/45dF7XfjLHb1uolyfsNMzX473/asbmeVq0brLeeqqJYZ6lr0/T7vhbbgzz2X8V+9VsoSffHqh3x7+n4e+9oFY1jQd42ZIma9X1G7pQVbyngnMfwU3MxcOujxbwRPv2z/tRs2y5/9bQZl2kGfP/uf7vfPXu0uMm+8/FljRZaw1vspO0db7BqBRTJd3X2vHT+ivMCqru2efu77/1m84apCeePe5yWTeL+vRlTdl40qN1z3lStOGjQXrGwXSnDKVGasBdLbRwX/q33Wcif1WjRi/bTc/JjNgEx4EBk6WoGt9jP8XHeugsgQEAuE0QGADgBamKPZ3s4j5xWvDBBMMtJnMHjd+yWr/OG6PP5/2kv44s1pcfPnF9u7l43nTnvtvxC9fLY0ZoyJDuqiyTej5S/+rT3CStHD/OcJcRy5dr2CudVKdKaZWtWU9PjJ6oH0Z3tctnsy7S/LXHbkoJVrVGda7/6/6339Xsnau1c91YDX6zjx7pdb8efeU5fbEuQv8bdJfhsXfsvDEtI/zFcZq3/lct/muaXmyWxzD/G4t/0aLNv2r+5l81b/2vWvhp26v944n2xej3Mb8Zf27+LfTp8rn6K+YPbd49W8Oeb+rKp+RWbd/+r+bvXqO/jqzUj9+/5DDfz1Mjr48+MZlLqcPI1ob5jJ6u2+IPat735+zSA5o9oPrFMprZV0h3973PqbY4GvmSUR7rui06Gm8/miFv2aqqLMcLQvrVrKzGnYyDcteMHbnKp24gD875n54Zuc5xBlMlte7UUq07NUq3nDeavm8fSLzKFhulYe3+L939GzVrqdadWqpRzazOHA1SYD77cyZ11x6djM9ZI3sAAJnDGgMAvMB4/e+Ae+5SWQdvJLAe3qoPDeZmyy9cX+38QHcXu7FfUEgxNes/SJvva64p4xarZO+mTgcGgjq/rgWTe6uEWZK66vHB79yow4H1GjzT/sau5usT1L2B/boF9Z56To8PWmC3yOLM3/7SK+1LXq9T3WeGakqtf1Wgbh1VKORoYnGwWr/wtCqP2mA3xP5S3I3yTSFhqlgjTFKSihus/GYyd9A99cqrrMErCz3RvsQDf+qLKOMnkZ9s/EgdK19pb1DxSuoxcoKqVRmpXq86OY/eTV6ZMUf925e9/u+6Xftq4ffx6vjkZLu8lyOWak/MQ2pU6Erf1urUQXrLflG2XR8v0IFXw1X+po/g7I4thk92Oz3RNMNFB6/09whtaPuUdq/5RU+/aL8oZEDz/po1qa+qFDRry0cv6kmDG9Ogzq9rzsTHVCYkUYtf7atBk9JO/TD6UWAKq6txc/6jTz5dpIv58qpc2eoKb95Q1auVVtFiBZTXcuOGMSXxgnbOm6qez36dpozkDQd1yqo0/XG7ssVEasCT3xtuq/boAL0zpKvqlStwY90Fa5yili7Uxz0/tJtmYrMu0pPDWirCbvHTFEWM+9B4pIBfuN6dNUjt766RZiHDxNjT2rlhuSb1+jgTIwwCVaJqLWnBerstPvCRAoBPYMQAgGxnSzymiIX2Q61NoXK4SNmJnTsM05sO6Z8mKHCzkPLhemH0UHU1uKk1YgrsqbnXgwL2Yv/9xzC996PhDkosqQ7v2g+5v7bY3/XjhhRTeJtG6QQFrgrLryomZ7+2Hfzwt12S1cF72TzRvpg9uwz3DHl6lO6rbN/eek8N0fcj2jnZxqx7asrPaYIC15Tr2kN9/QymoKRGat+hG+euuXS43mpmP/3Flvyr1m+LvSklRVFzF9uXZ6qkTvfYH9+RO0qXU72GVe3S/Wv30fxf+qtKwSsnb5U2LezyBDR/Rb9P6331DR3BKhdeyenjlm3xoD6f97UmTR+j4R/0U6f29VWhXOE0QQFJ8rfkU93uL2pUn1uuuZRjik/0jSfLkd9OMlwfo9+Umfrly6fU4OaggCSZQ1Wzw6OafORXw1E+8d8N1ppbXj1qPbBG/UfZfycG93hby059o0fa1LB7u4ElrLDCO/TQ58d/VXeTq9NS/FWkdGFvdy0AwIMI9ALwijwGQ5NtcY7zx58wnqPcrLXzNzcZ+WTdAJVO51vxxO6/DdO3Llooy7ZA3To5whQgbV8WabhP+j/LU3Qx9oJiz8Uq/kK8EhOsssosc9JBnXLDXOLsbF/siWOG2595oK7DPqjdoaU0fKnH2nm9/uYO6nyvozUZiqnp4Eb6xuCpe2DAzSdJqJr37a4PIybb5fvfLzvUo0Ez+UuyWY9o+UT7BegCm3dX7QynEaRlTb5sl/bWmD5pzl3/YPugxuD3H1GRmxPsi3FCko5u2661qzYqYtl2HY6I1D5TRVWpYZIUpvzlCqtatWLaNdl+tQJf+MFhS9yv+R9utEvv+c3PGnB/+utImELK6cV5v0h3P2A3ymbm3D1q90q96/+OXr/Kfv+gPpo/8RGl/14XyWQpq8c/76JZL/6WJj3A7PonZEtZrb/+uajqdUI82q8AAM/zhb/TAHK9JB3cHm2f7BeuOhXvcMsRTOYOKl86/QkH5tBgw/SZw4bLHYPfzxzYqoXTFmj2Z7O9siK/J9pnlkGZpkqqWsHx52Z04+sRtkuOZrVIkvKXKmSYfjb2oqQbN0JlW7RSQ31vNww87suF2vufe1TdYtLFqD8NF2B86JkmTk0jyEh662veYHUmk0OHNizW56//x/4NB9dehydJUdKmBW5oUC518e/tdp9zUOfX9eLDGS0ueU0xPfnVYH1x94g0qZHL/9bFV268uSLuSIzdnm8v7JNhUOCacq3bSvrt+r9NgT3VpEombu79wlXWpfcqAgByKgIDAHKBVMWeOmyXajLlVbC7vsUyuEmUknR05363tSjtrUOMfhnyHw2dsMFt5bvOk+1Ly+RfWSUL5fw32yfGnDFMT7qU9kQxhdXSE30KaMvktPlt1kVas3mgqjcvqt2Ll9kX5Beu++4u4+1mZsx6QjNeHKT3Zu7Kelm3O4Pvo16PNFMBF4oIqdlWwzqN1ns3vYElef0eHUu0qbLFJClO+9duS7OPyb+F6td0PkhqLn6PNmyerBXro5UceIfCO7ZKd7SUQ6mROnQqXncXC/NotwIAPI81BgBkP6t0yeCJuCk0nR0uGAyhN+XJxvCmWQHBpqwXI8kvNPCmYfQJWjzwUS8HBTzZPnu2lH06eCLJ6fK81iNBxm91CMpz60nnr/De/Qzzfv3DVkkxivhos902S8dOqlnQPX3uObGa8eQjBAWcdGTzVru0cpWcW+PkhiQdWHgpbZLfHbKYr50rZgXe8opT890NVdLi2rl0R5V66tbnYT3Sq50qhGXui9Tk30K1K7hn1BYAwLsYMQAg25lCrrwTe+UtbxmwxTl60hyqam2bShFp553brIu09/BwVa+cHUNZ/VWkdAVJ/8/efYc1kbxxAP8GEghVBEFBAQGlSLVXUGxnw3b2evZef5799Dw99c5ez3L2cqJnQbEiouBZsFMsKCoqomChSoBAfn9gIewm2YSEoL6f5/F5ZHZ3dnYzm+zOzrxTLOCXTh0sOTEZ1Qx4ct+Sfzl4IarUcPjcJfjNhb2YvJ39zTTfty0m/ugLB9sKMDUygOT9VQzovfarOj5WkkdISS9Zt/ZSIWNkiYkZ8+hMfRqhP4/PmKEh+9/zuDgwFxcKmMf7ZRrMsuv2hoVSb67Z1POtC7xLxfvYR1oZAlOWWNdyBxAklZaUlAXUUKabvj4qN9EHIorUmfzXhcEbZc3aciURb8WAqcbu6vKR/DyFdQndSBJCyLeBvs8JIVqgD2OWObHzLl5CQmYPeLLc/ApN2d/ext17DVTnHtW9JMTIZiYWXAevkjNcqqr2dfrmMXvAv97r92BmH3epN+8SsSHa8/7CcQmnR/QycXyseQKIj3sNyAhYJk4vnRnvJZIsZMhsn8jAzUPs89BL8pgb8fhV0PZXf+yay2y8Gt72JDMTnTpoWsaHEUhED7BnRijrspb/m4mh/ZrBxcFKqv0kX/QBaZlpiFw/H5OXX+K2o2+ILpjBHrasCkG/Fv04DyfIvHOWMTWroLEPKn/+XhQjt1gPKon4IVLSJHDQWA+UXLx8EMO65Cto4iOEEMIBDSUghGiHsXq+fnYtCcU7mUuzcefkKYRFJatlX+VtHVjTT59+oGROX8r38Mo1RirfczzGFGsUUAVrCD85wy/Uf3yAsbkNa/q/Oy+wfm6SpOuY1W55CY+co4LrGDF2D9hqh/jJZcbDGQCAVw1VK7M3aHh0bMd512V1GEHRh7ys+LvMRiidOlh/+z+s/qUHvIo1CgCArtAQ5hWsUE6fJzdvdZe1NM4HF0b2zvAvNqVoXvhSzFt9g9P2kswHWNJsASO9el27IkEqTeDUxFt6hYLrGD3rOJQdoCNJfYFze//F/r0hiHsr72jFyE1naZDUtYGZkkMYCCGElE3UMEAI0QID1GhQj5Eqyb+A+4/Z3xZXbdaYNV0cvRrzVt9gdHPPTIrBur6t0Lv3dEwYewbyO0NzY+HEHlk8ZPpchDwUKdw+7flzPH6RVrT0yHqZp3C7T56FnFeit4AeLO2Yb6Ql4pOIiUtj3UL9xwfY16uD6ixTU+aFr8aS7bHS2z+5grE1hiNMg1MyFpcTvBQ/9NuGx5lfusBLMuOxpN9s1vUFvu3gJmN6Qb5DHUz35TY4oHe/eioPIxAK9Bhpenx9hdtxWUfRjHXuM0aiWVVZJc9H4p1wLApojCEs0zyqMBvel21VKKs29sEzc0XPSe6M9JA5QzBk/hkky3n2Tou7gqm2fVhnr+jXs6bU325tWjLW+bBvNkbPP4NkxZcqAODtndP4qWoAxo5egF9H/4wuzv/DvUz2oSAS0Utcvcjs/SNoWBXm1PeUEEK+CfR1TgjRCuNKVVnTi08F94nQoR6m+xqxvsUNmTMENUO6YvZAP1gbZSMuPATL/jr3eTnfzqjEb98Ly+CLBe1NMbv4mGvJI0yo2wDj/96Ids3cUNGYD0AXYtEHvEl8gfjbt3Bq3zoER+SAp9sU/yauhJuQB1mxE8TRq7F2e21M+8m78I2sOBXhfy/HyOlHlSitLio7OwFgdv+d23QoElcMhn36YxyZswX8mX9hy9QGGjg+gGftgQB3IZbHMh8qgib2xYPLgzCgpQNeXjqPtdvOQRtyglehg+1xDJzXE84mqTgyaT1j6sFPug1oKqdLuAn8hnbH4ojt8neoUwctGthAWeLUpzi26SBCI64ylu2ZNgOx9eqh+7CuqFGJPebGnmkzEO/bDN2Hd2ANNifJv4A/h8yCt18r9BnoD0OWh9jYhYux0nIsOrb0RkUzfeSLspCS+AL3rlzHyZ0bERbL/uT7KW9LYwO4tmqPnt2Kx1fIwYOTwfjnyEW8hYHUJJc8g2wc2x4mIz/mvoyqeKDL0E7wsi7egFEa+9BFo2EjUH35OEa8hcvLpqLZiv2YsnYQmvnVgJlQDDH4yE58hPB9W7FIRgBSw14L0LJYHBVjb39M9l2K5cW+Dy8vm4pmy6ai52/z0KFlTTjYVICRUBcQ5yNHnIOM92+QdP8RIk8HYe32K4zjvfU4DW5eZowy5L9/jxcS5jVRu4lTmY+TQQghhBtqGCCEaEUFJ/a4ANduJ2GEX0WWJWZoN2UwFkesYd1OHHEIv0YcYl2mY8xpkncODNB66ljMPr6QdenqoSOwmkMu4iLPTsIK7LET9k0ciP2b66CdhwmCA8M45MrENzZgXyB5hE0TZ37+Uz8qAVloACMNHB9ghpZTO2H5wH2s694P3IaZgSodnnpJHmHHnN/lrsLTbYrObRzlrmPf1B91sUNmwwIAGPboDHczZbtf5+DkmIGYdZy9t8eDiPN4EHEeB9aLEJ40GIZy1gmM4uPa7g6s+Vw9fgJXj5/Af+l/Y/8wZ9QFT/pYJI+waeJEbFLhFF89fgIAEBx4EIl6Qfil45fvgDcXdqNL7zUq5cd04vN5KNqIUxr7AAqnAly1YyDaDdzO3KzgOpaOvo6lHPfP47fFrqXtWR6+zdBv9QIsrzmJdbvAOXMROEepQ5UrK/EZa2DJqg7l1bcTQgghWkVDCQghWqFv54r2POZ7/OuhD2R2+6/QtA/++EmZGcEL5b1M5RZRnwNj7x+xYXIjtZ0Hlx/7sJ4HACiIva5yowAAOLUNQF0ofgAVWJl9biVW9/EBQNVOQzHZ3aDkGWnZT3smswbGLIpn5oreCurogO51obhTvzSJ6AWun8hUuF5BziUkiiRyW/1zTt/AM8h/MxAXcR8ZZu74ZXNPtZ7DTxKSUqX+fnVP9TgWMs9DsW7xpbGPT6p2moi9izuWbAc6dbDu+ly4yahzQgd/nPhnuNqOR+A3BW1YegsAwPPr11nTvbwrq23/hBBCtIsaBgghWsET2qBhDxNGet5F2TfbgAECVh7CH4PcoYyJU1oVCdwFQEakfG6BxnThN2cFdizuodqB8x1QociNPk/ogukhszlvHjC6G+d1ecbumLFOcTlz41OLHLt6j69QBQw5vh3dedwGdPRavwU716n7gZT5mc86uBXT25tw2rrTyh34uQ2X2S/00bDfYJlLebpN4V/fSunS84Q28G5iqHg9fnVUEPLk1mVdNydYQfaMEQAg9LSBEYBq3Sdhw4zGUDdjE+n++RWqKT+0Qu55EHgw6mFp7KMon5G/4fCOsSrlrevRB7vvbkCzqvKnYq3adjRCTs7h1AAoj2uvn3Fsv6yZEzIQE3GFkcoTdIGXQ2lMFUsIIaQ0UMMAIURLDODVsg0j9dM4V9nMELBiJ44FzUcHXznvXXnV0HPmrzhy/woGFRuaIDSvylhdp4YDjPlcb671UXfkTFy+tR3/G9Wc0xau7btiyt/rEBI/AdbFllnU6YKb0dsxpoebzO35vl2xNPQM/lg4iPGAXcFC9s25a98ZOPbPDNkPDrxq+HlGs2JdldV7fADAM3PBr0nH8cf/AmTmIfDrg3Xh5zCnT23YVrFlLDcyUH1IiLD47Ai8arBy8sKAPWexc90wmdvperTFolMnsOgnb3BVrk57mT0kDLq3g7OxKg9xBmi9egkGtK8ncw0X365YeXYYrCG7kcu1fR/8tTMARgCEMuJ8NBg0Adsm+32My6EPv2nrEHJyASPaPiudOhi3fiUWjGrIvpxXDR1n/o6pXaUDXVZq1g/LZ3ZnDVSpLBffrlgZNoBRD0tjH4z1Og1F1NNTWLtiKKf9urbvg5WnjuL2xamoVYnbaM/KDbtix5swbN08VukGgoD/zcS+2+dwaENf2Mn4GpFkPkMES28Vo/4NYEcDUgkh5JvBk0gkkpJnQ0jZEBgYiEvRFzHy56HaLgrhQPw8Al6e4xjpjX7bjr/H+3DKIys1Ba8SXuF9WjbyIYBBOWOYmZuhorUl9OXdtIpzkCPKL3yA4uvCSKhs527pvN4mJePV6zfISMtGHgAenw8DYxNYWlWAhaV5YQAwDkSpKUhIeIX3bzKQB0DPyAzW9lVgZ12kz4M4H1miwonJ+Hx96HPKOwdvnyfj1etUiPLEEBgaw7icGSpWsYSRopt7NR4fAIgz3yMh/ilevil8Y61nZAJre3vpY/y43yxRPgBd8IX68j9PDvJFORCJC/MTCvWhWyQ/iSgDz+KfIulNBvLEhWWyrFIF9lXKqxC4MgenJrbD5O1vGUsmHD0tI4bG1yAHibH3cCvyDh6+SAegB319fZhaWaGyYxU4VbdFZWtVztf3Igev4x4j7v5TPH2ajAxRDgA9mFqVR2XH6nCpURU2FRT3ClG4jydPEBcVh6cJr5CRJgH0ecjJyUEuJDAtVwHWNjZw9HaGk4ON4msfQNr1PWjYcgkjfeTB0xjf4muty9+niNBLiI24j1UrVmm7KISQMojaegkhWsO39cRkdwNGxPrIAzfxbrwPuEQTMDKzhJOZpQo714e+MZQe6y0rLwtbW1jY2pY4K6GZJVwUHQ9fF0bGyj5AlKCMajw+AOAbl4eTd3k4KVxRH0bGXHLkRleoLzOCOk9oAnt3T3AZLKCIJOkW/tr+jrkP3abwq6X8MIKyQx+V3X1Q2d1H2wX5SumjorMbKjq7wVeT+3BwRUUHV7XtIy70EiONp9sUTWp/zXWZEEJIcTSUgBCiRWZoObETI1UccwJRL7iN+CekrIk9dYg1grvRQFWHERCiLYk4u5g5PabRwHbwVnpmDUIIIWUZNQwQQrTKvhVL5HzJI5w+G6/tohGigkQcm3yOdcmQHnWomz35qmTGRmKXhNlIO6FvfarLhBDyjaGGAUKIVvHM3DFysgcj/dj0c0jSduEIUVLa9fOsD1I8fls091F+qk1CtCcfN3cfZKTqeo5Aq9pm2i4cIYQQNaOGAUKI1tUdxJzerUC0ERfvKp63nZCyIweXd29lXWI8ohUchdT1mnw9JKn3EbjhLiN9wKyOoOgChBDy7aGGAUKI1vFt/bBhFLPXQJ6Y4gyQr0kukq99YF0ypWct6npNvio5yYkIkxRIpfH0f0K/NpW1XTRCCCEaQLMSEELKAF34LdqBiNEvkZZd2BggNLFAxeLT1xFSppmg/e5tcHjwGh9y8wAARmYWsHF2hmMloxLmTUjpEjq3xs2nNZH8PhPiPD74BnxYWFuDajIhhHybqGGAEFJG6BZOiaftYhBSAhYOrvB1cNV2MQhRC6GZJexUmQ6WEELIV4eGEhBCCCGEEEIIId8xahgghBBCCCGEEEK+Y9QwQAghhBBCCCGEfMeoYYAQQgghhBBCCPmOUcMAIYQQQgghhBDyHaOGAUIIIYQQQggh5DtGDQOEEEIIIYQQQsh3jBoGCCGEEEIIIYSQ7xg1DBBCCCGEEEIIId8xahgghBBCCCGEEEK+Y9QwQAghhBBCCCGEfMeoYYAQQgghhBBCCPmOUcMAIYQQQgghhBDyHaOGAUIIIYQQQggh5DtGDQOEEEIIIYQQQsh3jBoGCCGEEEIIIYSQ7xg1DBBCCCGEEEIIId8xahgghBBCCCGEEEK+Y9QwQAghhBBCCCGEfMeoYYAQQgghhBBCCPmOUcMAIYQQQgghhBDyHaOGAUIIIYQQQggh5DvG13YBCFG32Nux2LXxH20XgxBCCCGkzHgc9xhmAnNtF4MQUkZRwwD5pjx8+BCmelUgyLLWdlEIIYQQQsqMSsb6uHUrnNO6hw7fQGZmDrp0rgUTE6G2i04IKQXUMEC+KdWrV0dysgi9eg/VdlEIIYQQQsqMixEhKChI47Tu0WN3sPOfy5g2819s+3sQ2vzgqe3iE0I0jGIMkG8Oj8fTdhEIIYQQQsocHk+5W//XbzLQsdtaBB+/o+2iE0I0jBoGCCGEEEIIIZ/9sagb5s3qCF1dHsTiAvT76W8kJLzVdrEIIRpEDQOEEEIIIYSQzypWNMUvswOwemkfAEB6pghjxu3RdrEIIRpEDQOEEEIIIYQQhlEjm6G1fw0AwImQaFy8+FDbRSKEaAg1DBBCCCGEEEJY/bHox8//X7LslLaLQwjREGoYIIQQQgghhLDy9rZDCz9XAMDxM9F48eK9totECNEAahgghBBCCCGEyDR0iC8AoKBAgsD9kdouDiFEA6hhgBBCCCGEECJTQAcfGAoFAIBDh29quziEEA2ghgFCCCGEEEKITIaGevD/OJwg8tYTpKZ+0HaRCCFqRg0DhBBCCCGEELlatiicnSA/X4KIi3HaLg4hRM2oYYAQQgghhBAil59v9c//v3w5XtvFIYSoGTUMEEIIIYQQQuTy9KwCA30+AOD6jQRtF4cQombUMEAIIYQQQgiRi8/XhbtrZQBAzN1EbReHEKJm1DBACCGEEEIIUcjNzRoA8ColHWlp2douDiFEjahhgBBCCCGEEKJQNSerz/9//DhZ28UhhKgRNQwQQgghhBBCFKpcufzn/z9NeKvt4hBC1Iiv7QIQQgghhBBCyr7Klc0+///Vq3RtF4doSEbKMzx99QZ5eQAgQLlKVeBkU76k2VJ5yzhqGCCEEEIIIYQoVKVIj4HXr9O0XRyiAdn3AmFaoxcjfVNUKoZ5ltN28b768pZl1DBACCGEEEIIUahCBZPP/8/KytF2cZQkQvzN64h98Qq5uQCgB2PzivCqWxs2JvRI9EleXgZrek6eWNtF+ybKW5bRVUAIIYQQQghRyMBA8Pn/Hz7kars4SkmP2opqtccw0uv8eQ3Xfq6j7eIRonUUfJAQQgghhBCikIGB3uf/Z4vytF0cJemxptoJtV0uQsoGahgghBBCCCGEKCQQ6EJXlwcAyM7+unoMEELko4YBQgghhBBCCCdCvcLhBCIRjeEm5FtCDQOEEEIIIYQQbnjaLgAhRBOoYYAQQgghhBBCCPmO0awEhBBCCCGEEKIKcQbu37iE82fC8d+NK4h68gZRUVHQ8fKCp0VV1PeujUb+jdGkYSM4WRpwzRQpCfcRfe0G/vvvMuKevELikye4AMADgIWDJ7xreKKxX0s0bVkbllyf6MSpuHH2JA4ePokrV+4gLCoKXl5ecGzQDj16DkD35m4wEKjWJUSckYTLYWdwMiwUV87dwZuoaETreMDLwwJeDRrAt1VL/NDCD/blBUpkqrnyEiZqGCCEkNIkEeHl43i8yfxQ+LfAEJXsXWBlRF/HhBBCyNfk3tG16NlpPKIhYSwriIrCHUThTthRbFpZmNZl5i6sm9cP1jJ/8sW4d24vfp80DHui2IM7RgFAVBTCgoCViwCebjNsCNuG4b5V5ZY1/d4h9HfvgaOSfOn8oqIQFRWFI5sWY0jnRTg0yFjJsyBC+MbZaDpyGXNRQTSiooCoqPPYvWkxAGDkxhCsGN4SiiaD0Fx5iSx0J0oIIaXo+l8/YMCaG1Jp/Bp/4PLBMTDSduEIIYQQwkEmgmb+iM6Lzii11eGF/RG04hruvF4JDxPmm+57eyaiRr91SuUpyT+PEX4OSI94hSlNKrKuk34vEOVq9FKYV/aRGWh7pPD/nuCxNnhIe4Nt/d0wePcbzuXdMKIV9t7chacb+qG8jHU0V14iDzUMEEKIHFlvnyPxzVuIxQB4AhhXqAw7KzPVMhPdxbG1txnJOuX0tX2YRAPUWncIIYSUEWKcnNECnRdHqrR1QfZq1GrmgJc3JqKC1JJMnN+yW+VSTWuzAj1SF8Ou+NOd6AGmePRXOj/FD9kiBE1qp1SjwCfpG/tjaC1XHBxehyVbTZWXKEINA4QQIoMo/l/U7fATI31eUBK6O5sond/bmLM4UKxLHAC0+7HJt9FbQPQKF08cxsUHCQD0ITSrCJ/GHdDMy07bJSv9U6HmukMIIaRsSI/ajnZyGgUE/n0xxtsST25vQNB5Ees6eTcnYVVYN8z3ryKVzjNlxoXX9e6I8T82houtFZD8HCf2zMfRqDzGegVZf+Bo9AyMrVlOKv3ewTXYXMBcv8Tn4cZudF55jXXZiD92Y1DHBqiQl4TgtfMwcdNZxjqHx63Ard67UbNYzwlNlZcoRg0DhHwnsl7HIf5FmsKrni8whNDYFGYWljA3UjQC7NsmFmeypueJVZi7WSLC9WNLmOk8d3Ro6KLtQy05iQjBc2pj6rE06fTVU7HsdAra2nENuPRtUGvdIYQQUkaIcGzJDNYlPL0+CL27Bv5O5h9TViA56hB6+nTHeUkBY/0lC49hsv+oIt3pjeHTsD4QdAoA0P+3rZg0oBNq2ptLbTdi6iSZwxiuRz0FanoXSUnCgT+3s5dXEIA9EcvRpXZV5CXfx54lkzFqZQj387CS/TxsuvIKw+p/GtLghAkbQ1C/5iA0HCVdDknuXuw5vwA1AxxKobyEC2oYIOQ7IHkdij7NOuOhkt2s+PV7Ylr3fmjd0h+W1Nu9ZLJicexAGiNZ2GoMvM2/gYi6OXE4FZzBuuhhfAra2n1/vQYIIYR8W/KenkQ/tq7zOp44Grcd/vbSEfetvLoi6PZ2lPMewNgk5+xonI7/Cb2cvjScNxi9EeHej2BVuyFcZM5gYIyOE2fAc1EIo/t8Rrr0m/bsR+GYG5XFmsveqH3o5WoIABDaeGDkijPwcR2DhiPXKz4Pj9jPQ+2ZIUUaBb5oMGIOJozZi1UF0gEVN/77HxYEOHwORKip8hJuqGGAkO9A1pvnSjcKAID4aiB+vxqIhbq+WLJ/B9rVsNL2oXy1EiOP4xzLG4NenZt9G8MIxErWr8xXuHv/Pt5lF97ECPSMYFW9JhzMv6+eBRpF55h8a6hOEy1LuHaJNb3W9MXoYM8+DZ+pVxds7WSOwUHvGMvepOcCKFJ/Tezg20ZxQzqvvCW8eLqIlsjvhfY69gZruunIw+j28SG7qAYj1uFCWjKaTvtXbr7vE+6zpo/v7yejwA7otbA5Vk0/JZWc9zID2cDnhgFNlZdwQw0DhHwPSnilS/IjMOVHR+QFJaETjY9WniQTVw/9xUjm8dujbT1bbZdOPYQGsAB7zwd902JDUiQiBE+vhamh6dLnQ/8nBN9YCwddbR/MN4DOMfnWUJ0mZcCHtwms6b3b1pazlTEadO8NBDFnG0hLzQBQTs62YmS8f493794iPS0NH7JykQs96OXdRyIKoMjbpKes6VN7NJR5a1g3oCOg4EH7ecwt1vRLR/fA8KY+GBMt6gGRpyNYtylaDk2Vl3BDDQOEEM5m9V2DRpEzYfkN9HwvVe+uYkcoc8y5YbdeqGH0jZxMvjN6zOmFA/P2SCXruk1Gaw/LYiuLkcnWgyU/BZkiCfCtnBOtonNMvjVUp4n25eWwJOp4wtHWVO52VWvVB8BsGLhw/TlmFQtACAAp8Rexd8tubFm0qUTR9gUwZi2vt6O5zG3yWA+yWL6mxqzpG6cNxkaVS6u58hJuqGGAkO9YgxFbMLuLD8QiMYA8vE9OQPTFfVi+8xjr+gWZCxF8cygG1aYhBcqIvxzMOpRjaIfG+JZecrn32ohbbX/F67RsiPOyAYE57O2sWY9RT0Ye9KOkPnSOybeG6jTRrkxcC2NG1+fxPeFQUX6w5uyUF6zpXq4ViqUkYdukgRiswaB6PL4nqlYsyVUjwpOoGLWVR1FI3pKXl3BFZ5mQ75ipTQ042heJiO/ig/q+nRDQagP8+09h3ea/+y+oYUAZkjcIO7CHkczT/wnNGW/Sv3765axhV07RWjJ+enSMwBfSWz/1oHNMvjVUp0kZJckA8vBloDwLvhn7733U/TdAQPWPf2XiwAgfDN6UrNniiqMRlyiCh5OqsTn40FPTNadroq/wYbTk5SVcUcMAId+zPPZ22op1RmLr8BMYvOkcY5kxFP8Y5Gcm4XZkKCKunsftKzF4HxeLh7wacHY2h4tPPdRu5A/fBo1hbSpQmBckYrx7GYeHMTdx82YkniYm4/Xzp7gOoBoAM1t3uFbzQK06zVC3YU2U5/oKXpyKu5dDcObsady+HYPIuBg4O3vAruYPaNO2N36o7wqhGr4hxS8vYXnkB0a626AfUV3/y7nMT3uCyxH/ITHzU5c4PZhU8UDTJjVlBid89+ACLsfGIzO3sDeCnkkleDRsjuqyAnGJXuHqhQg8fZ/+eR/lq3igcZF95Ly9i0uXbyL5YzmMK7qhkV8jlNcF0h6cxba9W3D+9hM8AlDXri76jPsNrZzLfzmGK9eR+DF/PT0TVHZtgNo17KALIP/tXVyOSoSA/wEPnrN0/ctPQmRoCN4ZFN5j5YmBKu5NUN2K/XjUWs+U+lA1VHfUUNfVdo41dd1xPb/XL+Dy5VDcvv0Iz1MvAqgBMzN7VHJ1RS2vJmjYsAlsFQSc00T9yHn7BNeuh+H6zduIT0xGRoYEJhVNYFG+Mtw8a6JyOebVmicWwKNRs88zu8i7xiAR4fHV0zh6ch/O336CuIeSj+X1Q8uALvCr7QqpCWIkYryM+w/nThzE1dvX8CwyBjxnd9i6/oAWAZ3RSs73h6bOmfzjE+NZ1BkcP3EIV68UXjs6zh7wd20K3xYd0bJpY5gXmwFH3d8bhKjOGHX9WwJBB6RSJXnHcP1pOmp6ym4VF6WksKY3rfMlzlBy6Br0kNEoIPDviwU928LV3hrljYwgeReKpp1nqXYYBdF4WTzooVL4qGzvDiBSKpWn2wx7wpbCw4iHPE75GMLByxUKI1eVuLyEK2oYIISwE0Upv41EhOuB8zBg3hqWZbGIewDEPYjAscBlAIBevx7DtJ7+YJ0JUSJG/NVAbFw0FsFx7D8xcQAQF4PI0EDs3AjwdH0xd8dG9KgtP6JvZvxRTA/ox5glIC4uBnFxMTgbuAyzWv2GNZ1L/iP04Nx+1vSerepI/X3/6EQMXxjKWG/C7scYwdZDQ3wXi7t0RLAkXypZ2Ho9Lq8awHpO40/MxaBZ0r0XePz2+Pf6Prh9bKR4dGIGxhQrx7ygJDR6vQKthv8plX41LgYxFZrDb24X6Ms4Bp6uL/ZdPQFPw3xc2tQWI3a+lXmuJPkR+H2CdHAig05bcGlxz2IPQ2qsZ0rSSN1RV12XiEt+jjV43XHx+voeTO0/EtcYQ29iCv9FHsdRFH6uPy29jqntXVkOUgP1Q5KKc1umYuyyvSodV+elt7GwfTUA7NfY7KAU9LG4g0WD22FXnHTYri/l/R2CBjNxZMMMOOjzkP/2DjbObY21ocWm9vpYF0OPLsNsg9E4cP4PuJkqaNBV4zmTfXyxWDT5B+yKlH64L4iLQWhcDEKPrsM8XV+sO7Efzew+Piqoo04TokYCffax9ffjkgE5DQPRoUdY08uV+/Jb8eohe0C/kduvYc3AOtIPbXnG6Mubiz0KZiXIQyZr+t37iUBN9vKKU9OhCFu+kvzz4Nl4wtNJT+H2pV1ewo2OtgtACCmbTKo0UW4DyRscmubEfmMpw75fA9BkXiAyWJbFH/8ZAYNGyHw4YS1CfgR+7VcD227I7oaXGf8v6nXowzp1YFE5IXMwfMzPAIDqHHpJsBfoBc4sPs5I1jGcjCZu0m3kFaqyRzQ+ey2WNV2UcJvRKAAAOefP43EWS6AiSSbuXAlmL2eR+wq+oBJj8Y2DsxiNAp83ffv28+Zs24Jn+vFmRoTExFwoKz85Qzq6sZrrmTI0VXfUV9dLfo41dd1x8frKn/DvP4KlUYDd3oOhzM9UE/VD8gq7fnJRuVEAAMwEX+oB23USdXYlBjZpxWgUKC7vykJ0m7sLz+JPYHCTJsxGgWIKsteju/9cPM+Xs5Kazxnb8T08uxIDm/gzGgUYRcmPwJh2PRD57lP9U9P3BiFqIjAxZE1ft+Es3svaKPs2ti2+ybrIxuJTfpmI/i+Mub+aizC/eKOAEspZ2LOmb91yFG9Y0iWJ5zGo2VSF+VrYu7KmHzihwkulUigv4YYaBgghTJIXOPPvSfZlApafJ4kI5xZ3wexjaUrvKmvfEPwSWKyVXJKJawdUvwlfNnwtkthuhEVxWBIwROn8HqoYETgz7iw2FzAfsOqPaQ/rYs+LFWs0Y32IvLflMlJYdp945wLrPiW5+3ErIZW5IOcZrgQzW+L1m7eHnaxo3jx3AMDRnVvh7Mz+c+FUuRLkh1z6RAxkKJ5aSS511zNlaKruqLWul/Aca+q64yLtBuYPXqDUJjxjfembGA3Vj9jAKVgUmaVkjgCvyDXz8r38N1pH1/yO687cGiCzg0ajTYcenBtQCj4sx7bT8ewLS+maClTi+CT5ERi7+TQKq5IavjcIUSAhLRViiCESiWT++9QAXq1xC9Y8cs6Oxqx/7rAsScWeicNY3+wbdFmPVvafegyIkZ7IvUH20ckghb0FAMCpUTN4stxb5ITOwJRN16XS3j06g862LXFUoviLvGJ1d9b0QxMH4+D9bIXbv0+Ix/2Ed6VWXsINNQwQ8j1jecjPT4vDrmn1sDmO5c0Ozx19WnowkjPv7sPYnew3iD2nbMG+41E4dSQEM3o0Y10nZOEa3Cv+ltuE+fWk49IeA8fNx9zf/8Lc/81Gc2f2NvSCD8sR9oD5Liv+7F84UIo/IDGhh1jTu7X0Yiaa10C3esw3EQVZQYhNKnazIO/tP4DIWw8ZaZkJkaw9DNq0rid7DLLkS2+FuDj2m/PHL99BxOVk8MxQrb4rlzWl8K3MP0ci10g940ijdUdddV0N51gT1x0Xr6OOs/bE0Gs5Get3X0Rw8FXs27QHY3sEfF6Wn5gjNYu3RupH5g389dtRxro8XV/MWnUawaduYNuS31kb9SRFrhn/mtXkHn918KTWV7dD/55ifbtfWteUsseXtXsX7qZL1FOnCVHgxi+tIOAJYGBgIPOfxaj9EAEQVG2FrZ3Yp877q48PWk5ehXM37yEhIR5Xz/2D4c0ro1+xB9pPZo3rWmR8vRlqtmnFWCfv1gz8sunyl99Z8RucXDUI1Ttxiy/Aq1wffb3Yf+V3jKiLmv1nYPve7fhtRFdYVP+B80O2QbX27OehIBrd3AyxYG8o4lPeQyTKgEgkQsb7FMRHR+Lo9iXo19wQ5lWroUb1n3BLJP39oanyEm4oxgAh37GEiN3YnfOx21ZOOl7ERWDnsQsy168xYjHqmRe7AZaIcH4H+w/UvMDH6O71aXy8I/rPC4aX2wj0LjbXvSR3P45F/go3/49jlHnGcPOpB4QWjlPtOH49BnYKgJtNeanteg4Zi3Mre2PsJmb3u5gHCUCNIo0Yklc4vXknazl5/PZYsmchWrjbQ/wmDse2TsVvO8+X7OSK43ByLfNc8mv8hgZ2LOPPeRVQq20rIPJIsfMbi8gHSWhmU2T8toy3/5+cD72G933roejZSrx1mXXd5jWdlDosnq4vxs3uA+N313FgzVY0bt+Yc3CzOgP+RXDLd+DrZyB4TlusjWS+Vfh593W0MOMVvp3JB4wrO30c+66BesaVJuuOmut6ic6xJq47jt48jWOk6RhOxrGVv8H2U2BDJ3d4+XbCiMlxOHv0EBIrNv1yU62h+pGZEM1osODp+mLdmaNoZlMYgM/R3gUHPZ3xY5sejB4iq0+noKWd4ngTRbfrOH4XRv/YBMKMu9gyuYvC4QUNBq7H9AFtUSEvAfuWtGcdXpB3LRwvskbDrWjvoFK8pooeX4MR6zG9R1tU0E3B+a1TMZvlepGIjyP6RSo8a5QvWZ0mRE1yHr1FNgAhjNHpl/lA0BjW9UJXTEToCsX56bdYgRH+FaXSDC3Zw/BtGNEIm9c1Q28vM+zefUTJklfAj7MHYnqPdaxLb+9ejEG7VTkjxvjxl/kYLOM8/NK3JX7hkEseYzYHTZWXcEE9Bgj5jj04uw4LF04t/LdsgdxGAf1Wf+Cv8f6MdPGzM5jK0g21xshjRW4sv/DuOR39ecw2ycDTl1G0j4J3r3XYtTkYx/9LweJRAxgPJwAAnjGaD/iZ9W3dhw/Sb9lFzy5ibRz7+NalQdvRzssJ+rp8GFWsgV4zgvHP3KElOrdpsadY3zB36Nca5WVs41S3HWv6gfAbKJqTrPgCn+RFBuPhuyIPKJJU3LrIfOvJd5sJb2vuEdn1W/2Bs3dOYmSv/ug3ehWC7mVgamslGhaMLeHo7AI7Ow9UMmHWAZ5eDzTxcIGdkwscnVzg6OwCK6PC9TRVz7jQdN1Ra10vwTlWe1mUwBewNC9JRKzzW+uWc8YP/adjcOsvDRCaqh/5YubnLuzwExraSF83fDtfDGzBDEqWnMmpP81nI9ffweJRXWBnZQkrp6aYsfME6sqJU9FrYQS2Th8AZxtLmNvXweilYejOY04RIcl/indZ0mdTG9fUyFXXsXXix/JWrIGu03djTgsZMck/FbeEdZoQdRDYmHx+m2peezjOzvtB5bx4en0Q/s8EVCiW7tVrPPry2OtuftR5FRoFClXrPguLvYxV2lYe09rDcWJGa7Xnq6nyEsWoYYAQolCvWYcQvnoMLFnuT9OS7rNu0z9ARvBCngPaTW7KSGYEizKugtpNmsFBwZRkKFcBLjzFX2Vv49m7yxr1+getHZn78O61Ejv/10m1EyYR48aJA8x0njvaN3aRuZnQviHrjfeHw6F4VqQdICFWdgMOUDhG99bDpC8JWfG4eI75FrFuh6asnykbHYPROLpiDKzVMi2djHGRBVkQy1iksXrGgcbrjprreiHlz7HmysKhtHnM+lmQvR4du03Ff3HPoKizqKbqx5t4ZsAwX09n1rfRuSUcC//T0usY71+soc20DgYO8GFdv9Psc5jTpaZ0orAGuk7uwFxZEouEN9K9jEr7mvpp6XWMb11sWADPDK1+msG6fmT002IpKtZpQtQgL/FNkRrIR4s5wbjw1yil89Fr8SuiXu1GPbYfXwMfLL/0F+e8+k8cznFNa0w7H4FhOtxeBIzcfh4Xto7msCYfbRcG4cIq5c8DAPD0aqCSCdtNiKbKSxShJlVCiFytF13DnM5uMpe/esgegfZ22D4Y3NVnzmUrAKIiLrJuI/cxQyJGVvp7pKW+Q2ZmOkTZecjjCSDIe4DXEsU35KnJCazpQ9vUh6xnXQ//9sCyIOVPWtYdHNrFDEKk33IYvKzk/NDp2qJJf0/sKjbmV5KzHVEJi+DgaAJIMhF77igUCbnyACPq2wAA0uKvs47fbtGgBudDWvLvvC9durWg1OoZi1KtO0CJ67palVJZKrnVA3CEkZ5/fz2GdVoPHZeemDGsH1o182V9G6yp+lHZvSEA6e7zZ5cfRlKfmtIBRHOe4eY15XoHFMXT64GAliyNhjw+KrvUAHCrWHJ7DOhWlzUvY3MrcFGa15TM4wOgb2Kq8nkjRBmmNVpjcaeamB6kfCBa32bOkO7bwoffyPV416oPNq1djukrD8vd3rvTMEwaORY923jJDdhr1WAoPjx1w5LZ4zF3N/tMBoLmw7Bj4Vz0rpcL4eptUkGOK1ZgnzUB5X2wKesRmv72C/otYh8ap9d8PP5dMgsBtayQGMqMi2BqyHb/IoTf+PV4157befh0Lvr26IKeAW0gcxCSxspL5KGGAUKIXGdm1MXqcneYb7I+4huxjzAPXDoKgWrY/7uEyzhx6B8c2LRN5dkBAIDPNhKe5w4X2/IytxGLVZvw6vUt9kBqvTv4w0Tehjw+avgHACzBwK5cT0AnRw8g5zGunPugsAz3d4Yhabw/rHnA06gI5q70eqCukxmn4+Hp9UDVytzmHtAUTdczufsupbqjrrquDqVdFovaPTDWeZ7MIRsFDwLx+5RA/I7CoHiDe/WAbZHx8pqrH8wQdgUflmPsPDssHd8XDuYGyHp9F//M92cO7+G5o3IFjt1hC7IKX4izdkWQsY2M9Su7e3PaZaleU3KOz7iSK5rzdBROA0pIifHtMO3ITUxTY5blnZpg2oommLYoAy8TE/H85Uu8z/p40eoZwcrSBrZVK8PShPtvqIF9Y8zZdQNTV7/EwyfPkZL8HrkA9IysYO/kAKciQ7w25XzAsuzCuBsCgQGEQjmPdkI79F24Az1nLMWjhw/wNDnzYzHLw97JWSrfyi3+B0neGGRk5wEQQGAghLysP5+HJSKkJCbi+auXSH2fVfj1pacHIyMz2FSqBKuKVjARcnz81GB5CTs6ZYR8x1rPPoeVfeshX5SJxAeh+LN3f9absw1j+qD2+YtoXPxtt0SExAd31VYeqT1LXuHQ4qGsganUhSdwR2ULNX8NSjLx37GNzH3p+qJlA0eFm1u4+aEueIypyE5dvILZPTygm3CT8QAy4vet+LBjpFSQsoLs04hN+gXW1lmIOhvC2I9h1wDY6XMcRyDvoaU0aLKeqUitdacU6nqZLwuvEkZsOoy7/h0UPiAGLh2C/Su2Y+XR/WjlaKLR+iF0bocFAeUY0/ndC5yI9oET5eaj12CA/B5CGsKpV31Zuqb0DWEIjt9FhJRVQhPYOLnCxkn5WTRkZlneBp7lbeSvxOfDxMSEW4afNjGxhGstSygsKV8IEyUaND5tY2nvBEt75QIba628RArFGCDku1Z406orNIaddyesjQhmD3QlicXEv4JZxvnyIRCq54ZOx0TvyxeSJBOnf62r8YcTSV4sEl6r3v2X1bub2HGMOWe5sMNPcDflcK5MPdCWJYhZblgInuVLmLML8NxRp2lrNGlQ7MZAEovLsclATjzORjJ7GHT3q/0VRe3WUD0rAbXVnVKq619DWXQr+mFt5HXMGRCgcF1JfgQmdpnwcao8DdYPnhladx+kUl5LFwxHeZW2LA1l75oihBCiXdRjgBDyhYUfflsyFG1/3sxYlBW4GBHDOnyeogsAwOPDytoNgPQ4OJ6uL5bsWIRqQo5vr3gGqOLi8rnD9tur6zFp/3vWVfn1e2JC2x/gaGMFU0MjIO0c+o+Zr9rxSmKRnKneqFUJlw+zdr0e3sWX24M4zxh1m/cCQqU/A4n4OGIePIbBzWCpdB2DH+BoboaC+v2Anauklh27eQtDbBIZvQ94ur5o5m2r1uPWKA3VsxJRU90ptbr+tZTF2Bm9ZvyDLoPvIuTYLmxetlbmUAZJ7n5sPDIOK/vW1Fz9ED/B5gXcg4F93u/+HWhpU4bHt5bFa4oQQohWUcMAIUSKfZtR6D51K3OqPUks1h29imYjpSNWi8GMJi7JjwDP0h3OdqrdGL95yh4Uq9fCCMzqUlM64JvYCB14C+VO3yernADw6EkiUIO9g1p+RjqUInmD8AN7Gck8vR7w87HmnI19bX8AzMaZE/t3wuiB9HG49mgCKx6g494E1bFa6iEq+8opBBW8ZeQjqNcBbuZfV9ddTdSzkuwbUE/d0URdV1VZKot+xRroMHQROvw0DXcvH8b6ERNYhxicD72EjL41NVY/Hvy7GJtZ4h5UB4/RYOFSrz1+6DwEP7ZrDcuvoDuONq8pQgghZQ/1/iKESOM7o8cc9q68d//a+rHr7hdmlZ1Z1z0dEaPa/iWZeHgzjFmsGr9hXPGHEyUYl2ePfXvw3xNge0cqeR2OWQNmK7UP8ctLWBTJvNk27tMTzlzH8wPg29ViTNOj4+yBq4HLcC5O+j1evXqu0AXAs6qJH5ylA6Xl39+ONTuPwdlZ+qu+2Q+NoNyIRPVjjaemYySzuVrt9UwJGqs7Gqrrnyh1jjVcFpXxzVDDdxDWRl5Bdx6zFLpWFaAHDdUPSSZiLzJnAJkd9B5B9zJw7coTXPzvCS7+9wLXbqfi8I5AjOzydTQKQFPnTMOU/d4ghBDCHTUMEEIYavgPQnWWWAOS3P04cOGxVJqFHfuUd2d+H4mQx9kK95We+BiPX6YWSREj8zX3LtoJ4cGc3lra+fiyHlPelTn4M1B6FoD0hFCM4xAErbgHEftZ0ye0rafcgxWvCnzH+EolFcSx3Kzz3FHf/WNPBF4l1PuhMWt2cXHSx+FfV33BkVQjhFXlaoxUSe5+xMSnsm6h/nrGnebqjmbqeiFlz7Emy6JYevwFBB4+jufpeewrGNnAjMe8ZclPzoAYpVs/zu7dhOhnScjnCaCvbwAjIyH4ECM/XwzN9J/QDG1eU6pR/nuDEEIId9QwQAhh4Fk1xrAA9rml988NREqRTgNCuzZY0ILl/bMkFhPaW2LD8TA8e5eKHFEmcnJEyEpLwbMH1xF2aCWmDjRHg5ZeCPhhBO7lfMyUZwY335aM7MR352BNYCQ+d+oVv0HEruFoO+Y3jsdUFwHO7K/ygn71Rddpc3E4eBfWz+2NBm06KT91luQFLsw/wUjWMRgNX3flQ5BVb9xe4To6Bj/A2VJQZJuWHLYZjVr2BkqXR614fFR2YH8omdutDVYF7sfhv3/FQDcTDNlQ+BZb7fVMmeJqqu5oqK6rdI41WRZFJCJc3tgX82b2xA/1y2PelkDEvUz58pAtzsSdMxul5ur+RGBvAT40Vz/Y3lBfCZyGnj9UR4P6VVC3TiXU9KmAmj4V4OlhBk83YwwaNw4bAo/gYbLih2tt0uY1pRIVvjcIIYRwR52vCCFMPCF8e0wDjs1kLCrIXIjg6FEY5PXxYZdnjNajfsXs0P+xZrV6SgBWc9iluMh0eEJz9rm/9/3aHPv3+qK9SzkcOxbMIdeix1QBrUb3x/KJm1kX3z+6DLOOKpdlUaLH4VhbwHyMqD+8E2xV6IddzqkBOvB05b6VdR3QBNa8ots0VjgfuOvAliqVR934xobsCySx2Pjr4M9/6t+NRxb8YaSBesaZBuuORur6R8qeY02WRT4x3n/4Us8Dlw5B4NLC/9er54HISNld21vVcSv8ODVRP3jGaBjADASqyNWz23D17Das/hX4aeE5/K+Lkj2GSos2rykVKf29UTrFIoSQbwL1GCCEsCrnE4D+PPa2w7V7z6BoOC7jGkOwcbi/2vbt0m4MOvDYb6UL4iJUfjixbz0Nk501M8dtzOl9rOkdW9dSLUMjF/h1MJa7il9tD8Y2zZvLvxVu1cRHI8evLKdm/dinxiyGb2HxuQVb3fVMGZqqO5qq64Dy51iTZVFQApS3YP+ukdcowK/xGya1+zIsRhP1w771EqxoUU7l7bfPbI5lYc/UfL7UR5vXlCpU+d4ghBDCDTUMEPI9kDF0OBNyuoDyHdBxTgfWRaJTEXhWtPsojw/fiQewc+ZQlYrH03NBBcMiN3tCL0z7ZyXn7TsOGMxtRV4lDN0ZyhrEjE2vhaex83cOxySOw7G1F5in0G0mGjmo2G2fJ4Rnix5ylrujtrNlsTRjeDfvKHsTfns0crWEfOwR+LmNPldiW+PamPn7EIU55iW8/bK9uuuZUhtrqO5oqq4Dyp9jTZZFHp4Qro26KbeJ/k/Ys3kSLIt+nBqoH6JnIdgbquTsJMXsmPgrHkp1t1fuGhPnleSaVHTQmrimlCyvWIIPLL9FrL9PqnxvEEII4YQaBgj5DgjNbNGcJXCXl438N2HubSexvkHUdbSBkF/sZpAnRJ3+K3HlVAgmDwgAFy4tB2HK0sMICZ8n1SUeACy8B+HW2RCMDfCWuT2//iAsDYzD4umTGA9s5mYyHsjLeWPezVj8Oby3nHxHY/3Bx5jTpTFsbRwZy42E0u+i0mLDmNM7Amjes630g4uS7BsPQ/9iMw184jZwOnysmFOKOTUdJPPhteXEkahhJL9AwvLMSOU61V1gzOH1m7LbunRdiWPrlsp+A8hzx9Qx7aS7A6u5nilFA3UH0GBdV+Eca7Is8ti3XoJjmzagez1PuevxdH0xfulpXLm9Fp5sU26qs36In2BF2964VuwBlafXA9tPP8aVK09w8cJDnL/wEGeDL+LP/7E/sEryYpGc9uUxVdnrpEL1eszDFNjLXJ8vNGcEy+Tx28PeTEYPJDVfU0p/hwgNUJnldrSufQX2favyvUEIIUQhnkQiKaWoMYRoXmBgIC5disHIUdO1XZQyKSdHBLFYDIAPoVAIXS4vPyXiwu0+Pvfy+Xzo63PoUi0W4d3rl3j15hUy0rOQBwACAQwMzWBZoSIsLCxhpM+ts2dOWhISXrzA+3epyAMgMLSEtW1V2FmZfVkpX4wskehjGYXQ55B3fmYKEhIe4eW7TACAwNAM1rbVpfP9eCxZOYXnjS8UQr/oeZOIcW6xP8bulI5OD5471p+9iGY2JZ8PPD9HBJH404MFH3whH/q6fCW3KVZuBZ9dTo648I0bnw8jLp93SbaViPDu5Uu8evMW2Xl5EBiWg7GxOSpWtoaRojKrsZ4pQy11h4Wm6roq51hjZVEgJy0Fr98kIzUzDenpWQBPAANTS1hXqoyKVmbKjdcvQf1IjPgNrYb/yUhfdjwFbR3ZG0Ai5tphxP53jPSfA59/icvysVxKXSf5YuSIRNzXl/re5kNoJOR+3tRxTanwPZAjyvzyOyM0Vvx9VZLvje/UxYgQxMSEY9Wq5SXKx8RiDLI+5KJTOx8cPjhG24dFCFETGoJFyHdEX18IfaUDr/GhLzRWPrYUXwjzyo4wr+yo7JbMcpezhnM5a/kr6fJhZGTMLcNPmxhbwtHdEgpLyBfCSNa3ZVYsDu26w0jWazAAtdXQKAAAuvpCGCn5AaiyTdHj1eerGE9MlW15JagraqxnylBL3WGhqbquyjnWWFkU7tcSduUsYaeOzEpQP1KfxjHS9Br+AT9H2b0iDMyqAmA2DFQyK/ZgrOx1osuHvpES38Oqfm+X8JypfHyA8uUtyfcGIYQQBhpKQAghJfD6VhDrLABdu7WBiQr5EULKBr6A2Rk99/I07L8az7r+6zt7MH/TLUY6j98eVS00E/SUEEIIURfqMUAIIaqSZOLasY2MZJ6uL9o0oLdYhHzNZAX9W/KTN5a5tMfQDk1hb26CrHeJiIr4E8GRuazrG/XrD0ejkgS3IIQQQjSPGgYIIURVWfE4FZzBSNZv0Rvu5vQgQMjXzMmvB7DwCOuyggfHsenBcYV58PR6YMfY9qp16SeEEEJKEQ0lIIQQVfEFMGSJjD1uQBuKiE3IV05o3xEn101VeXtd19HYF7YRbtRbgBBCyFeAegwQQoiqhDWw6GYCprzLgFicB/AFEJazhLkRjScm5Ftg33wOrp3thMP712Lhpn84beNSfxAGDh2Btk08qKcAIYSQrwY1DBBCSAnoCs1gZWOm7WIQQjTEqLI3+k3ajH6jVyD5VSJepSTh7dtUfMj7ElPAsJwVLCpao0ole5ibUsMgIYSQrw81DBBCCCGEKKJvDCt7F1jZu2i7JIQQtRDh5f17iIq5h4S3GQD0YWFRCbYu1eHt6QRq4iPfG2oYIIQQQgghhHw30u+fwega7bFHImZdbjxgF1J29KPGAfJdoeCDhBBCCCGEkO9C9qPDKOf2g8xGAQDI+mc/ojIk2i4qIaWKGgYIIYQQQggh34FM7JgyROFauu41UMmAZhQh3xdqGCCEEEIIIYR88ySJF7A+KFXhevmxd/E2m3oMkO8LxRgghBBCCCGEfPMSrl9FNJgP/Hyf8Qj7dxZcDDIQfSkUsXm14GlCPQbI94UaBgghhBBCCCHfvLdJ91nTV2z9DU2cygGwQvNuTmiu7YISogU0lIAQQgghhBDyzRPAmJHGEwSgcTVTbReNEK2jhgFCCCGEEELIN0+gLyPdQNslI0T7aCgBIYSUAfliEcQ5YoDPB19fCF1tF4gQ8llOjghiMcDn86GvT7dOhHxNRCkxOH/5MWCshwdXnjNXKMhA2JFTSDbmIRe5gF5VNGvuBeHHbc+EXEdSRg4AwMTaDa3a+cGSD7yLPoOla//C8SuPEQOgmUN9jJ6/GD96mrMXRJyB+zcu4fyZcPx34wqinrxBVFQUdLy84GlRFfW9a6ORf2M0adgITpbyWyrklQsQ4d6549gVuBvHrzxGVIwEXh4W8Groj859u6O9rxuE0gVDQnQEjvwTiLArV/A4LAo8L084erdD5z7d0LVNbZho+0MkpYInkUgo5Cb5ZgQGBuLSpRiMHDVd20UhhLPrf/fFgGVBUmnLjiehrSP9FBOiTfmvwzHBvwPOSQo+p+m3+gNnVo2BJcUlI1+ZixEhiIkJx6pVy0uUj4nFGGR9yEWndj44fHCMtg9LoRur2qLOxFNKbXPsaS462AtYt90UlYpWL5bBod18xnamIwPx+q8exR68gXtH16Jnp/GsgQ/ZdJm5C+vm9YO1jHZItnKticrCmIq3MKlVS6yKEsnMW6/Fr4gKngMXIQ/ilFtYOMwfc4PSZK6vYzAe1xNXomZ5+tL71tFQAkII0aa3oZi/7Cgj+b1IrO2SEfLd0xXqIaPY+5OckGn457+X2i4aIYSTTFwLu6r0Vk/fpgMABPrWjGURW6eyNgoAQN7rt8grtv+gmT+gRqdxnBsFAODwwv6oYjoBMRns27CVK/LIMjSv5Ce3UQAAckN/RZ0R2xB/LxitKtaR2ygAAAXZq1HHdgYe023JN4/6wxFCiBbdObwVD4vdLOgYToavS/lSL0t+5gvExtxDeh7LQkNbNKztSkMcvlI5b58g5u4jZLMsM6zojVrOVtouYtlk6oM+Pcxwbf97qeStWw+jf5MxKP2rlBCiHD5MTNT0y6XjCRREY9fKTfDy4iMqivmk7FbVGl8GAYhxckYLdF4cqdLuCrJXo1YzB7y8MREVOKy/a84c6HjqAtGK183cOQTVdipRlqw/sPTAEKzvXV0955KUSdQwQAgh2iK6iz3LgxnJLad2gW0pP4GLE0/ix5Y9GI0Un/Br/IH/DrqWuXGGOTkiismgQNqdbWjYa5zM5e4/h+IANQyw4wnRuMdsYP//pJJzL09D+OPB6ORIEcsIKduE8GzsD+w+wH0THU+427LECSj48sTN1igAAPefvkM2ABMA6VHb0U5Oo4DAvy/GeFviye0NCDrP/pY/7+YkrArrhvn+VRQW2xM8REfna+xMbt1yHL/3nkgNot8wGkpACCFa8vravwiWMH/EO/h6lHpZ4iP2yGwUAACdcvpl6gcj/+11zO1UHjV9KsDLoy1CHmdou0hl1ouoULnLK+vrabuIZZqxS2v05zHfo+w+c0XbRSOEcODVdx3uRUXh0aN72D+vNes6a8Lv4tG9e7h3Lwr34s7Cl2MQEZ5uM8zfsA2rfhsJT/Awsq/vxwZ0EY4tmcG+jV4fnHv0FrnndmPFihU4EpaN13cOohmP/Vd2ycJjeA/Fig5V6D8/EI8Sk5F47xwmeAkVbtti0hZEPX2N5EdXMa9TOdZ1csPP4WkGhab7lpWl+zxCCPl+SDLxX+BfjGR+jd9Q20ZQ6sXh6xlp+4xwJxHj0qYfcSCucMyDJD8CPy8IRJa2y0W+TXwH+I/1YyTf3XAQTzT3co4Qoi4mlnD19ISTkytcrCozFvP0+qBZXVc4ubrC1dUTrk5WnLpUG3RZgaeiMMwe8RPG//IXoiQFWPZjYVf7vKcn0W/3G+ZGOp44Grcd/k7SPRKsvLoi6PZ21v3knB2N0/HZ4GrW0TjsnN0DTjaWsHH1x4qwszIbHQBg5PZrOLt8MDztrWDpVA9z/vkPw3SY9yGS/KdIzqBAA98yahgghBBtSL+JoNBMRnLd9o210k2vauO+qIuvJeKwCImJuYzUAhVy+h7Y1+us7SJ89dwat2SkSXK24/IDLu/xCCFlmiQDeXnKbaJjMB4x+yfCTkYLQsK1S6zptaYvRgd79sZ/U68u2NqJfarDN+m54GLy3lgsCJCOA8Azr4+JE2qzrj9g9SX8NbCOdKKBOwYv6sRcuSAaD1+lK3eiyFeFGgYIIUQLXkedxzWWrvstGjhrpTy6Ff2wI/o5TgXfwJF928p8IwFb53f6QWNn7NINd289+Wo+27KonFNjNGd54xYaflfbRSOEaMGem4vgKKdbwYe3CazpvdvWlr0RjNGge2/WJWmpiofL8fT6oF8XN5YlfDh4MYco8gQBmDisAWte5Swp7sz3iO6jCCGktEnEiD0bwkjm8dujpr2Z9srFN4Odkwuc3d1RkUc/D98UoSV9tiVh5IQmzZnDba5uuYAkGnJLyHeFp9cHLlXlBx7Ny2FJ1PGEo62p3O2q1qrPmn7h+nPFBZNkALJ6PuTISJexftXatdR3wshXg+4OCCGktOU/x9UDzPmE9Pxbwc6oDLzNFZf1MYTM1zQ8Y5pmh5My/9mWUTwzeNZvwUguyFyI2CQl+yATQr5u8h7AAQCZuBZ2lpHK43vCoaL8QIDZKS9Y071cuUxYqD55oBbP7xHdRxFCSCkTJ0Zjl4T5gFbLxxOaDAGY8zYOly6cwIVzZ3ArNAIPIYGOswfqmNnDrUFT1K/XFLV83GGqrziCMZv8rFQkvniE+IdRuBN9G/H3H+F56jvgkQRxBbFwdvGFi48fmrZsgyYNa8JUmTkGJWIkP47F89RcGAg/ICFD+q5M/OIZbsfehoFYzt2awBCV7F1gZcTtp0+jx1OWCArPR87bJ7h9PQyXL13C7dsxeB8X+7GO+KJ9zXpo2rJzyY5TIsKzqIsI/+8srl69gNDIwsYxHWcPVDezh7erK2rU9keDOnVgIXmP+CfPIbRyg7OdElE3NLiPKl6+AI4w0u8+TkJLG7vS/MQIIV+jTw0Kcn5i+WaWrOlR998AxWIHEKJu1DBACCGlLC3lKWt6PXdbzexQ9Aqnt87BpDV7GYsK4mIQiRhERh7HDgA8XV9MnlafdRpFWRKvH8Dm7SuwPzRK7npxDyIQ9yACxwJ/B3jumLJyAwa2rgmFz5mSVAT/6omp+2UHesu/txyDui3nVN5lx5PQ1tFEe8dTxjy/G45D61dj9pp/WJcXxEXgWFwEjgUuA0/XFzM3rEDfJq7cdyARI/7qLqwYPAHnJAUs+cfgAWLwIPI4sHMZY/nPu+MwqLaN1vdhXKkaqoPHmNbzTlwS0IQaBgghnxijrn9LIOiAVKok7xiuP01HTc9yMrcUpaSwpjeto6H7A0KKoKEEhBBSyt48imRNNzcxUTInxbISQjG2ljNrowAbSX4Eli1cyjl/ceJJtOo/SOFDNHNHsVg6wRc9V52BwiaIrAScOpCmtnNy8PJD7R5PGXMvcJrMRgHGYeZH4PdhdfDjvJ1I4XKg4hfYNa4KAgaNY31g52LNzrPyp6IsjX0A0C1nCVsec6jPzdvRNFUmIUSKQN+YNf1+XLLc7aJDj7CmlysnP6YBIepADQOEEFKaJCI8vXeBkczjt4ervbEKGcqWFrsHddt0UvlhiQtR6rMSbX93Q1fsvPFSY+X73o9HU+7tG40W3RfiuYLGgdh/pmMRy7ScyijIyJU7FWVp7AMAoG+D+nWZN+f5L5LxgYbjEkKKEJgYsqav23AWMvu+Zd/GtsU3WRfZWBiCEE2jhgFCCClVYrx/WwoB4NJuYFb3UXJXqdeiA1rU8yzRboyreKO6nOnvdJw9FO5n1boT8t+4GtmjeQf19aboWlf2OM1SOZ6vAc8d9Vp0QL16HjJXEd9biK4LDssMdg3RXexfdEzm9jrOvmihYB9AYWBJmTcrpbGPz4QQmDDXyn94B6+oZYAQUkS1xi1Y03POjsasf+6wLEnFnonDsIcl/pBBl/VoZU89BojmUYwBQggpVeyNAoK6rVBVXTMSSMQ4t34ia08BHr89fv97HlrVcYXRx8Hw+aIU3Dq7FQN+nq/8vso1wOptq7H0rwPIMDFF1SreqFu/KdycHFCxoiWM9L/8zOSLUhFzdhV6/7xE+ozcjkNyPuAga3A+zwxd/0hAgxExSHr/AQLBB4Qu74XNkaLPq+i6jsZfv3aHaV6e7GDRPEPYunrIDz5YGsdThum6/oQ1v09Fwxp20P+YlpP2HP8dXYaxC/9mrJ+1rz8OdnmOPl7M4H2ZCZE4UCxWhY5LT8yZMARNateCjemXCFz5olQkPriEg5sXYHOxYRySzByZb/NLYx9fCFHZqQ4QGsZYQjdThJCiBFVbYWsncwwOesdY9lcfH8RdW4mZ/VrDyUIPr+IjsWXBUGwO+8Ca16xxXaH+gYaEMNFvGSGElKacZ7h4jvk+mdsbS25Ej49g7M5bjHRhxz9wfOEYWBd7YNUVWqJOh2mIbtgCv/m2YDxoKWLfYBDWNBikcD1doRm8O8zFimt/Y1KRQIKSvARkiiSAvIYRHh82Tj6wAQCJCI9MBAC+NAwI7DxQ17vu54fZkiiV4ymDGo7ch5UTOjBuQPXL2aJ5/5W4XK85xnfui2vFgu/9ufIgOm0dypxRQ8zsSyCwawjfRo1gXeyD0hWawc67HSat8YP9uOqYHZrxeVn1et6yb4pLYx+f8PiwsrZRtBYhhAAwRqdf5gNBY1iXhq6YiNAVinPRb7ECI/wravtgyHeCGgYIIaSUGbJ0VZeUbIi0lPhLRxhpOoaTcXzxGFjLeVbVtaiDeRHH8LRJe8bDHycSEV7evYqIy2G4GBGJZ5EReMirAefqPIBXHmZVbODqVAX39qcyNlXux4jZ66IgIxdiQC0NA6V/PNpn0Gk9Vk/oIHe6zHIuHbHuyBrU6zxWKj0v8iBi3w1BPXPpymVcyQ11wZOqSzkhE9HCZyJc6vdE0/q1YW9nDxvbyrCuVBkWFuVhpGuMrosvIGvJXITefgLThkPx86DGMstUGvtQRCI+jlsJmXCrQe/0CCFfmNcejrPzjqLl3NMqbc/T64PwfyaggrYPhHw3vrZ7F0IIIfJIMvEgmtnVee6uSXIbBT6z8MPMuX3QZd4epXabcP0A1s0fjuC4Yh35JbGIi/v4/wdAZKi2T9D3eTzy8HR9sXpyb7mNAp8YO/fD2gFbpHqkSPIjEPsiFfXMiw0nMHeGr7M+rsWJGPk8uBqIB1cDGekuLXriB98ANB+xGv1t2OfzLvV9cDh/9hWEJc6HEFIa2Fvh89S2flF8tJgTjAtW49F01F9KlVKvxa+4cWAOPMrL+uFWrlx5OSU5DvK9oOCDhBDyrfkgPVpax2A0GriU57y5S6u+qAuO3eDFL7BvamO07T+I+RD9NfrWjocDQb0f4WMl4LYyj49GXYcwku9EP2VZtxL6rd6qVFkehAZi9a/90LmFA7wHzcG9dwo+g9LYhwKS/AgkvFFjlx9CiMYYVnBhpOm610A5gXrWZ+LDb+R6vHsUgcUTuyhc27vTMGw/eQdpZ+fKaRRQvlyVPOoz0nh8B5nrCwwt4FnsPoAnCEB1C1OuB06+QtRjgBBCSpNYgg8s3fR56pqpMOcZ7pyTDmCk5+sBc2UC4fH1kMplPckb7JtYF78VGav9VfvWjoej2vWcOPUWUIXQviOunQrCn+O74YCSDS15V5ajm981bDpzCI1tZEfkLo19yMPjt4envZmGziAhRJ2qdZsPSd4siLI/BqoVCGAiFKptfVnKOzXBtBVNMG1RBl4mJuL5y5d4n5VbuFDPCFaWNrCtWhmWJtzyVrZclVv8D5K8CRBlZ3Na36BaF0RJciESZSOvcAMYmAjpwfEbR58vIYSUJqPKqF/XAOcipQMQSjLBISo6B/pWqFZXCBTJn9Mc7UXpCmDL4+GhRH6cgTu7Jyp8iK5Xzw9IfYf3cbF4qErcglL0rR0PV7efJiMHSsRn4OsxkjLlnAsj+xaYdyQFI+Ku4WrEaVyOOI3gyGhOu5LkR2BEh7k4ee1P2Mpp3CqNfUAiRnLSS/ZTosT5JoRoGV8IoYkQnB/vlV1fHqEJbJxcYePkqoXj4ENoYqLEcfAhFJpAhXYQ8pWi3zJCCClVQhixzIWedy0ET7OGwLPEkeyZc63nRR7EPZbgcLKkxV9nnepQiigKe2TMH99yxEoM69oeznbWUg+b+aJMpGW9x7WdozFpUxjUqcQ9LsrY8ZSmnJBYvFsEbjEoALxNeMRI87JhCY+VFodDe/YiLk0CR9/u6NGkIbq4NESXob/iT7EI6WnvkZqajsz3SXjx7B5uXgnGzmMXGNkUZK/H9tAR+KW1k3b28ZkIifHXWZeIQQghhHzdqGGAEEJKm6Fq4V2SH5zFmdCLeJEjgVBfCBv7hmjVphnKF33LyTNGNZ+6QOi5z0mS/Aj8ufk4Aqd1gMIRBZIX2DNnJuuiok0FmQk3EVxsWkOeri/WndiPZnbs0dl1hcYw1xeinD7zCbSkD1Z5/z1Dej5gpMyQCS0dT37aE1y+ch0pWSIA+jAqbwXPek1gbaT6TzKnugEAYuab/YIPy7F6fxcs6lmTw4m6gUVjlzKSrSsXi2EhScWu8b5Y9Knnys5lyAp8jkFeH9fjC2FqYQ1TC2sALqhRpxladx2F6b+9wrmtczB2zV6p7J6+eAXAqfT3UexTzctgNpjxBPYwE35dU1MSQgghxVHDACGElCaeMdxr+QPHjkglS8THcT8hE54ypjzLjN2OZt3GMtKXxRzEpWk/SD3wu/p2BZadk1rv7vZemFzhEBYMaS17vvbMOOz6rRnWxjHnhtcx0YMe5KsxdpbMh2hIxHh59wx2/NkfuyKZ+fOV/DXKLZ59zjUkZUlgbSr7AS098TqCdi7DufcVYBS8A7r/+xcLh7SWOb5eI8cjfoI/G9bELol004Few5WI2DoUqkx4p0zdgJA90lTQr76wNo7AiPY1ZQ4pyHl9HcuHt2b0JuHp9YCPfbEuG1kJuHotWypp+dxF8F73C2rZyDlKYSXUbtwQKPbQfvP2PWShsfRnVRr7kDoBzxj7AwC+j7NyMTwIIYSQMogaBgghpJQZWzmzpr/LyABkPBom3DzLmp61/z8kT/kB1kUeTIydO2BGvWlf3qR+FLK0K86ubI+Zy0bB18cdFkYmgESErLeJuBW+G5MWrpFZZlHIOkyZGg5Dw8po22ME6rAMKY9d/T+sKv8LAnzro2I5A+SLMvDm1VPcu3kBJ/9djHNx7O/RJeLj+ON/Q1HR0BAuTXuhZ/vGCoLh8VHeQvrnS5IfgZ/GT8OycQNRu7o99HWBfFEGUt8kIj72Gs4HzcaB4g/wS7uiTasUtLUzYH3Fr5HjEaUjkSXig/h2HN7kAyYqPGAqrBs6mbh+fBeCwy8g+0M6o2fEJxum+GLz3z9h/v8Gol6N6ihnJARyREhLeYQrpzdi9pp/WLfrtHAqqhfvNcHnwbBYROv8++vRr8V6tBw4H138/eFkWxlmxgbQ1REjJ+sdXsTdQOix7djM0tW/af3azDpRGvsomndaCp6zxN2oXc9NY8EbCSGEkNJCDQOEEFLKLOyrsaZHxj7HiPo2rMv4AtmPHozHU14FdJ+zDos6/MRYVyI+jt8nHFe+0JJYhB6LBQAc238Ku8+sQ13wcK1o0DlJLDb+2gsbVTgnkaGF880fO7YNiYI78sd684So6tYUwBHp83B1PSZcXa/Ufl+ligA7AxhX8Syd42F5mAUAScEHiMUSQFf5LumK6kbC8SkY8PNuTnnl39+OmcO2c993jd8wqZ1yQbTO7vgFZ3cod4z+dasptb4m9pH56hFrwEl7WwvldkQIIYSUQaoNdCWEEKIyYWUfdOAxXw3fuBgNZSfKk4hfQMQyblzo1A0n103VzAFIYnHnnRPmLBmqkewTkt8qXMelw8+s51AZPF1f1KlqVvhHudpaPR5BLTdU0lfvOPVPdUOUmamR4+Lp9cD2zZNgyVZsGdNyqsKo1y60cWbpSVMa+yjiRVQEa7q3m71aykAIIYRoEzUMEEJIadO3Q4MOzDD6eddC8CKL/UGHL2OAv6B2I9jIeKC0bz4HEf/uRXOe+r/qHSoYw6n9Imwc11zteRsbcxhpb+yNWQeU6x1QlKDBZOw6sx+eRWISaPN4dK0qKIzhIIsqdaOkXDv9gVOXtqCWrJkujCxQWQ23GL1mHcK5uV3Y4x6Uxj4+kaQi+mooI5mn/xO87A1KXAZCCCFE26hhgBBCShvPGN5+PRjJEvFx3EpIZd3EqfVo9HdmPgFOHdNO7vhmC/eOWBv1GBvn/ozqUPyQqOPSE3OXrJbZmKDj7IspqyLgayMAeEL4jj6KkF0bOTU+8HR9MX5hIBYMaCZjBXd0HL8F09q6cTqN5dz74tb5/zC5RzNO6+u4tMeIWVsRePoJ7mz7jRmgrhSO5+3tU6xj/Ad28JX/YCqHorrh0mE+5gzoLfPzdxu4EivnjuO0L379QVi6+w4OLR4DW3lTa/KqYPSBvwvPI88dLXuMQY8WXpyPqeOIlQi6kII5/eQEyyyNfXySFY+L57IYyYZdWsCOAg8SQgj5BvAkEol6+uERUgYEBgbi0qUYjBw1XdtFIUQuceJJeLXszkhv+HMotgyuz76RRIz0lBRkisUQiwGzirYwVeZpUpyKxw/u4F70XTxLeo0cfX3oQwgTE1NYObihmmMN2NuYKZ7SkLVsIryMu4Vbt67iYVIqAH3o6wthYlEZlas6wMmhKipbWaqWNwdZr+MQE3sHDxMTkZMjQW6uCHomVjC3qgQ766qwrWoPK1Nj7hlq4ngkqdj1kwsjKKSO4WSERP4mFUBS+fNfwroBAOJMvIy/jwcP7yPx1QvoOfmhwotwRGXow97eA+6ePnC2syzZ55SWhMSncXj6/DmSX6UgI1f0cUnhua3u5o3qLk4w11c9BJIm9pF2ZzUa9mJO4zlycxzGN7HhnA8h2nQxIgQxMeFYtWp5ifIxsRiDrA+56NTOB4cPjtH2YRFC1ISCDxJCiBbwbepisrMQy+NEUunXjv+H94ProzzbRjw+TK2sYaryTs3g6N4Uju5N1X9APCFsXBrCxqWhhs8cO6OKzqhf0Rn1S56Vxo5H9PgEo1EAAObumlSyRgGg5HUDAPjGsHGpAxuXOkUSG0GdgyuMylnD2dsazt5qzLQU9vHwP+bMDzx+ezTxstbcgRBCCCGliIYSEEKINvAqoNWw/oxk8b1A3HmZp+3SEXWTiHFh5zRGcsOfT6N7jfIqZEhKjeQJQtaGM5INu/WCt6lmYjgQQgghpY0aBgghREvsffuhbvFx35JYnL74QNtFI2omSb6A9ftTpdL4bjOxeFBjbReNKJAZdwG7JIxJQTGpSzONDY0hhBBCShs1DBBCiLaUq41Rw2syko8tOYokiv7yTYk6thUPi02tt3ztz+xT/ZGyQyLGrUNbGMl8t5lo5Uk9PQghhHw7qGGAEEK0qE6PKYy0gsyFuPgwQ9tFI+oiEeFVyrMvf/Pc8fPmO2hpI9B2yYgi6XcQuOsOI7nfuH7UqEMIIeSbQsEHCSFEi/g27bBxQE2M2HlLKj1PLFYxR1Lm8IT4YUYE7s7QdkGIskRvnuCcpEAqTcdwMvo3s9N20QghhBC1ooYBQgjRJh4fvtPDcHHAM6SKCoMOCk0qoqKVmbZLRsh3T+jUDbeuNMbr1HSI8wXgCwWwqGgLI+otQL5jAn5hdI28vHxtF4UQokbUMEAIIdrG48O8siPMtV0OQgiDfjlr2JWjaQkJ+cRAqIfU9GxkZ+dquyiEEDWiGAOEEEIIIYQQTgyEhfFRskU0tS4h3xLqMUAIIYQQQgjh5FPDgOh76TEgzkD8vYd4mZpV+LeeEWwcq8PJ0kTbJSNErahhgBBCCCGEEMKJoaEeACA9Q6TtopSKqL+HwHvUAak0niAAN94GoaYJBRwh3w4aSkAIIYQQQgjhxNzcGACQ9DpV20UpJcbaLgAhpYIaBgghhBBCCCGcVKxoCgDIzhHj3bssbReHEKImNJSAEEIIIYQQwkmVymaf/5+Y+B7m5kbaLhJ3GUm4efsekrMK4yPo6RmhsmcduFgaaLtkhGgdNQwQQgghhBBCOHF0tPr8/4Rnb+HpWUXbReJIhN39PdE/6K1UKk84FPcyNsOFnorId46GEhBCCCGEEEI4qV7tS8PAvXsvtV0cJYiRiQJmcv5rpGVLtF04QrSOGgYIIYQQQgghnHh4VP78/6joRG0XRyn6YJ9FQKDtghFSBlDDACGEEEIIIYST8uWNYGdjDgC4cSNB28VRgoyxAjwTCCjEACEUY4AQQgghhBDCXf16Dnh25B0ePH6Ft28zYWFRdqf0E6fE4OzlF9DTy8KdJx+YK+S/RNiRU0g25iEXQG4u4FinKTxsFLQWCABAjEdXT+LgvgM4fe4OwqKioOPlhQAvf7Tr1BVdOvjBUqhEWTOScDnsDE6GheLKuTt4ExWNaB0PeHlYwKtBA/i2aokfWvjBvjz1cSDqRw0DhBBCCCGEEM58mzjjwJEbkEiAC+EP0LVLbW0XSQYxQn5vjXarkmSuIck/j/Hdz0ulGQ/YhZQd/SDzmV63IrISb+GP/zXH9KA0qUUFUVEIiopC0O5VGCkIQNC93QhwMlVQThHCN85G05HLmIsKohEVBURFncfuTYsBACM3hmDF8JZQos2BEIVoKAEhhBBCCCGEs9atanz+/4mT0doujhwiJDwVKb1V3ssMZMtZLhH9Dd9qtRmNAoz18o6hk0snhKXIC274Btv627I3CsiwYUQrVBy5G+81fPbI94V6DJBvzsuXz3H1ygVtF4MQQgghpMy4fz8aYrFYLXk5O1dCdQcrPHySjGPH70Aszgefr6vtQ2QhhiS9oOTZlIAk/zy6Lj6JlGXtWB68RAia1A6Dd79ROt/0jf0xtJYrDg6vo9XjI98Oahgg35SoqCiEhh5G+fIfSp4ZIYQQQsg34sqV2zA1tVBbfj261cHvS04g5V0mTp2OQYf23to+RBZmcG/mCoRdVWorgY0F1BmPMG3NBtz8tS3qmUjPipB+Yzc6r7zGus2IP3ZjUMcGqJCXhOC18zBx01nGOofHrcCt3rtR04R9tgVClMGTSCQ0cSf5ZkyYMAEGwlTMnTNY20UhhBBCCCkzQkIi8ceSg/jvvytqye/x4xQ4e85CQYEErZrVwOmTk7R9iOwyUnD/6VsIDNOxZ1hLzA3LYKyyJPwuuljykAcAeYBp1WqwMSl8fxq1YTC8R22TmX2LmVuwYngHVBIkI3jJZAxeGcK63pobbzC2VtGGGRH29LdFP5beApuuvMKw+hWl0q5sGISGo7Yz1v3f0cdYGuCg7bNMvgEUY4AQQgghhBCiFEdHS7Rr5QkACDl/F5cvP9J2kdiZWMLV0xVOTl6wNWVG8+fp9UGbuq5wcnWFq6srXD1dPzcKKDLr31ic/X0wPO2tYGnjgUEr9uOvTuXZVy42iiPv0UnWRoHaM0MYjQIA0GDEHEzQ0WOkb/z3PygfRYEQJmoYIIQQQgghhCjt1zkdwfvYi3302D3IycnTdpHkkBFfQZKBPBWKPXlvLBb8WKNYqhm6Tp7Nun7Y1SdSf79PuM+63vj+fuw75Dmg18LmjGRFgRIJ4YpiDBBCCCGEEEKUVquWPYb0b4K/d17Enbsv0Lf/ZuzaMRQGBnolz7wM4+n1Qb8ubqzLhGaKpiYs9DzmFmv6paN7YHhTH7nFF+gBkacjWLehBzqiDlSPCCGEEEIIISpZtrQnLl2Ox92HSTh07BYuuczA7u1D0by5W8kzL6skGUAeACFzkUkVN3Tk6eKoJF9uFgJTY9b0jdMGY6O2j498l2goASGEEEIIIUQlJiZCHD0yDgb6he8bX6WkI+lVmraLpTU8AyOYQNEsASI8iYpR2z7VMwkl+d5RwwAhhBBCCCFEJRKJBNNnHkR2zpfHUx0dmj5PPj70hOo5R7om+tQFnKgF1SNCCCGEEEKIStasPYd/g24AAJwdrLBn1zDUrl1V28Uq4/iobO8OIFIqlafbDHvClsLD6OPUiQoZwsHLFSbaPhzyTaCGAfJNsbW1RdLLZG0XgxBCCCGkzDE15RYYj6ukpDTMnncYAFChvDFCTv8Ptrbm2j7Mr0IeMhlpkvzz4Nl4wtPp2w7eSMomGkpAvim2trYwMjLSdjEIIYQQQsocNzdXtea3aPFxZGblAACW/tG9zDcK5EDCTOSZAILSL4uFPftnceBEVOkXhhBQwwAhhBBCCCFESWlp2di2+z8AgFu1SujXt4G2i6SAENYO1Ripkty9uH73XamXpmJ1d9b0QxMH4+D9bIXbv0+Ix/2E0i83+XZRwwAhhBBCCCFEKbv3XEbWh1wAwPhxLaGjU9YfK/hwcPFgXTK8rj9mbdyDbX/Ogr+OLlotOKvx0hhUa4+tnVh6WBREo5ubIRbsDUV8ynuIRBkQiUTIeJ+C+OhIHN2+BP2aG8K8ajXUqP4Tbokkyu+cEBYUY4AQQgghhBCilH/2FQbOM9Dno3evetouDicCE0P2BQXRWDiy3+c/DW4+RAZaajionzF+/GU+BgeNYV36S9+W+IVDLnl5AIQaLSj5TpT1pj1CCCGEEEJIGZKSkoHL1+MBAK2au8PU1EDbReLELWAgmvEUP/4IKlqUStgB09rDcWJGa22fFkIAUMMAIYQQQgghRAlnQmIh+diDvUN7b20XhzvTuli1ZaTC1XIevS0yXWAm6zoypxPMAzJYghxmsK7MR9uFQbiwapRKh8PTq4FKJjzNnjPy3aCGAUIIIYQQQghnFy48+Pz/5v7qnelA07wGrcPdoDWyew7oeGLp3IDPwwgMK7gwVtF1r4FysroUGBjCgafLSG7qbCFjAyH8xq/Hu0cRWDyxC6dj8O40DH/uOYEnSYtgp93TSb4hFGOAEEIIIYQQwtmVq48BADZW5eDoaKnt4ijNreNYhBUMRUpCIp6/eoOs3FzoGZmhXDkLVLa3gUmRJ6Rq3eZDkjcLouy8wl4CAgFMhHIG9QucsTI/B4tFGYXj/wEIDEwgVPDUVd6pCaataIJpS0RISUzE81cvkfo+C7kAoKcHIyMz2FSqBKuKVjBRlBkhKqBaRQghhBBCCOFEJMrDvUdJAIA6tatquzglIISlvRMs7Z0Ur8oXQmgiVCrGn1BoAqEqQQH5SpSLEDWioQSEEEIIIYQQTu7efYn8/MIx9D7ettouDiFETahhgBBCCCGEEMLJg7hXn/9fo4aNtotDCFETahgghBBCCCGEcPL4ccrn/zs6VNB2cQghakINA4QQQgghhBBOnj179/n/lSuba7s4hBA1oYYBQgghhBBCCCevXqcBAPh8HVSsaFLC3AghZQU1DBBCCCGEEEI4SU7JAABUqmAKHR16lCDkW0FXMyGEEEIIIYSTD1m5AADz8kbaLgohRI2oYYAQQgghhBDCSbaosGHAwEBP20UhhKgRNQwQQgghhBBCOMnOzgMACIUCbReFEKJG1DBACCGEEEII4eRLjwFqGCDkW0INA4QQQgghhBBOcvLEAAA9Pb62i0IIUSO6ogkhREWZKa/xNDkN4jwA4MO0YgU4Wptqu1jaJc7G4wcvkJSWXfi3QAjrqlXgaGmo7ZJ906guEkJKG4/H03YRCCFqRA0DhBCiguwHYbCqPY+Rvu5qMAa5G2u7eFoTvWMp6k8IlU7UbYTLib/D25huIjWB6iIhhBBCSooaBgghAIDMpGe49yQTUDBkUCAQwsDUEOZW5WFprK/tYmuNWCxiTf/UxfL7JdR2Ab47VBcJIYQQUlLUMEAIgSTpBvyrT0EsJEptx/drgcWD2qFLQC1YC+ltMCGEEEIIIV8jahgghCDzdbLSjQIAIA4PxZTwUEzR8cb28Lno4WOu7UMhhBDyNct8i9tRCUjJKuzxIhAIYe3uAhfL77eHGiGElAZqGCCEKBw+oFDBHfzUpCtyrwajH41pJoQQopJc/DN0GIYEv5NK5fHb49abKXDmU880QgjRFJqukBCiNiP89uOVCj0PCCGEECAfWShgpEok75Euot8WQgjRJOoxQAiRqdmUGVgxwBV52fkAxHjzMgk3z4Zi9rpw1vUlOTsReLkTJjS00HbRCSGEfIX0wN4rQADqLUAI0SBxBuLvPcTL1KzCv/WMYONYHU6WJmU7bzWihgFCiExmdo5wcbT/kuDujGatmqJXpyOo1nol6zYht5OpYYAQQogKdFlTeTAAnyY8IYRoUNTfQ+A96oBUGk8QgBtvg1DTpGQNk5rMW52oYYAQIpMkh326M5tGnXF8ymW0X3qVsUxR26c48y2uXLiOkPAbuHohHm9jHiOWVxUe7uXgUa8GGreojVZNvWFnxuXrKR8pz58h5kYcrlyJxcOn7/DyaRIuQoIaAMyrOsLL1QkNm9RCk2bOsOQ6PlWcgVthkThy7CquRsYjPCYeHh6OcKzXAF1/bI2uTatCWNrfnuJsPLgVg4jQO7h0+y5inqYiJuYxdDwc4W5utbibcQAAgABJREFUjXpe1VHP1xON63nAUUGQLlHKU4SG3cerjDwAgLG1HZq39vp4fvIRf+0q9h88jwvnC49dx8MR7T1qonWAHzr+4AXLEsxAkfH8Ic5eiMe7nMJ9g8dHJTdPtG9YRe522UmPcPTsPWTmFv6tZ2IC1zpeqOtYsoCXopSXuPzfTZw/F4Wrjx7j3bsC8MxNUdWmCho0qgP/ZjXh41iuVD8f6Xw1WxfVez0qcUwXb+H8+eu4EvkcT95FAbCHubk1KntVRaPaXvBv5sPpPKm7/KKUl4j47yYuXonD/afvkJYuQTkbQ1hVsIJPreqwK2/I2CY3Txe1mn+ZmUX+9ZWL++evYO+hszgV+QIxsZKPZfVBx17N0KZR1WITfubjWWwUjh04j/DIWDwOjwfPwwEOHg0Q0KspOrd0hrESb9LVcb408f2Rl/IU5yOTIdDLRvTTbMZyieQNwoMjkWLEQx6A3FzAvpYXPKyptYAQoi6ajJH1dcTf4kkkEhq0Rb4ZgYGBiI0JwYzp/bVdlK9KRuxJVKz/ByO905K/8M8oN9Ztzk3vhQ5rXymxTS4ubtmK1hP2cSrTsNVL8cfgOmC/7cvH/fOh+GP6UgTG5HI7SB1vrD09DYMb2sg/Fw8uYkiduQiW5MtcR7/DMOzvb4BOPVczli2/eAQjfcy4lYmj+8cPo3/P1Zxnjug4ZQZWzG4NaxkNIbfWz0TjqZeky331JEZYJWDqwMlYF/5B7nn89/ZCtHM0Yl0cvWUJ6k84Lp2o2wiXE3+Ht7EIaxt0x9SYTMZ2O6JOobujrJv8bPzdrhfGh6dJZ+s1Cs8v9YCZSl2MMxC8Yj16/HJS4ZpevUZj78rucDRm34+6P5/PJdRoXVTn9cjdy0tnMOiHxYiQFChcd/y2bVjc3aGUys+9PrDpu20nNne3AyDv+nqMqQH/w7oYkcx8BE0H4trBn+As5CEv5RGWjJuMBcHpMtfnCbrg0pNx8DZTFDJKfedL/d8f+TgzrS86r3sFZRj0noHEzT+UuE5+T0JCInE+/DmWL19donxMLMYg60MuOrXzweGDY7R9WISoRdSGwfAetU0qTW09BjSYtzpR8EFCiErK27krsXYadg7txfmmFAA2j58C2/GnkcrysHV//3rU6rCQe6MAABTcwdhWfbDq8luZq2Q8CEPF2rPlPogBQE7w5s8PYu4aHfeajeC501Cr5yqlppM8unQRqlmuRmwm+zZ8/fKMtLtH96ON42j5N/Ufz2M3n5m4kJKnwvHooWoze9Ylh04/kbmVJPUxDkRkMNJ1yuup1u1NlISF7XpzfgiM2rce/dbeZlmimc8H0HRdVO/1yNXL83tRrfVCTo0CAPDX9kgZ+1N3+d9hXbu+KjcKAICF3pdzz3Z9XTu6H20cx8ltFACAvAs70HDsCTx+cBkdHIfLbRQAAEneYTRy3IQnYnmfi3rPl/q/P3LxLEH+eWEjfvkBIgp2S8jXLyMJNyPO4dSpUzh16hTOnYvAg5TskudLlEYNA4QQFSTj8M5LrEt4+sUf1XIRPH0mRu57pzjbYrK2LsLorfeLpWbj4vazKpd8ZvsDeM52Ey16jhl1FyqdnzIPhMrJx5m5P6PHsqsqbS3JO4wGrfcjhWP5/v59G/6rwTHzgjvosewyxBxX/0IXjX9szbrk6KwLeC6jrEnXrrM+THbv7aFUN+pC2dj502gsCM9UaqvYiLhiD0ka/Hw0WhfVfT1yPN7UB5gYsEWpbXRM9VkaftRf/ltb1uHn8HSl89Nx/3IL9eyt/Pr0jxLXV/a+JfCoPYNzA4okdx9WHn4uY2npfN4l+/4QA+n0gE/I90mE3f09UduvBdq2bYu2bduiRQs/uNmNxwPlbzJICVHDACFEJuZDPiBOfY51Q0dgaQxLay7PASMCnKSSMm6HosfaWNb8hy6YiQs39iDm6hosGVyHdZ2gSf/iTvE3q6bMh0Edj0YYO3sE1vw1HWsWDEYHDwFrfpLcfTgem8VIv3/0CLYWqPIWXDMyYs+g87IYmcv5fi0wdmw3BPjJHoedH/UX1l9I4bQ/d/BQEMvtQQQAMv46hdup3Nf/pHzNehijo8dIl+Tuw1mWzwXIxZVjwcxkngO6tqiq9P6TLx3HyOD3Mpd7+jVGgF81liXSZdbk56PJuqiR65GDpGtXWHs/6HXojQNnNuLWja04f/g3zB7s93mZOCGH0fik7vJLMh9g0cTzzBV1vLFszyrcitqB41tHsfbGKHq9tKtvK/f4lb2+lLV9+2XWt/ul9XmX7PvDBK6+dkofs8DGFEKaqYCQr5wYmSxTlCL/NdKyqcGwtFHwQUKITPFnTmF9TlThH6IsPIm9g3X7bshc3+d/o9HUsmh7Yy6Or/2bdd215w9icJ1PsxdUxpjVS1HXewmaFRufLskPxT/hQ+Dd7lNsAAN41XcDgi8DAHrPnopxfZvAx9ZUarshE7sjeO6vrG90r0cnAd7Vi6S8w6HlMroR6zbC9rOj0bGmNcQpz7Bv5XqMX3dNw2c+F8dXsJ83nm4LnLg1Hk0/B8Qbi+TYCPRvMJf1DePyP//DhKadFY7DL/q2udmUqfhzSENU5Kfi5Kr1GLmW5XjzL+H603TUUTaeAt8a3Rc3wbqp5xiLNh97iEHuNaUTM59h3zbm206BXxs0slb2JywDBxbslHleD0SORzuXwvMqynyN8J2H0HlqYGGxbQyLPIRo8vPRZF3UxPXIzeuHz5jnSq8Xbu0eDodPsRZcHFGvlR+m/vYcR/eex7PKtYvVW/WXP/PRY2aDhY43/o1dina2go/FsselOvZo5DWD0Stjb9QpdHZUPMq96Ha9Z8/FrIE+EKYnYMXA6QqHFzQb+zP+HNMIFfNeYfPMaazDC/Iu3kFCZg+YScW3Kr3Pu6TfH03GzcetjmkQGHzAvrE/s/boWXRmOwIsCoMPQgyY2lem+AKEfAP0ZU5RSkob9RgghMgUHXwQU35eU/jvl61yGwX0A0bj0K/Sb53yHkdi8D7mmH6fKUuK3JR+UW9IP9a3yZsPR6PorXO9YZMQcng5bj05jS3T2zEaBQoZoP3YPqxv+rIypN9DZj+OwoIY9rGx2yN/QY+6VSDk68LY2gFD/1iC86u6avS85z2/xnrewHPAgZjpRR46C1m5++LfKzPY87qwCiGPczjve9qebTjxazt42JaHpbUDBiyeg9UdzNhXVrGbX82AFqzpdxafRVyxYR7JUbdZ3zT3+Kmu0kEH857HsncZ1/FG0P1ZnxsFAEBoXBGtR4/C66iVmD04AKtGfAnEpsnPR5N1UVPXIxd8fZZHOEkO2PpF8M1s0XV0f0zsJN1zQxPlF+cx45QY9GyH5rbSt6QCR2+MY7kOXqUrdyam7d+FLdP94WhdHjYuPvjz1DL48mTfig3bsAEnFrcvvB4d3TBz+2oM1mG5XS5IQkqx7zVtfN4qf38Ym8HF3R6Ojk6oYso8Pp5uC7SsZQ9HF3u4uNjDxd0e1sb0bouQr5+M65hnAoGBtsv2/aFvVUJIiQ1dshi/jarPeFB7/+wZ6/pjenvLyMka3efVxrpfLkulfgoy9fmNrbEVGreyUlguXnkzePB0ESuR/wSbfC+ONd1oyG/o6sL8Zao3ZDzOpKei9S/noJA4F5kixU/QfGPDzw+ez26wd1H3+d/wz28xizNxb4INHcqzdpN/m8HtCX78tm2Y26l4FHgTdBzfD+OD1zLWv3AtCSPrmHHKuyiBrReW+JkyHtIl4uM4d3sYnD/nmY/bR8OYGfAc0LOJrcL9FPcyin28tP/Mn9DSmv3hzMTRBzNX+0ilafLz0WRd1Nj1yIE4h/loKck7jNq+PBz+uzuauVsrvCHRRPlf32ee79a17FjfROeml2wowPht2zC3nXS95Zm5YtwYN0SwdPfvs2QNVvVzlU4UVsWAeb7YWvzzljzBo9dZaGltptHzpfD4Svz9wR5sU4JsiGm8MVEzcUYSLoedwcmwUFw5dwdvoqIRreMBLw8LeDVoAN9WLfFDCz/Yly/+vZ6JG6dOIzrhDT416+rr68PCqQkCfKux7iv5/kWcvRKLjM/twPpwb9oRTVzN1Vw22UQpj3HpwlmcDbmIKw+j8PatBDwLC1StXB2NmrREy5YtUMuJWR7RyxgEn7+Otx8Lr69vAvvaLeHvKes+rPj50YeJtSNatfaD5ccvV3FKDM5efgE9vSzcecLSGJ7/EmFHTiHZmIdcFE5R6linKTxsiv8OipGScB/R127gv/8uI+7JKyQ+eYILADwAWDh4wruGJxr7tUTTlrVhqcqT78dT/PTmaQT9exhhV+Lw5G0EomLc0DygAdr06IKeAW1gp6HZBTRRF2ShhgFCSIl03rAVq/s5si5LvBvPmn715FkY3tED412dHnA95A7rNvK/rPKRmZqBd+/SkZ6eiewPYuSCD73cF3gJxTfz7169Zk2f0tVd5n5rt2sEKHwYy8bOkX05Bf7SD5iC5/+0hzF4+PA2mXWdnj84y8nBAPW6NgeCDzKWpKV+gKI5dHm6LdA7oCp7zuWMoF4maDO8PX4O/4exZO6/9zC0TsPC8y5+iaPrmQ9uAr+OqKP0MAIg/RV7vIXWLR2UykeTn4/m6mJpXo9MlX3cAIQy0vOjD6Fj/UPQ8WiBP//XDl3aest8E6yJ8tvX8gAg3X3+6KwLeD7KFbZFH4RFr/FfRBZUJfv60oW9e1UAxRoGdBth3CAP1rxMK5hx2mdpft6l+/1BSEmJEL5xNpqOXMZcVBCNqCggKuo8dm9aDAAYuTEEK4a3/NJr7NFx1GnbizXnTVGpGOYp3WtM8u4/9KzRFOeLDSerPf8Srs9uqNaysUtF0J8T0XnaDtaldxCGoN2bAAA+/Vfg4LoJcPz8kJuJbf2aYHSY9HTBPEEAbqQHoaaQ+TCcfmMn6rRlTmO55OobTKlnAUCMkN9bo92qJJklluSfx/ju56XSjAfsQsqOfh+PVYx75/bi90nDsCeKfYaqKACIikJYELByEcDTbYYNYdsw3LcqONOtiLzEGKz6nx8mBqUWWxiNc0HROBe0GVMBbIx4juFNqnDPWyFN1AX5qGGAEFIiR0YOxjzzXYw3YQDAN2H/evp79p/4W1HGHKQ8jsH+nSHYvvRoiWYH4LN9jfIc4OloKnMbsZhDcLjMRAQHpileD0DOiUuIz2wPb2NAzNbzn+cA+yryb7Dtvd1Y08Nvvca0pvJ7WEiQLXNogHFlO3Tg6SqcOk8Zjs2awJcXyBh3n/nXWcT+2gDeQh4yYmJYg/D9NLyO0sMIgFw8vMMyJaKON+pWM1UqJ01+Phqri9D89SiPVaPmmO2xVeYwiYKYUEwZFIopKAyKN3FoKzgaS3/Gmik/8w2LJHcfuo+vhB2/tIWLpT4yk55g06SJCCze84jnALuK3B565V1fkDXrqoz17WtVBxel+XmX9vcHIap7g2393TB49xvOW2wY0Qp7b+7C0w39UB6AoFoLrPQvh4lhzN/3cZP3olvIKBSd1DNi3XxGowAA/NSq+EuVkpeNQfQYv7XzwdywDE753d41CT2ca+L67Kaf03im7D3q8vIA1qdQgR7r+sLPT50iJDxVforSvJcZyP64y3t7JqJGv3VKbS/JP48Rfg5Ij3iFKU0qcttG9DfqV+P2jTnC1xa8G28wrJYFp/Xl00Bd4IBiDBBCZOq0ZA0+ZJ5H+puTiA6bjw48Xdb1/ug5B2eTij+c5CIh9qnayiJ9z/kOO6f/DHuvsfh5aZBGpgzk6TjCXqU+ZyruT9cOpkIAyMaNcGYsB56OIxws9eXmIXrL/kbc09msZGUTCmGk5ujfPDNXjBtUgZEuyQ/FqauFx3Hn5AXmhjre6Nqosgp7zMe75JcsBTGCEV+ZYyv9z0c9dVGT1yMX5vj58CKZ3yFF/T17ITxsJuLIg6Jv6DVTfgP3+tjQi9l1NmrrStR0+AGGxs1gVX0QZgczHwAEfm1QV4WeK+oqu3za/ry/0MT3ByGqESFoUjulHrY+Sd/YH0M3Xf/4VwUMWrKUdb2cs6Ox5eqXnl+S5BCMnXOGsZ7xgC0YWL/ow6m6ylZUJrb1qsu5UeCTmPO3UHTQm/qDA4ohKdHQrEyc37Jb5a2ntVmBZxoamjSi4XjEiEp6T6qJusANNQwQQuQovOnlCw3gVNcXgY+XswfKkjxB70URxW4edaGnr56bQR1TQZHuTdk4NH4Ee6RrNZIUPMbDl9yD9rES6sOKx/FrNj8FH+T8UMl94/gRv5wZa3p0XKrGzpPqdNG4f1/WJUt2RwN4hzOLbjGW6bdvhdqWqtQr9rnSeTBQS985TX4+aqmLGrseuRNYe2N/0nasHttU8coFd9C33vIiU+Vpqvwm6DK4nUr57NjQFZZl9oFX+583IWVN+o3d6LyS/d5hxB+7ceXeIzyKisDK4S1Z1zk8bgVuZRR+J5nW7ofd/Sqwrjdz1DYUdpIX49SiWYhmeXmxeU5vmGiobJ8kh2/C4CDZQxm9/Tuikz9LzBGe/EbukjODezNXpbcS2FjgU4QBtl4Mut4dMem3P7Bh2zZs+OM3dPRib7ooyPoDR6O59eZUliR3L9YfvleiPDRRF7ii73pCCGc8S2+s39IFnoOZ46Sztu3CmZ99iwRf04W1nT2AYoHadLyx/dRo1DDkcXwLpY+qHnYw/ngDnnz+MPptZX/zyvdrgXndGsDZ1gJmRkJI3t9C656bVTtYyRO84hi0Tya+LUbsHAbelWSYC2X/0GaLMmBeux3chTwABqjtVxsILjYeO/8SbiZkwdtddqyA7JT3rOl+Nbl1mStt5WvWwxgdPawrkO5Lnb3/EkIGiXGygNnHekQv7891QTkm8GpVGwiXHosvyQ9FTMIUeLtwDX+shc9HHXVRQ9ej0oxtMXTxPPSd8ARB+05i2S8HZPb4keSHYvGubvhnlJvmyi9OwpLJBzltKbXP8LnobFuWJ9MqI583IWWGCMdWss8Os+nKKwz7/PbeCRM2hqB+zUFoOGq71HqS3L3Yc34BagY4ABCix/xN6LebOTNM3q0ZWB82DL+5X0E7lge8WpOPo5tT0d8cdZcNAFLxz6+/sebJ0+uDoDtrEPAx8KEo4xnCtq1CuwnLAQACGxNoekIAv0nHcK/LWwgM07FnWEvWXg1Lwu+ii+XHKUrzANOq1T6OXDCGT8P6QNApAED/37Zi0oBOqGkv3ftrxNRJCJr5IzovYvbYuB71FKgpKxAruy7zd2Hh4PaoaiLG7dOb0LD7bNb1tm69gN9711CxO78m6gJ31DBACFGKU9fOGDz0KHPst+QJFuyJQbvpX+ahF7NNclVwB7xKjvBwVO2m+nU8e0CtYRs2YFk/V+kvNbERevK2MccGFyOWMRnXvbhkwJv9QU+cxi0QmWfnHljTWbljZJ3aDcCDR+8BOQ+esWGXWNPLldNDmcS3Rvd5TbDuF+bDeqfWzEB10PFGW5WGERQyMGW/1Ym+/wZw4T7LgSY/H03WRU1cj6oysHZAr0mj0Wtcf9wKC8eirstZx6CfCI5C6ihXmIGnkfJH79iNpTHZjHR38BgNFp5+jdGlTwAGdqsPa2HZf1AuS583IdqW9+gk+rF0za49M6TIw9YXDUbMwYQxe7GqWAP1xn//w4IABwgBCKp2wdkZ9dByUSRj+0WTBuOJeQgjnafbDEunt5W6V9FE2fKe/scaA4Gn2wynnuxGa5sv32FCEzu0Hb8Mae0DsPLPf2A/pFWJAthxYmIJV09LACLYsk1RqtcHbeq6wknGd22D0RsR7v0IVrUbwsVSVjOGMTpOnAHPRSGMXhsZ6dxi83yy4GgcZgV8ie/SoNssPNyfiuo9mENKcsP243bKUPhbKv89q4m6oAwaSkAIUQ7fFkNW+LEuurMouEjXX8Dcjv1h69DpRyruPBuxl28zUnW9hmJ2PxeVWzpNLdgD823ffhkpLG8zJUl3MOKHv1Q+hYoIZAQN+2vTdaTKiqcgisfO5ezT8VWy0PhPvMpqdmrOeV3VhxHIt+6PC6yfc6FsRB4PxYnbX3qpaPLz0WRdVP/1qAZ8E9Rs1R77k7ZgsA7zJopvY/Z5mjxNfJ/cCmE21iyPPINrmWFIfnEECU8OI+HJUSS/OYurJ37H9H4NvopGAc2cr9KRC80N+SHfr/cJ7N+/4/uz38+A54BeC5m/T58C4H3SfMpydGSJnZJ/5yj2hDEbHbusWAj/Yr9jmihb4p2rrJu2+PVXqUaBokydmmHOxo0YWK80exnKeHEjySgMbiiLiR182zSX0yjw8VSVt4QXh9g28kz+N1aqUeCTat3GYbouszeoJP88Yp+kc8maQVP1lCv6miWEKM2nXTu4TzjHeKMmyQ/F1pMDsaq7HQDAyqkq6/ZBU//EkeZ/obOLggl2nr/EaxjDxfZTRHYxMl9y71Idf/qiwt4CAOBY3wfu2Mc4nrwLmzFjay38PfhLNPn3j69jhPc0jUbYdmpYCwCze3PehVWYe8ATq7oXnyc5A/umLmU9Vv2AiWhpq+nxgqoTOHpjiZ8pfg5X/CM6on+tEnVpruZfF8WnpgOA/Ki/MX6lO3ZNrCn1o5iRdB9rJk3FguB06HqNwvNLPWAGnkY/H03WRfVfj9y9f3Abh65lwr9DAziasdx6GFvAnOVdhfjlB4ghAcArtfIHbTiC2hObo7q5HgwM+ODz+QAKIBbnA3zdr+bGSZuft+r0UKlqZQCpUqmS/FDcuD8O3j5mpVgW8i15HnOLNf3S0T0wvKnPOn1n5OkI1m2KfgfwzBtj/voBODpqm8Iy8PT6YPawBqVStvSkF6zLf2jNPg3q10+MjPfv8e7dW6SnpeFDVi5yoQe9vPtI5DBttSw8vT7o195NxkI7tJzTDIvnnmYs0heo9kuhqXrK1dfy+0YIKUN41p74Xy9zDN73lrHs75FnMaP7IFQCDwaO9bGhQ3mMDC42tlryBH1qt8GcbUvRo5kzbEwEAHQhFn1AcmIS7t6MwsF/tiEwXAToNsLl17/DW8iDrHHi+VF/Y8FWH/wx2KOw25Q4FWc2bULnqSc4Ho8rensYYnYMs0v23vGjEHOpD8a0tsPzi5ewYGu4xs+vwLYW+3kDsHnQUDy8MQZTe9WDo4UAr+PvYcefS7E1nL1tePpI3zI+PtgEbYa3x8/h/8hfTccbHRtVKtGeDBxrymyECJo9CeZn2mPFoIawMxQhOjwcs9d9+az59kaffzA1+flosi6q/3rkKhdhSxZg3L7C7pFDF8zE8B/rwtW2fOE5FWcjMvgolhYwAyzqOZUD/+P50UT52d5OX9i6Hk23rpd5NH4dOqBZ6zro0LYBPKzLbm8c7X3eJaEL++pVAcQyloz1nYRnq/rAMe0Z9szZA/6sP3B8el0tn2XytRCYsg/F2jhtMDaWMG+vIdMxYcweRnfu4ibt/RU1Wa4l9ZdNhAe3ohmpPN1maFDdXIX8yq6U+IvYu2U3tizaxBrkscQkGYCsaRkBWNrasKYnp2YAKKf07jRZT7mghgFCiAr08MPg3sC+tYwlkpydCLzeFRPqmAEwQJfpP2Fk8ArWXH4bNAW/QbE8ceEbQwAwqMDebWzz+LHYsskHPTyMsW/fRSWPpxw6TW+D2f3Yg5BF7duLEftK58wWMkCAnPN2fu06nF+reP5eQdNRGNy07N8EODZrAl9eICIkslv1DXq2Qy2zko5+K4fuU3vh5/BNrEvF4ccxLvw46zId46Ld3DX5+WiyLqr/euQmH+8yv/SW+Hv2Qvz9MWaTn181hIfL7tre2bdqkfsxdZffAP69WgDBygUfDA8ORnhwMH4DMG7DWvzez6OM3kxp6/MuGVlDdSB5gj/H//75T/07ichEnTLe8EnKBhGeRMWUPJuPGH2/BM4YvK4vVinoNfCDXzWWVE2UTYy3r1niMemYwKhsflmpIAnbJg3E4JUhJc+qBD4kJ7GmZ2cqF8OgkIbrKQcUY4AQopLy9RpjjA57ULvfNl79HPbKxKcDjkypr7b9enbvip489l+2gpjbKjQKFHLq3BcLPIw0es6UUd6nA47PaqDy9jzdFgjd3r0MT6dWpKxm1TFikIXcdcb3rKmWYEhWzbpg62BLpbcTv0yV+pHV5Oejybqo7uuRG12YW7EHYZLXKKDrNRTzu0tHVVZ3+Z06j8auDqo3nq0ZORazT7xU8/lSH+183iXj0q41+7S4xfAtTT/3JiFEPj701NTrRddEn9kQKH6MrWP2KNx26Xa2Xl6aKJsYknSWhnaeCfBNxB3NxIERPlpvFAAAgdCENd3AWJUTreF6yqkEhBAio2EzQ942fGv0WeGLdROY0eNFB6IQv6b1x+n3dNH61/k4Y/UXWk89rHTReLp2qGhc5ItS6IQ/zk1GoP+fnLbvNSYA+9Yd47CmOSadWoXHdqOYMy6wGLZhJbpLwtF61CGlj4kbXfjP+B1nrNai9QTlzpug6UBc2jMQ7jLfsLNHvs+DjDeDYgmyWLrosdcPJfMGAOjBv39PYOta9sW6jdC+QQWohwF6rf4bwHQM3sp9ruF5U/1hJlV+TX4+mqyLar4eOdGDd3M/YCv3N/M8fnuEBfVBJUadUW/5sx9fw6bjqUrnU9Sa3lvQ//Xsj993gLLXgDhHlWuGK0183pr8/gB4xi5Yur4z6iuoz7nxaZ/jTxAiHx+V7d0BSM8ewNNthj1hS+FhxAO397uGcPByRfFHwahdCxQOIwCAkOnjcLrvDfxgU/ShURNlM0PNNq2AsH+l1pDk7kX0082o6Wqo8TOuScmha9BjUzLrMoF/Xyzo2Rau9tYob2QEybtQNO08S3OFkRHCqZyZiXL5ANB0PeVWAkLId09oYYUOPF1GELO69sZyt/P5sQd6TrzACKqm42YBQ6lvFz00GT0BiW1aYNvG/VJjt2Xx7NABvX/0Rde29WBb7MbPqm47vL1nhxXz1mDBvges2/P92uPv335CjzpiGP51SuoBy6oC+zc5z6wa1ibvQZPFWzF46SnWdQR+XfHPon5o522Ol+eZbztNDNTZHK+LJkMmINGf23nz7NAB44Z2QbeWTnLfrhtaMKOV69awhylfxg22UB/2PF2gWP3wrV6u5Hl/VL5uKyzw2MY6tt6wRwt4GKuzg1s59Fq9Fj5dQ/HHn8sLx1Kz4Tlg6KzuGD6wuYyx5Jr5fABN10X1Xo9cOHUejZuHXbB2xQFsDX8oe0Udb8zZMggju3sXa4jRQPnFSZjjM4cxhIWn2wInbo2Bt7kO8rLFEAPIS3+PSyeOY/AvRxh5SwoeI+m9GO7Whedb2WugYg03ANINrDydijLX5xuYMKdT1G2Eahayepmo9/PW5PfH5/33H4+b5raY0GsN+xAjngMWz25MwwgIZ3nIZKRJ8s+DZ+MJT6cSTOn77hp+GbKT27oF0egx/zDe/tVDerpCDZTN0JT9sfBObCLgWl3J3JQjTlUtIj9Xrx6yB+gbuf0a1gysI/1wm2eMvry52MMhEDWrggykydw0FRf3n2FflKfa/jRWTzniSSQSDURqIEQ7AgMDERsTghnT+2u7KF8lkSgXYrEYgC6EQj3w+VxuuvI/blf4VcLn8yEUKvjyEuciJekNEl+9QWqqqLAFVMCHoZExrCuZw8rSDMZCbu2WotS3ePT0Nd6kZCIPgMDIDHYOleBoXSSStjgfmaKcj+XTg5BD3uLMVMQ/eo5nKYVB4wRGxrBzqCKd78djyRQVnjO+UA9CTudM1Q8oG0kvU/Di1RukZn380REIYWlpgcr2FWBprMTsA+JciET5hW/c+LowFireViTK/vI5Cw1kH6sKeQO5ODS+L/ptTWEsmXt8P6Y1teKQh2oyU98i8elrvEkVIQ98GJkZw8LCFDbWFsp9nur8fIqeTk3XRTVej5xOU2oqXr5+h7fpmUhNFQHgw9DMDLZVKsDG2lT5NxYqlj8hZDvcumxnpG+/cRI9XNhjmZwe3xNdtr5mpC86f+RjXJUvZVLqGhB//B7lfM0U/d7VhdBYiW6j6vi8Nfn9ISUXKc/fIPFVKrLyxNAzNIapqSkq21nAWJPftd+okJBInA9/juXLV5coHxOLMcj6kItO7Xxw+OAYbR8WJ09PzoFDu/mM9K6rr+HguDoq5xs6sz5aLopkpHt5eSEqKop1mx33sjCgyFt7TZQtasNgeLPEPBDUXISXN6eDvQ9eJq4cPYaUKn4IqFVZYV5Lrr7BlHrSwwDzEs+jm21LHGWZLWfNjTcYW8uCsc8Nne0wKkg6SCpPrw9upO1mCdaYiT39HdBv9xtux5UXi376PoyGAbZzK+s4DbqsQPyhibAunvWjQOhV78U8jTqeOPVcumcIW948QQBuvA1CTZMvx6ipesoV9RgghHxW+ECvbIukLoRCA+U24evB0tZGZjRXpcpsZgEPH/nj08HXhbGxcl3n+MZmcPExgwuHYzE21nwrbuHBGsDa0Q7WjnYlz4uvB6Gxcptw/pxVyFuSFI1FW98wF+g2QpvayscEUIaxmQVcfCwUf9YKT5AaP58iNF4X1Xg9cjpNZmZwNDODo9pOkGrlf/fwOSNN0HQU2smZxs/I3AoAs2HAxrzYNspeA3xdCI2V+R5V4Xu3hOerRMcHJb4/pJRu3STfrorV3VnTD00cjIOtruJHV/n1831CPF6jPFztv8QkyXt0mLVRQFBzEc7fHIN9zW0xOiyNsXzkzB0IODQK5TVYtuotfwDAfMjNuzUDI5Y0RODPTaWn530ZiRWjW2NuUBoEtVbg9Y2Jn8sHlrfYADBjxBK0CV8Ej48Ptsk396Fnnb44L1FmekAhrB2qAbgmlSrJ3Yvrd1ejJqMhQYz0RO6B/R6dDFK9t8BH2YcnwamLCLd2ToPLp4f4jFj8/ONPrOvr+/dBbRvVeo9qoi4og4IPEkII0brbJ05Id43+yGhgS7grPaadEMX4+swGgLwLf+HvC+zzf7+8FoJJS1kiRus2grOVar1BCCGlw6Bae2ztxPKwVBCNbm6GWLA3FPEp7yESZUAkEiHjfQrioyNxdPsS9GtuCPOq1VCj+k+4Jfr0O5WJ3fOGs+5r4epBKA8T9FyykHV59uHR2HLxSwOj+ssGGFRrgZX+7MN1Dk1tBsMWw7FxbxBOHf0Hf0zqCtPK9TE3qLARQ2Av3XPL0IS9x5749h/wNPPG5PnzMbF/S1Ss3VvJRgEA4MPBxYN1yfC6/pi1cQ+2/TkL/jq6aLXgLD7HTygm79YM/LLp8pcIKOI3OLlqEKp3Uk98gewjM+Bq5o3Jf27A9o0L4F/OC6ui2IchDh7SEapGRdJEXVDu0yCEEEK0Kgl7J0WwLpnS25t+qIhGyAr6N7N9f8z2aIT/9aqFahbGyHiTjGshe2XGojAZ1QYu1HhFSBlnjB9/mY/BQexDH37p2xK/cMgl7+Oc9u+u7MDg3cxebvotVmBIk4oAAPPaA7C10y8YHPSOsd60dhvQN33ux+7p6i1boQroPWsaJobNZF/33GaMPLeZdZmOiXTPM6e2vdGM9xf7Q39BNFbMiVbqkyhOYCKjR2dBNBaO7Pf5T4ObD5GBlv9v787Doqr6OIB/Z2UGGFYBQQUE3EXc0jRzSbNFTdvMtcxKU3vNtldNq7fSsk3LtLJMrdS0bHFrEU1TU9PMfRdRERCQRUAYZn3/AIFh7jB3YGAG+H6ex+eBc889c86Zyzj3d88CzyDh9RM+m9gTXyzui5Ed/LBy5c/VqpOt+iyYPqnSLBLFEIwb3KYaL1IT14J4HDFAREQulX3gLywWWNFZIuuPwZ2qvpUcUWVa393P5jHT8T14b/YiTJw0Dy++ssxmUEAi648ts293ylaaRFSzfLpMwC8zBzqhpFQsmjhd8Mj7b40tNwTfGyPe+FAwnynvf3j/h7KFWJ1XtzLB/f+DlRMcX59Hn3zNYnteSUB3/Hd6zc1vbzPkMfQVsUWpIiQQCgAdRkzFaBvbVhuP7qiZoIBIz//wAbppqhcorolrQSwGBoiIyIV02P7NWsEj3pP6oJWT9vQlqkgd1QvH1o6r8vmy2Afw5/kZiONoAaI6Qo573lqPPz+aVKWzJcq2aKyR4Pz38/HaUesddNT3f4LHKizGp+7wMFaOER5YvmDMuzhTOuTbOXWz5I3RS05g5QTHburnzHqoXHCjpG5vfovXO3iJOn/W+sP4Z+Vk8S/ocws++vJpu9mKzmcWL5aq7oj5ez4VXfzYaRNE5rReS2Hhr3/iw6F+os5+bMkevD/E1o4Pwus0CK+WUBPXgjgMDBARkQsVIWV/oeCRt0d04DQCqlHRg8Yh7dQXeO+Fu0SfE9t7ED7/+Utk7J2KrkHO3J6UiGqeCr2nfoKs87swb9r9os6IG/oU3l31CxJT30Y4AL1O4P8saSy+eWucwN7xKgx/c5XNJ+L6CnmrWzdrjTB6yV6c3PYVRverZOE6aSwmvrEMx5IL8GK/ptbH5VF49eA5rHzjMZtFdBz7Onadv44598Uh0Nt6UehGnrY/Lzs8vhgn139se+SANBbvvzaktH+Db30SBRd34/UxnW2WqbjjKazedwVfz5+Bp6SWrx3SyHr6gmdghNVrNmnRA8/+nIo/l9teq0AWNxordiZixYQeNvN4NrJePljWri18bXZJTVwL9nG7QqpXuF0hUd2TceEcDp9KR37Jvr/efv4IbxWDVqGO7SRBVC3ltptMT89Dvq7sK7u3fwCCwwIR2aQxgvy40CDVTQ15u0KbDFpkJCcj6WoKcrJvQAcASiW8vPwQ1rgxgkOCoRHYvtOg1aJQX/IZoVBArVLZCWQboNUW4uYpUCigUdmZhFTFulUmLzsFyYlJyMi5AT0U8PLzQ6PAQDRpEgaxRRnyMnD+3AWkpGdDB0DpFYzo1i0QUXHuv0GLvMLiBivUGpHla5FxKRlJV6/hhk4HpZcffH0D0SQiDBob52uzU3AuMQkZ5eoTEd0c0WHlxj0YDMgrLNnyV6G2uW112fuqgFqtglxu8UJIOHcOlzKyoNMBSi9/hIVHISYiSNxDDIMW2kJ9yRaxIt7/Cuc6+1oQwsAA1SsMDBARERFZY2CAiCrDqQREREREREREDRgDA0REREREREQNGAMDRERERERERA0YAwNEREREREREDRgDA0REREREREQNGAMDRERERERERA0YAwNEREREREREDRgDA0REREREREQNmNzVFSAicQwGHQxaIyCXQa5S8o+XiIjICbRaHQwGM+RyGVQq/u9KRA0TRwwQ1QG7F7wBH7+BCGh8DwIaDYSPd198d+aGq6tFRERUZ+lTj2C4pj8CGg1EcOO7ENBoAPxHfoerMLu6akREtY6BASI3Z844iOde2W6VnlWod3XViIiI6iy5Wo7rFYIARRs/wZKtGa6uGhFRreN4KSI3d2DlZpyo8MVFohyBu9r7urpqFehwes8RJN2wrGtoxzi0D/JwdeUacFuIqC4y5Kfh0D+XkCMUA/YORr8ekfwSV00SvxaY+Hggdi2zDATMX7AdkwcMRxAkrq4iEVGt4f8pRO5MexGfvrrTKnno+33QXO5mX1i0SXj2runYZTZZJN/x3qfYNKmNq2vntm3RanUNYs2IhtJOZ2F/NWz6pH3o2WamVVD4JlmHSUjaEwE/N7txrXvXrRJ3jh8DLFtgkar/81NsOXMfRrdSu7qCRES1hlMJiNxYyq4/sdZssEoffmeMq6smKEzgI0Xj6kq5aVv0GafxzK13Fa8Z4fMsfq6na0Y0lHY6C/uLAOD0lnibQQEAkPq71813Xb5uNe27YYpUaZW++Kfjrq4aEVGtYmCAyG0VYuuXP1ulyjo8iduaudNXQnKcEdvf/x+WHS8q/tV0BI89vwX59W7Bq4bSTmdhf1ExhVLl6io4oI5ft/JQ3Duzs1XykXk7cNZQR9pAROQEDAwQuSlzzlms2nzdKr338Dj3nPdoMCMFJqvkPFfXyy3bosPlS1rrl3V1u52uobTTWdhfVCx6wEDcLqkrX9Hq/nXbcUBXqzSzYTP+OH69CqUREdVNfOxI5KZSDxy2muMOAEP6NnN11YSpfPD4u1MwXFluSKZOB01HP1fXzC3bohQI7tTHD+SG0k5nYX8RAChC4/B79npcSMhCQW4CXrhjjuD/B+6irl+3fm1iMVgiwyaz0SJ942+JeLpjJ1dXj4ioVtSlz22iBsSIfzf+bZ0s64keMe62G0EJeTBGTHrQ1bVgW4iofpBrENVKAxhurnnivoGBuk7iHYaBgzTYtCnHIn3He4eQNKMjmrnjKD0iIidjYIDIHRnS8eeK81bJHvd2Q7S3qytH1SezSpH6SCCvd18+G0o7nYX9RQIM7j4ovz5ctxp06d0F2LTNItVc9DUOJo1Fs2YKV1eQaoQWKadP4ejxU7iUmQfAA4GBjdGsVQvExUbD4ZU+DHlIOHUOKTkli28qvRAW1QLRQXV1GWZqaBgYIHJD+ssJWGzSWaX37B4Nbzf6spWfmoJTidcAhe2PEp1ejnbdWsDPwe0VDfmZOH4qGTcgR+mAfr0BPi3aoFWQFAkH/sXvW/fjz12HkJhlwvHjFwBJcwx5pAceGNEfQwc49p96TbalmBGpZy7gQqYeXp5FOJ9r+f4aLqZh3+Gz8NJXchOgUKFpTDhCvd35o9sF7dTm4dC+Q/jtt3/w544T2Hk8AZA0R/t2EgRERqFPny7o0bsjbm0XKv6a0Obh+OkkXNcDVuuV26hfxoVEnL2aB6XVNSSHT+MgtGrm7x79VcfkJF3GuaQc4b9NhQ9iOzYtfV/1GSn4fcMu/Bj/N45fPILjJ8LRe1A7DH/0Hgy/t61Dn5/5qZexY+s/+PPPQzh2PAU7jydA2j4KvQJC0aFbe/QZ2A23dY6Cn6pqn8najMvY+tte/Lb5b/y96RBOwFxWfu9O6NO7E27rFgU/lUeV+86Qn4fLl67g1Inz2P/vOZw+moTErOswnwBOmC+gffuOaN+tI+66rwfu6tvSgc+22r9ua64txSJv6QBgm1X6kTMZGNYsrMrvAbmn3NNbMLntIKwyC1+j3o9+g4yvxkClTcWva9Zhy5ELANRQB4Sgx8ChGNI90uqco0ufQNyk7y3SJIohOJi5Hp007vPdjcgWidls5pKrVG+sXbsWJ47HY+aMsa6uSrWk71mHyIGLrNJf2/wdpvcJdnX1AADHvvsY3cf/YD+jNA47Uxagq7f4hbSyD8ejSa+5gsck8kGY/OAuLF6bW2kZsthB+GnVZAyI8nJpW4rlYc3U8Ri/LMPB84StOLgZw1vZb1ftq+12FmL3Nz/guUlfVrq1WylpHN765ik8ObRdpTeI+tQjGNzyucrndEuaY/WRTzEsSgXAiC3/exnD3v8blek3+z2sn3FLuYh8Q7kuqm73J29g4H//sJ1BGoe9WR8izpCFHz/9BmNe+dlmVomsP3459Dz62PlMSD9zGIve+xTvrzkjqo7/WTgP00Z1R6jYAIE2Ez8u+AJj5v5mP680DnPnxWLWf1daJCv6PIvkzcNsXseX9vyB9xZ+i2WbzonvbElzvLVyOp4Z2trOU6PavW5rti1l9KkH0bPFi1afJf3mfIzN02Kd0lZXi4/fjx07kzB//sJqlaMJnIIbBToMvbcjfvphiqub5bDC8z/Bs8UDleaRKIZgX+ZanJscjjErr1kd//Z8AUZEqy3Sjn42HnGTlluVw8AA1RV1ZclbogYl7dQpwfRgP09XV61EHv5esVVcVokXFA6Ocri4Z5/NY2bDZrtBAQAwHtuM+zoMwqd7013aFgBAfhp+XJ7l+Hk2fP3HZaeV5VS12M7CpON45tZhGDhpqbigAACYjuDl0c8gtMfnOJJj+6b/9NYt9hd6Mydi7e+JxT9rL2LpB//Yffkd83bggrZcXRvKdVFV2otYM2OX3WxHf/8dw4OGVxoUAACzcRvuiXsGW1P1NnLosH3BO4jsMk10UAAAPp46A9HB0/DzCfsr2Odd+Ke4rmKCAgBgOmIVFLBHn7QPbQa+4diNNACYE/Hy6KfR+397K99RoBav2xpvSzkKfz80F9gJYs/fCXVn60USIR9fvfiE3Vyydm0RgtP4blW24PHjJ6+6uiFETsfAAJHb0eHckaPWybKeiI12l8BA3Rmy/MLdH+Kf/Mpu8upOW6hY3ontCGzzTNm+6Q4yHvsWPSPm4h8bwQGxs4lvbl9pFjsH3KyFXlxOAgC5rPLjkuaA6QgmPjLPajV5m8yJWLPtosABI7a//SoGvfJr1epqOoJR3YfiuzM3bGbJPhyPkA4viq9rFWkz06p1/uH3Z2Kx3YBq7ajVtqgaoc/t1iMXDBezkO/qjiCnMSf/iU/W59jNZzxxEll1cr9loqpjYIDI7RiRle7utw9qdB/Zv8ZKj+zZ1aH8sb1vw5DeMcIHjXvwwTcnXNYWAIB3CAY/4rzdJB7t7aZbVtZCO805J/DErXMqPa99+44YMrgXere3HfQxG7fhzkm/CD4JjB5wh6g95CcPK77mJN4xmPTyLXbz9515N1qVH27eUK6LqpI3w4Mzu9g+bk4sDg44qMB6+RYk/LwUg+baHqkESXMMGdwLQwZXvnXd493m40i+9TVlzjmDibfPq/Tc3oN72f4cc4B3ZAzaVTKySdo+yu5rvTrnL9tPyWvxuq3xtlhQwsPH+u/eePI8ruRzxEB9cemfv3FM4HqQd5yKXefTkJ58Htu+X4KPvnoVsUFeCLHxf4Ha310e1BA5Dx+VEbkd4aePil63IMbbfeaoxY6dipQBw3DuSg50JXEMpaccp9Ysx9OLDlSrbP+O9yD3SmccO3wEM4bMEx7WLWmOD36ahZF9o0sXmdLmpOC7eQusXv+XTeeRM6k9/Gx8wazJthTT4NGl36PvSxeQlFkIpaIIG1/7H97fWfZ0URb7AH5cOAB+egN0NstRIapDlBsvMlfT7SzE2hdfFX7iKo3DB988hWH9WyDUu2yxtvyMFOz57TcMm/S11SlFG9/H4j97YHqfQIt0RWgX/J76Iw79sx9vD3nH5hPeYyeu4t7QZoA2HYeOCE//AYChs1/GrNG3oL3V4oMN5bqoun4z5+HSI4m4eDUPUMhx6ocKf5PmROuTZD3x+YYJeKhPJFT5SZj/5DOYvalkmL+kOcbcGWmR3ZxxBCPGrBF8/Q4jnsL8l+9Bt6iAsi9Mhjwc+n0rZoz42OqzyWzchgEv34akhXeUW+jSiM3zFgpfRyV1HXZbBLxLPscM2hzs27AJA8cvrVKfSfzaYc2mF/Hyu1tx3ccLLSJj0Kt3J3Rs3QRNwvzgrSq7TgzaPPy7YR36jv/KogzDnstIMQAtBS+p2rtua74t5SkR3roVsMl6rZAqTSEjt5SZelowfcGyN9Ar2hdAMO54KBp3lKRPXDwGX1RYN0DecToe6uoe6z0ROVP9+xZBVNdp07Fls/X4teLtn9yLX2g4bgkNt0jTHHPOf5ZyvxB06tVKcP9uieJ+/Hl2MroGWQ76VvmF4dF5L+H8jsfw/vHC0nRT9g1oXdiWYjKEt2qB4lfQ4ZSPEkDZF2l5ZBRuv6Wt49sjuZ2aa6f+wt8YvybTKt1j8FM4unIUmgmsQu4dFIaBY8fjxt098Z/o/2CZyXI0zpwZ6zFq7+PW+5R7+6FT34FYmxSF/4ZPFtwl5PVhY3HomVFQ71iHtceFb3+mLl+KeQ9X9hS4oVwXVRcU1RxBUcU/a05X/jfZ98WZ+HL2QITevBa8m+H5Nd9j2OEzuJxjRnjHtojys/wk/Wvpt4LrVExftRSvDRV47+QadBp0P35P7Yq3hk/CnJ2WA81vLHsDv03rWbIwJVB4ZieGL7IetaQeMRmHP3vY6rqVq/zQa/gYXO/XFc8JXLNiRPcdhLV9B9nNJ1dp0G3441i5+xeMKbeYoNmUhlytGbAZjK6967bm21LWptBmjZxQY3JnCljv+SxRDMFtMT6C+bs8vQyFj8xBclYh9PoCQBGImOgwt/s+RuQMvK6J3JCXwNMJU27dGMqo11W/jFICc7dlsQ9gX/x/0M7mlzwNYiJVQLnAgPHESVzJN6OxgyMunNoWC9ZPDk25ehhgBurVkynntjPhL4G1N6RxiP94OJpBD21l0R//Vnj7wHQs62I5DcF47GtsPjIcT8d5C54m8YvBe1krEfn0RLy0xnoRqg2LVtt8yUXx32F8D0eCSw3luqi6yv4mP9j8DSb1ERqWrkRUx1hECZ2kvYg1bx+0Sn5q+TK8NlTwjDLezfDyL8uAW8dhzvECi0NfbDiHYSUr2Z/ettvqVIlyBA4vfdg6IFWOIqg1Pk54H+einrO/GKZNOlw6fAJbtx/ElvgTuLDzME5IItG+nQSADwIiG6FD6xAcWW4dcBP/lLy2rtvaaItQ8/Zgb8INxNn4jKC6RWFj90+F2vY5Kv8wRPuDqN5jYICI6pQhT91TSVDANg4Fret0OHxAYIV60xH0bn5ntUo+dTYdqOxLvzwYU5auRkT0/zB87t/2C5T1xIZDs0RtlUnVJ5H1xy/HX0KfZo4/n847fcrqibzHkMmY/bDYtQuC8Z8v/4M53d+xSN0dfx7509rDG1oc+/eQ1Vkf/zGi0qBAaduC4vD+h/eg+7ObHW5bwp4/MOf5edajWcyJOH685OfjwM5NDhdd61zaFmkcYoI9ql8OuYw24zh27L0AeCtxZl+SdQZTHrb//BvSvSXQQQcoI9H3jg5QATBkX8DWbftwKbN4JKeHhwYRHXri9s6RTruJMuSlYu/2Lfh1+zbs++MIrh09hmPS9ujQPhAdbr0Vt985AHf1740If7FL4xJVDQMDRFSnmIvEbj5F9YsR+TW0KGf6NTG7G6gxeOY7+Dt6CbqP/9ZmLol8EA5dfREtxe5pT9UjjcMv52ehT1AV11IW+J49cUQPBDkQSNS064WFg5dg6qac0jTDX+dxSQu0UwGosHCdRHE/+rUXv3hf+/sG4vZpv4ofNWBIx9KnX8XUNafF5Xdn7tAW0xGcT7uBAaF+ru4NqqITq1/CPdNsbxFqNu7A1Id3WKRtvKjD4AgFjnw9xepciawv9mX/gW6a6n7Oa7FzyWz0efoD60OmYzh6FDh6dAdWfl68cOnTS+KxYMKABj21jGoWdyUgcjcGM24IzHeV+vBGgxo2pctHfRQiNaHyvavN5mxczqjaNopUBRIv+Kmrfl1c3HfcKq1VjKNjhvU484vlVAJINfCUA9CmYf8vlmsQKO+ORpAjj2UUcmSZxU4lu46lYybUj6CAu7RF1hNdbcw/p7ogHwe2ixjpVcHFzFwAgMIj1PqgVCN6W1vbrmH52GbCQQEbPpt4J0KeXols0WcQOYaBASJ34x0kuJeyKdcMPiunhkwnassxx4naqtqQjsVPjsKwudsrz2fcg/va3I1lbrIPPFWuaZeWVmmXUwscLEWByF4VnuEZM5CrBaDyR5telpOXi+ffO0AuR3MR22cCwP5PPrIYuSCkd+9O6N0+utJtAN1B7bfFiNSka4JHOBWtLpNDo5G5uhIVaLH+uXsxfuU1h8/MXTIWT37+j6sbQPUUpxIQuR0lND7W/4npdx/A+fyh6OpGWxaS8zSUESFVb6cMAcHCz2hemjUGhdft7TthQ0ERWre1M6w7/yJeHTDJYqcLe565czjO2t2RoCb7i8SQQ2mVNn/BdkweMFz0dIK8w7vx0s5cy3J7tUeENwAo4eFjeVOv37UDRzKGok+QuPJzTp22uWWmBW0CPp2+U/DQfS8+hxcevQ2xUY0shiEbtIXIzsvFrkUfYMwH+53Wr9W+bl3SFh0unz4jeETPBUDrMBVib+sHrPxe/CnSWLRrFlBjNco9uBLDPhTeCnniOyvx+H23opE+FZsWvY5pn2+1yvPTfxbg0MiV6FTtqQxElhgYIHJH9ezmv8pfqgxVe0Is9GTZWV/sauoLou73q8g2ANXdit6Qk4LtO07iap4BkMjg7R+ALn3iEF7FglNO/IOfNx7GRa0ZapUS4dHtcd/9nREkr1ofVL2dStw6ZDCwzHI/aVnsAxj90hNoWcX62KNPOoIJbV/AWrPwM95Xl82B8vf3MXttjtWxhY8/iWMJb+OHGT2qPCfUXa8Ld1Kdv0nvyCgMlsgsbrz1f36KqR+2xLfTOtkvIP88Zvaeb5Xc7pam8IMEgBqtu7cBNu0tO2g6ghkf7Maueb1FfAlLx6f/WSJ4pOIVmZdw1vo6lcZh3eG3cK+NhTDlKjWCVEr4q6xHJFSnX6t73bqmLQYU5Vqv4yCRhiCQa4bUaR1GL8ap216BwlOBf1c9i+GvbbHK8/HOk7gnSAI99IAiBDEiA3eO02LjhzMFj3y+7yqe6h5S8ls0nl0Sj+6dHkePSSss8pl1q7Fqxxx0GiJ2kVQicer+NwKiekeNTj06AWu2WSYb9+BYQgG6VmvLpEIc23EIJ9MLAIkKUV1icUuU+EWwxBB6pquo6k2byro0iYe9jy2Z4Fx0dRW+2Dm1LRVUDF6YDaeQlG9GMz/b5eckncaqxd9i0zUNNGt/hezNOfhi2q3wvtleQypmho/DYpPlyt2KPs/i0uZhJTcq4uUd/hUxvd6xSn/54NtIntdD1H8gzmxn6C1dcbvkK4tF2IzHfkSX2z2w+8fHEBcq4vbbUIjLCVdw5vwlXE3TIyA2FoNuaSqYNfvEdgzs/obgHveQ9cTqPdMxrJ0vMDwOkc0+wJj3d1hl2z5nJpqcn4bjnw1FqIhrpy5cF+LUzGeNs/8mJX4xePL5Ntj0geVaA+tnP4d7c17Fl7P72Xzfss/8g+e7zhAMGk0Z2b7057iBvYFX9locP7LoVYxt/DY+nXar7f7PT8LiaVOttkIEAKmPAioR71vHl8fZvJEGjLh0eD8WvfwmFu+0fg1H+rVGrtvabos2HX/uumGVLO8Z7tiaEOR+NEFoHRsEALgR3MTqsEQ5Cn1vaY3oWggA6c//ijECUwi6vBxfLihQ5taJr+LZKavxUYXP7yXr/sKcIc25ECE5FT/qiNyQT+NmgunpOQUAqhgYyD+PZ8ImWW3NNWrhx1g6PtaBgnQ4tHkLlv30N9KhgsXXNLUWa5ZX2FLOuAfTx81FmMAoiEZN22P0xLusbuiyz/yDz5bvxOGLSdhY4Uv3hs8XY/yeZmjWvjOefqavxZf2Swf+wKIl27Gj4rxU4x68MGYu7n5wMJ58OK7cF8+ab4swgWHxpiO4Z9QifDV7EG5rGwq1HDAUFiIrPR0n/z2F3779Ast2VhjKPnsmHrjvNzwcVfKa2hu4JDDk2LDnMtINgJ+Dn/jn9wjPY8z//AhS59yKZna/bDu7ne3w5hvd0bfCTZbx2Lfo0eJb9Bk/Ds+M6IHY5sHw0XgAhUXIzctD1tU0nDmVgN17D+DLNdZ71k/9bjXm3RtW+vulPX9g0bLtWLxGYHvEEl7j7sbgdjdvdDW4f8oQQCAwAACFaz5E9Hfb8eTLd2HK0wPRyuYbUTeuC7uc9FljyEnC6s82YvPhFHh5qx3+mwSARjHt8egTd6N9kK3t5mTo9/QYtPtgplUAaMf7byB6/nrM/WQk7u3TCgEqEwyQojD5In79djVeWiw8FFg9ciaGtir7HNC064n3evtYTTdYP3sm1r/WEx989SDu6h6FYI0nAB3y0q9h72+/Ycx/19rsm6JNP+CxJ4/AyzMID42/H/d2DAIENu04PHch/hc8HiPvbI8m/h4wFBYiLTkFh/Ycxo9ff41Nx23s9FHar2p0uKt/hc9N6z50+nXrgrbos3OQKLDzQ6/bIytpO9UL5jzo9UBt3GVnXxJeTHPq2N7CJ0iaY8Rbd+CjGZY7I+hT8lBYO1WmBoSBASI3FBwj/ARz56E0TO8TXKUyE3751eqLOgCsnrYU4x9YgJ5+4ha3Son/Frc9slxU3tJ6b9pq40g8Pt2iRdKe4WVPzQxJeOWWmYJ1BQDT8cNYc/wwgI347Kqq9Mm1PukvtOn3RqV12LlpKxKV3+Cjoc1qpy02KdEirgMAy1Eh+p0/YtTAHx2qT0qWFrh5AyiXwEvotc066A1w+BNf7mH7K4e4xdOc385u/5mMKa8dtHr6DQB/LluBP5etcKyRAI5fug6gODCgT92HNgPfsHvOjS9fxQt33LyWsvB2zKzKTzAdwdI5R/DNEROSvh1k40ajblwX9jjnsyYPK0Y9g6k7r9vNaftvEgDisWSXCcmbh9m8uVOE3oo1K0cgdozANpSmI5j19BHYeXdLSWT98ceCgRVeyxfjFzyHl7q8bn2CcQ9eGLMHLzjayeZEbFyTCABYs3wvtiZ9iR6RUbhdIrXc1tCciHenvoJ3HS2/XL+uWbPR4nPTmvOvW28XtCX/yhXB0UEx0c4dVUcNW9LxQ4Lpezasgue/HrD6n00J7P9dOEjNmzhyNu5KQOSG1BExeERi/ZG/O/48cqq4MntBXo7tY4UiFrYqkXbuslPbajxxBOfL7/OtLUK6yP26tccuI7+kP7SZ4lb3TUgp64cab0slYh8ZKfgeO0Qah9tEbKMlvy0cTZz5WMGYgQKRy6o7vZ3yZnjrzHsYLKmZVaa1aWmi855PzAEAmPMzcNhGIKsieyvS1+nrooQzPmvM+SnYsitfVF579LsP4LSdv8voYROx4917q/dC0jh8f+glxAmMXlC36odja8c5pT3WnZWIA+dzIfFrhY++vL9GXqL856YQZ1+3rmjLxQNHBdO7dQgFkbMofIRHfS6ZPh4Pjx6N0RX/PTwaH22/4eCrEFUNAwNE7kgVgn6PWH+x1+8+gEvO+a5swVMt/iYrICxEdF4xJLJwNC3/RdqBea3KmNDSJ3NyH3FPdXw0ZRMGarwtlfGOwfxd06v8WoreI7H1xFvoKuLpqzzMT9R8ZKvXUAqny3u1R4TYG8oaaKciNA7fZazEwvFtqlzuTbLYB/C/h8p2DlD5BIo+N6a5HwBA4u2P1g7cFFWasw5cF9Uh9rNG4h2GW9s5J2ohUbRFhIi/y26T/4u/Vz5VpdeQxT6ArWfex71RtuscPWgcLu5+s0aCWi1Cij/XWg+fiJ9n3er08st/bgqqgeu2dtuSh4M7racZSeSDcEs0B2uTs2iRePR49YspwS2sydkYGCByS2p0G9jPOtm4B3vP2x9aK6T9fQ8IfiH1GjcUnUVOIwCAiMEPYdmsu52yb3Ts4Afx/a7haFy+LFU03t74PAa3j6703D7jJ2Dr7LIF8NRRPbHl00fRu72N2y5Jc4yc/TLmPVS2im+Nt8UO/453IvPcUswZ31VUfmn7nvjvey/jz6M/4vovE9GzmeUX3PR9fwsuhDb1kU5VmofY+v77MaW99ZnzZt/m0JxbZ7cTAKAKxZMLP8X53W9jyuCWosq9Kbb3APz3vemI//tbZO+diq5BZfOjFVHdsGPZk7avI6DkWnoNMwbdnPITjGd2zsYjvSvfmrD34JHY8PFAu33n7teFPc75rNHg8S9nY/zgFtWqS+zgB7H+ryGitx6MHTYauVfW4ruPHhX1uRA7+EGsjl+J7L1T0TNUYTd/cMfb8V32D/hZZPnS9v3x8bIXbAYTpO074q1Vn2Fgs5uvrcTAmfNwasvL4gIQ0ji8+tkcfPbMLcLHBT43bXH+33nttcWcn4Itm/Os0j0f7YKoGtrxhBoiOZROWuBQpvHgVAJyOonZbK7auGQiN7R27VqcOB6PmTPGuroq1aZP2gffNjOs0vvN+RibpzmyWGA5+enY9NNuHEvOA6BE6x49MKRPJP9zcQP5qZfxz7/ncPJSBop0Zmi1Oqh8/dEoNABRTcIQ1aIxQv08KykhD4vvHW21wJlEOQKn0yeKWCjQFiNyUrORazDAoC8eZeFXjS821W+nsJzUyzj87zmcPJuMtLQixNzeFrpzCcj18EOjQB80bhqM8MYBCAlrBD9V3bni3fe6sFfx+vBZo0PqmUs4fuoSzl28huvaIgBK+Ab7ISIqCrHtmiE8yPFrtZQhD2eOn8fhgxdwISkLWpUSKijh6+uF0JgItG3dHNHNfKrRZzpcPnEGe/edwMmk4vdBpVLCN7gRIqLC0KZVGMJD/WvkPXH+33nNtiX7wDo06bfIKn36z9/htQFVW9fHHcXH78eOnUmYP39htcrRBE7BjQIdht7bET/9MMXVzXLI0c/GI26S5dpCEsUQHMxcj04aSbXyi8krmEfWF6u2v4/2XhKIm5TmieYdWsO/bn2gUh3AS4rITSmatcGc9l6YfdxybtnO744gY1p70U/ALHgHY/DYBzDY1Y0jK96h4eg7KBx9q3h+4Zm/rW7+AODjP0ZU8+ZPBr/QRvBzk3ba4nez3EHlU29z8qvUPve9LuxVvD581igR2qoFQlu1wJ01Ubxcg1YdO6FVx041Vv/wdrEIb1fFQHI1OP/vvGbbcmKrwA4ssp64s2ujGuohaqj0sJ4PajbugCQsFrHRyiqUSOQ8nEpA5LZ8MfT5u61Sjce24UASZ5ZReUb8uniJVWq/OQswvqOfqytHLsPrgsi+VKx/+1+rVK/HBqCbA9PsiMQIjGgtmP79L0cdLInI+fiJR+TGogYOxO2SCn+m5kT8GH/R1VUjN2JOPYy3l1nuyiCLfRRfTuvo6qqRC/G6ILIv78Rhwe1P33y0M4fVktOFtGgnmP7jtPH44XSh3fOzLyXg9KUsVzeD6ikGBojcmMSvFWY839Yq/duXdiGpitsWUv1zYM1mq/23v/lurEMLIVL9w+uCyB4j9n6zySpVFvsohnUVt9MNkSPUMYOwbGiA9QHTMTzUxhNzVm9DQkY2tNo8aLVa5GVnIOHYfmxY8R7G3OGJgMgYtG0xDoe0/A5IzsfAAJGb6/XkSKs0c9HX2HqC+9oSAOhwJS2t7FdJc7z18zcY1sz+CulUn/G6ILLHnHMeSxeftkqf8srdDKBRDfHGg6+8afPoK6MHICY4AGq1D9RqNXwCghHToTuGPv5frNpeNqJAL26VQiKHcJQUkZtTNLsVPz/TDsMWnbBIL9JznQECACUemLcYBfNcXQ9yL7wuiOzRpqVgk9lokSZRjsCUe0NdXTWqx3y6TMAvM9fj3re3uLoqRBYYGCByezIMnLcQl6akIaugOESs9vFHWKiPqytGRERUZ6lb9UPWlQ5IycqHXi+HwlOG4NAQeHO0QD2WL5iqd0p+sXnluOet9fiz8fPo8+ynDrdAomyLxhpeo+R8DAwQ1QkyBDULQ5Crq0FERFSPqPwCEeUX6OpqUC3xbNTKKk3Wri18FdXP71jZKvSe+gmyBo3C54vmY8aHP9mte9zQpzB6+P14ZMjdCHd1R1K9xMAAERERERHVezEPvQmzfha0hfriJ/kKBTQqlVPyO1o2APhH98L0Bb0w/T0tMpKTkXQ1BTnZN6ADAKUSXl5+CGvcGMEhwdCoeNtGNYtXGBERERERNQxyFVQaFVQ1kd/RssudFxQRjaCIaFf3DjVg3JWAiIiIiIiIqAFjYICIiIiIiETR64t3clAqZa6uChE5EQMDRERERERkl9Fogq4kMKBWK11dHSJyIgYGiIiIiIjIrsJCXenPapWiGiURkbthYICIiIiIiOwqLNSX/qxWMzBAVJ8wMEBERERERHbl5Nwo/dnTk1MJiOoTBgaIiIiIiMiu5OSc0p+DgnxcXR0iciJ5Tb+AwaCFwQBALodKXuMv5yIGaLUGAIBcpap2pzqzz5zb/+7bTiIiIiKqWckpOaU/N27MwABRfVJDIwa0OPjbF5hwRycoFGqo1WqoFQp07D8Gn284CK2rW10qH9tWf4UVK1aU/FuCb38/BYPYVqYcwmcvP40OEmVxG9VqKGQd8Oisz3AopdCFfebc/nffdhIRERFRbUlOzi79uVnTAFdXh4icSGI2m83OLTIVn42NxaSVmTZzeI39BBe/noRGLm588q+voum9b1qkKTovQNrBafC3c276vqUI6fFUpXk+33cVT3UPqeU+c27/u287ha1duxYnjsdj5oyxVSyBiIiIqP6Jj9+PHTuTMH/+wiqXMXnKSny27E8AQEri+2jc2NfVzSIiJ3HyiAEDfp05rNIbPwC48c1kjJyz1bUt15/F64PnWSXLIzzsDpHXJ2/BgB4T7L7ExNtGYHuGvbiLM/vMuf3vvu0kIiIiotp28lQKAMDHW8WgAFE949TAQO7RFbh33n6LNFncaLzxzhsY3cFy5dKtr9yJNacLXNbwfZ/MwhcmvVW6Kc/emflYOWUkjsHyRnjstNfxzsxHLdLMxh2478VVlQ6Pd2afObf/3bedRERERFT7jp1MBgC0ax3m6qoQkZM5MTCgxcb3ZlqkdH5uLTIOr8Qr/30FK49k4ueZAy2OP/X2j7B7H14DzMnxmDDth7JOiJWJPrfw1E8Yvz4L5U7Gt0cz8fWCV/Hft77C9VMb0VdS1q35X4/Fd6dza6HPnNv/7ttOIiIiIqptCQnpyL5e/OCmY1wzV1eHiJzMaYEBc/o+vFNumLjUazp+mj+83Fx9bwyd+wVmyDxKU26s+hL/2B2C7mxarJ4xqvRJeCwkMB0zig4O7Pl+lcXvL/y8HiNiyxZf8Wk9GMt/esEiz8J1+wXLcmafObv/3bWdRERERFT7dv91vvTnHj2iXV0dInIypwUGLu39w2LY+cSvnkB4xUyScDzx1ZOlv5qNO/D9zvMWWQwZZ7BuxRIsXLIES8r9W7FuJzJujlU35GDnuq+wcKFlniUrvsfxjMpXyc/a9yXGrLxW+vvNOpuOGe030nwZW9/YUdZ56qmYfE9zq2yR9z6Jp6SK0t8PvbURZwS2OnBWnzm7LHduJxERERHVvu07Tpf+3Pv2Vq6uDhE5mdM2j89MLfuwkMj6YtQdMYL5ou98CH0ln2KH2QQASEu5Xu7oNXwwoCtmHM0XPLfru3tw4KUeOLp0AvpM+l4wj6LT20j7d4bwrgLmy3ivl+VT7kc/+hl9T8zB+M//sd/IvCycNJXd+fZ//QFECfWgoiUeee0OfPHa78Uva0jE9UIzoJHUQJ85vyx3bicRERER1S6TyYTfthwHALSObozwcG5VSFTfOG3EgALe5UrVwMtGyEGiCUITWy9bmIZjx2wvYXc2IQHFt6veNvMYTiUgWSs8BP3Uiv9hnrGorC6qJ/Ha1LugSEsU20hoUHbTq1F52cwaFBxW8dSa6bMaKMud20lEREREtWvnzrNIzyxe/WnI4A6urg4R1QAX3IXpbR9St8KED8fYPDzwzr6QAwgMlNjMM/bdMWitsj5uzvoLk5/4yiLt5Z9fQxSAfJhqvxuc1WcuLcud20lEREREzvDVN3tKfx7xSDdXV4eIaoCbPZ6Vo/fU5dBnJeDDMdZDlH6a8zrW/fED3puz2uqY19gFSMjV4av/9BGYH2HAhjefKx2iDgAe/RfghbuaAjDAA7YDDUREREREDVV6ei6+++EAAKBzbDg6dYpwdZWIqAa4WWCgmNw/Cs9+cwk/v265hZ3x8FI83P8hfHTUcrrBgDd/QurX0xClUQiWl3v0Wwz78IBF2oolEwXXIZBqXN16IiIiIiL3MPetzSgsKp7MO+3ZAa6uDhHVELcMDBTzxtBXf8c/y1+oNNfzqw8gfvYw2L6fT8WnYydbpHgM+AT9mxiQnZGNvOx05OaW7Uhgyr2ObC23ySMiIiKihm3v3vP4ZOl2AECbmMYYOaK7q6tERDXEabsSOCIP4m+8u4ybh0+e+gyTDTesjim7LMUHI7tWen7u0c1WuxwUbZ2MYPVkwfxF22YiQj0Tj604gBWPVV62I6o7e96RPqvNstytnUqlEh/MX4W9+47XWBuJiIiI6pob+YVo3aaj6Px//XUODz7yKYxGMyQS4JNFYyCTufEzRSKqlhoJDJj1G7HtVBY6dQu0OpZ15C9sMJc9oYeHopKS8rH+5QcFgwIAoDv4JO6cFYgf51Y2YqBqVi/cjQWPdRXe9rDE5vW7kf0foTw52P7dj2W/SjSorJXO7TPnluXO7RSi0+nQv/+d6NrVeUEdIiIiorouLS0NJpO4BbdfeHEtFizeWvr7K9MHo0+fVq5uAhHVIKcFBlr0uQvA8tLfX1/8K57pNgYqi1xabFv+hkXK0N7NhQs0pOKjx9tj2sqsSl9361v3I+TUApz+bhrChVqj11WpPR7tw6CumKhujXtG+2HVymsAgKJtz2Hj6Ql4tLWn5Uue/x3Ttl8v/d1rxD1oo7Fe4NCZfebU/nfjdooRHByM3r17V+lcIiIiovpo//79uHLliqi8mVnFD+UkEmDG8/fgf68NdXX1iaiGOW08kLpNb8yQeZT+nv/1WCzanWaRJ3nnYgz/PL3sxb2mo29rH+vC8k5gZpcYq6BAx7ELcCr5FD4c09kivfCn59Dc51nsz7Aehq4OvQXLly/HqlWrLP59//16rF+/HuvXr8ZTHcrqLYsbjdXb/sHlL4dXuHEFABX6jppkkTLhmc+RapGSivkTJlikPDvqNoGynNtnTu1/N24nEREREdWsmOggjB1xK3Zvm465cx5wdXWIqBY4caJQKCZ++x+LlJdub4xZK7Yh4VICtq2YjaZ9XrQ4PvaLRxFePkGbiu8XzkI/3w6Yd7TA6hXenPcsWoe1xtSP5lkdMxUuRPfGcXj+3VW4kFcWIFCE3YJx48Zh1KhRFv96t1Lh9JEjOHLkGNKOGcrKOZ6M4/8cxbn0QsFWNrlzHJ6VKkt/L9r2HCL7z8D2Y+eRcGw7Zt7REjO255Yel6iexNg+kTXXZzVSlju3k4iIiIhq0uxZQ/DV8ifQo0eMq6tCRLVEYjabnbgSXSreiWtptdifEKnXdJzLmYeocsP/Ty0fj7bjl9s8585392DLSz1w8KPh6Drte9v5Fh7Alv9UMse88DCGenW1nM9egWrAUqTHPyG4dkH6zvkI6VP5bgk3vbDhAt4fUtmQ+Or1Wc2V5c7ttG3t2rWIj4/HmDFjHD+ZiIiIqJ66OZVg4cKFrq4KEbkhJy8tGornf/kBsZBUnk0ai5+PvGZ141eQa/+mURStnbXx9Xrk2ln93piVB4ONY8G9p+KX1++yW43OL/+EOUPszZOvXp/VXFnu3E4iIiIiIiJyFqfvOaJoMhB/X/wDz/bzEjyuvGMq/riwG0OirZb2Q4eHn8VT/ToKnieLG42JdxevhtrirkcxuoNSOF/HJ/HCA+0qr6RPG/x33kSbhyWyvlj0/tBKdiSQ455Xf8bWz2w/TX9uSTz+mjtMcM69M/usJsty53YSERERERGRczh5KoGl7EtncDwhGTd0Oii9/BEW3gKtIwJc3Wbn0mbj9MkTSEnPh06phL9fGFq2bQ1/MXfKNdxnTu1/N25neZxKQERERGSNUwmIqDI1OmDbP6IVbo+o53ueqvzRunMvtHZScc7sM6f2vxu3k4iIiIiIiKrO6VMJiIiIiIiIiKjuYGCAiIiIiIiIqAFjYICIiIiIiIioAWNggIiIiIiIiKgBY2CAiIiIiIiIqAFjYICIiIiIiIioAWNggIiIiIiIiKgBY2CAiIiIiIiIqAFjYICIiIiIiIioAWNggIiIiIiIiKgBY2CAiIiIiIiIqAFjYICIiIiIiIioAWNggIiIiIiIiKgBY2CAiIiIiIiIqAFjYICIiIiIiIioAWNggIiIiIiIiKgBY2CAiIiIiIiIqAGTu7oCREREVPcV5qQhNes6DAYAkMM7MAhhgRpXV4uIiIhEYGCAiIiIqqXo8nbc+9gbVukvfrkZg6I8XV09IiIisoOBASIiqgGFSDl7HhdTs6AHACigDmiElq1awk8prgRdTirOnE1EVmFJCQo1GkW2RMswP1c3jiow6gsF03XFwweIiIjIzTEwQERETldw5neMfvojq/SWT3+KJY+0FlFCIX574wksOFThhlPaEZ9umo/Waomrm0hERERUb3DxQSIicj658LCAEIX4IhSeAv9FSTwhc3XbiIiIiOoZBgaIiIiIiIiIGjAGBoiIiIiIiIgaMAYGiIiIiIiIiBowBgaIiIiIiIiIGjDuSkBERHWeLicR/xw8g8yC4q0NPQMj0KV7B/jJAMCIlFP7sfWPHTj873kcunABkqgo9IzuhO639cbtPTpUuoWiLjMRew+fQW7BzW0TPRHSsjM6RfnbOKMQZ/cfwIW066VbNXoGhqFL10pex5iHs0cO4d9/D+L4ySSkXj8CIBK+vqFoFB2J2Nax6NKlE8JE7PVoLMzEyUP/4O9D/+Lkv+eRcyERiZJIRDX3Q3S7Nojt0hndOndEiEbkMo7GPJw9eAA7d/+NkyeK+y8qKgph7W5Fv74D0adzBJT8NkFERFSn8b9yIiKq8xK3fYZZi/ZbpE398jfcH5CIRW88ix8O6SyOmS9cwF8XLuCv+B8wX9oRb30zFz3CPAVKLsRvc6dYb5so64nPf5mDFkrrbRMLzvyOidOtt2qc9Ml6DG/jY5V+7dgWzJ06D4dhrnDkQvG/Q38hviRl+CsrMOmOCBu9oMPRjV/i2fnfWR8yJ+LCBeDChUOI37gaAHDf8+9jypAuqCzUUHB5F+aO+x/2mE2WNbtwARcuXMDujasxr9cEzLnHwwnvIhEREbkKpxIQEVGdJ1cGWKVd3L0Wz90/2SooYMV0GC+PnYVDOQbh454SwWSj0WZlBJMVAg/or/27Cg9PfVsgKCDsx1/2I0/wyHX8+taDwkEBGzbMfxFDF8TbKA8ouLwdgx571SooUJF+9+eYPutjAEBzSEBERER1DwMDRERUL21YvhxHokRmNh3GrNX7IHSvr7BxsytyIL5teaex4MVlDp0iUSsFhvrp8Nfi6Xg3Pt/hKmg3vIX3N522PqBLwqfj5jpcXqLIAAcRERG5F04lICKieqk5JEi8IP5GtfDHX3Fu7G1oramdp97XTu0VfBov7zUKrw/vg6a+cty4egUHdsdj+cbdAABTmg4VxzUUnI3H7HVnBF/jvomzcHfPtvA1ZGHPzyuweONBqzy7PvwB5/q/jBbqsnZf2vUjNpltDYkgIiKi+oaBASIiqpfKP73uMvq/mDykBwLk2di75hO8u+4f6xOMe3AqNQ+tNT4OvErVZSZdskqTKEfi6/89hdCbwxHCo9CmW2+MfioJu7fswNVGnaGxOEOHPeuWCJb/wic/YnCbmwskhuGh599H2xbvYMr83yzymY1bsfXwE2jRo3FJShZ2rP5FuNKynnjl48no1bIxjDmXEb/mEywQ6ksiIiKqUziVgIiI6rUxr6/A+0/eg6gQP/gFNsc9U17Dc7d5CmeuxYfkcqXaOtFcBKGVDmSaZujz4Fg80ifaIt2Q8jfmxluvEtBizHvlggJl2g55FA9KrCdBrN9xDDdXYihKPoIVF4TXZXhl2au4o00TKGUyqAOb474p72Hx88Nqr9OIiIioRjAwQERE9dbwV1bgid4VV/H3xu3DxwnmP3QqpdbqZtAVWqWZ9T9i3MRFOHDhqqgYRd7Vy4LpD97Z0cYZobhjQherVGNmAYpKfs6+KDwtQXXfm+gTbr37QNshz+KjiX1qrd+IiIjI+TiVgIiI6iWJbAAG9AoXPObh5eXq6iG4RTsAf1qlmxJ+wH+f+AHS6AGYMvJu9OnZEYFq4aUO0xPPCaaf3BMP1Tml9egDOXBq/2HBc25+IbieeVXw+Oi+7WwuuNiqR09gyZ8gIiKiuomBASIiqpfMKLA5NcAzOAI9JVK7W/HVJP8O/TEuaqnNYfumhK34eM5WfIziRQRHDB2A0AqzD+RewlMiNix5FxuqWC+5RGCKg6Q5osM0Ns8xGgwgIiKiuotTCYiIqNZIlG4Sj/bwgGf1S6mmAIx59x30lNj/r3jDkrkYNfg57LxcUC5Vh6sJF5xWm8pu7SXSaDT2d5P3joiIiJyOgQEiIqo1qZevQicqpxF6iN9qsK6SBXbE3M0r8NxDt9vPbDqM/41fgHOFN/tFBrmHc7ZWlHgqKh1CaDYlIOlakejyiIiIqG5h+J+IiJzPKHxTn3ghU9zC/7qr+HuPVrhoV7fN2dTNcN+UN3D3iETsjP8Vq5ess9hqsTyzcSu++fVBvPFAawAyNAqJBHDaMpO0I175cBIiPSofBVBGhdDocKgry2JORGZ+vet5IiIiKsHAABEROZ3Sx0cw3fDvehxIGYTeYZX/95N9/G/B+f/yjh3RRO2cp+Q1xVBwo0rnKQObY8CIyRjw8FicPfgnvpqxQLAP9u45hrwHWkMDwGC23tkApsNAYBSiwqr2X7xgmQAuXUkHWkY6tc1ERETkHjiVgIiInE4eFIMHJQJr2JsTMefTzcir7GRjEla9uFzwUFxcS2hQm9Ro2V1gmL9xDw5dtG6FMfMw3nn2s+q9pEyDlt0GY+7mpRgs0IeyQD/c3DTQNyRCsIgd+85X+eW9fRsLpm/evAc5AulmZ7SZiIiIXIqBASIicj5ZMG4Z1ULwkH73h3jo7XVIyrMe6F6YeRqLJjyBH8zCw9b7dhcus2YJT2lYMn8NEgvLhvxnn92OFx96XvROB3mXD2Hjb38hJc/GEH11EHxgPTrCmFlQOp3Cv2mk4Km7Fr2LnZftrwmQl5aCy2mWAY6wdh3RXOB1Df9+gc82WU5byEs5gNkPv+DS3R2IiIio+jiVgIiIaoAMXe4dBax6VfCobstiPLplMTrf+SB6xsZAqcvBuUMHsPGvf22WKO8yDX1a1v5eAipPP8F00/lvMX7QPjw0ri9w5QjWxf/rQKk6HFz5GubHF9+U3zdxFob264qIED/IAMBYiJO7f8Zqs3XwRN7EBzfHEXg0uRX/vc0L7/5VYSi/ORGvPXY3xs9+H/27tEQjTzkAGYxFBcjOSMXFs0exY8uXiD+kB2Q98fkvc9BCWRwMkDRqgzujFPhcYBvF3z+YhISjo/Bg92ZIP/IXlm/cXevvBxERETkfAwNERFQj5GE9MW90a8xYddpmnn/jf8C/8eLKmzn17lqeRlCsSbcB6Ij1OCy0IKA5EeuWJ1ahVCNyC8pGCmxYMhcblhT/3KlTNA4dSrB5Zp+45lCW/qZGn7FP4t2/PhLMu2zOi1gmpjYWgxZ80XvsIHz++k+Cec/Hr8Y7It8zIiIiqhs4lYCIiGqIDN0ffx0TOqmqXdL4t1bijnCPapdTJZrWGDG6ldP7xidAODZfWVBAFvMUJtwRaZHm2WoI5o2+xam1a9J3DCZEKatfEBEREdUJDAwQEVHNkQVj5Pw1eO3x3lU8vyde/3I9xvZoYiejg1sbGs0oEEgWXo9fhu6Pv4pxIm+Ux85dis9mDbOTS4kWnfs71BUS+WAsem8kAoTq9+QcfPTMUIfKKy1XFoEAq50eAjDyw0WCix8KGTr9I3w03V6biYiIyF1xKgEREdUwX/R99HV0GXAcW37ZiM2r4pEoNCy/nOjbBmPYvfegT/e20Ii4N1X5hFulSZtHwEtmY2tDpQqhAgvsdWjqJ5xfForHPv8WTVZ9jrnLfxfMEjNwHJ597GG0D/PE1T3W2zX6qiz/y23SdwpWeLbCujXfY1MlowQg7YjxLz+OYf07VDKVQokOD07Dhh4DsPmn77Bk3S67fRZ922Dc2a8X+vbsjmChDJoWeOG31Yj7ehnmrhJus6zzg3hz4mj0aOmPa/9aTxnxVPFrBhERUV0gMZvN5uoXQ+Qe1q5di/j4eIwZM8bVVSEim3TIy8xGRmYWcvLzYChZX0+u1sDPNwBBQY2gUYt7Um3BqINOZyweJSCTQa20/4RfpyssnV8vU6qhFPGyxsIcJCel4lpOHgwA5Go/NGnWDCF+aqv6FOqMosrW5eXgWnYWrt+4gby8QgByqDV+CA4OQqNADRzuDaMOOdeuIT0rE/l5hTAAgFwOtdobgQGB8Pf3g1pMYy3anISrOYWl71XjsKYIC9RYvW5xm2WQKZWi+pOIasf+/ftx5coVLFy40NVVISI3xFA+ERHVMiU0gSHQBIY4t1iZEkq1Y6coHT0BgEzth/CWfgi3m1EJtcjilRo/hGn8EObEvvALCYNfiHNKrIk2ExERkfvgGgNEREREREREDRgDA0REREREREQNGAMDRERERERERA0YAwNEREREREREDRgDA0REREREREQNGAMDRERERERERA0YAwNEREREREREDRgDA0REREREREQNGAMDRERERERERA2Y3NUVoHrKkINje3dh+47tOHDwApJzc4vTfXzQsm0P9OndB31u64owDS9BIiIiIiIiV+JdGTmZAQfXvYvHH56NYzAL5ti+fj2WvF3889NL4rFgwgCoXF1tIiIiIiKiBopTCciJtPj1jcHo+vAsm0GBij6beCdCn/8OWldXnYiIiIiIqIFiYICc5ujyybj3td8dPi9nwSN4+qsjrq4+ERERERFRg8TAADmF/uJPiBu/vMrnfzV+LLZniBtlQERERERERM7DwAA5gQFbl8wTPCJRjsK6g4koNJuhL8zC3uUvCBdhOoavfjnq6oYQERERERE1OAwMUPUVnsGqd/4VPLTu5Ao82DkSKgBylT9uHfc+9r7zkGDe79bvQZ6r20JERERERNTAMDBA1ZZ7bi9WmQ1W6X7P/YT7ohVW6d3HTUEsJFbp2s27cT6P0wmIiIiIiIhqEwMDVG2Hf10nmP7ikB6C+2FKgttjdD+NVbpZtxr/XMx1dXOIiIiIiIgaFAYGqJpycOL3fYJHokM1Ns7xQ9e+PYQPGUBERERERES1iIEBqiY5VD4yq1SJchRaRaptnhMUHCZ45K+jF13dICIiIiIiogaFgQGqJi3ScwUe85vzAL3tsxQaT8H0vNxKTiIiIiKiOslkMjk1HxHA68WZGBig6sm9gj07bggequwWPzK2k6trTkRERES15MqVizAajU7LRwTwenEmBgaoehSARmCHAXn7nmimkdg8TQ8buw94uLpBRERERLXNDJNJ5+pK1JiiIi3kcgVkMplD+YxGA3Jzc0S/jtFoQEbGVVy9esXVTXaJgoIbKCrSuroatUbsdeXu3OV9Y2CAaoQ00BeqSo4bCoR3HwixMcWAiIiIqD4ym00wmXQwm+vvU8/09FQEBzd2KF9+fh4SE88iPT1V1GtkZFxFZmY6rl1Lg9HYsIaXG41GXL16BefOnXCLG8zaIva6cleOvG+JiWdx8uThGp06Ia/6qQYcXP0pfjieCs9Wd+PFx3pXeiNYW/QpB/Dpyu3Qwgd3Pv4EOgUpGmQdXE335684l/c0utkYNSD39BFMT7tWUK3Xlclk2Lx5Mzw8OPSAiIiI6gY/Px+Eh4fh6NHTos/x8fFGbm6+6Hx5eXlQKGr/O2lRkRZSqRRyucKhfN7eGgQGBiMzM0PU6wQFFd8g6vUNb4srmUyGxo2bIicny9VVqbL8/Fx4e/uIzi/2unJnjrxvCoUSBoMeEolERMlVI9dmnMGB0+kOnRTcuitaBRmxf+kreHv7dXj0D8YU0YEBLba9+zzm/pYC34534aN3JyG8GuGJigpTD+DZ6dMBANK+D6NTUKDdczISDuF0SuUfrF5h7dA5OqBadSi8uAXPjn8H6T5huPfZNzChX3ORrarZPqsWPZBnY1qAK/5MH3roIej1ehQUVC/AQERERFRblEo5vLw80LmzuJGTEokEGo0KubmFDuV76KGHar1tGRlXERIS5rR8ZFtN3jTWJJPJhMzMdIcCA/XpehHzvjVtGlnj9ZCfWD0Nvaf95tBJj60+gRUjw8u2qZN4iB96kHsMc2YswQ6zCZK/vPDmW08DcidexApl6Y8qMZUqPIwnW9yCDXaGbyk6L0DmwWnQVKMOJ9cvxRfb/wAA+N3/IiaUP8egRXZeIeRqDTQVK17TfVYdnj5oLpEBDg5/u7hnj2B6ZJhvtas0cuRIV/cKERERkWi5uTlITU1Cq1axdvPq9XqkpFyCyWRC8+Ytq52vJul0RQCKn3Y6Ix/VP+WvU7Ea2vViNpuh1+ug0xU5FDxxlNzTJ9Thk6o1C9wzEHESOXaYdYAxBXo94BZzEOzw6hNZ7SfggZGRpT+nWGzLl4/lD0Vg/PoseAz4BBnxkywDEO7cZ/JgxA3xBtZbD4GpdCSXjZH+rVsGu7pFRERERC6h1Rbi6tVkmM0m6HQ6NGoUgsDAoNLjOTmZ0Ol0MJnMKCrSls6/l8sVCAho5FC+vLzrSE6+BIlEgqZNm+PatauQSCTQ6/UICGgEf/9GVvUzGPQ4c+Y4PD290bx5C7vtyci4iuBg+/ca9vIVFWlL1g4woqhIi4CARggMrNp3Rp2uCGlpKVAolJBIgKKiIoSEhMHDQ2X1munpqfDwUMFg0MNkMkIuV+DatXRERsY4fINmMhlx9WoypFIppFIptNpCBAYGw8vL8rGjTleEzMx0yGRyGI0GZGdfg06nQ4cOt0AqLVseTq/XITn5MiQSQCqVWdW/sLAAV65chMlkRGRkC6SlpZSWHxgYDH9/+6Oqq1OeyWREauoVmEwmSCQSGAwGNG7cBCqVujSP2OvZketFTD9fu5aGtLQUmExGNG/eEh4eaqSlXUFu7nWEhDSx+Juz934YjUakpFxCZmYGfH39ER4eDZlMhqtXk3H16hUEBgYjJCQMSqWHqPetotzcHGi1hbh+PQsSiRQxMT418v4CgLzN48ugH/l52WoDcjlyD36CwK5TAAAf77uKZ7oHwlByk2cwACqVHID9OU3CrxiFedcS8XRaLtQ+YYjQuP7J981V9T0GfIIr8ZPQyGBAxXtaubz6Y/cjh76B5PPjkatXo0lMhGAeqdCQBDfss/KKBKYSmPUbsf9iLrr5C40A0OLMvs3CZTXAeWFEREREer0O6empaNasOWQyGfR6HU6dOgJfX7/SedR+fsVf9q9dSwNgtnlzJCafRuOLsLBwXL6cgNzcHERExAAoXhDt7NnjkEgkpeXcZDKZYDAYoNfb30FBr9fBZDKV3hBVNZ/BoMe1a2kICwsvucHU4/TpY1AqPaDRODbS1GDQIyHhNKKiWpXekOl0RUhIOI2YmLalazCYTCZcuHAGMTFtSp9Kp6RchtlsRkREjMXNrRhmsxnnz59GUFBIacClsPAGzp07hXbtOlmsqn/p0nlERbUuTQsJCcO5c6eg1+tK62w0GnHu3Ek0a9a8tA8KCwtw9WpyaTlqtSdCQsJw+XICMjJS0bRpJKRSKQwGPU6dOgIfH1/IZOLvbxwpz2w2IyHhDBo1Cim9QS0sLMD58yfRqlVsaZ+KvZ7FXi9i+7lRoxCo1V5ISDgFDw8VFAoF5HIFIiNbwNPTy6JMe++HTCZDs2ZRKCwshK+vf2m+4OBQFBbeQLNmZVPHxbxvFfn4+MHHp/gzICurbL0NZ7+/QMmuBHKVHHJ5yT8A8vLDMpQqAGXHVXbG52uzs5GRkYHsbNsrK6r8w9C6dWtEhFlH2gzl7wsNWmRkZCDDZlkGZGdnFL+etvhEBap+0yzVlDzIlpfrj5J/tjlSBxXColujdesIaCoUqc2tfCh+ZX1Wvi55JXXJyMiG1s49tqHCcTHvnVCbItoIR4xPnrZxkRtS8NfSHKtkiXIUurUQt44DERERUX0ilcpKgwJA8TBphUIJrbZmV5mXSmUIDW1a+rtMJkOjRiFIS7PeDUCp9ED79p3RokVbu+UWrxhv/0bPXj6drgiNGzctnYctlyvg5xeAzEzH1kgDgNTUK/Dx8bN4SqtUesDHxx+pqUmlaTdu5EEmk1kMVddofHH9ejY0Gh+HF7zLzEyH2WyyGIUhkUihUChgMpXdA5jNZhQWFljMOZdKZVbzy69dS4NcrrAIjKjVnoKLb0ulMjRpElk62kAuV5RcV5WvT2GLmPJycjJhMpksnlqr1Z7w9PQuCQJUXWXXi9h+BgAvL2/4+QUiOfkyCgsLYDbDKigg9v0AgICARrh+Pbv099zcHPj5Wd7XOPK+VWRrGQJnvr/2tys023+CqwjzQNal/Zg5rDPUAQEIDg5GQIAaHv2fxe5LFSuVj1UTb4FEIoHXA8uQVz59bBAUCgkmf3sEyfuWooPCE8HBwQgOUGPcV0fKlWHAvtVz0UGiREBAcPHrqRV4YM53OJVT9S0cTHmO5Ha8DoWn1kIikUAikeCLY9cBaPH9xIGQSDSYvP16cZ6fJqNXXBzi4uIgkXXAmtO5lfTZTTn4dcls9JN6wKekLsHBAVArJLj/+Y9wKENfIX/5vj6JvOQdmHZHJxHvnRA5utwzTPDIsi+3IFsgPeufX/GRwF69XiPuQQc3Gw1BREREVBtkMpnVImRSqdTqhqYmXrcilUqNwsIboutZ0c2h9/aGSYvJ5+npbVXH4vo5vtB0Tk6m4BQAb29vXL9uOS3WZLIeESuVylAV169nw9vbcnSDSqVGmzZxFsEHiUQCX98AnD17vGTqRPF9mJeXt0Uf5eVdh7e3qJXPBN8viUQCo7Fq15WY8nJzc6xusgHAw0OFGzeqOOoc9q8Xsf18U1hYM+Tl5SAl5bLgQoZi3w8A8PcPRF5ebunfa25uDnx8/C3yOPK+OfP9EMspa9vnf/0EIr+2Ttf9sRC9W17DwWsr0ancDV9eWgIAwJhXZDFkPy+vuAGfjuqITyuU5eldtrLBzndHos/0dVav99Mrj+Cn6nSsRvwWd1Wpg15fdktfPGTejOR9+6zyHT16tPTnK7l6AB42+wyGC3ijSwe8dlT4w/vnBdPw80dfYsPZvzEkumzYU1lft7Pqa8D2eyckqHUP9JVIscNsGRAp2vYcPtg4CHOGlBtRkHcCb9z2vGA5E+7r7jZLJxARERE1VDeHIJtMJot57WKlp6ciKEjcaAEx+SqSSmUO7+duMplgNBoFbxAVCiWMRmNpezUaXygUCuTlXS99upuVlSFqBIQQg0EveqvIiIhoXL+ehYyMNCQnX4Kvrz9CQ5tZ3IgajQa33qbPYNADMCAj46pFutlsdngaRnn2rhdH+hkofrru6+uPgoICm8EuMe8HUPw3o9H44Pr17JIpEmargJa7v2+O/6VXQnnHdPxx9BzOH9yAp6TFjTbrVuOjTacs8nmUG2ovt5EOALKOT2LV+vX4dOZENC/5G9af/8nihnzWqj9xMfk8ti6fVe36F276GacupeBSwiUkJCSU/ruUYfmM3nl18MPotX9i375tmNHPu7g/Ok7HtoMHsW/fPuzceRCjOwRW0mcGbHt1ZGlQQNbxSazbdxLpWem4ePQPzBhaEhE1HcODD3+Ea5X0tdj3TogkuCOG9xWOfs29ryXuf/4jbPjjD2xY8R76+XYQHC0gUQzBIwNjqv0eEhEREVH1GI0GSCTSKgUFDAYDDAaD3RtAsfls1U9opENlihejkwmOwDAYDKWL1QHFN7AeHioUFOQjLS0FaWkpCAgIshoaLtbNhevE8vUNQExMG7Ru3QEKhQfOnj1hMTRcJpPV+EiS6pDJ5FCp1AgKamzxr2nTyCpvuyfmenG0nwsLCyCTySGTSSudmmLv/bgpICAI2dmZyM/PtRq5UFw/937fnDJiAAA0E7/Epc/Go3jARAwWn1mLL1o8AAD4/vt9+HhkW3Fb/ZWQek3Hib1vo5VKAtx3X2n63m+XlP48afUJzBlZPMcpYtwcXO/eGb3aPoRjAovhiWHWb0T3yI1W6YrOC5B2cBpuDgZxZh2CWndCELQ46VMc+VA0j0DPzp1FPTk3Z/2NOfP+AQBIVE/iwM7Py57u+/fD2z8dg7pjW7x29Ab0h2bil9OT8Whr6+FT1X/v/PDIW3Mxucczgkd/XjANPy+ovC2PfvEmunEaAREREZFdMpkMZrPld83imxEfh/OZBb6yFhTk2xzybDQaIZVKbT5hzchIRVBQY7ttEJtPaGSAVltotZq/GL6+figouGHVTwUF+fD19bf4PT8/FxER0fDwUNsMkJjNZhQU5MPT07vS6RXe3hrk5eUKHrt2LQ2NGoUAKB5+LpFISkcpeHio0KRJOCSS4mHyN2+KPT01gjemBkPVFvEW2w6xvL19kJOTKXisoOCG1TQDMdepmOtFbD/flJaWgvDwKBQVaZGQcAp+foEWa8uJfT9u8vHxw5UrF5GdfQ1NmkRa1cHZ75uzOWXEgLzT/3C89MaymCKmHz7sV9yJVsPf7ZDI+mL9iTeLgwIW8nHy4P7iPMpRmHx/G4ujPm0ewNatc53fSQEe5SIoNVGHst4x5QF6kWdlHP+7dPj+o589Zz3kXxKOJ+aVDdtfv/OsVRnOeu8Cbp2Ira/fVaX+9X70S3z8WFyVziUiIiJqaFQqT2i1haU3Uzk5WYIrkIvJp9UWWNxMFW8NmI7GjZtalafTFeH48X9x7txJwXoZjUbodDqo1ZVvbi42H1C8qnxRUdkCjHq9Dnl5OVUa1h8a2gxZWdcsdlUwGAzIyclCaGiz0jRPT28olSqcPXsSR48ewIkTh5CQcKpki7uyQEVKymWcO3fSYuFCIY0aNYZOp7VYnM5sNiM1Ncni5lcqlZZsV2l5k2wymeDp6V36e1BQCPLzc6HVlq2zcO1aGgwGvdW5Yohth1gBAUEwGIq39isvPT1VMMhi7zoVe72I7eebdQkMDIJUKoVa7Qlf3wCkpl62yCP2/bipeE0CfxgMwiNanP2+OZtTRgwoIoPhb5Uqh4+PrNxv4qnvG4s+EQLzL8xZSE8s/kNWDeqFCJV1REsVFGSveJs8+i9A4qan4a23vDVXqDVlT/BruA6OSDpUtj5B1w5NBPNomoSX/VJkfdx5750c/V9dg5XZAzHmwwOi2+A19hOc/Wq8Q6NJiIiIiOoLrbYQ166lQasttFhxPT09FVqtFhkZV6FUelg8nVSrPREQ0Ajnzp2Eh0fxtn1CN01i8qnVnigqKkReXk7JDVgRIiKi4eUldOMjhVwuszmP29mjBQAgPDwaOTmZMBpNMJkMMBhu7j1fNr7WbDaXzGc3Ize3+KZQoZADkCAoqHHpU3Cl0gPNm7dAauoVKBTK0u3dmjdvabH9XU5OJjw8PNC8eVeYTEZotVpotYXIysqATqdFs2ZRAIqfIEulUruLLMrlcrRo0Q4pKUnIysoomWduRkBAsMX7KpcrcONGXsk2lf5QKJQwmUxQq72g0ZTd2CoUSkRHt0Zy8mXIZDLIZHJ4eXnD09MbOTmZUCqVkEikoq8rMe1w5DqVSqWIiWmL1NTLyM7OhFyugEQiQUBAI8GpAPauU7HXi5h+1umKkJ6eimvX0kq3EtTpimAwGHD9ehbMZqBJkwjIZDLR70d5Go2PzYX/xLxvarWX4Llms9kiqFKVzw27/Sc6ZyUcW83fPmNekfCBvCwcPKYtfU1nD7qQ+njAW6WCRlXJH3cN18ERCo+SD2xpLCIDhCNomqYtEAsJjsGMkEbWeZz73vlh9II96DxkNRbMWYAvth+2Xfc7nsIXs57D6DvaOG8+CxEREVEdo1KpERXVyio9ODi00qfijRs3FXyqX5V8FYdY26JQKNCuXWfBYyaTEUVFWsHV6KuSD4DFtnOVkUgkpX0VHBxWaV4PDxXCw6MqzXP1ajKiolpBIpGU3rx5eXlDqfTA1atlT9UbNQoR3XdKpQciIytfT0ulUqNjx+6iylOrvRAd3doiLSDA8uGk2OtKTDscvU7lcnlpAEUMW9epI9eLmH5WKj2s1jq4GTASarPY9+OmGzfyERLSxOZxMe8bUBwIKD+tQ6/XWwRuqvq5UZm6dU+mUEBTsmieVCNceQWqPi9G1E1yDddB6sCjcz1KtvswHcPFrAIgwnqRC21WVul6B+evOb6ti+PkaHPHo/j8jkfxQUYKLiZdQHJ62bYkXv5NEB0VibAgjhEgIiIicjVnDWE2myEqUCE2nyup1V7Izc2xekpdWHgDvr5VW4CQqqYuXC86XREKCwtK1+VwdGHMinJyspCUlIh27TqVbll6/XoWIiJqdqH2uhU0U6T3AAADlElEQVQYUEeg130arFqfDe2v/yLFALSq0IKsjPSqle0mdXBkFIJvYETpz4kX0oFO1oGBrHOHSn+OaWR/HpczaYLCEBsUhthafVUiIiIisqeg4EbpUOTU1CsIDg6t1g1N8dBo++eLzedK4eFRSE9PRUrK5XJbNxohk8mr/DSWqqYuXC+5uTlISUmCRuOD8PDoapfn5aWBWu2JxMQz8PAongoQERFjd8pKdTl1u8Kap0Jo8+JIiVm7FOu2XbE4mnt0Le4ZUPVtC2UaD9jfWbJm6lBU8lRft3M3krXiIrcRnXqW/vzhY1/iQsWIguECFs34oPhnaSzu7dNCVLlEREREVL95enohKqoVOnbsjtDQpm5/81WbpFIpGjdugrCwcISEhCEkJAyhoc0YFCBBjRqFoEOHrmjevKVT/o4UCgViYtogOrpN6bSHmg4KAHUuMCDH7fePKP1t9r334vM/jiIj4xK2rXoFvnEjqrxVIQAU/PQEftr1N3bt2mX5748/sOvfizVYB2907NkfAGDWrcbytTuRknIGG1avxv6UQptnld89wHTjHbS5awa2H7uI7LxsXDq2HTMHxmHe0eLpA95jZmNAmP2wBxERERERETUs1ZpKUGTnBrj8cYOI8+yVBwABvcdj2dC5GL8+CzAdw8T+cZhYnUbogbxyrzuq962C2Tzv/xKZP46HqibqACDq1s4A1gEA5o/ri/kl6d+euoFuYbb6xg8Tlq3Cl82H4BjM0P3xDu7o8I5VLql6KvYuehjl40xVfe+IiIiIiIiofrE5YqBD3Gj0lUgBie3YgUZTPFTC1oJ5HiWL8Mk0HhYRCFvn2SuvmB8eX3ccK2c+YHXk0Xd/Qvr1Y3hKWvxk3EMhIu7hE4I77rO/EJ5Uo0TZJoZVq4NCUbYNikeFfg3u/Ry2vvNYhReNhbdaUmnfqCMH4WDy35g3YYBApWMx8d3vcCXrI7TXWC6IWNX3joiIiIiIiOoXiblaS5EaoNUaIJerIJdXclylqnBzaes8e+VVKF2bjfSsXOihgE9AGPxLHokbDBB1vjM4WgeDQQuDQQ6VSm6zvOyswuLdD/yDUJbNft8YtHnIzspDgV4PhacnAizOt/HeOPzeERERERERUX1SzcAAEREREREREdVldWzxQSIiIiIiIiJyJgYGiIiIiIiIiBowBgaIiIiIiIiIGjAGBoiIiIiIiIgaMAYGiIiIiIiIiBqw/wNOuxPpYvpYcAAAACV0RVh0ZGF0ZTpjcmVhdGUAMjAyMS0wNS0zMFQxMzowODo0NSswODowMFZwEPIAAAAldEVYdGRhdGU6bW9kaWZ5ADIwMjEtMDUtMzBUMTM6MDg6NDUrMDg6MDAnLahOAAAAKHRFWHRpY2M6Y29weXJpZ2h0AENvcHlyaWdodCBBcHBsZSBJbmMuLCAyMDE4L0wFQQAAABd0RVh0aWNjOmRlc2NyaXB0aW9uAERpc3BsYXkXG5W4AAAAAElFTkSuQmCC;" vertex="1" parent="1">
          <mxGeometry x="762" y="155" width="512.63" height="610" as="geometry" />
        </mxCell>
        <mxCell id="b_tqEsNjGLbBsoasMbn9-32" value="" style="rounded=0;whiteSpace=wrap;html=1;strokeWidth=1;fillColor=#e1d5e7;gradientDirection=south;strokeColor=#9673a6;" vertex="1" parent="1">
          <mxGeometry x="400" y="690" width="140" height="100" as="geometry" />
        </mxCell>
        <mxCell id="b_tqEsNjGLbBsoasMbn9-30" value="" style="rounded=0;whiteSpace=wrap;html=1;strokeWidth=1;fillColor=#ffe6cc;gradientDirection=south;strokeColor=#d79b00;" vertex="1" parent="1">
          <mxGeometry x="400" y="320" width="140" height="100" as="geometry" />
        </mxCell>
        <mxCell id="b_tqEsNjGLbBsoasMbn9-28" value="" style="rounded=0;whiteSpace=wrap;html=1;strokeWidth=1;fillColor=#fff2cc;gradientDirection=south;strokeColor=#d6b656;" vertex="1" parent="1">
          <mxGeometry x="400" y="450" width="140" height="220" as="geometry" />
        </mxCell>
        <mxCell id="b_tqEsNjGLbBsoasMbn9-2" value="&lt;font face=&quot;Courier New&quot; style=&quot;font-size: 15px&quot;&gt;&lt;i&gt;&lt;b&gt;内存分配&lt;/b&gt;&lt;/i&gt;&lt;/font&gt;" style="ellipse;whiteSpace=wrap;html=1;strokeWidth=2;fillWeight=2;hachureGap=8;fillStyle=solid;sketch=1;fillColor=#e1d5e7;strokeColor=#9673a6;" vertex="1" parent="1">
          <mxGeometry x="-80" y="330" width="120" height="60" as="geometry" />
        </mxCell>
        <mxCell id="b_tqEsNjGLbBsoasMbn9-3" value="" style="shape=curlyBracket;whiteSpace=wrap;html=1;rounded=1;fillColor=none;gradientDirection=south;strokeWidth=2;" vertex="1" parent="1">
          <mxGeometry x="220" y="160" width="20" height="400" as="geometry" />
        </mxCell>
        <mxCell id="b_tqEsNjGLbBsoasMbn9-4" value="&lt;font style=&quot;font-size: 14px&quot;&gt;&lt;i&gt;&lt;b&gt;静态分配&lt;/b&gt;&lt;/i&gt;&lt;/font&gt;" style="rounded=1;whiteSpace=wrap;html=1;strokeWidth=2;fillWeight=4;hachureGap=8;hachureAngle=45;sketch=1;fillColor=#dae8fc;strokeColor=#6c8ebf;" vertex="1" parent="1">
          <mxGeometry x="250" y="130" width="120" height="60" as="geometry" />
        </mxCell>
        <mxCell id="b_tqEsNjGLbBsoasMbn9-5" value="&lt;b&gt;&lt;i&gt;&lt;font style=&quot;font-size: 14px&quot;&gt;动态分配&lt;/font&gt;&lt;/i&gt;&lt;/b&gt;" style="rounded=1;whiteSpace=wrap;html=1;strokeWidth=2;fillWeight=4;hachureGap=8;hachureAngle=45;sketch=1;fillColor=#d5e8d4;strokeColor=#82b366;" vertex="1" parent="1">
          <mxGeometry x="250" y="530" width="120" height="60" as="geometry" />
        </mxCell>
        <mxCell id="b_tqEsNjGLbBsoasMbn9-6" value="&lt;font style=&quot;font-size: 14px&quot;&gt;&lt;b style=&quot;background-color: rgb(234 , 107 , 102)&quot;&gt;编译期，确定分配内存大小&lt;/b&gt;&lt;/font&gt;" style="text;html=1;strokeColor=none;fillColor=none;align=left;verticalAlign=middle;whiteSpace=wrap;rounded=0;" vertex="1" parent="1">
          <mxGeometry x="240" y="240" width="90" height="40" as="geometry" />
        </mxCell>
        <mxCell id="b_tqEsNjGLbBsoasMbn9-7" value="&lt;font style=&quot;font-size: 14px&quot;&gt;&lt;b style=&quot;background-color: rgb(103 , 171 , 159)&quot;&gt;运行期，确定分配内存大小&lt;/b&gt;&lt;/font&gt;" style="text;html=1;strokeColor=none;fillColor=none;align=left;verticalAlign=middle;whiteSpace=wrap;rounded=0;" vertex="1" parent="1">
          <mxGeometry x="240" y="440" width="90" height="40" as="geometry" />
        </mxCell>
        <mxCell id="b_tqEsNjGLbBsoasMbn9-8" value="" style="shape=curlyBracket;whiteSpace=wrap;html=1;rounded=1;strokeWidth=2;fillColor=none;gradientDirection=south;" vertex="1" parent="1">
          <mxGeometry x="380" y="380" width="20" height="360" as="geometry" />
        </mxCell>
        <mxCell id="b_tqEsNjGLbBsoasMbn9-9" value="&lt;b&gt;编译期/运行期&lt;br&gt;确定分配大小&lt;/b&gt;" style="rhombus;whiteSpace=wrap;html=1;strokeWidth=2;fillWeight=-1;hachureGap=8;fillStyle=cross-hatch;sketch=1;strokeColor=#b85450;fillColor=none;" vertex="1" parent="1">
          <mxGeometry x="80" y="330" width="120" height="60" as="geometry" />
        </mxCell>
        <mxCell id="b_tqEsNjGLbBsoasMbn9-11" value="&lt;font style=&quot;font-size: 14px&quot;&gt;&lt;i&gt;&lt;b&gt;realloc&lt;/b&gt;&lt;/i&gt;&lt;/font&gt;" style="rounded=1;whiteSpace=wrap;html=1;strokeWidth=2;fillWeight=4;hachureGap=8;hachureAngle=45;sketch=1;fillColor=none;" vertex="1" parent="1">
          <mxGeometry x="410" y="610" width="120" height="40" as="geometry" />
        </mxCell>
        <mxCell id="b_tqEsNjGLbBsoasMbn9-12" value="&lt;font style=&quot;font-size: 14px&quot;&gt;&lt;i&gt;&lt;b&gt;malloc&lt;/b&gt;&lt;/i&gt;&lt;/font&gt;" style="rounded=1;whiteSpace=wrap;html=1;strokeWidth=2;fillWeight=4;hachureGap=8;hachureAngle=45;sketch=1;fillColor=none;" vertex="1" parent="1">
          <mxGeometry x="410" y="490" width="120" height="40" as="geometry" />
        </mxCell>
        <mxCell id="b_tqEsNjGLbBsoasMbn9-13" value="&lt;font style=&quot;font-size: 14px&quot;&gt;&lt;i&gt;&lt;b&gt;alloca&lt;/b&gt;&lt;/i&gt;&lt;/font&gt;" style="rounded=1;whiteSpace=wrap;html=1;strokeWidth=2;fillWeight=4;hachureGap=8;hachureAngle=45;sketch=1;fillColor=none;" vertex="1" parent="1">
          <mxGeometry x="410" y="360" width="120" height="40" as="geometry" />
        </mxCell>
        <mxCell id="b_tqEsNjGLbBsoasMbn9-14" value="&lt;font style=&quot;font-size: 14px&quot;&gt;&lt;i&gt;&lt;b&gt;calloc&lt;/b&gt;&lt;/i&gt;&lt;/font&gt;" style="rounded=1;whiteSpace=wrap;html=1;strokeWidth=2;fillWeight=4;hachureGap=8;hachureAngle=45;sketch=1;fillColor=none;" vertex="1" parent="1">
          <mxGeometry x="410" y="550" width="120" height="40" as="geometry" />
        </mxCell>
        <mxCell id="b_tqEsNjGLbBsoasMbn9-21" value="" style="shape=curlyBracket;whiteSpace=wrap;html=1;rounded=1;flipH=1;strokeWidth=2;fillColor=none;gradientDirection=south;strokeColor=#A9C4EB;" vertex="1" parent="1">
          <mxGeometry x="560" y="120" width="20" height="300" as="geometry" />
        </mxCell>
        <mxCell id="b_tqEsNjGLbBsoasMbn9-22" value="" style="shape=curlyBracket;whiteSpace=wrap;html=1;rounded=1;flipH=1;strokeWidth=2;fillColor=none;gradientDirection=south;strokeColor=#B9E0A5;" vertex="1" parent="1">
          <mxGeometry x="560" y="450" width="20" height="340" as="geometry" />
        </mxCell>
        <mxCell id="b_tqEsNjGLbBsoasMbn9-27" value="&lt;font style=&quot;font-size: 14px&quot;&gt;&lt;i&gt;&lt;b&gt;new&lt;/b&gt;&lt;/i&gt;&lt;/font&gt;" style="rounded=1;whiteSpace=wrap;html=1;strokeWidth=2;fillWeight=4;hachureGap=8;hachureAngle=45;sketch=1;fillColor=none;" vertex="1" parent="1">
          <mxGeometry x="410" y="730" width="120" height="40" as="geometry" />
        </mxCell>
        <mxCell id="b_tqEsNjGLbBsoasMbn9-29" value="&lt;font style=&quot;font-size: 14px&quot;&gt;&lt;i&gt;stdlib.h/cstdlib&lt;/i&gt;&lt;/font&gt;" style="text;html=1;strokeColor=none;fillColor=none;align=center;verticalAlign=middle;whiteSpace=wrap;rounded=0;" vertex="1" parent="1">
          <mxGeometry x="420" y="460" width="100" height="20" as="geometry" />
        </mxCell>
        <mxCell id="b_tqEsNjGLbBsoasMbn9-31" value="&lt;font style=&quot;font-size: 14px&quot;&gt;&lt;i&gt;alloca.h&lt;/i&gt;&lt;/font&gt;" style="text;html=1;strokeColor=none;fillColor=none;align=center;verticalAlign=middle;whiteSpace=wrap;rounded=0;" vertex="1" parent="1">
          <mxGeometry x="420" y="330" width="100" height="20" as="geometry" />
        </mxCell>
        <mxCell id="b_tqEsNjGLbBsoasMbn9-33" value="&lt;font style=&quot;font-size: 14px&quot;&gt;&lt;i&gt;new&lt;/i&gt;&lt;/font&gt;" style="text;html=1;strokeColor=none;fillColor=none;align=center;verticalAlign=middle;whiteSpace=wrap;rounded=0;" vertex="1" parent="1">
          <mxGeometry x="420" y="700" width="100" height="20" as="geometry" />
        </mxCell>
        <mxCell id="b_tqEsNjGLbBsoasMbn9-35" value="&lt;span style=&quot;font-size: 14px&quot;&gt;&lt;b&gt;&lt;i&gt;堆区&lt;/i&gt;&lt;/b&gt;&lt;/span&gt;" style="rounded=1;whiteSpace=wrap;html=1;strokeWidth=2;fillWeight=4;hachureGap=8;hachureAngle=45;sketch=1;fillColor=#e1d5e7;strokeColor=#9673a6;" vertex="1" parent="1">
          <mxGeometry x="600" y="600" width="90" height="40" as="geometry" />
        </mxCell>
        <mxCell id="b_tqEsNjGLbBsoasMbn9-36" value="&lt;span style=&quot;font-size: 14px&quot;&gt;&lt;b&gt;&lt;i&gt;栈区&lt;/i&gt;&lt;/b&gt;&lt;/span&gt;" style="rounded=1;whiteSpace=wrap;html=1;strokeWidth=2;fillWeight=4;hachureGap=8;hachureAngle=45;sketch=1;fillColor=#ffe6cc;strokeColor=#d79b00;" vertex="1" parent="1">
          <mxGeometry x="600" y="250" width="90" height="40" as="geometry" />
        </mxCell>
        <mxCell id="b_tqEsNjGLbBsoasMbn9-37" value="" style="endArrow=classic;html=1;exitX=1;exitY=0.5;exitDx=0;exitDy=0;" edge="1" parent="1" source="b_tqEsNjGLbBsoasMbn9-36" target="b_tqEsNjGLbBsoasMbn9-26">
          <mxGeometry width="50" height="50" relative="1" as="geometry">
            <mxPoint x="650" y="160" as="sourcePoint" />
            <mxPoint x="700" y="110" as="targetPoint" />
          </mxGeometry>
        </mxCell>
        <mxCell id="b_tqEsNjGLbBsoasMbn9-38" value="" style="endArrow=classic;html=1;entryX=-0.004;entryY=0.685;entryDx=0;entryDy=0;entryPerimeter=0;" edge="1" parent="1" target="b_tqEsNjGLbBsoasMbn9-26">
          <mxGeometry width="50" height="50" relative="1" as="geometry">
            <mxPoint x="690" y="620" as="sourcePoint" />
            <mxPoint x="740" y="570" as="targetPoint" />
          </mxGeometry>
        </mxCell>
        <mxCell id="b_tqEsNjGLbBsoasMbn9-45" value="" style="curved=1;endArrow=classic;html=1;strokeColor=#EA6B66;dashed=1;strokeWidth=2;" edge="1" parent="1">
          <mxGeometry width="50" height="50" relative="1" as="geometry">
            <mxPoint x="280" y="620" as="sourcePoint" />
            <mxPoint x="170" y="640" as="targetPoint" />
            <Array as="points">
              <mxPoint x="210" y="600" />
              <mxPoint x="270" y="510" />
              <mxPoint x="360" y="460" />
              <mxPoint x="420" y="310" />
              <mxPoint x="650" y="200" />
              <mxPoint x="760" y="300" />
              <mxPoint x="590" y="400" />
              <mxPoint x="400" y="430" />
              <mxPoint x="370" y="630" />
            </Array>
          </mxGeometry>
        </mxCell>
        <mxCell id="b_tqEsNjGLbBsoasMbn9-46" value="&lt;ul&gt;&lt;li&gt;&lt;font color=&quot;#ea6b66&quot;&gt;&lt;i&gt;&lt;b&gt;动态分配，不一定都是分配到堆区，使用alloca可以分配到栈区&lt;/b&gt;&lt;/i&gt;&lt;/font&gt;&lt;/li&gt;&lt;li&gt;&lt;font color=&quot;#ea6b66&quot;&gt;&lt;i&gt;&lt;b&gt;栈区也可使用动态分配alloca&lt;/b&gt;&lt;/i&gt;&lt;/font&gt;&lt;/li&gt;&lt;/ul&gt;" style="text;html=1;strokeColor=none;fillColor=none;align=left;verticalAlign=middle;whiteSpace=wrap;rounded=0;" vertex="1" parent="1">
          <mxGeometry x="-40" y="600" width="200" height="80" as="geometry" />
        </mxCell>
        <mxCell id="b_tqEsNjGLbBsoasMbn9-47" value="1.空间小，&lt;br&gt;2.速度快，&lt;br&gt;3.local属性强，自动释放" style="shape=callout;whiteSpace=wrap;html=1;perimeter=calloutPerimeter;strokeColor=#d79b00;strokeWidth=2;fillColor=#ffe6cc;gradientDirection=south;align=left;" vertex="1" parent="1">
          <mxGeometry x="590" y="170" width="140" height="80" as="geometry" />
        </mxCell>
        <mxCell id="b_tqEsNjGLbBsoasMbn9-48" value="1.空间大，&lt;br&gt;2.速度慢，&lt;br&gt;3.全局属性强，手动释放" style="shape=callout;whiteSpace=wrap;html=1;perimeter=calloutPerimeter;strokeColor=#d79b00;strokeWidth=2;fillColor=#ffe6cc;gradientDirection=south;align=left;" vertex="1" parent="1">
          <mxGeometry x="590" y="520" width="140" height="80" as="geometry" />
        </mxCell>
      </root>
    </mxGraphModel>
  </diagram>
</mxfile>
